<?xml version="1.0" encoding="utf-8"?>
<!-- Generator: Adobe Illustrator 26.3.1, SVG Export Plug-In . SVG Version: 6.00 Build 0)  -->
<svg version="1.1" id="Layer_1" xmlns="http://www.w3.org/2000/svg" xmlns:xlink="http://www.w3.org/1999/xlink" x="0px" y="0px"
	 viewBox="0 0 1190.6 850.4" style="enable-background:new 0 0 1190.6 850.4;" xml:space="preserve">
<style type="text/css">
	.st0{fill:none;stroke:#6F7271;stroke-miterlimit:10;}
</style>
<path class="st0" d="M269.6,394.9c2.7,135,0.3,171.7,24.9,155c32-21.8,9.5-34.9,4.4,12.4c-5.1,47.3-18.2-55.7-9.5-137
	s-18.2-248.1-18.2-248.1s4.4,173.9,26.2,234c21.8,60.1,7.9-241.5,7.9-241.5l11.4,412.3l21.4-239.5l30.4,239.5
	c52.2-65.1-38.1-229.4-23.6-305.3c14.6-75.9-8.4-193.9-8.4-193.9s37.8,131.1,23,221.4"/>
<path class="st0" d="M199.4,303.8L253.6,577l-41.7-289.1l32.9,210.6V242.9l3.9,112.5"/>
<path class="st0" d="M203.8,636.3"/>
<path class="st0" d="M89.7,636.3c45-21.9-27.5-141.3-39.1-237.5s44.8-107,44.8-107l16.4,268.6c9.2,150.6,8.3,69.1,6.2-2.9
	s-4.7-81.5,9.3-186.5s-21.7,29.4-4.6,93.1s20,141,20.5,103.6V291.8l3.1,275.9l45-219.4"/>
<path class="st0" d="M168.1,763.7c-9.1,2.2-19.3,4.9-27.4,0.1c-6-3.5-9.2-10.2-12-16.4c-4.8-10.6-9.4-23.9-2.1-32.9
	c7.9-9.8,23-6.9,35.5-6.6c3,0.1,7-0.8,7.4-3.8c0.2-1.3-0.3-2.5-0.9-3.7c-13.1-29.2-26.2-58.5-39.2-87.7
	c25.8,23.6,36.1,60.9,62.8,83.4c4,3.4,9.6,6.5,14.1,3.8c2.5-1.4,3.8-4.2,4.5-7c2.1-8,0-16.5,0.5-24.7c0.5-8.3,5.2-17.6,13.4-18.4
	c8.1-0.7,14.3,7.3,16.7,15s2.9,16.3,7.6,23c18.6-3.1,34.6-15.5,46-30.5c11.4-15,18.7-32.6,26-50c-18.1,32.8-38.3,60.4-44.4,95.3
	c21.1-9.3,36.6-33.7,59.6-32.2c1.3,16.9-6.2,34.3-19.5,44.9c-9.8,7.8-22.6,12.4-29.3,23c-1.9,3.1-3.2,6.6-5.7,9.3
	c-8.3,9.1-24.8,3.1-30.4-7.8s-3.8-24-2.3-36.2c3.2-26,2.9-76.2-3.6-96.2c6.5,20,12.8,58.4,10.7,78.7c-1.1,11.1-3.7,22.2-3.9,33.3
	c-0.2,11.2,2.3,23,10,31.2c4.6,4.9,11.4,9.3,11.2,16.1c-0.2,8.6-11.2,12-19.8,12.5c-20.9,1.2-15.7-13.2-29.1-20.1
	C211.8,752.3,181.6,760.5,168.1,763.7z"/>
</svg>
