<?xml version="1.0" encoding="utf-8"?>
<!-- Generator: Adobe Illustrator 26.3.1, SVG Export Plug-In . SVG Version: 6.00 Build 0)  -->
<svg version="1.1" id="Layer_1" xmlns="http://www.w3.org/2000/svg" xmlns:xlink="http://www.w3.org/1999/xlink" x="0px" y="0px"
	 viewBox="0 0 1190.6 850.4" style="enable-background:new 0 0 1190.6 850.4;" xml:space="preserve">
<style type="text/css">
	.st0{fill:none;stroke:#1A459D;stroke-width:15;stroke-linecap:round;stroke-linejoin:round;stroke-miterlimit:10;}
</style>
<path class="st0" d="M592.5,508.3c-33.5,0.2-67.4-0.2-99.8-4.8c-34.1-4.8-48.5-29.5-50.2-62.4c-3.8-64.6,12.4-133.8,30.2-195.6
	c17.4-60.4,43.2-118.8,81-169.3c10.8-14.5,26.2-29.7,44-26.4c8.5,1.5,15.6,7.2,21.9,13.1c25.6,24,43.4,55.1,58.4,86.9
	c42.4,89.7,65.2,188.9,63.5,288.2c-1.1,63.9-50.7,69.8-104.4,70C622.6,508,607.6,508.2,592.5,508.3z"/>
<path class="st0" d="M254.6,505.7c-34.5-0.8-69-1.6-103.6-2.4c-15.3-0.4-31.3-0.9-44.9-7.8c-28.8-14.7-40.9-53.1-50.5-81.7
	c-12.8-38.3-19.4-78.7-19.5-119c0-8.4,0.4-17.3,5.2-24.3c8-11.6,24.4-13.1,38.5-11.8c37.5,3.4,73.1,17.7,107,34.1
	C263.9,330,336.5,380,388,448.4c7.8,10.3,15.4,23,11.7,35.4c-4.8,16.3-25.2,21.3-42.1,22.4c-23,1.5-46.1,0.9-69.2,0.4
	C277.1,506.3,265.8,506,254.6,505.7z"/>
<path class="st0" d="M930.4,506.6c-28.2,0.2-56.3,0.4-84.5,0.6c-10.9,0.1-22.1,0.1-32.5-3.3c-35.5-11.6-25.1-44.2-5-65
	c78.5-80.7,172.3-151.9,281.9-177.4c20.6-4.8,46.3-6.1,58.7,11c9.2,12.7,6.7,30.1,3.5,45.4c-9.2,44.9-20.8,89.5-37.2,132.4
	c-6.4,16.7-14.2,34-28.9,44.2c-15.6,10.8-35.9,11.3-54.9,11.4C997.8,506.1,964.1,506.4,930.4,506.6z"/>
<path class="st0" d="M593.6,539.2c133.8,0.2,267.7,0.4,401.5,0.6c8.2,0,16.6,0.1,24.2,3.2c7.6,3.1,14.1,10.2,14.1,18.4
	c0,15.4-19.9,21.5-35.3,22.6c-55.6,4.1-111.5,4-167.3,3.9c-209.6-0.3-419.3-0.7-628.9-1c-12.6,0-29.4-0.4-39.3-9.5
	c-10.1-9.2-11.4-25.9,1.5-33.7c8.1-4.9,18.1-5.1,27.6-5.1C325.7,538.8,459.7,539,593.6,539.2z"/>
<path class="st0" d="M421,705.6c29.6-0.3,59.2,4.7,86.9,14.9c6.9,2.5,13.8,5.4,21.1,5.3c11.7-0.2,21.7-8.1,32.4-13
	c14.4-6.7,31.2-8.1,46.5-3.9c11.8,3.2,22.7,9.7,34.6,12.6c27,6.7,54.6-5,81.7-11.2c36.6-8.4,75.5-6.5,111.2,5.3
	c4.9,1.6,10.1,3.7,12.8,8c5.5,8.7-2,19.8-9.7,26.7c-27.9,24.6-64,37.9-100.3,46.2c-22.9,5.2-51.5,6.5-64.9-12.7
	c-6.2-8.9-10.5-22.5-21.3-22.3c-3.8,0.1-7.3,2.2-10.5,4.4c-8.8,6.3-16.4,14.4-25.4,20.5s-20.2,10.3-30.7,7.6
	c-19.4-4.9-32-31.3-51.5-27.1c-12.4,2.7-18.5,16.5-28.3,24.5c-16.3,13.2-40.1,9-60.3,3.4c-17.2-4.7-134.1-42.6-101.5-73.1
	c4.2-4,10-5.8,15.6-7.4C379.3,708.7,400.1,705.8,421,705.6z"/>
<path class="st0" d="M957.3,649.4c-0.5,5.7-4.7,11-9.6,14.2c-10.2,6.7-23.1,7.2-35.3,7.5c-211,5.1-422,6.9-633,1.3
	c-12.6-0.3-28.5-0.9-38.9-9c-13.9-10.8-6.1-24,8.8-29.6c8.7-3.2,18.1-3.3,27.4-3.3c217.1,0.4,434.2,0.9,651.4,1.3
	c12,0,27.6,3,29.2,14.8C957.3,647.6,957.3,648.5,957.3,649.4z"/>
</svg>
