<?xml version="1.0" encoding="utf-8"?>
<!-- Generator: Adobe Illustrator 26.3.1, SVG Export Plug-In . SVG Version: 6.00 Build 0)  -->
<svg version="1.1" id="Layer_1" xmlns="http://www.w3.org/2000/svg" xmlns:xlink="http://www.w3.org/1999/xlink" x="0px" y="0px"
	 viewBox="0 0 1190.6 850.4" style="enable-background:new 0 0 1190.6 850.4;" xml:space="preserve">
<style type="text/css">
	.st0{fill:none;stroke:#1A459D;stroke-width:15;stroke-linecap:round;stroke-linejoin:round;stroke-miterlimit:10;}
</style>
<polyline class="st0" points="144.5,351.5 238.3,152.8 278.9,361.4 382.3,226.1 431.9,503.7 281.3,461.9 566.9,229.6 606.7,457.7 
	455.3,320.4 763.8,382.8 782.4,124.8 707.5,468.9 656.9,269.3 875.5,317 918.5,239 849.2,234.2 771.3,466 917.9,355.4 "/>
<path class="st0" d="M1024.3,307.4"/>
<path class="st0" d="M1127.1,429.2"/>
<path class="st0" d="M764.4,521.1"/>
<polyline class="st0" points="1103,428.3 1132.7,432.5 1109.9,407.9 1042.6,429.3 1177.1,471.4 1129,361.6 983.2,421 1148.5,560.4 
	1015.3,632.5 929.9,433.5 958.4,647.6 820,698.7 812,608.1 924.9,593.8 876.8,460.2 760.4,506 773.4,721.6 647.8,558.8 625.6,710.1 
	546.6,574.2 583.5,593.8 452.6,660.7 497.2,599.6 560,711.1 374.4,721.2 439.3,578.6 308.2,609.3 374.5,538 345.4,725.6 
	211.1,574.3 306.2,549.8 216,477.5 204.6,700.6 128.9,417.5 51.4,398.4 13.5,645 162,688.2 111,455.4 69.1,459 38.5,616.9 
	115.4,642.2 96.7,484.3 81.5,550 68.6,600.5 93.8,611.7 87.6,592.4 "/>
<polygon class="st0" points="494.1,490.2 494.1,525.4 619.8,507.8 "/>
</svg>
