<?xml version="1.0" encoding="utf-8"?>
<!-- Generator: Adobe Illustrator 26.3.1, SVG Export Plug-In . SVG Version: 6.00 Build 0)  -->
<svg version="1.1" id="Layer_1" xmlns="http://www.w3.org/2000/svg" xmlns:xlink="http://www.w3.org/1999/xlink" x="0px" y="0px"
	 viewBox="0 0 1190.6 850.4" style="enable-background:new 0 0 1190.6 850.4;" xml:space="preserve">
<style type="text/css">
	.st0{fill:none;stroke:#003DA6;stroke-width:15;stroke-linecap:round;stroke-linejoin:round;stroke-miterlimit:10;}
</style>
<path class="st0" d="M151,563.4C189,420.9,345.7,417,354.1,377.1c3.5-16.3-6.9-27.1-26.6-27.1c-22.7,0-49.8,15.8-73.4,38l-57.7-72
	c42.4-38.9,87.7-58.7,141.5-58.7c68.5,0,154.8,34,133.1,124.7c-25.6,106.5-167.1,86.3-188.3,133.6l48.8-7.4H436L416.3,593H143.2
	L151,563.4z"/>
<path class="st0" d="M355.8,413.1C381.4,314,446,257.8,534.2,257.8c122.2,0,167.1,78.4,138,190.3c-25.6,99.6-88.7,155.8-176,155.8
	C388.8,603.9,321.7,541.2,355.8,413.1z"/>
<path class="st0" d="M548.5,434.9c17.3-66.1,21.2-94.6-16.8-94.6c-19.2,0-29.1,15.3-49.8,86.8c-24.2,83.8-14.3,94.1,16.8,94.1
	C520.4,521,531.7,498.5,548.5,434.9z"/>
<path class="st0" d="M550.5,563.4c38-142.5,194.7-146.4,203.1-186.3c3.5-16.3-6.9-27.1-26.6-27.1c-22.7,0-49.8,15.8-73.4,38
	l-57.7-72c42.4-38.9,87.7-58.7,141.5-58.7c68.5,0,154.8,34,133.1,124.7c-25.6,106.5-167.1,86.3-188.3,133.6l48.8-7.4h104.5
	L815.6,593h-273L550.5,563.4z"/>
<path class="st0" d="M1080.9,274.5c-31.6-40.1-90-64-156-64c-33,0-64,6.1-93.3,18.4c-27.6-11.9-59.9-18.4-94.3-18.4
	c-35.7,0-69,7.1-100.4,21.6c-25.5-12.4-59-21.1-102.7-21.1c-34.4,0-66.7,7.1-95.7,20.8c-28.9-13.7-63.5-21.3-100.6-21.3
	c-64.5,0-121.1,23.2-173.1,71l-32.2,29.6l78.2,97.6c-43,28.3-85.9,71.4-104.9,142.6l-23.6,88.5h587h183.6h187.6
	c0,0,56.7-220.5,63.1-246.9C1117.1,336,1098.7,297.1,1080.9,274.5z"/>
<path class="st0" d="M738.1,563.4c38-142.5,194.7-146.4,203.1-186.3c3.5-16.3-6.9-27.1-26.6-27.1c-22.7,0-49.8,15.8-73.4,38
	l-57.7-72c42.4-38.9,87.7-58.7,141.5-58.7c68.5,0,154.8,34,133.1,124.7c-25.6,106.5-167.1,86.3-188.3,133.6l48.8-7.4h104.5
	l-19.7,84.8H730.3L738.1,563.4z"/>
</svg>
