<?xml version="1.0" encoding="utf-8"?>
<!-- Generator: Adobe Illustrator 26.3.1, SVG Export Plug-In . SVG Version: 6.00 Build 0)  -->
<svg version="1.1" id="Layer_1" xmlns="http://www.w3.org/2000/svg" xmlns:xlink="http://www.w3.org/1999/xlink" x="0px" y="0px"
	 viewBox="0 0 1190.6 850.4" style="enable-background:new 0 0 1190.6 850.4;" xml:space="preserve">
<style type="text/css">
	.st0{fill:none;stroke:#010101;stroke-width:8;stroke-miterlimit:10;}
</style>
<text transform="matrix(1 0 0 1 -87.6422 -10.2339)" class="st0" style="font-family:'ArialMT'; font-size:12px;"> </text>
<path class="st0" d="M541.8,461.8c2.1,31.4,16.5,73,44.8,110.9V465C569.5,461.8,553.5,461.8,541.8,461.8z"/>
<path class="st0" d="M691.4,284.7c5.9,1.4,11.2,2.8,16.3,4.1c3,0.7,5.7,2,8.2,2.8c0.7,0.2,1.2,0.5,2,0.7c1.1,0.4,2.3,0.9,3.4,1.2
	c3.6,1.4,7.3,2.7,10.8,4.6c1.6,0.9,3.2,1.6,4.8,2.5l0,0c0.9,0.5,1.8,0.9,2.7,1.4c41.2-44.8,66.1-103,68.9-144.8
	c-34.6-3.2-76.8,7.5-119.4,28.8V284C689.8,284.1,690.5,284.3,691.4,284.7z"/>
<path class="st0" d="M748.8,489.7c1.6-3.9,2.8-8,3.9-12.4c0.7-3.4,1.2-7.1,1.6-11.5c0.4-3.9,0.7-8.4,0.7-12.6c0-1.1,0-2.3,0-3.2
	c-0.2-4.3-0.9-8.7-2-14.4c-1.1-5.9-2.3-10.3-3.7-14.2c-2.8-7.8-6.4-14.9-10.8-21.3c-4.3-6.2-8.2-10.7-11.9-14.2
	c-3.6-3.4-7.6-6.8-12.3-9.9c-3.7-2.7-7.8-5.2-11.9-7.5c-2.1-1.1-4.4-2.3-7.1-3.6c-1.6-0.7-3.2-1.4-5.3-2.3c-0.2-0.2-0.5-0.2-0.7-0.4
	v131.1c12.3,1.1,24,2.1,37.8,2.1c6.6,0,13.1-0.2,19.7-0.7C747.4,493.1,748.1,491.3,748.8,489.7z"/>
<path class="st0" d="M808.5,693.1c-2.1-31.8-16.7-72.5-41.2-109.6c-3.9,3.4-8.4,6.8-12.8,9.8c-3.6,2.5-7.1,4.3-10.7,6.2
	c-1.2,0.7-2.3,1.2-3.6,2c-8.9,4.8-18.3,7.3-24.7,8.7c-8.4,2-16.9,2.5-25.4,1.8c-0.4,0-0.7,0-1.1-0.2v51.9
	C731.5,685.1,773.8,696.3,808.5,693.1z"/>
<path class="st0" d="M815.2,387c1.2,3,2.1,6.2,3,9.1c0.2,0.5,0.4,1.2,0.5,1.8c0.4,0.9,0.5,1.8,0.9,2.7c0.9,3,2,6.4,2.7,9.8l0.4,1.4
	c1.4,6.9,2.8,14.2,3.6,21.7c0.7,7.5,1.2,15.1,1.2,22.7c0,0.9,0,1.8,0,2.7c0,5.7-0.5,11.5-1.4,18.1c37-13.1,68.6-32.3,87.4-52.4
	c-22.4-24.2-62.5-46.4-108.4-59.2c1.4,2.5,2.7,5.2,3.9,7.6C811.3,377.8,813.3,382.4,815.2,387z"/>
<path class="st0" d="M712.7,532c2-1.2,3.7-2.7,5.5-4.1c-9.6-8.5-19.2-16-29.3-21.9v40.7c2.8-1.6,5.7-3.4,8.4-5
	C703.7,538,708.5,534.8,712.7,532z"/>
<path class="st0" d="M606.8,248.4v350.9c4.8,8.5,11.7,16.5,19.2,21.9v-393C618.6,234.6,611.6,241.5,606.8,248.4z"/>
<path class="st0" d="M546.1,360.7c-2.1,8.9-3.6,17.2-4.3,25.1c0,0.4,0,0.9-0.2,1.2c11.7,0.5,27.7,0.5,44.8-1.6V276.7
	c-5.9,8-11,16-15.8,24.2c-4.6,8-8.7,16-12.3,24C553.2,337.3,548.9,349.3,546.1,360.7z"/>
<path class="st0" d="M538.6,425c1.1,1.1,2.3,2.1,3.4,3.2c11.4,10.1,26.1,20.8,44.6,30.4v-67.7c-18.3,10.1-33.2,19.9-44.6,30.7
	C540.9,422.7,539.7,423.8,538.6,425z"/>
<path class="st0" d="M504.1,360.7c-3.9,4.8-7.6,9.8-11.2,14.7c-2.3,3.2-4.4,6.4-6.6,9.8c-2.1,3.2-4.3,6.4-6.4,9.6
	c-1.4,2.3-3,4.4-4.6,6.8h-9.1c-13.3,0-26.7,0-40.2,0h-35.7c-0.9,0-1.4-0.4-2-1.2c-2.5-4.6-5-9.2-7.8-13.5
	c-3.9-6.2-8.4-12.1-14.4-16.5c-3.6-2.7-7.5-5-11.7-6.4c-2.7-0.9-5.3-1.6-8-2.1c-3.2-0.5-6.4-1.1-9.6-1.2c-6.4-0.2-13-0.2-19.4,0.9
	c-1.2,0.2-2.5,0.4-3.7,0.5c0,0.2-0.2,0.4-0.2,0.5c0.7,0.5,1.4,1.1,2.1,1.6c5.7,4.4,11.5,8.7,16.9,13.5c3.6,3.2,6.8,7.1,9.8,11
	c2.5,3.4,4.4,7.3,6.8,11c0.2,0.4,0.4,1.1,0.2,1.4c-0.2,0.4-0.9,0.5-1.2,0.5c-3.2,0-6.4,0-9.4,0c-0.4,0-0.7,0-0.9,0.2h-0.5v0.2l0,0
	v13.7l0,0v13.7h-0.2c0.4,4.4-0.2,8.9,0.2,13.5v7.3h33.8c0.4,0.9,0.7,1.6,1.1,2.5c1.6,3.4,3,6.9,5,10.1c4.3,7.1,9.1,13.5,15.1,19
	c6.8,6.2,14.4,10.8,23.1,13.3c5,1.4,10.1,2.3,15.5,2.3c2.5,0,5.2-0.2,7.6-0.2c5.9,0,11.4-1.6,16.7-3.7c5.7-2.1,10.7-5.5,15.1-9.6
	c5.5-5,10.3-10.7,14.6-16.7c3.9-5.5,7.6-11.2,11.5-17.1h35.5v-7.3v-14v-13.3v-14h-4.1l3.2-4.3l0.7-10.7c0-0.4,0-0.9,0.2-1.2
	c0.2-3,0.5-6,1.1-9.2c-2.5,2.8-4.8,5.9-7.1,8.7c-3.4,4.3-6.8,8.5-9.9,13c-2.8,3.7-5.5,7.6-8,11.4c-3.6,5.3-7.3,10.7-10.8,16.2
	c-4.1,6.2-7.8,12.4-11.9,18.7c-2.5,3.7-5,7.5-7.6,11.2c-2.7,3.7-5.3,7.5-8.2,11c-3.6,4.3-7.5,8-12.1,11c-5.3,3.7-11.4,5.7-17.6,6.4
	c-5.3,0.7-10.5,0.2-15.8-0.7c-9.8-2-17.9-6.9-24.9-13.9c-5.5-5.5-9.8-11.7-13-18.8h15.5c1.8,2.5,3.7,5,6,7.1c3.9,3.7,8.5,6.6,13.9,8
	c4.6,1.2,9.4,1.4,14.2,0.4c9.8-2,17.6-7.1,24-14.6c5.2-6,9.2-12.8,13.3-19.7c3.9-6.6,7.6-13.3,11.7-19.9c3.7-6,7.5-11.9,11.5-17.8
	c5-7.1,10.1-14,15.3-21c3.2-4.1,6.6-8,9.9-11.7c6.4-6.8,12.6-13.5,19.2-19.9c0.5-0.5,1.1-1.1,1.6-1.6c2.1-6.2,4.6-12.4,7.5-18.8
	c1.2-2.8,2.7-5.9,4.1-8.7c-7.5,5.5-14.4,11.5-21.1,17.9c-5,4.8-9.8,9.8-14.2,14.7C513.2,349.7,508.6,355.2,504.1,360.7z"/>
<path class="st0" d="M364.8,401.4c-4.3-8-8.5-15.8-13-24.2c0.9,0.2,1.4,0.2,1.8,0.4c4.4,2.3,8.2,5.7,11.4,9.6
	c2.8,3.4,5.2,7.1,7.6,10.7c0.7,0.9,1.1,2.1,1.8,3.6L364.8,401.4L364.8,401.4z"/>
<path class="st0" d="M673.3,574.6c5.3-2,10.5-4.1,15.6-5.9l0,0c3.4-1.1,6.8-1.8,10.1-2.8c2.5-0.9,5.2-0.9,7.6-0.7
	c2.5,2.8,2.3,5.7-0.7,7.6c-2.5,1.6-5.2,3.4-8,4.6c-3,1.6-6.2,3-9.2,4.4c-2.1,0.9-4.3,2-6.2,2.8c-3,1.2-6,2.5-8.9,3.9
	c-3.2,1.6-3.7,4.8-1.4,7.1c0.7,0.7,1.6,1.4,2.5,1.8c4.4,2.5,9.1,3.6,14,4.1c0.5,0,1.2,0.2,1.8,0.2c7.5,0.5,14.9,0,22.4-1.6
	c7.6-1.8,15.1-3.9,22-7.8c4.4-2.5,9.2-4.8,13.5-7.6c4.4-3,8.7-6.2,12.8-9.8c0.4-0.4,0.7-0.7,1.2-1.1c4.8-4.3,9.6-8.9,13.7-13.9
	c4.4-5.2,8.2-10.8,12.1-16.3c6.4-8.9,11.7-18.5,16.2-28.6c2.8-6.2,5-12.8,6.9-19.4c1.6-5,2.8-9.9,3.7-14.9c0-0.4,0-0.5,0.2-0.9
	c1.1-6.9,1.8-14,1.8-21.1c0.2-8.2-0.2-16.3-1.1-24.3c-0.7-7.5-2.3-14.9-3.7-22.2c-0.7-3.9-2.1-7.8-3.4-11.7c-1.1-3.4-2-6.8-3.2-9.9
	c-1.8-4.4-3.7-8.7-5.9-13c-2.3-4.6-4.6-9.1-7.5-13.3c-0.5-0.9-1.1-1.6-1.6-2.5c-3.6-5.3-7.1-10.5-11.2-15.3
	c-4.6-5.5-9.8-10.7-15.1-15.5c-5.5-4.8-11.4-9.1-17.4-13c-4.8-3.2-9.9-5.9-15.1-8.5c-1.6-0.9-3.2-1.6-4.8-2.5
	c-4.3-2.1-8.9-3.7-13.5-5.5c-3-1.2-5.9-2.5-8.9-3.2c-5.3-1.4-10.7-2.8-16-4.1c-2.5-0.5-5-1.2-7.5-1.8c-4.1-0.9-8.2-1.8-12.3-2.3
	c-0.2,0-0.4,0-0.5,0v-93.6c-6.9,3.2-16.5,10.7-20.8,13.9v428.2c5.3,5.3,14.4,11.2,20.8,14.4v-77.3
	C670.3,575.5,671.9,575.2,673.3,574.6z"/>
<path class="st0" d="M739,577.5c-0.2,3.4-2.8,6.4-6.4,8.5c-3,2-6.6,2.3-10.1,1.4c-3.4-0.9-5.9-5-5-8.4c1.6-6.8,7.5-9.9,13.3-10.1
	C735.3,568.9,739,571.6,739,577.5z"/>
<path class="st0" d="M668.7,307.8c1.1,0.2,2,0.4,3,0.5c3.2,0.5,6.6,1.1,9.8,1.8c2.5,0.5,5,1.2,7.6,2c2,0.5,3.9,1.1,5.9,1.8
	c6.8,2.3,13.7,4.8,20.3,7.5c1.1,0.4,2.1,0.9,3.2,1.2c4.1,1.8,8,3.7,11.9,5.9c6.4,3.7,12.6,7.8,18.5,12.3c5.3,4.1,10.3,8.5,14.7,13.1
	c1.1,1.2,2.1,2.3,3.2,3.6c3.4,3.9,6.6,8,9.8,12.1c3.2,4.3,5.9,8.7,8.4,13.3c2.8,5.3,5.2,10.8,7.3,16.3c1.8,4.6,3.4,9.4,4.8,14.2
	c1.2,4.6,2.1,9.2,3,13.9c0.9,5.5,1.8,11.2,2.1,16.9c0.4,3.4,0.2,6.9,0,10.5c0,7.5-0.9,14.9-2.1,22.2c-0.5,3-1.1,5.9-1.8,8.9
	c-1.1,4.4-2.3,8.9-3.7,13.1c-3.6,10.8-8.5,21-14.6,30.6c-3.4,5.3-7.3,10.3-11,15.5c-0.4,0.5-0.9,0.9-1.4,1.4
	c-0.5-0.2-1.1-0.4-1.6-0.7c-4.6-3.6-9.2-7.1-13.9-10.8c-2-1.6-2-1.6-0.4-3.6c2.8-3.6,5.7-7.1,8.4-10.8c5.3-7.3,9.4-15.1,12.6-23.5
	c0.9-2,1.6-4.1,2.1-6.2c0.9-2.8,1.8-5.7,2.7-8.5c2.1-6.8,2.8-13.7,3.4-20.6c0.4-5.5-0.2-11.2-0.5-16.7c-0.4-4.4-1.1-8.7-1.8-13.1
	c-0.4-2.5-0.9-4.8-1.8-7.3c-2-6.2-4.1-12.4-6.4-18.5c-1.4-3.9-3.6-7.5-5.5-11.2c-3.6-6.4-7.5-12.4-12.3-17.8
	c-3.7-4.3-7.6-8.5-11.9-12.4c-4.1-3.7-8.5-7.1-13-10.5c-0.4-0.2-0.7-0.5-1.1-0.7c-3.7-2.7-7.8-4.8-11.9-7.1c-3-1.6-6-3.4-9.1-4.6
	c-2.7-1.1-5.3-2.1-8-3.2c-2.1-0.9-4.4-1.6-6.6-2.5c-0.7-0.2-1.4-0.5-2.1-0.7c-3-1.1-6-2-9.1-2.8c-3.7-1.1-7.5-2-11.4-2.7
	L668.7,307.8L668.7,307.8z"/>
<path class="st0" d="M668.7,345.4c4.1,0.9,8.2,1.8,12.1,2.8c4.3,1.2,8.7,2.8,12.8,4.6c1.8,0.7,3.7,1.6,5.5,2.3
	c2.7,1.2,5.3,2.5,7.8,3.9c4.4,2.5,8.9,5.2,13,8.2c4.6,3.4,9.1,6.9,13.1,10.8c5.2,4.8,9.4,10.3,13.5,16c5.2,7.3,9.1,15.3,12.1,23.6
	c1.8,5.2,3.2,10.5,4.1,15.6c1.1,5.3,2,10.7,2.1,16c0.2,5.7-0.2,11.4-0.5,17.1c-0.4,4.4-0.9,8.7-2,13c-1.1,4.8-2.5,9.4-4.3,13.9
	c-0.9,2.1-1.8,4.3-2.8,6.4c-4.3,8.7-9.9,16.5-16.7,23.5c-3.9,4.1-8.2,8-12.8,11.5c-2.5,2-5,3.7-7.5,5.5c-5.2,3.6-10.5,6.9-15.8,10.1
	c-4.6,2.8-9.1,5.5-13.7,8c-1.4,0.7-2.7,1.6-4.1,2.3c-5.3,3-10.8,5.7-16.2,8.5V345.4L668.7,345.4L668.7,345.4z"/>
<path class="st0" d="M322.9,435.7c0.5-3.6,0.9-6.9,0.9-10.5c0-0.4,0-0.9,0-1.2l0,0l0,0c0-0.4,0-0.7,0-1.2v-0.2v-0.2
	c0-3.4-0.2-6.9-0.5-10.3c-0.2-1.8-0.2-3.6-0.4-5.3c-0.5-6.2-2.1-12.1-4.3-17.9c-0.2-0.2-0.2-0.5-0.4-0.7
	c-7.5-22.6-22.2-41.6-41.2-54v6v0.5v163.8v0.7v5.2C301.6,494.3,319,467.1,322.9,435.7z"/>
</svg>
