<?xml version="1.0" encoding="utf-8"?>
<!-- Generator: Adobe Illustrator 26.3.1, SVG Export Plug-In . SVG Version: 6.00 Build 0)  -->
<svg version="1.1" id="Layer_1" xmlns="http://www.w3.org/2000/svg" xmlns:xlink="http://www.w3.org/1999/xlink" x="0px" y="0px"
	 viewBox="0 0 1190.6 850.4" style="enable-background:new 0 0 1190.6 850.4;" xml:space="preserve">
<style type="text/css">
	.st0{fill:none;stroke:#010101;stroke-width:8;stroke-miterlimit:10;}
</style>
<path class="st0" d="M583.3,318.9c0.7,0.4,1,1,1.1,1.8s-0.3,1.5-1.2,2.1c0.4,0.3,0.9,0.7,1.4,1.4c0.2,0.5,0.3,0.9,0.3,1.4
	c0,1.1-0.6,2.5-1.9,4c-0.8,1-1.9,1.7-3.2,2.2c0.8,0.6,1.1,1.4,1,2.6c-0.1,0.8-0.6,1.5-1.4,2s-1.6,1-2.4,1.5l-3.2,1.9
	c-0.5,0.2-1,0.2-1.4,0c-0.4,1.7-1.6,3-3.7,3.8c-1.1,0.4-2.1,0.6-2.9,0.6s-1.5-0.2-2-0.7l-0.4-0.5c-0.1,0.2-0.2,0.5-0.4,1
	c-1,2.2-3.3,3.7-6.8,4.5c-0.6,0.2-1.1,0.2-1.6,0.2c-1.8,0-3.1-0.7-4.1-2l-0.3-0.5c-1.3,1.3-2.7,1.9-4.2,1.9c-0.4,0-0.7,0-1-0.1
	c-1.1-0.2-1.9-1.1-2.4-2.7c-0.1,0-0.5,0.2-1.1,0.5c-3.1,1.1-5.3,1.7-6.6,1.7c-1.7,0-3-0.5-3.9-1.5c-1-1.2-1.6-2.5-1.7-3.7
	c-1,0.3-2,0.1-2.9-0.6s-1.5-1.7-1.6-2.8l-0.1-0.1c-0.5,0.1-0.9,0.2-1.4,0.2c-1.7,0-3.2-0.7-4.7-2c-1.6-1.5-2.4-3.5-2.4-6
	c0-1.2,0.1-2.3,0.5-3.5c-1.2,0.1-2.3-0.6-3.1-2c-0.3-0.6-0.4-1.1-0.4-1.7c0-1.1,0.6-2.6,1.7-4.5c-0.9,0-1.7-0.6-2.3-1.7
	c-0.1-0.3-0.1-0.6-0.1-0.9c0-0.6,0.2-1.2,0.6-2.1c0.5-1,0.8-1.6,0.9-1.9c-2-2.5-3-4.5-3-5.8c0-2.2,1.8-4.7,5.5-7.6
	c0.1,0,0.3-0.2,0.5-0.3c-0.5-0.7-0.7-1.3-0.6-1.8c0.7-1.6,1.5-2.8,2.6-3.6c-1.6-0.3-2.5-0.9-2.8-2c-0.4-1.1-0.1-2.1,0.9-3
	c2.2-2.7,5.1-4.6,8.7-5.5c0.4-0.1,1.1-0.3,2-0.7c-1.1-1-1.6-1.8-1.6-2.5s0.7-1.6,2.2-2.9l2-1h-0.1c0.9-0.4,1.9-0.5,3-0.5
	c1.9,0,3.4,0.5,4.5,1.6l0.6,0.7c1.2-1.4,2.7-2.6,4.7-3.6s3.8-1.4,5.6-1.4c3,0,5.1,1.1,6.1,3.4c0,0.3,0.1,0.8,0.1,1.6
	c0.5-0.1,1-0.1,1.5-0.1c2.6,0,4.4,0.8,5.5,2.5c2-1.7,4.2-2.5,6.7-2.6c1.4,0.1,2.8,0.8,4.1,2s2,2.6,2,4c0,0.8-0.8,2.3-2.4,4.4
	c0.3,0.1,0.9,0.3,1.7,0.5c2.9,1,4.8,2.4,5.5,4.3c0.6,1.2,0.9,2.1,0.8,2.9c1.6,0.5,2.8,2.1,3.6,4.9c0.3,1.7-0.6,3.1-2.4,4.3
	c1,0.4,1.8,0.9,2.7,1.7c1.6,1.8,2.4,3.6,2.4,5.6C586.6,314.3,585.5,316.6,583.3,318.9z"/>
<path class="st0" d="M561.2,302.4l-0.3-0.1c-1.6-0.1-2.7-1-3.4-2.7c-0.1-0.3-0.1-0.6-0.1-1c0-0.7,0.4-1.9,1.1-3.4
	c-2.3,0.2-3.6,0.2-4,0c-1.7-0.8-2.8-2-3.3-3.6c-1,0.8-2.2,1.4-3.6,2.1c-1,0.3-1.8,0.1-2.6-0.5c-0.3,0.7-0.5,1.4-0.7,2.1
	c-0.4,0.8-0.8,1.5-1.2,2c-1.1,1-2.5,1.3-4.2,0.9c0.4,0.8,0.8,1.9,1.3,3.4c0,0.3,0.1,0.6,0.2,1.1c0,0.2,0,0.4,0,0.7l0.2,0.4l0.1,0.1
	c0,0.1,0,0.1-0.1,0.2l-0.1-0.1c0,2.2-0.6,3.7-1.8,4.6c-0.5,0.4-1.1,0.4-1.8,0.2c1.4,2.2,2.2,4,2.4,5.2c0,0.4,0,0.9,0,1.7
	c-0.5,1.3-1.2,2.2-2.3,2.6c1.3,1.7,2.1,3.2,2.4,4.3c0.9-0.3,2-0.5,3.3-0.8c2.5,0,4.1,0.2,4.6,0.6c1.3,0.9,1.9,2,1.7,3.3
	c0,0.2-0.2,0.8-0.7,1.9c1.7,0.1,3.8,0.8,6.5,2c-0.1-0.7,0.2-1.6,0.7-2.7c0.8-1.9,2.1-3,3.9-3.3c-0.1,0-0.1-0.3-0.2-0.9
	c-0.4-1.1,0-2.2,1.1-3.5l-1.3-1.1c-1-1-1.5-2.2-1.5-3.6c0-0.9,0.2-1.7,0.7-2.6s1-1.7,1.5-2.5s1-1.4,1.5-1.9l-0.4-0.3
	c-0.4-0.5-0.6-1-0.6-1.6C560.1,305.2,560.4,304.2,561.2,302.4z"/>
<path class="st0" d="M660.2,342.1c-0.6,1.9-1.9,3-3.9,3.1h-1.4c0.2,1.8,0.2,2.9-0.1,3.3c-0.7,0.8-1.7,1.1-3,0.8l-1.7-0.7
	c-0.3,0.7-0.8,1.3-1.4,2c2.4,0.6,4.3,1.4,5.6,2.5c1.6,1.3,2.4,2.9,2.2,4.8c-0.5,0.9-0.9,1.5-1.3,1.9c0.6,0.4,1.3,1,2.4,1.8
	c0.6,0.9,0.9,1.9,0.9,3.2c0,1.9-1,3.8-3.1,5.7c2.3,1.3,3.8,3.2,4.3,5.5c0.1,2,0.1,3.2-0.1,3.5c-1.3,2.8-3.1,4.6-5.4,5.4
	c-3.4,0.4-5.8-0.5-7.1-2.5c-1.5,1.6-3,2.3-4.6,2c-0.8-0.2-1.5-0.8-2.1-2c-1.8,0.8-3.2,0.9-4.2,0.2c-2.3-1.3-3.4-3.3-3.2-6
	c0.2-3.7,1.3-6.5,3.3-8.2c-1.1-0.2-2.1-0.8-3-1.8s-1.3-2-1.3-3.2c0-1,0.5-2.4,1.4-4.3c-1.1,0.3-2.1,0.4-3,0.4c-1.7,0-3-0.5-3.9-1.5
	c-2.4,1-4.2,1.5-5.5,1.5c-0.8,0-1.5-0.1-2.2-0.3c-0.1,1.1-1,2.5-2.6,4.1c1.4,0.8,1.9,2.5,1.7,5.2c-0.1,0.7-0.3,1.5-0.8,2.4
	c-0.9,1.4-1.4,2.2-1.4,2.2c3.2,1.5,4.9,3.5,4.9,5.9c0,1.7-1.1,3.3-3.4,5c-1.4,0.5-2.6,0.8-3.6,0.8c-1.6,0-2.9-0.8-3.7-2.4
	c-1.3,0.9-2.3,1.2-3.1,0.8c-1.3-0.6-1.9-1.7-2-3.1c-1.8,2.1-3.8,3.1-6.1,3.1c-0.7,0-1.4-0.1-2.1-0.4c-2.7-1.2-4-3.2-3.6-6.2
	c0.2-1.8,1.1-3.7,2.9-5.9c-1.4-0.3-2.2-1.1-2.5-2.4c0.1-0.7,0.8-2,2.1-4c-2.8-0.3-4.6-1.7-5.2-4.2c-0.5-3.4,1.3-6.7,5.4-9.9
	c-0.8-0.2-1.4-0.7-1.7-1.5s-0.4-1.3-0.3-1.6c0.3-0.7,1.1-1.7,2.5-2.9c-2-0.1-3.3-1-4.1-2.8c-0.1-0.5-0.2-1-0.2-1.5
	c0-1.3,0.6-2.9,1.7-4.9c0.6-1,1.6-2.2,2.9-3.6c-1.1-0.2-1.7-0.8-1.9-1.7c0-1.3,0.7-2.7,2-4c-0.2-0.1-0.5-0.3-1-0.5
	c-1.8-1.2-2.7-2.8-2.7-4.8c0-0.4,0.1-0.8,0.2-1.2c0.9-3,3.4-5.3,7.5-7c0.9-0.4,1.7-0.2,2.4,0.7c2.2-2.3,4.4-3.4,6.4-3.2
	c1.5,0.4,2.4,1.5,2.8,3.6c0.2,0,0.4,0,0.7-0.2c0.3-0.1,0.5-0.2,0.7-0.2c2.9,0,4.7,0.3,5.5,1.1c1.7-2.9,4.3-4.6,7.7-5.1
	c1.5,0,2.5,0.3,3,0.8c0.7,0.9,1,2.2,0.8,4.1l0.1,0.1c1.1-0.5,2.1-0.7,3.1-0.7c1.4,0,2.4,0.4,3.1,1.1l0.5,0.7
	c2.1-1.9,4.5-2.9,7.1-2.9c1.2,0,2.3,0.3,3.3,0.8c1.3,0.9,2,2.3,2,4c0,0.6-0.1,1.2-0.5,1.9c0.3-0.1,0.6-0.1,1.1,0
	c2.2,0.3,3.7,0.6,4.5,0.9c1.6,0.6,2.6,1.5,3.1,2.9c0.6,1.5,0.6,2.6,0,3.3c-0.1,0-0.4,0.3-1.1,0.7c1.9,1.6,2.9,3.3,2.9,5.1
	c0,1.1-0.4,2-1.2,2.6c1.5,1.4,2.2,3.1,2.2,5.1C660.7,340.5,660.5,341.3,660.2,342.1z"/>
<path class="st0" d="M659.8,338.9c-0.5-2.2-1.6-3.5-3.6-3.8c-0.5-0.2-0.6-0.5-0.5-1c0.4-0.6,0.9-0.8,1.5-0.6l0.9-0.6
	c0.4-0.4,0.6-1,0.5-1.7c-0.4-1.2-1.4-2.3-3-3.3c-0.5-0.1-1-0.3-1.7-0.8c-0.1-0.4,0-0.7,0.4-1.1c0.7-0.2,1.7-0.7,2.9-1.4
	c0.2-0.5,0-1.2-0.8-2.1c-1.7-1.3-3.9-1.9-6.8-1.8c-0.3,0-0.6,0.1-1,0.3c-0.4,0.2-0.7,0.3-0.9,0.3c-0.3,0-0.6-0.1-0.8-0.3
	c-0.2-0.2-0.3-0.5-0.1-0.9c0.4-0.6,0.8-1.1,1.3-1.7c0.4-0.6,0.6-1.2,0.6-1.7c0-1.1-0.5-1.8-1.6-2.2c-0.8-0.4-1.6-0.6-2.7-0.6
	c-1.5,0-2.8,0.4-3.9,1.2c-0.6,0.3-1.3,1-2.2,1.9c-0.7,0.8-1.1,1.2-1.2,1.2c-0.3,0-0.5-0.3-0.8-0.8c-0.1-1.2-0.6-1.9-1.4-2.1
	c-0.3-0.1-0.6-0.2-1-0.2c-1.1,0-2.2,0.5-3.4,1.4c-0.6,0.3-1,0.2-1.3,0c-0.3-0.3-0.4-0.7-0.4-1.3c0.3-2.1,0.2-3.5-0.3-4.1
	c-0.2-0.2-0.7-0.3-1.4-0.4c-3.1,0.5-5.4,1.8-6.7,4l-0.4,1.2c-0.1,0.5-0.4,0.8-0.8,0.8s-0.6-0.1-0.8-0.4c-0.3-0.5-0.5-0.8-0.5-0.8
	c-1-0.8-2.4-1-4.3-0.4c-0.1,0-0.4,0.2-0.8,0.3c-0.4,0.2-0.7,0.3-1,0.3c-0.8,0-1.2-0.4-1.4-1.2c-0.1-0.7-0.2-1.3-0.3-2
	c-0.3-0.5-0.7-0.8-1.1-1c-1.6-0.3-3.3,0.7-5.1,2.8c0,0.2-0.1,0.3-0.2,0.5s-0.3,0.3-0.5,0.3c-0.3,0-0.6-0.2-0.9-0.6s-0.6-0.6-0.8-0.6
	c-3.7,1.1-6.1,3.1-7.3,6.1c-0.2,1.6,0.2,2.9,1.1,3.9c0.3,0.3,0.8,0.5,1.5,0.7s1.2,0.3,1.5,0.5c0.1,0.2,0.2,0.6,0.2,1.2
	c-0.6,0.6-1.4,1.5-2.4,2.8c-0.1,0.5,0,0.7,0.1,0.8c0.2,0.1,0.8,0.1,1.9,0.1c0.7,0,1.2,0.2,1.5,0.7c0.2,0.3,0.1,0.6-0.3,0.9
	c-2.3,1.2-4.2,3.2-5.7,6.2c-0.8,1.9-1,3.3-0.7,4.3c0.3,0.7,0.8,1.1,1.7,1.3c1-0.1,2.3,0,4.1,0.2c0.4,0.2,0.6,0.5,0.5,0.8
	s-0.3,0.4-0.5,0.5c-0.4,0.2-0.7,0.3-0.8,0.3c-0.7,0.5-1.3,1.1-2,1.6c-0.7,0.6-1.1,1.2-1.3,1.9c0.3,0.6,0.8,0.9,1.8,1
	c1.3,0.2,2,0.3,2.1,0.4c0.3,0.3,0.4,0.6,0.3,0.8c-0.4,0.6-0.8,0.8-1.4,0.6c-1.3,0.6-2.5,1.5-3.6,2.9c-1.7,2.5-2.5,4.4-2.5,5.8
	c0,0.3,0,0.6,0.1,0.9c0.4,1.4,1.5,2.2,3.3,2.4c0.2,0.1,0.4,0.2,0.5,0.2c0.3,0,0.6-0.1,1-0.2c0.4-0.2,0.7-0.2,0.9-0.2
	c0.3,0,0.5,0.1,0.8,0.3c0.1,0.2,0.1,0.5-0.1,0.9c-0.7,0.8-1.6,1.9-2.8,3.5c-0.4,0.7-0.5,1.2-0.4,1.4c0.4,0.5,1.2,0.6,2.5,0.3
	l0.2,0.1c0.6,0.7,0.8,1,0.8,1.1c-2.6,3-4,5.4-4,7.2c0,1.5,0.5,2.7,1.4,3.5c0.8,0.7,1.8,0.9,3.2,0.8c2.5-0.2,4.5-1.7,6-4.4l0.1-0.4
	c0.1-0.3,0.3-0.4,0.6-0.5c0.4-0.1,0.7,0,1.1,0.3c0.2,0.4,0.1,1-0.2,1.8c-0.2,1.6-0.1,2.7,0.3,3.2c0.6,0.3,1.2,0.1,2-0.5
	c0.2-0.1,0.5-0.3,0.8-0.7c0.3-0.4,0.6-0.6,0.8-0.6c0.1,0,0.3,0.1,0.5,0.2c0.6,1.8,1.4,2.7,2.7,2.8c0.3,0.1,0.5,0.1,0.8,0.1
	c1.4,0,2.7-0.8,4.1-2.3c0.6-1.3,0.8-2,0.8-2.1c-0.1-1.7-1.1-2.9-3-3.8c-0.7-0.2-1.5-0.6-2.6-1.3c-0.1-0.5,0-0.9,0.4-1.4
	s0.7-0.9,1.1-1.3c1.3-1.3,1.6-3.2,1.1-5.5c-0.1-0.5-0.5-0.9-1.2-1.3s-1-0.9-1-1.5c0.5-0.3,1.1-0.7,2.1-1.4c1-0.9,1.3-1.9,1-3.1
	c0-0.2-0.1-0.4-0.3-0.7s-0.3-0.5-0.3-0.6c0-0.2,0.1-0.3,0.2-0.4s0.3-0.2,0.5-0.2c0.3,0,0.7,0.2,1.1,0.7s0.7,0.7,0.9,0.8
	c0.6,0.3,1.2,0.5,1.9,0.5c1.3,0,2.9-0.6,4.9-1.9c0.3-0.2,0.5-0.2,0.6-0.2c0.3,0,0.6,0.3,0.9,0.8c0.3,0.6,0.6,0.9,0.9,1
	c0.6,0.2,1.2,0.3,1.9,0.3c1.3,0,3-0.4,4.9-1.2c0.6,0.1,0.9,0.2,1.1,0.5c0.1,0.3,0,0.6-0.2,0.9c-1.5,1.4-2.4,2.8-2.7,4.3
	c-0.4,1.5,0,2.7,1,3.6c0.9,0.7,2,0.9,3.3,0.7c0.2-0.2,0.6,0,1.2,0.5c0.2,0.3,0.2,0.6,0,0.8c-1.2,0.9-2.1,1.7-2.7,2.5
	c-1.2,1.4-1.8,3.3-1.9,5.8c-0.1,2.6,0.7,4.2,2.3,4.9c0.9,0.4,1.8,0.3,2.9-0.4c0.2,0,0.5-0.3,0.9-0.8c0.3-0.5,0.7-0.6,1.1-0.5
	c0.3,0.2,0.5,0.5,0.5,1c0,0.7,0,1.1,0.1,1.2c0.2,0.4,0.5,0.6,1,0.6c0.8,0.1,1.5-0.2,2.2-0.9c0.6-0.7,1.1-1.3,1.7-1.9
	c0.5,0,1,0.2,1.2,0.8c0.3,0.8,0.6,1.3,0.7,1.4c1,0.9,2.2,1.4,3.6,1.4c0.8,0,1.5-0.2,2.1-0.5c2.1-1.3,3.4-3,3.9-5.3
	c0-2.3-0.6-4-1.7-5c-0.3-0.5-0.8-0.8-1.8-1.1c-0.9-0.3-1.4-0.7-1.5-1.4c0.1-0.4,0.4-0.8,0.9-1.2c1.8-2,2.7-3.6,2.7-4.8
	c0-0.4-0.1-0.7-0.2-1.1c-0.2-1-0.7-1.8-1.8-2.4c-0.5-0.1-0.9-0.1-1.4-0.2s-0.7-0.3-0.8-0.7c0.5-0.5,1-1.2,1.6-2.3
	c0.2-1.3-0.1-2.3-0.8-3.1c-1.8-1.6-3.7-2.6-5.5-2.8c-0.5-0.1-1.1-0.1-1.6-0.1c-0.6,0-1-0.2-1.3-0.6c-0.1-0.6,0.2-1,0.8-1.3
	c1-0.4,1.5-0.6,1.6-0.6c0.3-0.2,0.6-0.6,0.8-1.3c0.2-0.6,0.4-1,0.7-1.3c0.4-0.2,0.8,0,1.3,0.5c1.8,0.6,3,0.6,3.6-0.1
	c0.1-0.8-0.4-1.7-1.6-2.8c-0.1-0.3,0-0.6,0.4-1c0.4-0.3,0.8-0.3,1.2-0.1l1.1,0.4c0.9,0,1.6-0.1,2.1-0.4
	C658.8,342.7,659.6,341.2,659.8,338.9z"/>
<path class="st0" d="M638.9,339.3c-0.1,0.2-0.8,0.1-1.8-0.1c-1.6-0.2-3,0.7-4.3,2.5c-0.3,0.3-0.4,0.8-0.5,1.5
	c-0.1,0.8-0.3,1.2-0.8,1.4c-0.3-0.3-0.8-0.6-1.4-1s-1.3-0.6-1.9-0.6c-1.3,0-2.9,0.8-4.9,2.4c-0.6,0-1-0.3-1.4-1s-0.7-1.1-1.1-1.2
	c-1-0.4-1.7-0.5-2.1-0.3c-0.3,0-1.2,0.3-2.6,1c-0.2,0-0.5-0.1-0.8-0.3c-0.4-0.2-0.4-0.6-0.2-1.1c0.1-0.3,0.4-0.6,0.9-0.9
	s0.8-0.5,0.9-0.6c2-2.1,3-4,3-5.8c0-0.6-0.1-1.1-0.3-1.7c-0.3-0.9-0.7-1.5-1.1-1.8c-0.5-0.2-0.9-0.3-1.4-0.5s-0.8-0.5-0.8-1
	c-0.1-0.3,0.1-0.5,0.6-0.8c0.7,0.3,1.6,0.3,3,0.1c2.3-1,4.1-1.8,5.4-2.4c0.6-0.5,1.1-0.8,1.4-0.8s0.5,0.2,0.7,0.4
	c-0.1,0.6-0.1,1.5,0.1,2.6c0.1,0.3,0.4,0.6,0.7,0.7c0.5,0.1,1.7-0.5,3.6-1.7c0.4,0,0.7,0,0.8,0.2s0.2,0.8,0.2,1.9l1.1,0.3
	c0.3,0,0.7-0.2,1.3-0.6s1-0.6,1.4-0.6c0.2,0,0.3,0,0.5,0.1c0.1,0.1,0.4,0.3,0.7,0.7c0.1,0.3,0,0.5-0.3,0.7s-0.8,0.5-1.5,0.7
	c-1,1.2-1.5,2-1.5,2.3c-0.1,1.7,1.3,3.1,4.2,4.3C638.8,338.5,639,338.9,638.9,339.3z"/>
<path class="st0" d="M635.6,337.8c-0.2-0.2-0.5-0.5-0.9-0.9c-1.1-1.1-1.7-2.2-1.7-3.4c0-0.5,0.1-0.9,0.2-1.3c-0.9-0.2-1.6-0.8-2-1.7
	c-1.8,0.9-3.1,1.3-3.9,1.1c-1.1-0.5-1.7-1.6-1.7-3.3c-1.3,0.7-3.2,1.6-5.9,2.8c0.8,1.2,1.2,2.5,1.2,3.9c0,2.3-0.9,4.5-2.7,6.5
	c1.9,0,3.4,0.6,4.6,1.8c-0.1,0,0.2-0.1,0.9-0.4c1.5-0.8,2.9-1.1,4.2-1.1c1.1,0,2,0.3,2.8,0.8C631.5,340.4,633,338.8,635.6,337.8z"/>
<polygon class="st0" points="637.1,330 637.1,330 636.9,329.9 636.9,330 "/>
<path class="st0" d="M694.1,328.5c0.1,0.3,0.1,0.6,0.1,0.9c0,0.8-0.7,2.3-2,4.5l-1.1,1c0.5,0.3,1,0.8,1.6,1.7
	c0.1,0.5,0.2,0.9,0.2,1.4c0,1.9-0.7,3.8-2.1,5.6c1.9,0.8,2.9,1.7,2.9,2.7c0.1,0.9-0.4,2.7-1.5,5.3l-0.8,1.3c0.6,0.2,1.1,0.4,1.3,0.5
	c0.5,0.3,0.8,0.7,1,1.1c0.3,1.4-0.5,2.8-2.4,4.1c0.3,1.1,0.5,2.1,0.5,3.3c0,2.6-0.7,4.8-2.2,6.6c-2.4,3-5.6,4.8-9.6,5.3
	c-2.8,0.4-5.4-0.1-7.9-1.4c-1.9-1.3-3-2.5-3.5-3.6c-0.8-1.9-1.2-3.7-1.2-5.5s0.5-3.3,1.4-4.5c-2.1-1.1-3.2-2.5-3.3-4
	c-0.1-1.9,0.6-3.3,2.3-4.2c-0.6-0.4-0.8-1.2-0.7-2.4c0.3-0.6,0.6-1.1,0.9-1.5c-1.3-0.4-2.1-1.2-2.5-2.6c-0.1-0.7-0.2-1.3-0.2-2
	c0-1.4,0.3-2.6,1-3.8c0.7-1.2,1.7-1.8,2.9-2.1c-0.4-0.8-0.5-1.6-0.5-2.5c0-1.4,0.4-2.7,1.1-3.7c-1.9-0.8-3-1.7-3.2-3
	c-0.2-0.5-0.2-1-0.2-1.5c0-1.4,0.5-2.6,1.6-3.6c0.3-0.2,0.9-0.5,1.8-0.9c-0.5-0.5-1-1-1.6-1.6s-0.8-1.2-0.6-1.8
	c0.1-0.9,0.3-1.8,0.8-2.7c-2.8-1.3-4.2-2.9-4.2-4.9c0.1-3.3,1.8-5.7,5.2-7c1.2-0.5,2.3-0.4,3.4,0.2c2.9-2.9,6.2-4.7,10-5.3
	c2.5-0.1,4.9,0.7,7.4,2.3c2.2,1.5,3.1,3.3,2.9,5.5c-0.1,1.4-0.3,2.4-0.5,3c-0.3,1.1-0.8,2-1.4,2.7c0.5,0.3,1,0.6,1.5,1
	s0.8,0.8,0.8,1.3c-0.1,0.8-0.8,2.3-2.3,4.4c-0.3,0.3-0.7,0.6-1.2,1.1c0.5,0.3,1,0.8,1.7,1.6c0.1,0.3,0.1,0.6,0.1,0.9
	c0,0.8-0.6,2.2-1.8,4.2C692.1,326.1,693.4,326.9,694.1,328.5z"/>
<polygon class="st0" points="686.2,320 686.2,320 686,319.8 "/>
<path class="st0" d="M778.6,344.2c0.1,0.5,0.2,0.9,0.2,1.4c0,1.6-0.6,3.1-1.9,4.5s-2.7,2.4-4.3,3c1.4,0.8,2,1.6,1.9,2.5
	c-0.1,2.1-1.4,4-3.6,5.5c2.2,1.4,3.3,3.5,3.3,6.3c0,4-1.7,7-5.2,9c-1.2,0.7-2.5,1-3.9,1c-2,0-3.8-0.5-5.2-1.6
	c-1.5-1.1-2.6-3-3.4-5.7c-0.4,0.7-0.8,1.4-1.2,2.1c-0.5,0.9-1.1,1.5-1.8,1.9c-1.4,1.2-2.5,1.7-3.3,1.7c-1.2,0-2.2-0.6-3.2-1.8
	c-0.6,1-1.5,1.5-2.9,1.5c-0.6,0-1.9-0.6-3.8-1.5c-0.8,2-2.6,3.1-5.2,3.3c-2-0.1-3.9-0.6-5.9-1.7c-2.7-1.5-4.4-3.3-5.2-5.2l-0.3-1.5
	c-0.7,0.3-1.3,0.4-2,0.4c-1.9,0-3.6-0.7-5.2-2.1c-1.7-1.6-2.6-2.9-2.6-3.9c0-0.3,0.2-1,0.6-2.1c-0.4-0.3-1-0.8-1.8-1.4l-0.9-1
	c-1.1-1.1-1.2-2.4-0.5-3.9c-2.3-0.8-4.2-2.6-5.7-5.5c-0.3-0.6-0.4-1.2-0.4-1.8c0-1.3,0.5-2.6,1.4-3.8l1.3-1.1
	c-0.9-1.3-1.3-2-1.3-2.2s0.1-0.4,0.2-0.6l0.5-1.1c-1-0.9-1.6-1.4-1.9-1.7c-0.7-0.7-1-1.5-1-2.3c-0.1-2,1.1-3.4,3.4-4.3
	c0.2-0.1,0.4-0.2,0.7-0.3c0.3-0.1,0.6-0.2,0.8-0.3c-1.9-1.7-2.7-3.2-2.6-4.7c0.1-1.3,0.8-2.4,2.1-3.3c0.5-0.4,1.7-1,3.5-1.8
	c-0.3-0.8-0.3-1.3-0.1-1.5c0.5-0.8,1.3-1.6,2.5-2.3c-1.4-1.2-2-2.4-1.8-3.6c0.3-2.1,2.2-3.9,5.7-5.3c2-0.8,3.9-1.1,5.7-1.1
	c1.3,0,2.5,0.2,3.6,0.6c0.2-1.3,1.2-2.5,3-3.4c1.1-0.6,2.4-0.8,3.8-0.8c2.1,0,3.8,0.5,5.3,1.6c0.5-1.6,2.1-2.5,4.9-2.7
	c1.3-0.1,2.7,0.2,4.2,0.8l3.7,1.9c1.2,0.7,2.6,2,4,4.1c0.9-1.1,1.8-1.6,2.8-1.6c0.9,0,1.8,0.4,2.5,1.2c0.8,0.8,1.3,1.7,1.4,2.7
	c0.1,0.3,0,0.8-0.1,1.6c0.3,0,0.7,0.1,1.3,0.2c4,1.9,5.9,4.8,5.9,8.7c0,2.5-0.9,4.4-2.7,5.9c-2.4,1.9-5.1,2.8-8,2.5
	c-4.5-0.3-7.2-1.8-8.1-4.4c-0.4,0.1-0.7,0.2-1.1,0.2c-1.2,0-2.7-0.9-4.5-2.7c-0.5-0.7-0.8-1.4-0.9-2.1c-0.2,0.1-0.5,0.3-1,0.5
	c-1.9,0.6-4,0.4-6.4-0.4c-0.1,0.7-0.4,1.6-0.8,2.7c-0.5,1-1.3,1.5-2.5,1.7c-0.3,0.1-1.3,0.1-3.3,0.1c0.8,1.8,0.7,3.4-0.2,4.9
	c-0.4,0.5-0.7,0.9-1.1,1.1c2.9,2.6,4.2,5,4,7.1c-0.2,1.9-1.5,3.3-4,4.3c0.7,1.8,0.5,3.5-0.5,5.3l-0.6,0.6c1,0.7,2,1.5,3,2.6
	c1.2,1.3,2,2.9,2.2,4.8c3.1-0.2,5.4,0.7,6.8,2.5c0.4-0.4,1-0.9,1.9-1.6c0.6-0.3,1.3-0.3,2.1-0.1c0.8,0.3,1.3,0.7,1.5,1.3
	c1.9-1,3.4-1.3,4.6-1.1c-0.4-1.5-0.2-3.1,0.6-4.9c0.1,0,0.2-0.2,0.3-0.5c-0.9-0.3-1.6-1.1-2.2-2.4c-0.3,0.1-0.7,0.4-1.4,0.6
	c-1.8,0.6-3.6,0.4-5.5-0.4c-2.3-1.7-3.5-4.5-3.5-8.4c0-2.1,0.6-4,1.9-5.7c1.7-1.9,3.7-2.9,6-2.8c4,0.7,7.1,2.4,9.2,5.2
	c1-1.5,3-2,5.8-1.5c0.8,0.3,1.5,0.7,2.1,1.2c1.9-2.3,3.9-3.3,6-3.2c1.6,0.1,2.7,0.6,3.4,1.6c1.2,1.8,1.5,3.5,1,5
	C776.8,341.2,778.1,342.5,778.6,344.2z"/>
<path class="st0" d="M777,345.5c0-1.1-0.9-2.3-2.6-3.6c-0.1,0-0.4-0.2-1.2-0.5c-0.5-0.2-0.7-0.5-0.8-0.8c0.8-1.4,1-2.4,0.8-3
	c-0.7-1.1-1.4-1.8-2.2-2.1c-1.7-0.6-3.2-0.2-4.6,1.1c-0.5,0.3-0.8,0.8-1.1,1.4c-0.3,0.8-0.6,1.3-0.8,1.5c-0.3,0.2-0.5,0.2-0.8-0.1
	c-0.6-0.9-0.8-1.4-0.8-1.4c-0.5-0.6-0.9-0.9-1.4-0.9c-2.3-0.1-3.7,0.5-4.2,1.7c-0.1,0.3-0.2,0.6-0.5,0.9c-0.4,0.2-0.7,0.2-0.8,0
	c-1.2-1.5-2.2-2.6-3-3.3c-2.1-1.8-4.4-2.6-6.9-2.5c-1.2,0.3-2.2,0.7-3.1,1.4c-0.7,0.5-1.3,1.7-2,3.6c-0.3,0.7-0.4,1.4-0.4,2.2
	c0,1.6,0.6,3.5,1.8,5.7c1,1.5,2.6,2,4.9,1.5c0.3,0,1-0.5,2.2-1.4c0.4,0,0.7,0.2,0.9,0.6s0.4,0.8,0.6,1.2c0.4,0.4,0.9,0.7,1.6,0.9
	c0.5,0.1,0.9,0.2,1.4,0.3c0.5,0.1,0.7,0.3,0.8,0.7c0,0.4-0.2,0.7-0.7,1c-0.7,0.4-1,0.6-1.1,0.6c-0.9,1-1.3,2.1-1.3,3.5
	c0,0.8,0.1,1.4,0.5,2.1c0.5,0.8,0.6,1.2,0.4,1.4c0,0.1-0.3,0.2-0.8,0.2c-0.4-0.4-1-0.8-1.7-1.1c-1.4,0.1-2.5,0.6-3.2,1.5
	c0,0.3-0.1,0.6-0.4,1.1c-0.5,0.2-0.8,0-1-0.5s-0.4-1-0.6-1.4c-0.5-0.5-0.9-0.8-1.2-0.8c-1.1,0.1-1.9,0.8-2.4,2.1
	c-0.1,0.3-0.1,0.5-0.1,0.8s-0.2,0.4-0.6,0.4c-0.3-0.1-0.4-0.4-0.4-0.8c0-0.6,0.1-0.9,0.1-1c-0.6-1.1-2-1.9-4.2-2.4
	c-1.3,0-2,0.1-2.3,0.3c-0.3,0.2-0.6,0.1-0.8-0.2c0-0.9-0.1-2.1-0.5-3.6c-1.2-1.9-2.7-3.3-4.6-4.3c-0.5,0-1.1-0.3-1.9-0.8
	c-0.1-0.4,0-0.7,0.4-0.9c0.6-0.1,1.3-0.4,2.3-1c0.2-0.3,0.3-0.8,0.5-1.6c0.1-0.5-0.1-1-0.5-1.6c-0.5-0.6-0.7-1.1-0.7-1.4
	c0-0.2,0.1-0.5,0.3-0.8c0.9-0.2,1.6-0.4,2-0.6c1.9-0.9,2.9-2.2,2.8-3.8c-0.4-1.9-1.7-3.5-3.9-4.8c-0.6-0.1-1.2-0.4-1.9-1.1
	c0-0.4,0.2-0.6,0.6-0.8c0.6-0.2,0.9-0.3,1-0.3c1.1-0.4,1.7-1.4,1.9-3c0-0.5-0.2-0.9-0.6-1.3c-0.6-0.6-0.9-1-0.9-1.1
	c-0.2-0.5-0.1-0.9,0.1-1.2c0.4-0.2,0.6-0.2,0.7-0.2c1,0.7,2.7,0.8,5,0.2c0.8-0.3,1.2-1.1,1.4-2.4c-0.2-0.5-0.1-1.2,0.1-2.2
	c0.1-0.2,0.3-0.2,0.5-0.2s0.5,0.1,0.9,0.5c0.4,0.3,0.6,0.5,0.7,0.5c2.2,0.6,4,0.5,5.4-0.1c0.3-0.1,0.7-0.4,1-1.1
	c0.3-0.6,0.6-0.8,1.1-0.8c0.4,0.2,0.6,0.6,0.5,1.1c-0.1,1.1-0.2,1.5-0.2,1.4c0.1,0.9,0.4,1.8,1.1,2.6c1.3,1,2.4,1.3,3.3,1.1
	c0.1,0,0.3-0.1,0.6-0.2c0.3-0.2,0.5-0.2,0.7-0.2c0.3,0.1,0.5,0.2,0.6,0.5c0.1,1.3,0.9,2.4,2.3,3.3c1.6,0.8,3.4,1.2,5.3,1.2
	c1.6,0,3-0.3,4.2-1c2.1-1.1,3.4-2.2,3.9-3.5c0.5-1,0.7-2,0.7-3.1c0-2.1-0.6-3.8-1.9-5.1c-1.3-1.3-2.4-1.9-3.4-1.9
	c-0.2,0-0.4,0.1-0.6,0.2s-0.6,0.1-1.1,0.1c-0.3-0.2-0.5-0.5-0.5-0.8c0-0.2,0.1-0.5,0.2-1c0.2-0.5,0.2-0.8,0.2-1.1
	c-0.2-1.4-0.5-2.2-1.1-2.6c-0.4-0.2-1-0.3-1.8-0.2c-0.6,0.2-1.1,0.5-1.4,1.1s-0.6,1.2-0.8,1.7c-0.3,0.2-0.6,0.2-0.8,0
	c-0.5-0.2-0.7-0.6-0.8-1.3c-0.1-1.9-1.2-3.4-3.4-4.6c-1.2-0.7-3-1.4-5.5-2.2c-2.1-0.3-3.7,0.1-4.9,1.1c-0.2,0.6-0.1,1.3,0.3,2.1
	c0,0.4-0.1,0.6-0.3,0.8c-0.3,0.1-0.5,0.1-0.7-0.1c-1.8-1.9-4-2.8-6.8-2.7c-2.2,0.1-3.9,1-4.9,2.7c-0.1,0.4,0,1,0.4,1.9
	c0,0.5-0.1,0.8-0.4,0.9c-0.2,0.1-0.5,0.1-0.9-0.2c-1.3-1.2-2.5-1.7-3.6-1.7c-0.6-0.1-1.8,0-3.6,0.3c-1.7,0.5-2.9,0.9-3.6,1.3
	c-1.3,0.6-2.3,1.4-3,2.4c-0.6,0.8-0.6,1.6-0.1,2.4c0.1,0.6,0.5,1,1.1,1.2c0.9,0.4,1.4,0.6,1.4,0.7c0.3,0.3,0.4,0.5,0.3,0.7
	c-0.1,0.5-0.8,0.8-2,1.1c-1.1,0.7-1.5,1.3-1.4,1.8c0.4,0.2,0.7,0.4,1.1,0.8c0,0.2-0.1,0.4-0.4,0.7c-0.3,0.3-0.6,0.3-0.9,0.2
	c-1.7,0.6-2.8,1-3.3,1.3c-1.2,0.7-2,1.6-2.2,2.7c-0.1,0.5,0,1.2,0.4,2.1c0.1,0.4,0.6,0.8,1.4,1.4c0.7,0.5,1,1,1.1,1.6
	c-0.2,0.5-0.6,0.7-1.3,0.8c-0.9,0.1-1.4,0.3-1.6,0.5c-0.8,0.4-1.3,0.6-1.5,0.8c-0.6,0.4-0.9,0.8-1.1,1.3c-0.2,1.5,0.7,2.8,2.6,3.8
	c0.4,0,0.9,0.2,1.5,0.6c0.1,0.4,0,0.7-0.5,1c-0.6,0.4-0.9,0.7-1,0.9c-0.1,0.5,0.2,0.9,0.8,1.3s0.9,0.8,1,1.1c0.1,0.3-0.1,0.6-0.5,1
	c-0.9,0.4-1.6,0.7-2,1c-0.9,0.7-1.2,1.5-1.1,2.6c0.2,2,1.5,3.9,4,5.6c1,0.7,1.8,0.9,2.5,0.5c0.2,0,0.5,0.1,0.8,0.4
	c0,0.2-0.1,0.5-0.2,0.8l-0.9,0.6c-0.6,0.8-0.6,1.6-0.1,2.3c1.1,1.4,2.2,2.3,3.3,2.7c0.2,0.1,0.4,0.3,0.7,0.7c0.1,0.3,0,0.5-0.3,0.8
	s-0.5,0.4-0.5,0.5c-0.5,0.8-0.5,1.5-0.2,2.1c2.4,2.6,4.6,3.8,6.5,3.7c1.2,0,2-0.4,2.6-1.2c0.5-0.1,0.8-0.1,1,0.1
	c-0.1,0.7-0.1,1.7,0,3c0.1,0.9,0.5,1.7,1.4,2.5c0.8,0.5,1.5,1.1,2.3,1.6c2.3,1.3,4.4,1.9,6.1,1.9c1.3,0,2.5-0.4,3.4-1.2
	c0.3-0.2,0.6-0.7,0.8-1.7c0.2-0.8,0.5-1.2,1-1.2c0.2,0,0.4,0.2,0.6,0.5s0.4,0.5,0.5,0.6c1.1,0.8,2.1,1.1,3,1.1
	c0.4,0,0.7-0.1,1.1-0.2c0.1-0.5,0.6-1,1.3-1.5c0.3-0.1,0.6,0,0.9,0.3c0.3,0.9,0.8,1.4,1.6,1.4c1.6,0.1,2.8-0.4,3.6-1.4
	c1.9-2.6,2.9-4.7,3-6.3c0.2-0.3,0.3-0.5,0.4-0.7s0.3-0.3,0.6-0.3c0.8,0,1.1,0.5,0.8,1.4c0.1,1.4,0.4,3.3,1.1,5.8
	c1,2.6,2.9,3.9,5.6,3.9c2.2,0,4.2-1,6-3c1.4-2,2.1-4,2.1-6.2c0-3.2-1.2-5.3-3.6-6.2c-0.1-0.3,0-0.5,0.2-0.7c2.5-1.2,3.8-2.9,4-5.1
	c0-0.6-0.2-1.1-0.9-1.4c-0.9-0.5-1.4-0.8-1.6-1c-0.1,0-0.2-0.1-0.4-0.3c0.1-0.2,0.1-0.3,0.3-0.5c1.1-0.3,2-0.6,2.8-1.1
	C776,349.6,777.2,347.7,777,345.5z"/>
<polygon class="st0" points="740.9,346.2 740.9,346.2 740.9,346.4 "/>
<path class="st0" d="M810.8,307.4c0.1,0.3,0.2,0.6,0.3,0.9c0.1,0.8-0.3,2.4-1.3,4.7l-1,1.1c0.5,0.2,1.1,0.7,1.8,1.4
	c0.2,0.4,0.3,0.9,0.3,1.3c0.3,1.9-0.2,3.9-1.3,5.9c2,0.5,3.1,1.3,3.2,2.2c0.2,0.9,0,2.7-0.7,5.5l-0.6,1.4c0.7,0.1,1.1,0.2,1.4,0.3
	c0.5,0.2,0.9,0.6,1.1,1c0.4,1.4-0.1,2.8-1.8,4.4c0.4,1,0.7,2.1,0.9,3.2c0.4,2.6-0.1,4.8-1.3,6.8c-1.9,3.3-4.9,5.5-8.7,6.6
	c-2.7,0.8-5.4,0.7-8-0.3c-2-1-3.4-2.1-4-3.1c-1.1-1.8-1.7-3.5-2-5.2c-0.2-1.8,0-3.3,0.8-4.6c-2.3-0.8-3.5-2-3.8-3.5
	c-0.4-1.9,0.1-3.4,1.7-4.4c-0.7-0.3-1-1.1-1-2.3c0.2-0.6,0.4-1.2,0.7-1.6c-1.3-0.2-2.2-0.9-2.8-2.2c-0.2-0.6-0.4-1.3-0.5-1.9
	c-0.2-1.4,0-2.7,0.5-3.9c0.5-1.2,1.4-2.1,2.6-2.4c-0.5-0.7-0.7-1.5-0.9-2.4c-0.2-1.4,0-2.7,0.6-3.8c-2-0.5-3.2-1.3-3.6-2.5
	c-0.2-0.4-0.4-0.9-0.4-1.5c-0.2-1.4,0.2-2.7,1.1-3.8c0.2-0.2,0.8-0.6,1.7-1.2c-0.6-0.4-1.2-0.9-1.8-1.4s-0.9-1-0.9-1.7
	c-0.1-0.9,0.1-1.8,0.4-2.7c-3-0.9-4.6-2.3-4.8-4.3c-0.4-3.3,1-5.9,4.1-7.6c1.1-0.6,2.2-0.7,3.4-0.2c2.4-3.3,5.5-5.5,9.2-6.7
	c2.4-0.4,5,0,7.6,1.2c2.4,1.1,3.6,2.8,3.6,5.1c0,1.4,0,2.4,0,3c-0.2,1.1-0.5,2-1,2.8c0.5,0.2,1.1,0.5,1.6,0.8c0.6,0.3,0.9,0.7,1,1.2
	c0.1,0.8-0.5,2.4-1.7,4.7c-0.3,0.3-0.6,0.7-1,1.2c0.5,0.2,1.1,0.6,1.9,1.3c0.1,0.3,0.2,0.6,0.3,0.9c0.1,0.8-0.3,2.3-1.2,4.4
	C808.4,305.4,809.9,306,810.8,307.4z"/>
<polygon class="st0" points="801.8,300.1 801.8,300.1 801.6,300 "/>
<path class="st0" d="M889.2,346.2c0.1,0.4,0.2,0.7,0.2,1.1c0,0.9-0.7,2.1-2.2,3.8c0.1,0.8-0.5,2.4-1.5,4.8c1.4,0.1,2.4,0.7,3,1.7
	c0.3,0.6,0.5,1.2,0.5,1.8c0,1.3-1,3.2-3.1,5.8c1.6,0.3,2.6,1,2.9,2.1c0.1,1.5-0.9,3-2.7,4.7l-1,0.8c1.9,0.6,2.9,1.5,3.1,2.7
	c0.1,0.6,0.1,1.1,0.1,1.7c0,2.2-0.7,4.4-2,6.4c-1.4,1.6-3,2.4-4.8,2.4c-0.6,0-1.2-0.1-1.7-0.3c-1.8,3.4-4.6,4.9-8.6,4.5
	c-4-0.5-6.4-2.4-7.3-5.7c-0.6-1.9-0.4-4.1,0.5-6.7h-0.1c-2.7,0.8-4.6,0.5-5.6-0.9c-0.6-0.7-1-1.8-1.1-3.3l0.5-1.3
	c-2.7-0.7-4.2-1.8-4.7-3.4c0-0.9,0-1.4,0.1-1.6v0.1c0.1,0.1,0.1,0,0.2-0.2h-0.1V367c0,0.1,0.1,0.1,0.1,0.1c0.1,0.2,0.2-0.1,0.3-0.8
	c-0.3-0.1-0.7-0.1-1.3-0.2c-2-0.7-3.5-2.3-4.5-4.6c-0.1-0.2-0.1-0.5-0.1-0.9c-0.1-0.5,0-0.7,0.2-0.7c0-0.4,0.3-1,0.9-1.9l1.4-1.4
	l-0.1-0.1c-3.1-0.1-5.3-1-6.5-2.9c-0.8,1.6-1.5,2.5-2.4,2.9c2.5,1.7,3.8,3.5,3.7,5.5c-0.1,2.5-1.1,4.3-3.1,5.3
	c-0.2,0.1-0.7,0.2-1.5,0.5c1.3,0.7,2.2,1.5,2.7,2.4c0.7,1.2,1,2.2,1,3.1c0,0.8-0.3,1.6-1,2.5s-1.4,1.6-2.2,2c1.5,1,2.3,2.4,2.3,4.1
	c0,2.1-1,4-2.9,5.8c-1.7,1.7-3.7,2.8-5.9,3.3c-3.3,0.8-5.8,0.7-7.4-0.1c-1.6-0.8-2.8-1.7-3.4-2.5c-1-1.4-1.5-3-1.5-4.8
	c0-1.3,0.3-2.3,0.9-3.2l0.7-0.9c-0.3-0.1-0.8-0.1-1.4-0.2c-2.5-0.6-4-1.9-4.4-3.9c-0.1-0.3-0.2-0.5-0.2-0.8c0-0.4,0.1-0.8,0.4-1.3
	c0.4-0.7,0.5-1.1,0.5-1.2c0.5-0.6,1.4-1.2,2.8-2c-1.1-1.1-1.5-2.2-1.3-3.3c0.4-1.3,1.3-2.4,2.8-3.2c-1.9-2.1-3-3.9-3.4-5.6
	c-0.3-1.4-0.1-2.6,0.7-3.5c0.4-0.4,0.8-0.6,1.3-0.8c-0.6-1.6-0.8-2.7-0.8-3.2c0-1,0.8-2.1,2.3-3.3c-0.9-0.6-1.5-1.1-1.8-1.4
	c-0.6-0.7-1-1.3-1.2-1.9c0-0.8,0.8-1.7,2.3-2.8l0.8-0.5c-1.2-0.7-1.7-1.5-1.7-2.5c0-0.2,0.3-0.8,0.8-1.8c-1.1-1.1-1.5-2.2-1.4-3.2
	c0.3-1.8,1.3-3.1,3-3.9V329c-1.2-1-1.6-2.7-1.4-5.1c0.8-3.7,2.6-6.2,5.3-7.4c2.4-1,4.7-1.2,7-0.5c1.7,0.5,3.5,1.7,5.2,3.5
	c1.1-0.8,2.7-1.3,4.9-1.6c0.2,0,0.5,0.1,0.9,0.2c2.6,0.8,4.1,2.9,4.7,6.2c0.4,1.9,0.2,4-0.5,6.2c2.6-0.6,4.2-0.5,4.9,0.5
	c0.4,0.5,0.6,1.1,0.6,1.8c0,0.8-0.3,1.8-0.8,3.2c2.5,0.6,4.1,1.6,4.9,3.1c0.8,1.6,0.8,3.4-0.1,5.5c0.3,0.1,0.9,0.2,1.5,0.4
	c1.8,0.7,2.7,1.8,2.8,3.4c0.1,1-0.1,2-0.4,3c1.7,0.2,2.9,0.7,3.6,1.6c0.1-0.2,0.3-0.6,0.8-1.1l0.4-0.6c0.2-0.3,0.1-0.4-0.2-0.5
	c-2.3-1.2-3.3-2.9-3-5.3l0.1-0.1c0.1-1.3,0.3-2.3,0.7-2.8l1-1.5c-1.2-0.9-1.8-1.6-1.8-2.4s0.8-1.8,2.5-3.3c-0.4-0.1-0.9-0.3-1.6-0.5
	c-2.2-0.8-3.5-2.3-3.9-4.4c-0.1-0.5-0.1-1-0.1-1.5c0-2.4,0.9-4.5,2.6-6.5c0.7-0.8,1.2-1.3,1.5-1.6c0.6-0.6,1.2-0.9,1.9-0.9
	c1.8-0.3,3-0.2,3.8,0.2c2-2.9,4.5-4.3,7.6-4.3c4.8,0.2,7.9,2.1,9.2,5.7c0.5,1.1,0.7,2.3,0.7,3.6c0,2.8-0.9,5.6-2.8,8.3l-0.9,0.9
	c1.5,0.3,2.5,1.1,2.8,2.4c0,1.9-0.9,4.3-2.8,7.4C887.5,344.5,888.7,345.2,889.2,346.2z"/>
<path class="st0" d="M964.2,358.5c-0.1,2-0.8,3.9-2,5.7c-1.2,1.8-2.7,3-4.6,3.7c-1.2,0.2-2.3,0.3-3.3,0.3c-2.8,0-5-0.7-6.5-2.2
	c-2.3-1.9-3.9-4.5-4.8-7.9c-1.6,0.3-2.6,0.2-3-0.3c-0.2-0.2-0.5-0.8-0.8-1.7c-1.2,0.4-2.1,0.3-2.7-0.4c-0.5-0.5-0.8-1-1.1-1.5
	c-0.3,0.9-1.4,1.4-3.3,1.6c-0.7,0-1.4-0.5-2.1-1.6c-0.1,0-0.2,0.1-0.3,0.2s-0.2,0.2-0.2,0.2c-1.3,1.2-3.5,2.2-6.5,3
	c-1.1,0.2-1.8,0.2-2.2-0.2c-0.1,0.4-0.3,1-0.5,1.7c-1.3,3.3-3.1,5.4-5.2,6.3c-2.2,0.9-4.1,1.4-5.9,1.4c-1.6,0-3-0.4-4.2-1.3
	l-1.7-1.7c-1.2,1.3-2.5,1.8-3.9,1.6c-1.8-0.5-2.9-1.3-3.3-2.3s-0.4-2.5-0.1-4.4c0.9-1.8,2-3.1,3.4-3.7c-1-1.4-1.5-2.9-1.5-4.4
	c0-1.2,0.4-2.2,1.2-3.2s1.8-1.5,3-1.7c-0.3-0.8-0.3-1.6,0-2.5c0.5-1.6,1.2-2.6,2.3-3V340c-2.7-2.1-4-4.2-4-6.5c0-2.4,1-3.8,2.9-4.3
	c0.7-0.2,1.4-0.1,2.3,0.1c0.1-2.4,1.3-4.1,3.3-4.9c-0.7-0.8-1.5-2.2-2.5-4c-0.4-1-0.5-2.1-0.5-3.3c0-1.8,0.3-3.5,1-5.2
	c0.6-1.6,1.9-2.5,4-2.7c0.4,0,0.9,0.1,1.7,0.2c0.1-2.3,0.8-3.8,2.2-4.5l0.5-0.2c-0.9-1.4-1.4-2.8-1.4-4.4c0-1.4,0.4-2.6,1.3-3.8
	c0.9-1.2,2-1.8,3.4-1.9c2.2-0.1,3.9,0.5,4.9,1.9c1.3-1.6,2.7-2.2,4.2-2c1,0.2,1.8,0.7,2.4,1.5c2.5-2.3,5-3.6,7.4-3.9
	c1,0,2,0.4,3,1.1s1.4,1.6,1.4,2.6c0,0.4-0.3,1.4-1,2.9c2.3,0.8,3.4,1.9,3.5,3.3c0-0.2-0.1,0.3-0.3,1.4c2.5,1,4.2,2.3,5,4.1
	c0.7,1.4,0.8,2.6,0.5,3.6c-0.4,1.4-1.2,2.3-2.3,2.7c1.4,0.4,2.7,1.1,3.9,2.3c1.2,1.2,1.9,2.5,2,3.9c0,0.4-0.1,0.8-0.4,1.1
	c-0.3,0.1-0.6,0.3-1.1,0.5c1.9,1.5,2.9,3.1,3,4.9c0,0.4-0.2,1-0.5,1.9c1.4,0.4,2.4,0.7,3,1c1.1,0.5,1.8,1.2,2.3,2.1
	c0.2,0.5,0.3,0.9,0.3,1.4c0,1.5-0.7,2.9-2.1,4.3c0.3,0.1,0.6,0.3,0.9,0.5c0.4,0.3,0.8,0.7,1.2,1.4c0.1,0.8-0.1,1.5-0.7,2.3
	c0.2,0.1,0.5,0.3,0.9,0.5c2,0.9,2.9,2.7,2.7,5.3c-0.2,1.4-0.7,2.5-1.6,3.5C963.4,352.1,964.5,354.7,964.2,358.5z"/>
<polygon class="st0" points="921.9,341.8 921.7,341.8 921.7,342 "/>
<path class="st0" d="M935.8,333.1c-0.8-0.5-1.3-1.1-1.5-1.8c-0.5-0.9-0.4-2,0.3-3.4c-0.6-0.1-1.3-0.5-2.3-1.1
	c-0.7-0.7-1.1-1.6-1.1-3c0-0.4,0.2-1.6,0.5-3.6c-0.1,0-0.8,0-1.8-0.2c0.2,1.8-0.3,3.5-1.5,5.3c-0.5,0.7-1.4,1-2.7,0.8
	c0.3,2,0.4,2.8,0.5,2.4c-0.1,2.8-1,5.2-2.7,7.4c0.6,0.7,0.6,1.8,0.2,3.3c0.7,0,1.2,0.1,1.7,0.2c1.3,0.4,2,1,2.3,2.1
	c1.8-1.3,4.3-1.7,7.5-1.3c-0.4-0.5-0.8-1.2-1.2-2.3C933.6,336.1,934.2,334.5,935.8,333.1z"/>
<path class="st0" d="M928.2,316.8l-0.2-0.2C928,316.7,928.1,316.7,928.2,316.8z"/>
<path class="st0" d="M940.9,353.5c0-0.1-0.1-0.1-0.2-0.1L940.9,353.5z"/>
<path class="st0" d="M1031.3,335.3c0.3,3.3-0.8,5.8-3.4,7.4c-1,0.6-2.1,0.9-3.3,0.9c-1.8,0-3.6-0.6-5.3-1.7
	c-0.7,1.5-1.8,2.4-3.3,2.5c-0.8,0.1-1.5-0.1-2-0.5c-0.1,0-0.4-0.5-1-1.4c-1.4,0.9-2.7,1.1-3.8,0.8c-0.5-0.1-0.9-0.6-1.4-1.4
	c-3.5,2.7-6.4,4-8.6,3.9c-2,0.2-3.7-0.5-4.9-2.2c-0.4-0.9-0.7-1.7-0.8-2.4c-2.4,0.6-3.6,0.8-3.5,0.8c-0.7,0-1.3-0.3-1.8-0.8
	l-0.6-0.7c-1.6,2.1-3.1,3.3-4.6,3.4c-0.7,0.2-1.3,0.2-2,0.2c-2.2,0-4-0.8-5.2-2.3c-1.2-1.4-1.7-2.9-1.7-4.6c0-1.5,0.8-3.4,2.3-5.9
	c-1.3-0.3-2.3-1-2.8-2.2c-0.2-0.6-0.2-1.2-0.2-1.8c0-1.8,0.9-4,2.7-6.5c-1-0.7-1.5-1.1-1.8-1.3c-0.6-0.6-0.9-1.2-1-1.9
	c-0.1-1.6,0.7-2.8,2.4-3.6c0.1-0.1,0.2-0.1,0.2-0.2c-2.8-2.2-4.2-4.2-4.1-6c0.1-1.2,0.9-2.8,2.5-4.6c-1.4-1-2.1-2.4-2.1-4.3
	c0-0.5,0.1-0.9,0.2-1.4c0.4-1.1,1-2.6,1.7-4.7c-1.4-0.1-2.5-0.6-3.1-1.4c-0.7-1.1-0.7-2.2-0.1-3.5c0.6-1.2,1.6-2.2,3-3
	c-0.4-6.2,1.2-10.4,4.6-12.6c2.5-1.6,5.1-2.5,7.7-2.6c4.6,0.2,7.7,2,9.5,5.5c1.1,2,1.6,3.9,1.6,5.8c0,1.5-0.4,2.8-1.1,3.8l-0.9,1.2
	c2.1,1.3,3.1,2.8,3,4.4c-0.3,1.1-1.2,2.3-3,3.5c1.9,1.3,3.1,3.9,3.4,7.7c0.1,1.6-0.4,2.8-1.6,3.4c-0.1,0-0.3,0.1-0.5,0.2
	c1.1,1.2,1.6,2.6,1.4,4.3c-0.3,0.9-0.7,1.5-1.1,1.9c1.2,0.9,1.8,2,1.8,3.2c0,1.7-1,3.1-3.1,4.2c2,1.3,2.9,2.7,2.9,4.2
	c-0.1,0.4-0.2,1-0.3,1.7c0.4-0.1,1-0.2,1.8-0.3c2.1-0.1,3.9,0.6,5.2,2.2c1.5-0.7,2.7-1,3.4-1s1.3,0.2,1.7,0.6l0.8,0.7
	c1.3-2.2,2.9-3.3,4.9-3.5c1.3-0.1,2.4,0.3,3.3,1.3c0.5,0.5,0.8,1.2,1,2.2c0.6-0.2,1.2-0.3,1.8-0.3c1.7,0,3.4,0.6,5,1.7
	C1029.2,330.1,1030.6,332.4,1031.3,335.3z"/>
<path class="st0" d="M1097.5,345.3c0.6,1.8,0.3,3.5-0.6,5.2c-0.4,0.5-0.9,0.9-1.5,1.1c1.4,1.6,2.1,3.1,2.1,4.5
	c0,0.4-0.1,0.8-0.2,1.3c-0.3,1.4-1.1,2.5-2.4,3.2c0.4,0.8,0.5,1.7,0.5,2.6c0,1.8-0.8,3.9-2.4,6.2c-1.5,1.6-3,2.4-4.4,2.4
	c-0.3,0-0.6,0-1-0.2c-0.8-0.3-1.4-0.8-1.7-1.4c-2.1,2-4,3-5.8,3c-0.5,0-0.9-0.1-1.4-0.2c-0.3,1-1,2-2,2.8s-2.1,1.3-3.2,1.5
	c-2.1,0.4-3.6,0-4.4-1c-0.1-0.1-0.4-0.8-1-2c-0.9,0.5-2.3,0.8-4.4,0.8c-0.8-0.2-1.6-0.7-2.3-1.6c-1,1.4-2.6,2.1-4.8,2.1
	c-1,0-2.1-0.1-3.3-0.5c-1.5-0.3-2.3-1.5-2.6-3.5c0-0.2-0.1-0.4-0.1-0.7c-2.8,0.3-4.7,0.3-5.5-0.2c-0.3-0.2-0.6-0.7-1-1.7
	c-3.9,0.5-6.3-0.2-7.2-1.9c-0.9-1.6-0.9-3.4,0-5.5c-1.5-0.4-2.3-1.6-2.6-3.7c-0.1-1.7,0.4-3.2,1.6-4.5c0.4-0.4,0.9-0.9,1.6-1.7
	c2.9-2.2,5.8-3.3,8.7-3.3c0.9,0,1.7,0.1,2.6,0.3c3.3,0.9,5.5,2.3,6.7,4.3c0.2,0.5,0.4,1.2,0.7,2.2c0.4-0.1,0.7-0.1,1-0.1
	c2.6,0,4.6,1.2,6,3.6c0.2-0.1,0.5-0.3,0.9-0.5c1.5-0.6,3.2-0.3,5,0.7c0.4-1.4,0.6-2.2,0.6-2.3c0.4-0.9,0.8-1.5,1.4-2
	s1.3-0.7,2.2-0.7c0.4,0,0.7,0,1,0.1c-0.1-0.9,0.1-1.8,0.3-2.6c-0.6-0.9-0.9-1.7-1.1-2.5l-0.2-0.1c-1.2,0.8-2.6,1.2-4.1,1.2
	c-1.2,0-2.2-0.3-3-0.8c-0.6-0.5-1-1.3-1.1-2.7c-0.4,0-0.9,0-1.6-0.1c-1.3-0.2-2.3-0.7-3-1.6c-1.4,1.4-3.1,2.1-4.9,2.1
	c-0.7,0-1.3-0.1-1.9-0.3c-2.2-0.7-3.5-1.8-3.7-3.4c-0.2-0.7-0.1-1.5,0.1-2.4l-0.1-0.1c-0.5,0.3-1.1,0.4-1.7,0.4
	c-1.4,0-2.8-0.6-4.2-1.7c-0.7-0.7-1-1.4-1-2.1c-1-0.2-1.7-0.8-2-1.9c-0.2-0.6-0.3-1.7-0.3-3.3c-2.3-0.2-4-1.2-4.9-3
	c-0.6-2.1-0.4-3.6,0.6-4.6l0.8-0.8c-0.6-0.5-1.3-1.2-2.1-2.4c-0.2-0.5-0.3-0.9-0.3-1.3c0-1.1,0.6-2.3,1.7-3.4
	c1.1-1.2,2.2-1.8,3.3-1.9c0.5-1.4,2.5-3.1,6-5c0.3,0,0.6-0.1,0.9-0.3l0.8-0.2c0.1-2.5,1.6-4.4,4.6-5.6c2.1-0.9,3.8-0.9,4.9-0.1
	c0.5,0.3,1.1,0.9,1.9,1.7c0.5-0.3,1.3-0.7,2.3-1.2s2-0.5,2.8-0.2c0.5,0.3,1,0.6,1.4,1.1c2.4-1.9,4.6-3.1,6.5-3.6
	c2.1-0.2,4.1,0.9,5.9,3.2l0.3,0.8l1-0.4c1.7-0.2,2.9,0.5,3.7,2.2l0.3,0.8c0.5-0.1,0.9-0.2,1.4-0.2c1.9,0,3.5,0.8,4.9,2.4
	c1,1.2,1.3,2.4,0.8,3.5c2.7,1.7,3.9,4.4,3.6,8.2c-0.2,2.1-1.2,3.6-2.9,4.7c-1.5,1.4-4.4,2-8.7,2c-3.2-0.4-5.8-2.2-7.7-5.5
	c-0.9,1.2-2.3,1.7-4.2,1.4c-1.5-0.2-2.5-1.1-2.9-2.7l-0.1-0.5c-1.7,0.4-3.6,0.2-5.8-0.6c0.4,1.9,0.3,3.2-0.4,3.9
	c2.7,1,4.6,2.5,5.5,4.3c2.2-0.8,4-1.1,5.4-1.1c1.7,0,3.1,0.5,4.1,1.6c0.3,0.4,0.7,1.1,1.2,2.2c0.8-0.4,2-0.7,3.6-1.1
	c2.6-0.1,4.3,0.5,5.1,1.7c0.1,0.1,0.1,0.9,0,2.5c2.6,0.7,4.2,2.3,4.7,4.8v0.8C1094.3,341,1096.6,342.5,1097.5,345.3z"/>
<path class="st0" d="M1123.6,168.8c4.9,3.2,1.9,11.6-7.7,11.1c-8.4-0.5-12.4-3.3-12.4-3.3s-6.4,5.5-9.6,6.1
	c-10.1,1.7-13.1-2.8-13.1-2.8c-9.1,10.1-17.2,0-17.2,0s-7.5,3.6-16.5,4.2c-18.9,1.2-25.4-7.6-25.4-7.6s2,7.2-7.6,6.7
	c-9-0.5-9.1-4.2-12-4.1c0,0-5.8,5.1-16.3,4.6c-12.9-0.6-13.1-4.9-13.1-4.9s-4.2,7.3-24.7,4.8c-5.3-0.7-10.4-3.6-10.4-3.6
	s-13.7,3.6-27,3.6c-13.2,0-22.6-3.6-22.6-3.6c-7.8,2.2-12.5-3.7-9.7-8.2c4.8-7.6,12.1-0.6,12.1-0.6c-3.4,0,12.4-8.3,13.5,0.8
	c0,0,6.7-9.1,14.3-0.6c0,0,10.7-8.6,17.4,0.3c0.8,1.1,3.9-6.1,19.7-1.4c0,0,15.7-6.6,31.5,0.6c0,0,19.4-7.2,31.8-2.1
	c1.4,0.6,4.2-2.7,23-2.7c15.5,0,24.5,3.7,24.5,3.7c12.8-9,40.3,2.2,42.2,0.6C1115.6,164.4,1123.6,168.8,1123.6,168.8L1123.6,168.8
	L1123.6,168.8z"/>
<path class="st0" d="M1097.5,191.5c0,0-1.4-5.2-16.8,0c0,0-16.1-7.2-19.2,1.6c0,0-11.3-5.4-18.8-3.9l-7,1.7
	c-31.7-6.4-41.3,2.3-41.3,2.3c-10.4-3.7-34.8-5.7-47.5,1.4c2.1-2.2-12.4-11.7-23.7-3c0,0-12.6-3.6-22.1,2.4c-4.5,2.9-5,7.8,2,10.1
	s21.4-2.3,21.4-2.3s7.1,2.5,10.1,3c18.1,2.7,17.1-2.9,20.2-2.9c0,0,8.2,3.6,14.9,3.6s12.5-5,12.5-5c6.6,9.3,19.8,5,21.9-0.8
	c0,0,7.1,6,17.7,5.1c12.3-1.1,14.8-4.5,14.8-4.5c5.1,5.7,18,0,18,0c9,7.3,17.7,4.6,21.1,0.6c0,0,4.3,3.2,14.3,0.3
	c0,0,14.3,5.7,20,0.3C1115.5,195.8,1109.9,184.4,1097.5,191.5z"/>
<path class="st0" d="M1061,213.9c-7.3-10.1-13.9-0.6-13.9-0.6c-5.5-9-12.8-0.8-12.8-0.8c-6.5-6.7-10.9,0-10.9,0
	c-5.1,9.2-1.8,30.3,26.7,17.1c0,0,39.6-14.1,31.7-19C1073.9,205.8,1061,213.9,1061,213.9z"/>
<path class="st0" d="M1141.1,93.8c-7-8-11.6,3.1-11.6,3.1c-17-5.8-19.7,6.8-19.7,6.8c-8.5-3.7-21-3.7-20.6,10.9
	c0,0-8.5-4.5-13.2-0.9c-4.4,3.4-5.6,10.1-1.2,17.2c0,0-10.7-6.5-14.6-1.5c-4.8,6.8,1.5,16.3,1.5,16.3c-10.9-3.3-14.8,8-9.2,12.2
	c0,0,4.5,3.6,19,3.6s12.8-7.7,12.8-7.7s4.8,7.3,12.8,7.7c25,1.3,21.1-8.3,21.1-8.3s29.4,4.8,30-21.4c0.1-5.9-3.8-20.5-3.8-20.5
	c0.4-3.4,12.4,2.1,12.4-8.4c0-8.6-12-8.6-12-8.6l0,0L1141.1,93.8z"/>
<path class="st0" d="M984,236.3c3.5-4.5-7.9-9.7-5.3-11.1c5.3-2.7,2.2-10.8-3.1-12.8c0,0-12.1-4.5-16,4.7c0,0-3-2.1-14.9-4.7
	c-19.1-4.3-21.4,0-21.4,0c-5,9.2,9.5,7.1,15.5,9.9c0,0,10.1,19.7,25.3,9.7C964,232.1,977.5,244.5,984,236.3z"/>
<path class="st0" d="M1002.1,238c12.2,0,6.3-7.9,6.3-7.9c12-0.4,5.6-8.7,5.6-8.7c2.3-2,6-10.8-2.4-10.8c0,0-6.8,0-10,7.2
	c0,0-6.5-10.3-12.6-5.3c-6.2,5,6.2,12.4,6.2,12.4C988,238,1002.1,238,1002.1,238L1002.1,238L1002.1,238z"/>
<path class="st0" d="M946.2,145c0,0-2.1-24.5-24.8-18.8c-2.6,0.7,11.8-10.1-0.5-17.5c-4.9-3-12.1,0-12.1,0s0-6.8-5.8-8.7
	c-6-1.9-11,2.5-11,2.5s1.1-6.8-6.3-8.1c-4.6-0.8-9.2,2.9-10.7,2.5c0,0-0.6-5.7-3.6-6.6c-7-2.3-9.3,5.1-11.8,4.1
	c-5.3-2.1-7.9,10.1,0.5,18.2c1.8,1.8-2.1,2.6-2.7,5.6c-2.1,10.9,7.7,11,5,12.6c-8.7,5.3,1.7,13.4,5.6,11.8c0,0-3.2,2.6-3,7.6
	c0.5,8.8,8.9,9.8,9.8,7.7c0,0,0.7,4.3,5.7,3.8c5-0.6,5.6-3.8,5.6-3.8s3.9,4.9,13.7,4.9s12.8-4.9,12.8-4.9s0,4.9,13.4,4.9
	s13.1-4.9,13.1-4.9s-0.3,4.9,13.4,4.9C966.4,162.9,957.1,141.7,946.2,145z"/>
<path class="st0" d="M1034.9,154.1c5.5,1,8.7-5.8,8.9-8.3c0.3-4-4.2-8-4.2-8c13.3-17.2,7.4-40.6-6.5-43.4c0,0,2.6-11.7,1.8-16.2
	c-2.8-15.4-15.2-16.1-15.2-16.1c2.7-7.5-1.9-13.6-8.2-14.8c0,0-2.5-7.7-9.4-8.8c-3.5-0.6-7.8,2.7-6.8,7.3c0,0-6.8-2.4-11.1,2.4
	c-4.4,4.8-0.6,10.9-0.6,10.9c-11.1-0.4-15.8,9.9-9.5,18.4c0,0-9.4,4.6-2.4,14.9c0,0-7.1,0.6-7.1,11.5c0,6.5,5.1,10.3,5.1,10.3
	s-8.7,0.2-8.7,7.1c0,6.5,6.1,7.1,5.9,9.9c0,0-11.7,11.8,1.8,14.1c1.1,0.2-5.3,3.4,1.4,10.9c0,0,3.8,5.1,16.8,5.1
	c9.8,0,15-6.8,15-6.8s4.2,7.3,16.5,2.1c1.3-0.6,5.2,6.8,12.5,4.7C1035.7,159.8,1034.9,154.1,1034.9,154.1z"/>
</svg>
