<?xml version="1.0" encoding="utf-8"?>
<!-- Generator: Adobe Illustrator 26.3.1, SVG Export Plug-In . SVG Version: 6.00 Build 0)  -->
<svg version="1.1" id="Layer_1" xmlns="http://www.w3.org/2000/svg" xmlns:xlink="http://www.w3.org/1999/xlink" x="0px" y="0px"
	 viewBox="0 0 1190.6 850.4" style="enable-background:new 0 0 1190.6 850.4;" xml:space="preserve">
<style type="text/css">
	.st0{fill:none;stroke:#000000;stroke-miterlimit:10;}
</style>
<path class="st0" d="M958.6,586.1c8.7,22.1,17.3,44.2,26.1,66.3c8.4,21.1,17.1,42.4,31.1,60.2c3.2,4.1,6.8,8.1,11.6,10.2
	c3.4,1.5,7.1,1.8,10.8,2.2c10.3,1,21,2,30.9-1.2c18.8-6.2,29.9-27.3,28.8-47.1c-1.1-19.8-12.4-37.7-26.5-51.6s-31.2-24.2-47.5-35.4
	c-19.4-13.3-45.9-34.6-63-49.7C914.8,499.1,953.3,572.7,958.6,586.1z"/>
<path class="st0" d="M1055.2,506c10.9,6.5,22.6,12.2,35.2,14c12.6,1.8,26.3-0.9,35.6-9.6c15.4-14.2,14.3-38.5,12-59.3
	c-0.2-2.1-0.5-4.3-1.5-6.2c-1.2-2.2-3.3-3.7-5.4-5c-17-10.7-38-12.3-58.1-12.9c-16.4-0.5-32.7-0.6-49.1-0.6
	c-17.7,0-105.9-1.2-49.5,27.5C999.5,466.7,1030.5,491.4,1055.2,506z"/>
<path class="st0" d="M1119.4,314c14.4-8.4,24-24.4,24.9-41c0.8-16.6-7.2-33.5-20.6-43.3c-9.9-7.3-22.1-12.8-34.4-12.1
	c-56.1,3.2-111.6,34.3-109.9,46.1c3.4,22.9,24.8,40.9,64.1,50C1068.1,319.4,1096,327.8,1119.4,314z"/>
<path class="st0" d="M161.4,681.7c-7,8.7-14.1,17.3-22,25.2c-7.4,7.4-15.9,14.2-25.9,17s-22.1,0.6-28.6-7.6
	c-4.4-5.5-5.8-12.8-6.2-19.8c-1.2-23.5,8.2-47.3,25.1-63.7c6.7-6.5,14.4-11.7,22.2-16.8c17.6-11.3,110.6-41.3,110.6-41.3
	S174,666.3,161.4,681.7z"/>
<path class="st0" d="M139.5,416.2c-10.4,0-21.1,0-31.1,2.9c-17.8,5.3-31.9,19.5-41.2,35.6c-12.2,21.1-16.8,49.3-2.3,68.9
	c12.9,17.3,37.6,22.6,58.6,17.5s38.9-18.5,55-32.9c6.3-5.6,12.6-11.6,16.9-18.9c4.5-7.6,6.6-16.2,10.2-24.3
	c5.5-12.2,34.2-36.1,18.6-48C211.3,407.2,156.5,416.3,139.5,416.2z"/>
<path class="st0" d="M132.3,224.2c-20.3-6.6-43.6-3.6-61.6,7.9c-18,11.5-30.4,31.4-32.9,52.7c-0.8,6.5-0.6,13.3,1.9,19.4
	c5.6,13.5,21.2,19.9,35.7,22c37.8,5.6,76.6-9.4,104.1-35.2c5.2-4.9,17-14.5,18.7-21.7c2.9-12.5,0.8-8.3-11.1-14.9
	C169.1,244.5,152.1,230.7,132.3,224.2z"/>
<path class="st0" d="M114.5,97.7c-11.2,18.1-3.5,43.5,12.9,57c16.4,13.5,39,17.1,60.3,15.9c21.2-1.3,42-6.9,63.1-9.5
	c52.1-6.5,106.3,5.6,150.6,33.6c-23.9-15.1-43.1-44.6-66.8-61.9c-24.5-18-51.1-33.4-79-45.3C221.1,72.8,137.9,60,114.5,97.7z"/>
<path class="st0" d="M840.9,73.7c45.2-20.7,95.9-27,145.7-27c33.2,0,71.5,5.5,89.2,33.7c-2.7,24.2-20.3,44.9-41.6,56.6
	c-21.4,11.7-46.1,15.6-70.4,17.1c-64.2,4.1-131.4-7.2-193.8,12.7c-13.1,4.2-25,15.3-24.1-3.2c0.5-11.5,17.5-29.5,24.6-37.8
	C789.6,103.6,814.2,86,840.9,73.7z"/>
</svg>
