<?xml version="1.0" encoding="utf-8"?>
<!-- Generator: Adobe Illustrator 26.3.1, SVG Export Plug-In . SVG Version: 6.00 Build 0)  -->
<svg version="1.1" id="Layer_1" xmlns="http://www.w3.org/2000/svg" xmlns:xlink="http://www.w3.org/1999/xlink" x="0px" y="0px"
	 viewBox="0 0 1190.6 850.4" style="enable-background:new 0 0 1190.6 850.4;" xml:space="preserve">
<style type="text/css">
	.st0{fill:none;stroke:#6F7271;stroke-miterlimit:10;}
</style>
<polygon class="st0" points="200.3,55.6 288.6,141.6 365.1,109.2 414.5,196.5 414.5,33.1 338.3,55.6 288.6,17.6 "/>
<polygon class="st0" points="697.5,165.5 665,87.6 697.5,76.8 686.2,17.6 786.6,24.6 766.6,82.4 722.9,91.6 "/>
<polygon class="st0" points="941.3,196.5 982.2,91.6 1040,101.1 1078,38.7 1161.1,126.1 1114.6,175.4 1032.9,155.7 "/>
<polygon class="st0" points="941.3,441.7 1035.8,538.3 1075.2,504.1 1152.7,553 1152.7,455.7 1075.2,402.9 1028.7,455.7 "/>
<polygon class="st0" points="246.7,429 134.7,392.4 121.4,450.1 22.7,477.9 22.7,608.6 134.7,559.5 156.6,477.9 "/>
<path class="st0" d="M232.6,282.3c0,0-12.7-116.8-79.8-106.4c-67.1,10.4-28.7,76.5,18.5,63.7c47.2-12.7,48-97.4,3.3-122
	c-47.3-26.1-108.6,6.3-110.9,47.9"/>
<path class="st0" d="M969.4,304.6c45.1-76.6,97.2-66.2,115.7-28c18.5,38.2-22,68.2-47.4,42.8s13.9-109.5,90.2-88.3"/>
<path class="st0" d="M786.6,206c-8.1-89.1,27.8-126.4,78.7-104.9c50.9,21.6,6.2,76.1-26.4,49.4s3.3-104.4,55.3-111.8"/>
</svg>
