<?xml version="1.0" encoding="utf-8"?>
<!-- Generator: Adobe Illustrator 26.3.1, SVG Export Plug-In . SVG Version: 6.00 Build 0)  -->
<svg version="1.1" id="Layer_1" xmlns="http://www.w3.org/2000/svg" xmlns:xlink="http://www.w3.org/1999/xlink" x="0px" y="0px"
	 viewBox="0 0 1190.6 850.4" style="enable-background:new 0 0 1190.6 850.4;" xml:space="preserve">
<style type="text/css">
	.st0{fill:none;stroke:#6F7271;stroke-miterlimit:10;}
</style>
<path class="st0" d="M681.9,378.1c0-15.3,1.4-29.3,1.4-46.5c0-92.3-41.1-187.8-86.3-230.5c-46.7,42.7-86.3,138.2-86.3,230.5
	c0,17.2,0,31.2,2.8,46.5H681.9z"/>
<path class="st0" d="M498,378.1c-7.1-12.1-17-24.2-26.9-36.3c-56.6-66.2-144.3-107-203.7-110.8c-4.2,42.7,8.5,94.2,35.4,147.1
	L498,378.1L498,378.1z"/>
<path class="st0" d="M597,563.4c14.1-14,28.3-33.7,41-59.2h-83.5C568.7,529.6,581.5,549.4,597,563.4"/>
<path class="st0" d="M550.4,559.5c0-14.6,0-34.4-1.4-55.4H414.5C461.2,539.2,513.6,557,550.4,559.5"/>
<path class="st0" d="M928.1,231c-60.8,3.8-147.1,44.6-203.7,110.8c-11.3,12.1-19.8,24.2-26.9,36.3h193.8
	C918.2,325.2,932.3,273.7,928.1,231"/>
<path class="st0" d="M779.6,504.2h-133c-4.3,21-4.3,40.8-4.3,55.4C681.9,557,732.9,539.2,779.6,504.2"/>
<path class="st0" d="M838.9,455.7H355.1c7.1,8.9,15.6,17.9,24.1,23.6H812C822,473.6,831.9,464.7,838.9,455.7"/>
<path class="st0" d="M878.6,402.9c-4.3,8.3-11.3,19.1-18.4,26.1H332.5c-4.2-5.7-12.7-17.2-17-26.1H878.6z"/>
<path class="st0" d="M321.1,749.3c-32.5,0-59.4-26.8-59.4-58.6c0-33.1,26.9-58.5,59.4-58.5c12.7,0,24.1,3.2,34,9.5v-8.3H382v113.4
	h-26.9v-7.6C345.2,744.9,333.9,749.3,321.1,749.3"/>
<path class="st0" d="M288.6,690.7c0,17.2,15.5,31.8,32.5,31.8c18.4,0,34-14.6,34-31.8c0-17.8-15.5-33.1-34-33.1
	C304.2,657.6,288.6,672.9,288.6,690.7"/>
<path class="st0" d="M451.3,749.3c-32.5,0-59.5-26.8-59.5-58.6c0-33.1,26.9-58.5,59.5-58.5c12.7,0,24,3.2,33.9,9.5v-47.1h28.3v152.2
	h-28.3v-7.6C475.3,744.9,464.1,749.3,451.3,749.3"/>
<path class="st0" d="M418.8,690.7c0,17.2,15.6,31.8,33.9,31.8c17,0,32.5-14.6,32.5-31.8c0-17.8-15.6-33.1-32.5-33.1
	C434.3,657.6,418.8,672.9,418.8,690.7"/>
<rect x="526.3" y="633.4" class="st0" width="28.3" height="113.4"/>
<rect x="526.3" y="594.6" class="st0" width="28.3" height="28"/>
<path class="st0" d="M657.9,594.6h28.3v152.2h-28.3v-7.6c-8.5,5.7-21.2,10.2-32.5,10.2c-32.6,0-59.4-26.8-59.4-58.6
	c0-33.1,26.9-58.5,59.4-58.5c11.3,0,22.6,3.2,32.5,9.5V594.6z"/>
<path class="st0" d="M592.8,690.7c0,17.2,15.6,31.8,32.6,31.8c18.4,0,32.5-14.6,32.5-31.8c0-17.8-14.1-33.1-32.5-33.1
	C608.4,657.6,592.8,672.9,592.8,690.7"/>
<path class="st0" d="M754.1,749.3c-32.6,0-59.4-26.8-59.4-58.6c0-33.1,26.9-58.5,59.4-58.5c12.7,0,24,3.2,32.5,9.5v-8.3h28.3v113.4
	h-28.3v-7.6C778.1,744.9,766.8,749.3,754.1,749.3"/>
<path class="st0" d="M722.9,690.7c0,17.2,15.6,31.8,32.6,31.8s31.1-14.6,31.1-31.8c0-17.8-14.1-33.1-31.1-33.1
	C738.5,657.6,722.9,672.9,722.9,690.7"/>
<path class="st0" d="M877.1,749.3c28.3,0,51-11.5,51-38.9c0-15.9-11.3-26.7-29.7-31.2s-41-3.8-41-15.9c1.4-7.7,8.5-9.6,19.8-9.6
	c17,0,17,8.9,18.4,15.3h28.3c-2.8-21.7-19.8-36.9-48.1-36.9c-29.7,0-46.7,15.9-46.7,36.3c0,11.5,5.7,22.3,15.6,27.4
	c7.1,3.2,17,5.7,28.3,7.6c12.7,1.3,24,2.5,25.5,11.5c0,5.8-7.1,13.4-19.8,13.4c-18.4,0-22.6-10.8-22.6-17.9h-29.7
	C826.2,733.4,846,749.3,877.1,749.3"/>
</svg>
