<?xml version="1.0" encoding="utf-8"?>
<!-- Generator: Adobe Illustrator 26.3.1, SVG Export Plug-In . SVG Version: 6.00 Build 0)  -->
<svg version="1.1" id="Layer_1" xmlns="http://www.w3.org/2000/svg" xmlns:xlink="http://www.w3.org/1999/xlink" x="0px" y="0px"
	 viewBox="0 0 1190.6 850.4" style="enable-background:new 0 0 1190.6 850.4;" xml:space="preserve">
<style type="text/css">
	.st0{fill:none;stroke:#010101;stroke-width:8;stroke-miterlimit:10;}
</style>
<text transform="matrix(1 0 0 1 -87.6422 -10.2339)" class="st0" style="font-family:'ArialMT'; font-size:12px;"> </text>
<path class="st0" d="M1129.3,312.8c1.7,0,3.1,0.6,4.3,1.8c1.2,1.2,1.8,2.6,1.8,4.3c0,1.7-0.6,3.1-1.8,4.3c-1.2,1.1-2.6,1.8-4.3,1.8
	c-1.7,0-3.1-0.6-4.3-1.8c-1.2-1.2-1.8-2.6-1.8-4.3c0-1.7,0.6-3.1,1.8-4.3C1126.1,313.5,1127.6,312.8,1129.3,312.8z"/>
<path class="st0" d="M1115.7,312.8c1.7,0,3.1,0.6,4.3,1.8c1.2,1.2,1.8,2.6,1.8,4.3c0,1.7-0.6,3.1-1.8,4.3c-1.2,1.2-2.6,1.8-4.3,1.8
	c-1.8,0-3.1-0.6-4.3-1.8c-1.2-1.2-1.8-2.6-1.8-4.3c0-1.7,0.6-3.1,1.8-4.3C1112.7,313.5,1114,312.8,1115.7,312.8z"/>
<path class="st0" d="M1088.5,313c1.7,0,3.1,0.6,4.3,1.8c1.2,1.2,1.8,2.6,1.8,4.3c0,1.7-0.6,3.1-1.8,4.3c-1.2,1.2-2.6,1.8-4.3,1.8
	c-1.8,0-3.1-0.6-4.3-1.8c-1.2-1.2-1.8-2.6-1.8-4.3c0-1.7,0.6-3.1,1.8-4.3C1085.5,313.5,1086.9,313,1088.5,313z"/>
<path class="st0" d="M1075,313c1.7,0,3.1,0.6,4.3,1.8c1.2,1.2,1.8,2.6,1.8,4.3c0,1.7-0.6,3.1-1.8,4.3c-1.2,1.1-2.6,1.8-4.3,1.8
	c-1.7,0-3.1-0.6-4.3-1.8c-1.2-1.2-1.8-2.6-1.8-4.3c0-1.7,0.6-3.1,1.8-4.3S1073.4,313,1075,313z"/>
<path class="st0" d="M1142.5,328.5c1.7,0,3.1,0.6,4.3,1.8c1.2,1.1,1.8,2.6,1.8,4.3c0,1.7-0.6,3.1-1.8,4.3c-1.2,1.2-2.6,1.8-4.3,1.8
	c-1.7,0-3.1-0.6-4.3-1.8c-1.2-1.2-1.8-2.6-1.8-4.3c0-1.7,0.6-3.1,1.8-4.3C1139.5,329.1,1140.8,328.5,1142.5,328.5z"/>
<path class="st0" d="M1101.8,328.5c1.7,0,3.1,0.6,4.3,1.8c1.2,1.2,1.8,2.6,1.8,4.3c0,1.7-0.6,3.1-1.8,4.3s-2.6,1.8-4.3,1.8
	c-1.7,0-3.1-0.6-4.3-1.8c-1.2-1.2-1.8-2.6-1.8-4.3c0-1.7,0.6-3.1,1.8-4.3C1098.8,329.1,1100.2,328.5,1101.8,328.5z"/>
<path class="st0" d="M1061.3,328.6c1.7,0,3.1,0.6,4.3,1.8c1.2,1.2,1.8,2.6,1.8,4.3c0,1.7-0.6,3.1-1.8,4.3c-1.2,1.1-2.6,1.8-4.3,1.8
	c-1.7,0-3.1-0.6-4.3-1.8c-1.2-1.2-1.8-2.6-1.8-4.3c0-1.7,0.6-3.1,1.8-4.3C1058.2,329.3,1059.6,328.6,1061.3,328.6z"/>
<path class="st0" d="M1142.9,344.4c1.7,0,3.1,0.6,4.3,1.8c1.2,1.2,1.8,2.6,1.8,4.3c0,1.7-0.6,3.1-1.8,4.3c-1.2,1.2-2.6,1.8-4.3,1.8
	s-3.1-0.6-4.3-1.8c-1.2-1.2-1.8-2.6-1.8-4.3c0-1.7,0.6-3.1,1.8-4.3C1139.8,345.1,1141.2,344.4,1142.9,344.4z"/>
<path class="st0" d="M1102.2,344.5c1.7,0,3.1,0.6,4.3,1.8c1.2,1.2,1.8,2.6,1.8,4.3c0,1.7-0.6,3.1-1.8,4.3c-1.2,1.1-2.6,1.8-4.3,1.8
	c-1.8,0-3.1-0.6-4.3-1.8c-1.2-1.2-1.8-2.6-1.8-4.3c0-1.7,0.6-3.1,1.8-4.3C1099.2,345.2,1100.5,344.5,1102.2,344.5z"/>
<path class="st0" d="M1061.6,344.7c1.7,0,3.1,0.6,4.3,1.8c1.1,1.1,1.8,2.6,1.8,4.3c0,1.7-0.6,3.1-1.8,4.3c-1.2,1.2-2.6,1.8-4.3,1.8
	s-3.1-0.6-4.3-1.8c-1.2-1.2-1.8-2.6-1.8-4.3c0-1.7,0.6-3.1,1.8-4.3C1058.5,345.3,1060,344.7,1061.6,344.7z"/>
<path class="st0" d="M1142.9,359.8c1.7,0,3.1,0.6,4.3,1.8c1.2,1.2,1.8,2.6,1.8,4.3c0,1.7-0.6,3.1-1.8,4.3c-1.2,1.1-2.6,1.8-4.3,1.8
	s-3.1-0.6-4.3-1.8c-1.2-1.2-1.8-2.6-1.8-4.3c0-1.7,0.6-3.1,1.8-4.3C1139.8,360.3,1141.2,359.8,1142.9,359.8z"/>
<path class="st0" d="M1102.3,359.9c1.7,0,3.1,0.6,4.3,1.8c1.2,1.1,1.8,2.6,1.8,4.3c0,1.7-0.6,3.1-1.8,4.3c-1.2,1.2-2.6,1.8-4.3,1.8
	c-1.7,0-3.1-0.6-4.3-1.8c-1.2-1.2-1.8-2.6-1.8-4.3c0-1.7,0.6-3.1,1.8-4.3C1099.2,360.4,1100.6,359.9,1102.3,359.9z"/>
<path class="st0" d="M1061.6,360c1.7,0,3.1,0.6,4.3,1.8c1.2,1.1,1.8,2.6,1.8,4.3c0,1.7-0.6,3.1-1.8,4.3c-1.2,1.2-2.6,1.8-4.3,1.8
	c-1.8,0-3.1-0.6-4.3-1.8c-1.2-1.2-1.8-2.6-1.8-4.3c0-1.7,0.6-3.1,1.8-4.3C1058.5,360.6,1060,360,1061.6,360z"/>
<path class="st0" d="M1129.1,375.6c1.7,0,3.1,0.6,4.3,1.8c1.1,1.2,1.8,2.6,1.8,4.3c0,1.7-0.6,3.1-1.8,4.3c-1.2,1.2-2.6,1.8-4.3,1.8
	c-1.7,0-3.1-0.6-4.3-1.8c-1.2-1.1-1.8-2.6-1.8-4.3c0-1.7,0.6-3.1,1.8-4.3S1127.4,375.6,1129.1,375.6z"/>
<path class="st0" d="M1115.6,375.6c1.7,0,3.1,0.6,4.3,1.8c1.2,1.2,1.8,2.6,1.8,4.3c0,1.7-0.6,3.1-1.8,4.3c-1.2,1.2-2.6,1.8-4.3,1.8
	c-1.7,0-3.1-0.6-4.3-1.8c-1.2-1.2-1.8-2.6-1.8-4.3c0-1.7,0.6-3.1,1.8-4.3S1113.9,375.6,1115.6,375.6z"/>
<path class="st0" d="M1088.4,375.7c1.7,0,3.1,0.6,4.3,1.8c1.2,1.1,1.8,2.6,1.8,4.3c0,1.7-0.6,3.1-1.8,4.3c-1.2,1.2-2.6,1.8-4.3,1.8
	c-1.8,0-3.1-0.6-4.3-1.8c-1.2-1.2-1.8-2.6-1.8-4.3c0-1.7,0.6-3.1,1.8-4.3C1085.3,376.2,1086.8,375.7,1088.4,375.7z"/>
<path class="st0" d="M1074.9,375.7c1.7,0,3.1,0.6,4.3,1.8c1.2,1.2,1.8,2.6,1.8,4.3c0,1.7-0.6,3.1-1.8,4.3c-1.2,1.2-2.6,1.8-4.3,1.8
	c-1.7,0-3.1-0.6-4.3-1.8c-1.2-1.1-1.8-2.6-1.8-4.3c0-1.7,0.6-3.1,1.8-4.3C1071.8,376.2,1073.3,375.7,1074.9,375.7z"/>
<path class="st0" d="M1129.3,404.6c1.7,0,3.1,0.6,4.3,1.8c1.2,1.2,1.8,2.6,1.8,4.3c0,1.7-0.6,3.1-1.8,4.3c-1.2,1.1-2.6,1.8-4.3,1.8
	c-1.7,0-3.1-0.6-4.3-1.8c-1.2-1.2-1.8-2.6-1.8-4.3c0-1.7,0.6-3.1,1.8-4.3C1126.1,405.3,1127.6,404.6,1129.3,404.6z"/>
<path class="st0" d="M1088.5,404.8c1.7,0,3.1,0.6,4.3,1.8c1.2,1.2,1.8,2.6,1.8,4.3c0,1.7-0.6,3.1-1.8,4.3c-1.2,1.2-2.6,1.8-4.3,1.8
	c-1.8,0-3.1-0.6-4.3-1.8c-1.2-1.2-1.8-2.6-1.8-4.3c0-1.7,0.6-3.1,1.8-4.3C1085.5,405.3,1086.9,404.8,1088.5,404.8z"/>
<path class="st0" d="M1075,404.8c1.7,0,3.1,0.6,4.3,1.8c1.2,1.2,1.8,2.6,1.8,4.3c0,1.7-0.6,3.1-1.8,4.3c-1.2,1.1-2.6,1.8-4.3,1.8
	c-1.7,0-3.1-0.6-4.3-1.8c-1.2-1.2-1.8-2.6-1.8-4.3c0-1.7,0.6-3.1,1.8-4.3C1072,405.3,1073.4,404.8,1075,404.8z"/>
<path class="st0" d="M1061.5,404.8c1.7,0,3.1,0.6,4.3,1.8c1.2,1.2,1.8,2.6,1.8,4.3c0,1.7-0.6,3.1-1.8,4.3c-1.2,1.2-2.6,1.8-4.3,1.8
	s-3.1-0.6-4.3-1.8c-1.2-1.2-1.8-2.6-1.8-4.3c0-1.7,0.6-3.1,1.8-4.3C1058.4,405.3,1059.9,404.8,1061.5,404.8z"/>
<path class="st0" d="M1142.5,420.3c1.7,0,3.1,0.6,4.3,1.8c1.2,1.1,1.8,2.6,1.8,4.3c0,1.7-0.6,3.1-1.8,4.3c-1.2,1.2-2.6,1.8-4.3,1.8
	c-1.7,0-3.1-0.6-4.3-1.8c-1.2-1.2-1.8-2.6-1.8-4.3c0-1.7,0.6-3.1,1.8-4.3C1139.5,420.9,1140.8,420.3,1142.5,420.3z"/>
<path class="st0" d="M1101.8,420.3c1.7,0,3.1,0.6,4.3,1.8c1.2,1.2,1.8,2.6,1.8,4.3c0,1.7-0.6,3.1-1.8,4.3c-1.2,1.2-2.6,1.8-4.3,1.8
	c-1.7,0-3.1-0.6-4.3-1.8s-1.8-2.6-1.8-4.3c0-1.7,0.6-3.1,1.8-4.3C1098.8,420.9,1100.2,420.3,1101.8,420.3z"/>
<path class="st0" d="M1061.3,420.4c1.7,0,3.1,0.6,4.3,1.8c1.2,1.2,1.8,2.6,1.8,4.3c0,1.7-0.6,3.1-1.8,4.3c-1.2,1.1-2.6,1.8-4.3,1.8
	c-1.7,0-3.1-0.6-4.3-1.8c-1.2-1.2-1.8-2.6-1.8-4.3c0-1.7,0.6-3.1,1.8-4.3C1058.2,421.1,1059.6,420.4,1061.3,420.4z"/>
<path class="st0" d="M1142.9,436.2c1.7,0,3.1,0.6,4.3,1.8c1.2,1.2,1.8,2.6,1.8,4.3c0,1.7-0.6,3.1-1.8,4.3c-1.2,1.2-2.6,1.8-4.3,1.8
	s-3.1-0.6-4.3-1.8c-1.2-1.2-1.8-2.6-1.8-4.3c0-1.7,0.6-3.1,1.8-4.3C1139.8,436.9,1141.2,436.2,1142.9,436.2z"/>
<path class="st0" d="M1102.2,436.3c1.7,0,3.1,0.6,4.3,1.8c1.2,1.2,1.8,2.6,1.8,4.3c0,1.7-0.6,3.1-1.8,4.3c-1.2,1.1-2.6,1.8-4.3,1.8
	c-1.8,0-3.1-0.6-4.3-1.8c-1.2-1.2-1.8-2.6-1.8-4.3c0-1.7,0.6-3.1,1.8-4.3C1099.2,437,1100.5,436.3,1102.2,436.3z"/>
<path class="st0" d="M1061.6,436.5c1.7,0,3.1,0.6,4.3,1.8c1.1,1.1,1.8,2.6,1.8,4.3c0,1.7-0.6,3.1-1.8,4.3c-1.2,1.2-2.6,1.8-4.3,1.8
	s-3.1-0.6-4.3-1.8c-1.2-1.2-1.8-2.6-1.8-4.3c0-1.7,0.6-3.1,1.8-4.3C1058.5,437.1,1060,436.5,1061.6,436.5z"/>
<path class="st0" d="M1142.9,451.6c1.7,0,3.1,0.6,4.3,1.8c1.2,1.2,1.8,2.6,1.8,4.3c0,1.7-0.6,3.1-1.8,4.3c-1.2,1.1-2.6,1.8-4.3,1.8
	s-3.1-0.6-4.3-1.8c-1.2-1.2-1.8-2.6-1.8-4.3c0-1.7,0.6-3.1,1.8-4.3C1139.8,452.1,1141.2,451.6,1142.9,451.6z"/>
<path class="st0" d="M1102.3,451.7c1.7,0,3.1,0.6,4.3,1.8c1.2,1.1,1.8,2.6,1.8,4.3c0,1.7-0.6,3.1-1.8,4.3c-1.2,1.2-2.6,1.8-4.3,1.8
	c-1.7,0-3.1-0.6-4.3-1.8c-1.2-1.2-1.8-2.6-1.8-4.3c0-1.7,0.6-3.1,1.8-4.3C1099.2,452.2,1100.6,451.7,1102.3,451.7z"/>
<path class="st0" d="M1061.6,451.8c1.7,0,3.1,0.6,4.3,1.8c1.2,1.1,1.8,2.6,1.8,4.3c0,1.7-0.6,3.1-1.8,4.3c-1.2,1.2-2.6,1.8-4.3,1.8
	c-1.8,0-3.1-0.6-4.3-1.8c-1.2-1.2-1.8-2.6-1.8-4.3c0-1.7,0.6-3.1,1.8-4.3C1058.5,452.4,1060,451.8,1061.6,451.8z"/>
<path class="st0" d="M1129.1,467.4c1.7,0,3.1,0.6,4.3,1.8c1.1,1.2,1.8,2.6,1.8,4.3c0,1.7-0.6,3.1-1.8,4.3c-1.2,1.2-2.6,1.8-4.3,1.8
	c-1.7,0-3.1-0.6-4.3-1.8c-1.2-1.1-1.8-2.6-1.8-4.3c0-1.7,0.6-3.1,1.8-4.3C1126,467.9,1127.4,467.4,1129.1,467.4z"/>
<path class="st0" d="M1115.6,467.4c1.7,0,3.1,0.6,4.3,1.8c1.2,1.2,1.8,2.6,1.8,4.3c0,1.7-0.6,3.1-1.8,4.3c-1.2,1.2-2.6,1.8-4.3,1.8
	c-1.7,0-3.1-0.6-4.3-1.8c-1.2-1.2-1.8-2.6-1.8-4.3c0-1.7,0.6-3.1,1.8-4.3C1112.5,467.9,1113.9,467.4,1115.6,467.4z"/>
<path class="st0" d="M1061.4,467.5c1.7,0,3.1,0.6,4.3,1.8c1.2,1.2,1.8,2.6,1.8,4.3c0,1.7-0.6,3.1-1.8,4.3c-1.2,1.2-2.6,1.8-4.3,1.8
	s-3.1-0.6-4.3-1.8c-1.2-1.2-1.8-2.6-1.8-4.3c0-1.7,0.6-3.1,1.8-4.3C1058.3,468.1,1059.7,467.5,1061.4,467.5z"/>
<path class="st0" d="M1129.3,492.9c1.7,0,3.1,0.6,4.3,1.8c1.2,1.2,1.8,2.6,1.8,4.3c0,1.7-0.6,3.1-1.8,4.3c-1.2,1.1-2.6,1.8-4.3,1.8
	c-1.7,0-3.1-0.6-4.3-1.8c-1.2-1.2-1.8-2.6-1.8-4.3c0-1.7,0.6-3.1,1.8-4.3C1126.1,493.4,1127.6,492.9,1129.3,492.9z"/>
<path class="st0" d="M1115.7,492.9c1.7,0,3.1,0.6,4.3,1.8c1.2,1.2,1.8,2.6,1.8,4.3c0,1.7-0.6,3.1-1.8,4.3c-1.2,1.2-2.6,1.8-4.3,1.8
	c-1.8,0-3.1-0.6-4.3-1.8c-1.2-1.2-1.8-2.6-1.8-4.3c0-1.7,0.6-3.1,1.8-4.3C1112.7,493.4,1114,492.9,1115.7,492.9z"/>
<path class="st0" d="M1102.2,492.9c1.7,0,3.1,0.6,4.3,1.8c1.2,1.2,1.8,2.6,1.8,4.3c0,1.7-0.6,3.1-1.8,4.3c-1.2,1.2-2.6,1.8-4.3,1.8
	c-1.7,0-3.1-0.6-4.3-1.8c-1.2-1.2-1.8-2.6-1.8-4.3c0-1.7,0.6-3.1,1.8-4.3C1099.1,493.4,1100.5,492.9,1102.2,492.9z"/>
<path class="st0" d="M1088.5,493c1.7,0,3.1,0.6,4.3,1.8c1.2,1.2,1.8,2.6,1.8,4.3c0,1.7-0.6,3.1-1.8,4.3c-1.2,1.2-2.6,1.8-4.3,1.8
	c-1.8,0-3.1-0.6-4.3-1.8c-1.2-1.2-1.8-2.6-1.8-4.3c0-1.7,0.6-3.1,1.8-4.3C1085.5,493.5,1086.9,493,1088.5,493z"/>
<path class="st0" d="M1075,493c1.7,0,3.1,0.6,4.3,1.8c1.2,1.2,1.8,2.6,1.8,4.3c0,1.7-0.6,3.1-1.8,4.3c-1.2,1.1-2.6,1.8-4.3,1.8
	c-1.7,0-3.1-0.6-4.3-1.8c-1.2-1.2-1.8-2.6-1.8-4.3c0-1.7,0.6-3.1,1.8-4.3C1072,493.5,1073.4,493,1075,493z"/>
<path class="st0" d="M1142.5,508.5c1.7,0,3.1,0.6,4.3,1.8c1.2,1.1,1.8,2.6,1.8,4.3c0,1.7-0.6,3.1-1.8,4.3c-1.2,1.2-2.6,1.8-4.3,1.8
	c-1.7,0-3.1-0.6-4.3-1.8c-1.2-1.2-1.8-2.6-1.8-4.3c0-1.7,0.6-3.1,1.8-4.3C1139.5,509.1,1140.8,508.5,1142.5,508.5z"/>
<path class="st0" d="M1061.3,508.6c1.7,0,3.1,0.6,4.3,1.8c1.2,1.2,1.8,2.6,1.8,4.3c0,1.7-0.6,3.1-1.8,4.3c-1.2,1.1-2.6,1.8-4.3,1.8
	c-1.7,0-3.1-0.6-4.3-1.8c-1.2-1.2-1.8-2.6-1.8-4.3c0-1.7,0.6-3.1,1.8-4.3C1058.2,509.3,1059.6,508.6,1061.3,508.6z"/>
<path class="st0" d="M1142.9,524.4c1.7,0,3.1,0.6,4.3,1.8c1.2,1.2,1.8,2.6,1.8,4.3c0,1.7-0.6,3.1-1.8,4.3c-1.2,1.2-2.6,1.8-4.3,1.8
	s-3.1-0.6-4.3-1.8s-1.8-2.6-1.8-4.3c0-1.7,0.6-3.1,1.8-4.3C1139.8,525.1,1141.2,524.4,1142.9,524.4z"/>
<path class="st0" d="M1061.6,524.7c1.7,0,3.1,0.6,4.3,1.8c1.1,1.1,1.8,2.6,1.8,4.3c0,1.7-0.6,3.1-1.8,4.3c-1.2,1.2-2.6,1.8-4.3,1.8
	s-3.1-0.6-4.3-1.8c-1.2-1.2-1.8-2.6-1.8-4.3c0-1.7,0.6-3.1,1.8-4.3C1058.5,525.2,1060,524.7,1061.6,524.7z"/>
<path class="st0" d="M1142.9,539.8c1.7,0,3.1,0.6,4.3,1.8c1.2,1.2,1.8,2.6,1.8,4.3c0,1.7-0.6,3.1-1.8,4.3c-1.2,1.1-2.6,1.8-4.3,1.8
	s-3.1-0.6-4.3-1.8c-1.2-1.2-1.8-2.6-1.8-4.3c0-1.7,0.6-3.1,1.8-4.3C1139.8,540.4,1141.2,539.8,1142.9,539.8z"/>
<path class="st0" d="M1061.6,540c1.7,0,3.1,0.6,4.3,1.8c1.2,1.1,1.8,2.6,1.8,4.3c0,1.7-0.6,3.1-1.8,4.3c-1.2,1.2-2.6,1.8-4.3,1.8
	c-1.8,0-3.1-0.6-4.3-1.8c-1.2-1.2-1.8-2.6-1.8-4.3c0-1.7,0.6-3.1,1.8-4.3C1058.5,540.6,1060,540,1061.6,540z"/>
<path class="st0" d="M1129.1,555.6c1.7,0,3.1,0.6,4.3,1.8c1.1,1.2,1.8,2.6,1.8,4.3c0,1.7-0.6,3.1-1.8,4.3c-1.2,1.2-2.6,1.8-4.3,1.8
	c-1.7,0-3.1-0.6-4.3-1.8c-1.2-1.1-1.8-2.6-1.8-4.3c0-1.7,0.6-3.1,1.8-4.3C1126,556.1,1127.4,555.6,1129.1,555.6z"/>
<path class="st0" d="M1115.6,555.6c1.7,0,3.1,0.6,4.3,1.8c1.2,1.2,1.8,2.6,1.8,4.3c0,1.7-0.6,3.1-1.8,4.3c-1.2,1.2-2.6,1.8-4.3,1.8
	c-1.7,0-3.1-0.6-4.3-1.8c-1.2-1.2-1.8-2.6-1.8-4.3c0-1.7,0.6-3.1,1.8-4.3C1112.5,556.1,1113.9,555.6,1115.6,555.6z"/>
<path class="st0" d="M1101.9,555.7c1.7,0,3.1,0.6,4.3,1.8c1.2,1.1,1.8,2.6,1.8,4.3c0,1.7-0.6,3.1-1.8,4.3c-1.2,1.2-2.6,1.8-4.3,1.8
	c-1.8,0-3.1-0.6-4.3-1.8c-1.2-1.2-1.8-2.6-1.8-4.3c0-1.7,0.6-3.1,1.8-4.3C1098.9,556.3,1100.3,555.7,1101.9,555.7z"/>
<path class="st0" d="M1088.4,555.7c1.7,0,3.1,0.6,4.3,1.8c1.2,1.1,1.8,2.6,1.8,4.3c0,1.7-0.6,3.1-1.8,4.3c-1.2,1.2-2.6,1.8-4.3,1.8
	c-1.8,0-3.1-0.6-4.3-1.8c-1.2-1.2-1.8-2.6-1.8-4.3c0-1.7,0.6-3.1,1.8-4.3C1085.3,556.3,1086.8,555.7,1088.4,555.7z"/>
<path class="st0" d="M1074.9,555.7c1.7,0,3.1,0.6,4.3,1.8c1.2,1.2,1.8,2.6,1.8,4.3c0,1.7-0.6,3.1-1.8,4.3c-1.2,1.2-2.6,1.8-4.3,1.8
	c-1.7,0-3.1-0.6-4.3-1.8c-1.2-1.1-1.8-2.6-1.8-4.3c0-1.7,0.6-3.1,1.8-4.3C1071.8,556.3,1073.3,555.7,1074.9,555.7z"/>
<path class="st0" d="M1129.3,585.5c1.7,0,3.1,0.6,4.3,1.8s1.8,2.6,1.8,4.3c0,1.7-0.6,3.1-1.8,4.3c-1.2,1.1-2.6,1.8-4.3,1.8
	c-1.7,0-3.1-0.6-4.3-1.8c-1.2-1.2-1.8-2.6-1.8-4.3c0-1.7,0.6-3.1,1.8-4.3C1126.1,586.1,1127.6,585.5,1129.3,585.5z"/>
<path class="st0" d="M1088.5,585.6c1.7,0,3.1,0.6,4.3,1.8c1.2,1.2,1.8,2.6,1.8,4.3c0,1.7-0.6,3.1-1.8,4.3c-1.2,1.2-2.6,1.8-4.3,1.8
	c-1.8,0-3.1-0.6-4.3-1.8c-1.2-1.2-1.8-2.6-1.8-4.3c0-1.7,0.6-3.1,1.8-4.3C1085.5,586.2,1086.9,585.6,1088.5,585.6z"/>
<path class="st0" d="M1075,585.6c1.7,0,3.1,0.6,4.3,1.8c1.2,1.2,1.8,2.6,1.8,4.3c0,1.7-0.6,3.1-1.8,4.3c-1.2,1.1-2.6,1.8-4.3,1.8
	c-1.7,0-3.1-0.6-4.3-1.8s-1.8-2.6-1.8-4.3c0-1.7,0.6-3.1,1.8-4.3C1072,586.2,1073.4,585.6,1075,585.6z"/>
<path class="st0" d="M1061.5,585.6c1.7,0,3.1,0.6,4.3,1.8c1.2,1.2,1.8,2.6,1.8,4.3c0,1.7-0.6,3.1-1.8,4.3c-1.2,1.2-2.6,1.8-4.3,1.8
	s-3.1-0.6-4.3-1.8c-1.2-1.2-1.8-2.6-1.8-4.3c0-1.7,0.6-3.1,1.8-4.3C1058.4,586.2,1059.9,585.6,1061.5,585.6z"/>
<path class="st0" d="M1142.5,601.1c1.7,0,3.1,0.6,4.3,1.8c1.2,1.1,1.8,2.6,1.8,4.3c0,1.7-0.6,3.1-1.8,4.3c-1.2,1.2-2.6,1.8-4.3,1.8
	c-1.7,0-3.1-0.6-4.3-1.8c-1.2-1.2-1.8-2.6-1.8-4.3c0-1.7,0.6-3.1,1.8-4.3C1139.5,601.8,1140.8,601.1,1142.5,601.1z"/>
<path class="st0" d="M1101.8,601.1c1.7,0,3.1,0.6,4.3,1.8c1.2,1.2,1.8,2.6,1.8,4.3c0,1.7-0.6,3.1-1.8,4.3c-1.2,1.2-2.6,1.8-4.3,1.8
	c-1.7,0-3.1-0.6-4.3-1.8c-1.2-1.2-1.8-2.6-1.8-4.3c0-1.7,0.6-3.1,1.8-4.3C1098.8,601.8,1100.2,601.1,1101.8,601.1z"/>
<path class="st0" d="M1061.3,601.3c1.7,0,3.1,0.6,4.3,1.8c1.2,1.2,1.8,2.6,1.8,4.3c0,1.7-0.6,3.1-1.8,4.3c-1.2,1.1-2.6,1.8-4.3,1.8
	c-1.7,0-3.1-0.6-4.3-1.8c-1.2-1.2-1.8-2.6-1.8-4.3c0-1.7,0.6-3.1,1.8-4.3C1058.2,601.9,1059.6,601.3,1061.3,601.3z"/>
<path class="st0" d="M1142.9,617c1.7,0,3.1,0.6,4.3,1.8c1.2,1.2,1.8,2.6,1.8,4.3c0,1.7-0.6,3.1-1.8,4.3c-1.2,1.2-2.6,1.8-4.3,1.8
	s-3.1-0.6-4.3-1.8s-1.8-2.6-1.8-4.3c0-1.7,0.6-3.1,1.8-4.3C1139.8,617.7,1141.2,617,1142.9,617z"/>
<path class="st0" d="M1102.2,617.2c1.7,0,3.1,0.6,4.3,1.8c1.2,1.2,1.8,2.6,1.8,4.3c0,1.7-0.6,3.1-1.8,4.3c-1.2,1.1-2.6,1.8-4.3,1.8
	c-1.8,0-3.1-0.6-4.3-1.8c-1.2-1.2-1.8-2.6-1.8-4.3c0-1.7,0.6-3.1,1.8-4.3C1099.2,617.8,1100.5,617.2,1102.2,617.2z"/>
<path class="st0" d="M1061.6,617.3c1.7,0,3.1,0.6,4.3,1.8c1.1,1.1,1.8,2.6,1.8,4.3c0,1.7-0.6,3.1-1.8,4.3c-1.2,1.2-2.6,1.8-4.3,1.8
	s-3.1-0.6-4.3-1.8c-1.2-1.2-1.8-2.6-1.8-4.3c0-1.7,0.6-3.1,1.8-4.3C1058.5,617.9,1060,617.3,1061.6,617.3z"/>
<path class="st0" d="M1142.9,632.4c1.7,0,3.1,0.6,4.3,1.8c1.2,1.2,1.8,2.6,1.8,4.3c0,1.7-0.6,3.1-1.8,4.3c-1.2,1.1-2.6,1.8-4.3,1.8
	s-3.1-0.6-4.3-1.8c-1.2-1.2-1.8-2.6-1.8-4.3c0-1.7,0.6-3.1,1.8-4.3C1139.8,633,1141.2,632.4,1142.9,632.4z"/>
<path class="st0" d="M1102.3,632.5c1.7,0,3.1,0.6,4.3,1.8c1.2,1.1,1.8,2.6,1.8,4.3c0,1.7-0.6,3.1-1.8,4.3c-1.2,1.2-2.6,1.8-4.3,1.8
	c-1.7,0-3.1-0.6-4.3-1.8c-1.2-1.2-1.8-2.6-1.8-4.3c0-1.7,0.6-3.1,1.8-4.3C1099.2,633.1,1100.6,632.5,1102.3,632.5z"/>
<path class="st0" d="M1061.6,632.7c1.7,0,3.1,0.6,4.3,1.8c1.2,1.1,1.8,2.6,1.8,4.3c0,1.7-0.6,3.1-1.8,4.3c-1.2,1.2-2.6,1.8-4.3,1.8
	c-1.8,0-3.1-0.6-4.3-1.8c-1.2-1.2-1.8-2.6-1.8-4.3c0-1.7,0.6-3.1,1.8-4.3C1058.5,633.2,1060,632.7,1061.6,632.7z"/>
<path class="st0" d="M1129.1,648.2c1.7,0,3.1,0.6,4.3,1.8c1.1,1.2,1.8,2.6,1.8,4.3c0,1.7-0.6,3.1-1.8,4.3c-1.2,1.2-2.6,1.8-4.3,1.8
	c-1.7,0-3.1-0.6-4.3-1.8c-1.2-1.1-1.8-2.6-1.8-4.3c0-1.7,0.6-3.1,1.8-4.3C1126,648.7,1127.4,648.2,1129.1,648.2z"/>
<path class="st0" d="M1115.6,648.2c1.7,0,3.1,0.6,4.3,1.8c1.2,1.2,1.8,2.6,1.8,4.3c0,1.7-0.6,3.1-1.8,4.3c-1.2,1.2-2.6,1.8-4.3,1.8
	c-1.7,0-3.1-0.6-4.3-1.8c-1.2-1.2-1.8-2.6-1.8-4.3c0-1.7,0.6-3.1,1.8-4.3C1112.5,648.7,1113.9,648.2,1115.6,648.2z"/>
<path class="st0" d="M1061.4,648.3c1.7,0,3.1,0.6,4.3,1.8c1.2,1.2,1.8,2.6,1.8,4.3c0,1.7-0.6,3.1-1.8,4.3c-1.2,1.2-2.6,1.8-4.3,1.8
	s-3.1-0.6-4.3-1.8c-1.2-1.2-1.8-2.6-1.8-4.3c0-1.7,0.6-3.1,1.8-4.3C1058.3,648.9,1059.7,648.3,1061.4,648.3z"/>
<path class="st0" d="M1129.3,673.7c1.7,0,3.1,0.6,4.3,1.8c1.2,1.2,1.8,2.6,1.8,4.3c0,1.7-0.6,3.1-1.8,4.3c-1.2,1.1-2.6,1.8-4.3,1.8
	c-1.7,0-3.1-0.6-4.3-1.8c-1.2-1.2-1.8-2.6-1.8-4.3c0-1.7,0.6-3.1,1.8-4.3C1126.1,674.3,1127.6,673.7,1129.3,673.7z"/>
<path class="st0" d="M1088.5,673.8c1.7,0,3.1,0.6,4.3,1.8c1.2,1.2,1.8,2.6,1.8,4.3c0,1.7-0.6,3.1-1.8,4.3c-1.2,1.2-2.6,1.8-4.3,1.8
	c-1.8,0-3.1-0.6-4.3-1.8c-1.2-1.2-1.8-2.6-1.8-4.3c0-1.7,0.6-3.1,1.8-4.3C1085.5,674.4,1086.9,673.8,1088.5,673.8z"/>
<path class="st0" d="M1075,673.8c1.7,0,3.1,0.6,4.3,1.8s1.8,2.6,1.8,4.3c0,1.7-0.6,3.1-1.8,4.3c-1.2,1.1-2.6,1.8-4.3,1.8
	c-1.7,0-3.1-0.6-4.3-1.8c-1.2-1.2-1.8-2.6-1.8-4.3c0-1.7,0.6-3.1,1.8-4.3C1072,674.4,1073.4,673.8,1075,673.8z"/>
<path class="st0" d="M1061.5,673.8c1.7,0,3.1,0.6,4.3,1.8s1.8,2.6,1.8,4.3c0,1.7-0.6,3.1-1.8,4.3c-1.2,1.2-2.6,1.8-4.3,1.8
	s-3.1-0.6-4.3-1.8c-1.2-1.2-1.8-2.6-1.8-4.3c0-1.7,0.6-3.1,1.8-4.3C1058.4,674.4,1059.9,673.8,1061.5,673.8z"/>
<path class="st0" d="M1142.5,689.4c1.7,0,3.1,0.6,4.3,1.8c1.2,1.1,1.8,2.6,1.8,4.3c0,1.7-0.6,3.1-1.8,4.3c-1.2,1.2-2.6,1.8-4.3,1.8
	c-1.7,0-3.1-0.6-4.3-1.8c-1.2-1.2-1.8-2.6-1.8-4.3c0-1.7,0.6-3.1,1.8-4.3C1139.5,690,1140.8,689.4,1142.5,689.4z"/>
<path class="st0" d="M1101.8,689.4c1.7,0,3.1,0.6,4.3,1.8s1.8,2.6,1.8,4.3c0,1.7-0.6,3.1-1.8,4.3s-2.6,1.8-4.3,1.8
	c-1.7,0-3.1-0.6-4.3-1.8s-1.8-2.6-1.8-4.3c0-1.7,0.6-3.1,1.8-4.3C1098.8,690,1100.2,689.4,1101.8,689.4z"/>
<path class="st0" d="M1061.3,689.5c1.7,0,3.1,0.6,4.3,1.8c1.2,1.2,1.8,2.6,1.8,4.3c0,1.7-0.6,3.1-1.8,4.3c-1.2,1.1-2.6,1.8-4.3,1.8
	c-1.7,0-3.1-0.6-4.3-1.8c-1.2-1.2-1.8-2.6-1.8-4.3c0-1.7,0.6-3.1,1.8-4.3C1058.2,690.1,1059.6,689.5,1061.3,689.5z"/>
<path class="st0" d="M1142.9,705.3c1.7,0,3.1,0.6,4.3,1.8c1.2,1.2,1.8,2.6,1.8,4.3c0,1.7-0.6,3.1-1.8,4.3c-1.2,1.2-2.6,1.8-4.3,1.8
	s-3.1-0.6-4.3-1.8s-1.8-2.6-1.8-4.3c0-1.7,0.6-3.1,1.8-4.3C1139.8,705.9,1141.2,705.3,1142.9,705.3z"/>
<path class="st0" d="M1102.2,705.4c1.7,0,3.1,0.6,4.3,1.8c1.2,1.2,1.8,2.6,1.8,4.3c0,1.7-0.6,3.1-1.8,4.3c-1.2,1.1-2.6,1.8-4.3,1.8
	c-1.8,0-3.1-0.6-4.3-1.8c-1.2-1.2-1.8-2.6-1.8-4.3c0-1.7,0.6-3.1,1.8-4.3C1099.2,706.1,1100.5,705.4,1102.2,705.4z"/>
<path class="st0" d="M1061.6,705.5c1.7,0,3.1,0.6,4.3,1.8c1.1,1.1,1.8,2.6,1.8,4.3c0,1.7-0.6,3.1-1.8,4.3c-1.2,1.2-2.6,1.8-4.3,1.8
	s-3.1-0.6-4.3-1.8c-1.2-1.2-1.8-2.6-1.8-4.3c0-1.7,0.6-3.1,1.8-4.3C1058.5,706.2,1060,705.5,1061.6,705.5z"/>
<path class="st0" d="M1142.9,720.6c1.7,0,3.1,0.6,4.3,1.8c1.2,1.2,1.8,2.6,1.8,4.3c0,1.7-0.6,3.1-1.8,4.3c-1.2,1.1-2.6,1.8-4.3,1.8
	s-3.1-0.6-4.3-1.8c-1.2-1.2-1.8-2.6-1.8-4.3c0-1.7,0.6-3.1,1.8-4.3C1139.8,721.2,1141.2,720.6,1142.9,720.6z"/>
<path class="st0" d="M1102.3,720.8c1.7,0,3.1,0.6,4.3,1.8c1.2,1.1,1.8,2.6,1.8,4.3c0,1.7-0.6,3.1-1.8,4.3c-1.2,1.2-2.6,1.8-4.3,1.8
	c-1.7,0-3.1-0.6-4.3-1.8c-1.2-1.2-1.8-2.6-1.8-4.3c0-1.7,0.6-3.1,1.8-4.3C1099.2,721.3,1100.6,720.8,1102.3,720.8z"/>
<path class="st0" d="M1061.6,720.9c1.7,0,3.1,0.6,4.3,1.8c1.2,1.1,1.8,2.6,1.8,4.3c0,1.7-0.6,3.1-1.8,4.3c-1.2,1.2-2.6,1.8-4.3,1.8
	c-1.8,0-3.1-0.6-4.3-1.8c-1.2-1.2-1.8-2.6-1.8-4.3c0-1.7,0.6-3.1,1.8-4.3C1058.5,721.4,1060,720.9,1061.6,720.9z"/>
<path class="st0" d="M1129.1,736.4c1.7,0,3.1,0.6,4.3,1.8c1.1,1.2,1.8,2.6,1.8,4.3c0,1.7-0.6,3.1-1.8,4.3c-1.2,1.2-2.6,1.8-4.3,1.8
	c-1.7,0-3.1-0.6-4.3-1.8c-1.2-1.1-1.8-2.6-1.8-4.3c0-1.7,0.6-3.1,1.8-4.3S1127.4,736.4,1129.1,736.4z"/>
<path class="st0" d="M1115.6,736.4c1.7,0,3.1,0.6,4.3,1.8c1.2,1.2,1.8,2.6,1.8,4.3c0,1.7-0.6,3.1-1.8,4.3c-1.2,1.2-2.6,1.8-4.3,1.8
	c-1.7,0-3.1-0.6-4.3-1.8c-1.2-1.2-1.8-2.6-1.8-4.3c0-1.7,0.6-3.1,1.8-4.3S1113.9,736.4,1115.6,736.4z"/>
<path class="st0" d="M1061.4,736.6c1.7,0,3.1,0.6,4.3,1.8c1.2,1.2,1.8,2.6,1.8,4.3c0,1.7-0.6,3.1-1.8,4.3c-1.2,1.2-2.6,1.8-4.3,1.8
	s-3.1-0.6-4.3-1.8c-1.2-1.2-1.8-2.6-1.8-4.3c0-1.7,0.6-3.1,1.8-4.3C1058.3,737.1,1059.7,736.6,1061.4,736.6z"/>
</svg>
