<?xml version="1.0" encoding="utf-8"?>
<!-- Generator: Adobe Illustrator 26.3.1, SVG Export Plug-In . SVG Version: 6.00 Build 0)  -->
<svg version="1.1" id="Layer_1" xmlns="http://www.w3.org/2000/svg" xmlns:xlink="http://www.w3.org/1999/xlink" x="0px" y="0px"
	 viewBox="0 0 1190.6 850.4" style="enable-background:new 0 0 1190.6 850.4;" xml:space="preserve">
<style type="text/css">
	.st0{fill:none;stroke:#000000;stroke-width:8;stroke-miterlimit:10;}
</style>
<text transform="matrix(1 0 0 1 -87.6422 -10.2339)" style="fill:none;stroke:#010101;stroke-width:8;stroke-miterlimit:10; font-family:'ArialMT'; font-size:12px;"> </text>
<polygon class="st0" points="97.8,402.6 109.3,402.6 125.6,447.6 113.8,447.6 111.2,439.5 95.4,439.5 92.8,447.6 81.6,447.6 "/>
<path class="st0" d="M108.6,431.6l-3.4-10.9c-0.8-2.4-1.7-6.3-1.7-6.3h-0.2c0,0-1.1,4-1.8,6.3l-3.4,10.9H108.6z"/>
<path class="st0" d="M203.4,402.6h11.2l13.4,22.7c0.7,1.3,3.1,5.7,3.1,5.7h0.2c0,0-0.2-5.4-0.2-7v-21.4H242v45.1h-11.2l-13.2-22.3
	c-0.8-1.2-3.2-6-3.2-6h-0.1c0,0,0.2,5.8,0.2,7.4v21h-10.9L203.4,402.6L203.4,402.6L203.4,402.6z"/>
<path class="st0" d="M248.2,402.6h34.2v9.2h-23v8.1h19.8v8.7h-19.8v9.6h23.4v9.5h-34.6L248.2,402.6L248.2,402.6L248.2,402.6z"/>
<path class="st0" d="M284.7,402.6H296l4.5,18.9c1,4.3,2,11.1,2,11.1h0.2c0,0,1.2-6.2,2.2-10.7l4.2-19.4h10.3l4.2,19.2
	c1,4.6,2.1,10.8,2.1,10.8h0.2c0,0,1.3-6.8,2.3-11.3l4.5-18.8H344l-12.4,45.1h-10.9l-4.7-21.6c-0.8-3.6-1.6-8.4-1.6-8.4h-0.2
	c0,0-0.8,4.8-1.5,8.4l-4.7,21.6h-11L284.7,402.6z"/>
<polygon class="st0" points="428.4,402.6 439.8,402.6 456.1,447.6 444.4,447.6 441.7,439.5 425.9,439.5 423.4,447.6 412.1,447.6 "/>
<path class="st0" d="M439.1,431.6l-3.4-10.9c-0.8-2.4-1.7-6.3-1.7-6.3h-0.2c0,0-1.1,4-1.8,6.3l-3.4,10.9H439.1z"/>
<path class="st0" d="M460.7,442.3c-3.9-4.3-6-10.2-6-17.1c0-7.1,2.4-13.3,6.7-17.6c3.7-3.8,8.9-6,15.4-6c11.6,0,18.5,6.2,20,15.6
	h-10.8c-0.8-3.7-3.8-6.4-8.8-6.4c-7.4,0-11.1,6.2-11.1,14.3c0,8.2,4.3,14.3,11.4,14.3c5.9,0,9.3-3.9,9.8-7.9v-0.2h-8.5v-8.2h18.8
	v24.2h-7.8l-0.6-5.4h-0.2c-3,4.6-7.4,6.4-12.8,6.4C469.7,448.7,464.4,446.4,460.7,442.3z"/>
<path class="st0" d="M502.8,402.6H537v9.2h-23v8.1h19.8v8.7H514v9.6h23.4v9.5h-34.6L502.8,402.6L502.8,402.6L502.8,402.6z"/>
<path class="st0" d="M616.7,425.1c0-13.5,8.6-23.5,22.3-23.5c13.7,0,22.3,10,22.3,23.5s-8.6,23.5-22.3,23.5
	C625.4,448.7,616.7,438.6,616.7,425.1z"/>
<path class="st0" d="M649.9,425.1c0-8.2-3.6-14.5-10.9-14.5c-7.2,0-11,6.3-11,14.5c0,8.2,3.7,14.4,11,14.4
	C646.4,439.6,649.9,433.4,649.9,425.1z"/>
<path class="st0" d="M665.6,402.6h33.5v9.4h-22.4v9.2h18.7v9h-18.7v17.6h-11.1V402.6L665.6,402.6z"/>
<path class="st0" d="M748.4,446.3c-8.6,5.7-20.8,5.3-29.1-0.9c-0.2-0.1-0.4-0.2-0.5-0.4c-18.6-14.9-6.8-46,16.9-44.9
	c10.5,0.5,20.4,8.3,23.1,18.5C761.7,428.8,757.2,440.5,748.4,446.3z"/>
<path class="st0" d="M602.6,428.7c-1.5,10.4-10.2,19.5-20.6,21.3c-10.4,1.8-21.7-3.7-26.7-13.1c-2.5-4.8-3.3-9.6-2.7-14.3
	c2-15.8,19.6-28.3,36.1-20.1C598.2,407.1,604.1,418.2,602.6,428.7z"/>
<path class="st0" d="M403.1,430.6c-2.3,10.3-11.8,18.7-22.3,19.8c-10.5,1-21.3-5.3-25.6-14.9c0-0.1-0.1-0.1-0.1-0.2
	c-9.6-21.9,15.4-44.1,36.1-32C400.4,408.7,405.4,420.2,403.1,430.6z"/>
<path class="st0" d="M172,448c-9.6,4.3-22,1.7-29.1-6.1c-7.1-7.8-8.5-20.4-3.2-29.6c3.7-6.5,9.4-10.2,15.6-11.7
	c13.7-3.1,29.7,5.2,31.4,21.6C187.9,432.8,181.5,443.7,172,448z"/>
<path class="st0" d="M72.2,431.3c-2.7,10.3-12.3,18.3-22.9,18.9c-8.4,0.5-16.9-3.6-21.9-10.3c-1.3-1.7-2.4-3.6-3.1-5.6
	c-3.8-9.8-0.7-22,7.4-28.7C50,390.4,78.1,408.4,72.2,431.3z"/>
<path class="st0" d="M773.9,425.1c0-13.5,8.6-23.5,22.3-23.5c13.7,0,22.3,10,22.3,23.5s-8.6,23.5-22.3,23.5
	C782.5,448.7,773.9,438.6,773.9,425.1z"/>
<path class="st0" d="M807.1,425.1c0-8.2-3.6-14.5-10.9-14.5c-7.3,0-11,6.3-11,14.5c0,8.2,3.8,14.4,11,14.4
	C803.5,439.6,807.1,433.4,807.1,425.1z"/>
<path class="st0" d="M822.9,402.5h21.6c8.9,0,15.8,4.6,15.8,13c0,5.3-2.6,9.1-7.8,10.9v0.2c3.9,1.3,6,3.8,6.6,8.2
	c0.9,6,0.3,11.6,1.9,12.1v0.5H850c-1.2-0.7-1-6-1.7-10.5c-0.5-4.2-2.7-6.4-7.5-6.4H834v16.9h-11.2L822.9,402.5L822.9,402.5z"/>
<path class="st0" d="M842.5,422.4c4.4,0,6.7-2.1,6.7-5.5c0-3.3-2.1-5.6-6.4-5.6h-8.6v11.1H842.5z"/>
<path class="st0" d="M865.4,402.5h11.2v45.1h-11.2V402.5z"/>
<path class="st0" d="M887,442.3c-3.9-4.3-6-10.2-6-17.1c0-7.1,2.4-13.3,6.7-17.6c3.7-3.8,8.9-6,15.4-6c11.6,0,18.6,6.2,20,15.7
	h-10.9c-0.8-3.7-3.8-6.4-8.8-6.4c-7.4,0-11.1,6.2-11.1,14.4s4.3,14.4,11.4,14.4c5.9,0,9.3-3.9,9.8-7.9v-0.2h-8.5v-8.2h18.8v24.2
	h-7.8l-0.6-5.4h-0.2c-3,4.6-7.4,6.4-12.8,6.4C895.9,448.6,890.7,446.3,887,442.3z"/>
<path class="st0" d="M929.3,402.5h11.2v45.1h-11.2V402.5z"/>
<path class="st0" d="M946.6,402.5h11.2l13.4,22.7c0.7,1.3,3.1,5.7,3.1,5.7h0.2c0,0-0.2-5.4-0.2-7v-21.4h10.9v45.1H974l-13.2-22.3
	c-0.8-1.2-3.2-6-3.2-6h-0.2c0,0,0.2,5.8,0.2,7.4v21h-10.9V402.5z"/>
<polygon class="st0" points="1004.6,402.5 1016.1,402.5 1032.4,447.6 1020.6,447.6 1018,439.5 1002.2,439.5 999.6,447.6 
	988.4,447.6 "/>
<path class="st0" d="M1015.3,431.4l-3.4-10.9c-0.8-2.4-1.8-6.3-1.8-6.3h-0.2c0,0-1.1,4.1-1.8,6.3l-3.4,10.9H1015.3z"/>
<path class="st0" d="M1035.5,402.5h11.2v35.7h20.2v9.5h-31.4L1035.5,402.5L1035.5,402.5z"/>
<path class="st0" d="M1071.3,402.5h11.2v45.1h-11.2V402.5z"/>
<path class="st0" d="M1099.7,412h-13.1v-9.5h37.5v9.5h-13.2v35.7h-11.2V412z"/>
<path class="st0" d="M1141.5,430.9l-15.3-28.5h12.1l5.8,11.7c1.5,3.1,3,6.9,3,6.9h0.2c0,0,1.6-3.8,3.1-6.9l5.7-11.7h11.8l-15.3,28.5
	v16.7h-11.1V430.9z"/>
</svg>
