<?xml version="1.0" encoding="utf-8"?>
<!-- Generator: Adobe Illustrator 26.3.1, SVG Export Plug-In . SVG Version: 6.00 Build 0)  -->
<svg version="1.1" id="Layer_1" xmlns="http://www.w3.org/2000/svg" xmlns:xlink="http://www.w3.org/1999/xlink" x="0px" y="0px"
	 viewBox="0 0 1190.6 850.4" style="enable-background:new 0 0 1190.6 850.4;" xml:space="preserve">
<style type="text/css">
	.st0{fill:none;stroke:#010101;stroke-width:8;stroke-miterlimit:10;}
</style>
<text transform="matrix(1 0 0 1 -87.6422 -10.2339)" class="st0" style="font-family:'ArialMT'; font-size:12px;"> </text>
<polygon class="st0" points="506.9,213.9 506.9,199.7 499.2,197.8 499.2,187 552.2,200.8 552.2,210.5 552.2,212.6 499.2,226.5 
	499.2,215.7 "/>
<polygon class="st0" points="516.5,201.8 516.5,211.5 536.5,206.7 "/>
<path class="st0" d="M552.1,539.4V550l-30.9,13v0.1h30.9v10.3H499v-10.4l29.5-13.2v-0.1H499v-10.3h53.1V539.4z"/>
<path class="st0" d="M542.7,594.1H531v19.2h-9.6v-19.2h-12.7v21.2h-9.6v-22.6v-8.9h53.1v10.4v21.2h-9.6L542.7,594.1L542.7,594.1z"/>
<path class="st0" d="M552.1,619.9v10.4l-35,2.8v0.1l22,8.2v0.3l-22,8.2v0.1l35,2.9v10.4l-53.1-4.8v-10.4l18-6.5v-0.1l-18-6.5v-10.3
	L552.1,619.9z"/>
<polygon class="st0" points="439.8,213.9 439.8,199.7 432,197.8 432,187 485.1,200.8 485.1,210.5 485.1,212.6 432,226.5 432,215.7 
	"/>
<polygon class="st0" points="449.4,201.8 449.4,211.5 469.4,206.7 "/>
<path class="st0" d="M467.5,256.4h1.6c4.8,0,7-3.1,7-6.9c0-3.9-2.3-6.9-7-6.9h-21.2c-4.5,0-7,3.1-7,6.9s2.5,6.9,7,6.9h3.6v-7.5h8.9
	v17.9h-8.9h-2.9c-11.1,0-17.5-7.7-17.5-17.2c0-9.6,6.3-17.2,17.5-17.2h19.9c11.1,0,17.4,7.7,17.4,17.2c0,9.6-6.3,17.1-17.5,17.2
	h-0.8L467.5,256.4L467.5,256.4z"/>
<path class="st0" d="M475.5,287.3h-11.7v19.2h-9.6v-19.2h-12.7v21.2H432v-22.6V277h53.1v10.4v21.2h-9.6V287.3z"/>
<path class="st0" d="M468.5,616.1h-19.9c-11.1,0-17.5-7.7-17.5-17.2c0-9.6,6.3-17.2,17.5-17.2h19.9c11.1,0,17.4,7.7,17.4,17.2
	C485.8,608.5,479.5,616.1,468.5,616.1z"/>
<path class="st0" d="M469.1,605.8c4.8,0,7-3.1,7-6.9c0-3.9-2.3-6.9-7-6.9h-21.2c-4.5,0-7,3.1-7,6.9s2.5,6.9,7,6.9H469.1z"/>
<path class="st0" d="M475.5,635.7h-12.3v20h-9.6v-20H432v-10.3h53.1v10.3v22h-9.6V635.7z"/>
<path class="st0" d="M401.3,224h-19.9c-11.1,0-17.5-7.7-17.5-17.2c0-9.6,6.4-17.2,17.5-17.2h19.9c11.1,0,17.4,7.7,17.4,17.2
	S412.4,224,401.3,224z"/>
<path class="st0" d="M402.1,213.6c4.8,0,7-3.1,7-6.9c0-3.9-2.3-6.9-7-6.9h-21.4c-4.5,0-7,3.1-7,6.9s2.5,6.9,7,6.9H402.1z"/>
<path class="st0" d="M385.2,251.5v-7.2h-20.4v-10.4h53.1v10.4v8.3c0,11.3-2.8,14.8-16.2,14.8c-8.8,0-13.1-1.5-15-5.9l-21.8,7.2
	v-10.9L385.2,251.5z"/>
<path class="st0" d="M394.8,244.3v8.3c0,4,2.1,4.4,6.8,4.4c4.7,0,6.8-0.4,6.8-4.4v-8.3H394.8z"/>
<path class="st0" d="M374.4,309.6h-9.6v-21v-10.7h9.6v10.7h33.9v-9.9h9.6v20.2v9.9h-9.6v-9.9h-33.9V309.6z"/>
<path class="st0" d="M400.4,344.2h1.6c4.8,0,7-3.1,7-6.9c0-3.9-2.3-6.9-7-6.9h-21.4c-4.5,0-7,3.1-7,6.9s2.5,6.9,7,6.9h3.6v-7.5h8.9
	v17.9h-8.9h-2.9c-11.1,0-17.5-7.7-17.5-17.2c0-9.6,6.4-17.2,17.5-17.2h19.9c11.1,0,17.4,7.7,17.4,17.2c0,9.6-6.3,17.1-17.5,17.2
	h-0.8V344.2z"/>
<path class="st0" d="M374.4,396.5h-9.6v-21v-10.7h9.6v10.7h33.9v-9.9h9.6v20.2v9.9h-9.6v-9.9h-33.9V396.5z"/>
<path class="st0" d="M417.9,407.3v10.6l-30.9,13v0.1h30.9v10.3h-53.1v-10.4l29.5-13.2v-0.1h-29.5v-10.3h53.1V407.3z"/>
<polygon class="st0" points="372.7,474.7 372.7,460.5 364.9,458.6 364.9,447.8 417.9,461.6 417.9,471.3 417.9,473.4 364.9,487.2 
	364.9,476.4 "/>
<polygon class="st0" points="382.3,462.7 382.3,472.4 402.3,467.6 "/>
<path class="st0" d="M374.4,527.6h-9.6v-23.9v-8.9h53.1v10.3h-43.5V527.6z"/>
<path class="st0" d="M374.4,570.5h-9.6v-21v-10.7h9.6v10.7h33.9v-9.9h9.6v20.2v9.9h-9.6v-9.9h-33.9V570.5z"/>
<path class="st0" d="M408.4,616.4v-13.2h-43.5v-10.3h43.5v-13.1h9.6v23.4v13.2L408.4,616.4L408.4,616.4z"/>
<path class="st0" d="M385.4,636l32.6-13.7v11.6l-19.7,7.3v0.1l19.7,7.3v11.6l-32.6-13.8h-20.5V636L385.4,636L385.4,636z"/>
<rect x="328.3" y="158.2" class="st0" width="534" height="534"/>
</svg>
