<?xml version="1.0" encoding="utf-8"?>
<!-- Generator: Adobe Illustrator 26.3.1, SVG Export Plug-In . SVG Version: 6.00 Build 0)  -->
<svg version="1.1" id="Layer_1" xmlns="http://www.w3.org/2000/svg" xmlns:xlink="http://www.w3.org/1999/xlink" x="0px" y="0px"
	 viewBox="0 0 1190.6 850.4" style="enable-background:new 0 0 1190.6 850.4;" xml:space="preserve">
<style type="text/css">
	.st0{fill:none;stroke:#010101;stroke-width:8;stroke-miterlimit:10;}
</style>
<text transform="matrix(1 0 0 1 -87.6422 -10.2339)" class="st0" style="font-family:'ArialMT'; font-size:12px;"> </text>
<rect x="453.6" y="283.5" class="st0" width="283.5" height="283.5"/>
<path class="st0" d="M633.7,312.5c0,8.9,0,17.7,0,26.6c-0.1,0.1-0.1,0.2-0.2,0.2c-0.1,0.1-0.2,0.1-0.2,0.1c-20.6,0-41.2,0-61.7,0
	c-11.7,11.7-23.4,23.4-35.1,35.1c0,0.1,0,0.3,0,0.7c2.7,2.7,5.3,5.3,8.1,8c0.3,0.3,0.8,0.5,1.2,0.7c9.6-9.6,19-19,28.4-28.4
	c0.2,0,0.2,0,0.3,0c0.1,0,0.2,0.1,0.2,0.1c6.1,6.1,12.2,12.2,18.2,18.2c0,0.2,0,0.2,0,0.3c0,0.1,0,0.2,0,0.2
	c-14.8,14.8-29.5,29.5-44.1,44.1c-24.6,0-49.2,0-73.7,0c0-17.6,0-35,0-52.7c10.9,0,21.8,0,32.6,0c16-16,31.8-31.8,47.7-47.7
	c0.9-0.9,1.6-2,2.5-2.9c0.8-0.9,1.6-1.9,2.4-2.7C584.8,312.5,609.3,312.5,633.7,312.5z"/>
<path class="st0" d="M592.6,476.2c-6.1,6.1-12.2,12.2-18.5,18.5c0,0-18.8-18.8-28.3-28.3c-0.4,0.3-0.9,0.4-1.2,0.7
	c-2.7,2.7-5.4,5.4-8.1,8.1c0.1,0.3,0.1,0.7,0.3,1c0.3,0.5,0.8,0.8,1.2,1.2c11.1,11.1,22.3,22.3,33.5,33.5c20.6,0,41.4,0,62.2,0
	c0,8.9,0,17.8,0,26.8c0,0,0,0-0.1,0.1c-0.1,0.1-0.2,0.1-0.2,0.1c-24.3,0-48.6,0-73,0c-8.2-9.2-17.3-17.8-26.1-26.6
	c-8.8-8.9-17.7-17.7-26.6-26.6c-10.8,0-21.8,0-32.6,0c0-17.6,0-35.1,0-52.7c24.6,0,49.1,0,73.3,0
	C563.2,446.8,577.9,461.6,592.6,476.2z"/>
<path class="st0" d="M628.1,464.7v-28.9c-4.6-0.8-8.9-0.8-12-0.8C616.6,443.5,620.5,454.6,628.1,464.7L628.1,464.7L628.1,464.7z"/>
<path class="st0" d="M687.5,497.1c-0.9-13.2-9.8-32-24.2-44.3c-2.6-2.3-5.2-4.3-7.9-5.9v42.3C666.9,494.9,678.2,497.9,687.5,497.1
	L687.5,497.1L687.5,497.1z"/>
<path class="st0" d="M616,415.1c3.1,0.2,7.4,0.2,12-0.4v-29.1C620.5,395.7,616.6,406.8,616,415.1L616,415.1L616,415.1z"/>
<path class="st0" d="M615.2,425.1c3.1,3,7.4,6.2,12.9,9V416C622.6,419,618.3,421.9,615.2,425.1L615.2,425.1L615.2,425.1z"/>
<path class="st0" d="M655.5,403.6c2.7-1.6,5.3-3.8,7.9-5.9c14.4-12.3,23.3-31.3,24.2-44.3c-9.3-0.9-20.6,2-32,7.7V403.6L655.5,403.6
	L655.5,403.6z"/>
<path class="st0" d="M655.5,443.5c3.3,0.3,6.4,0.5,10.1,0.5c20,0,40.7-9,50-18.9c-9.3-10-30-18.9-50-18.9c-3.7,0-6.9,0-10.1,0.5
	V443.5L655.5,443.5L655.5,443.5z"/>
<path class="st0" d="M647.3,365.6"/>
<line class="st0" x1="637.4" y1="373.8" x2="637.2" y2="476.3"/>
<line class="st0" x1="646.4" y1="483.7" x2="646.4" y2="366.6"/>
</svg>
