<?xml version="1.0" encoding="utf-8"?>
<!-- Generator: Adobe Illustrator 26.3.1, SVG Export Plug-In . SVG Version: 6.00 Build 0)  -->
<svg version="1.1" id="Layer_1" xmlns="http://www.w3.org/2000/svg" xmlns:xlink="http://www.w3.org/1999/xlink" x="0px" y="0px"
	 viewBox="0 0 2834.6 2834.6" style="enable-background:new 0 0 2834.6 2834.6;" xml:space="preserve">
<style type="text/css">
	.st0{fill:none;stroke:#000000;stroke-miterlimit:10;}
</style>
<ellipse class="st0" cx="1417.3" cy="1417.3" rx="386.5" ry="628.5"/>
<rect x="1417.3" y="479.9" class="st0" width="1263.8" height="558.7"/>
<polygon class="st0" points="1417.3,1194.1 2049.2,1194.1 2049.2,1462.9 2681.1,1194.1 2681.1,1706.6 2049.2,1706.6 1417.3,1450.3 
	"/>
<polyline class="st0" points="1417.3,1674.4 2049.2,1945.8 2681.1,1945.8 2681.1,2618.2 "/>
<polygon class="st0" points="2049.2,2118.2 2130.4,2282.8 2312.1,2309.2 2180.6,2437.3 2211.6,2618.2 2049.2,2532.8 1886.7,2618.2 
	1917.8,2437.3 1786.3,2309.2 1968,2282.8 "/>
<path class="st0" d="M1105.8,244.7C442.1,244.7,1,513.5,332.8,858s836,100.8,541.9-98.7s-777.1,81.9-520.9,434.8
	s672.1,425.3,499.9,821.8s-516.7,342.9-554.5,0"/>
<path class="st0" d="M996.7,2618.2c-395.1,0,17.2-568.4,16.8-324.8c-0.2,115.2,50,162.4,239.7,93.1
	C1390.1,2336.6,1360.6,2618.2,996.7,2618.2z"/>
<line class="st0" x1="2681.1" y1="244.7" x2="1417.3" y2="244.7"/>
<circle class="st0" cx="2049.2" cy="759.3" r="102.3"/>
</svg>
