<?xml version="1.0" encoding="utf-8"?>
<!-- Generator: Adobe Illustrator 26.3.1, SVG Export Plug-In . SVG Version: 6.00 Build 0)  -->
<svg version="1.1" id="Layer_1" xmlns="http://www.w3.org/2000/svg" xmlns:xlink="http://www.w3.org/1999/xlink" x="0px" y="0px"
	 viewBox="0 0 2834.6 2834.6" style="enable-background:new 0 0 2834.6 2834.6;" xml:space="preserve">
<style type="text/css">
	.st0{fill:none;stroke:#000000;stroke-miterlimit:10;}
</style>
<circle class="st0" cx="911.2" cy="915.3" r="711.4"/>
<circle class="st0" cx="2559" cy="2493.1" r="126.6"/>
<ellipse class="st0" cx="2432.4" cy="1134.2" rx="253.8" ry="930.3"/>
<ellipse class="st0" cx="1832.8" cy="1122.2" rx="599.6" ry="377.2"/>
<path class="st0" d="M260.3,2587.9c0,0,356.5,35,308.7-273.7c-47.7-308.7-391.5-261-245.1-633.4s986.7-404.2,818,191
	s-706.6-143.2-509.3-655.7S916,305.8,378.1,258"/>
<path class="st0" d="M1832.8,2589.1c-438.7-26.3-738.6-189-487.1-564.6s627-585.6,464.7-105s28.6,353.3,133.7,85.9
	c105-267.4,334.4-549.8,455.1-273.7c120.7,276.1-283.3,184.6-264.2,455.1S2542.7,2631.6,1832.8,2589.1z"/>
<path class="st0" d="M1233.1,504c152.5-422.9,496.8-445.6,604.7-142.3c107.9,303.3,290.7-27.3,151.2-31.3
	C1682.7,321.4,1071.3,952.7,1233.1,504z"/>
</svg>
