<?xml version="1.0" encoding="utf-8"?>
<!-- Generator: Adobe Illustrator 26.3.1, SVG Export Plug-In . SVG Version: 6.00 Build 0)  -->
<svg version="1.1" id="Layer_1" xmlns="http://www.w3.org/2000/svg" xmlns:xlink="http://www.w3.org/1999/xlink" x="0px" y="0px"
	 viewBox="0 0 1190.6 850.4" style="enable-background:new 0 0 1190.6 850.4;" xml:space="preserve">
<style type="text/css">
	.st0{fill:none;stroke:#000000;stroke-width:2.8346;stroke-linecap:round;stroke-miterlimit:10;}
</style>
<circle class="st0" cx="504.4" cy="290.1" r="27.9"/>
<path class="st0" d="M789,425.2v40.7c0,15.4-12.5,27.9-27.9,27.9c-15.4,0-27.9-12.5-27.9-27.9v-40.7"/>
<path class="st0" d="M705.2,425.2v40.7c0,15.4,12.5,27.9,27.9,27.9c5.1,0,9.9-1.4,14-3.7"/>
<circle class="st0" cx="871.5" cy="276.9" r="14"/>
<path class="st0" d="M621.6,346c15.4,0,27.9-12.5,27.9-27.9c0-15.4-12.5-27.9-27.9-27.9h-89.2"/>
<circle class="st0" cx="403.3" cy="290.1" r="27.9"/>
<path class="st0" d="M489.6,381.7c-22.2-24.1-35.8-56.2-35.8-91.6c0-74.6,60.5-135.1,135.1-135.1"/>
<path class="st0" d="M424.9,695.3c-6.2-6.2-6.2-16.2,0-22.3l-9.5-24.9v-9c0-7.7-6.3-14-14-14h-4.5v-2.4h-24.5v25.4l7.4,24.8h-7.4
	v22.4h418.8c74.6,0,135.1-60.5,135.1-135.1s-60.5-135.1-135.1-135.1H588.9c-31.4,0-60.3-10.7-83.3-28.7"/>
<path class="st0" d="M159,160.1c0,30.5,24.7,55.3,55.3,55.3l0,0c30.5,0,55.3,24.7,55.3,55.3l0,0c0,30.5,10.1,55.3,40.7,55.3h14.6
	c15.4,0,27.9,12.5,27.9,27.9l0,0c0,15.4,12.5,27.9,27.9,27.9"/>
<line class="st0" x1="431.2" y1="290.1" x2="476.5" y2="290.1"/>
<line class="st0" x1="588.9" y1="155.1" x2="782.4" y2="155.1"/>
<line class="st0" x1="588.9" y1="168.6" x2="782.4" y2="168.6"/>
<line class="st0" x1="588.9" y1="182.2" x2="782.4" y2="182.2"/>
<line class="st0" x1="588.9" y1="195.8" x2="782.4" y2="195.8"/>
<line class="st0" x1="588.9" y1="209.4" x2="782.4" y2="209.4"/>
<line class="st0" x1="588.9" y1="223" x2="782.4" y2="223"/>
<line class="st0" x1="588.9" y1="236.6" x2="782.4" y2="236.6"/>
<line class="st0" x1="724" y1="424.4" x2="861.6" y2="286.8"/>
<line class="st0" x1="538.8" y1="564.3" x2="676.4" y2="426.7"/>
<line class="st0" x1="861.6" y1="267" x2="881.4" y2="247.3"/>
<line class="st0" x1="901.1" y1="267" x2="881.4" y2="286.8"/>
<circle class="st0" cx="529.1" cy="574.1" r="14"/>
<path class="st0" d="M870.7,669.4c-22.3,16.3-49.8,25.9-79.5,25.9H439.4l0-25.9h182.9c0-7.7,6.3-14,14-14c7.7,0,14,6.3,14,14
	L870.7,669.4z"/>
<line class="st0" x1="538.9" y1="583.9" x2="519.2" y2="603.7"/>
<line class="st0" x1="499.4" y1="583.9" x2="519.2" y2="564.2"/>
<line class="st0" x1="509.3" y1="593.8" x2="519.2" y2="583.9"/>
<line class="st0" x1="891.2" y1="257.2" x2="881.4" y2="267"/>
<path class="st0" d="M424.2,695.3c-6.2-6.2-6.2-16.2,0-22.3l-9.5-24.9v-9c0-7.7-6.3-14-14-14h-4.5v-2.4h-24.5v25.4l7.4,24.8h-7.4
	v22.4H424.2z"/>
<polyline class="st0" points="396.1,622.7 396.1,648.1 403.5,672.9 403.5,695.3 "/>
<line class="st0" x1="421.7" y1="677.7" x2="439.4" y2="677.7"/>
<path class="st0" d="M380.6,396.5c-15.4,0-27.9,12.5-27.9,27.9l0,0c0,15.4-12.5,27.9-27.9,27.9l0,0c-15.4,0-27.9-12.5-27.9-27.9l0,0
	c0-15.4-12.5-27.9-27.9-27.9h-14.6c-30.5,0-40.7-24.7-40.7-55.3l0,0c0-30.5-24.7-55.3-55.3-55.3"/>
<path class="st0" d="M380.6,381.7v14.8h132.2c4.1,0,7.4-3.3,7.4-7.4l0,0c0-4.1-3.3-7.4-7.4-7.4H380.6z"/>
<line class="st0" x1="496.4" y1="381.7" x2="496.4" y2="396.5"/>
</svg>
