<?xml version="1.0" encoding="utf-8"?>
<!-- Generator: Adobe Illustrator 26.3.1, SVG Export Plug-In . SVG Version: 6.00 Build 0)  -->
<svg version="1.1" id="Layer_1" xmlns="http://www.w3.org/2000/svg" xmlns:xlink="http://www.w3.org/1999/xlink" x="0px" y="0px"
	 viewBox="0 0 1190.6 850.4" style="enable-background:new 0 0 1190.6 850.4;" xml:space="preserve">
<style type="text/css">
	.st0{fill:none;stroke:#231F20;stroke-width:4;stroke-linecap:round;stroke-linejoin:round;stroke-miterlimit:10;}
	.st1{fill:none;stroke:#231F20;stroke-width:4;stroke-miterlimit:10;}
</style>
<line class="st0" x1="702.2" y1="356.8" x2="667.7" y2="336.8"/>
<path class="st0" d="M540.1,641.2c31,18.5,55.4,31.8,55.4,31.8s84-46,137.7-84.9s112.7-121.3,112.7-121.3v-26.9l-125.1-72.4"/>
<path class="st0" d="M489.7,355.7l-145,83.9v26.9c0,0,59.6,82.7,113.2,121.6c19.2,13.9,42.2,28.7,63.9,42"/>
<polyline class="st0" points="530.4,655.9 515.8,735.1 674.6,735.1 656.6,637.8 "/>
<path class="st0" d="M556.8,387.2c11,6.7,24,10.6,38.3,10.6c43.3,0,74.3-35.1,74.3-78.4c0-21.8-4.8-62.3-19.2-76.6l24.4-24.9"/>
<path class="st0" d="M515.2,217.9l24.9,24.9c-14.4,14.2-19.2,54.7-19.2,76.6c0,6.4,0.7,12.5,1.9,18.4"/>
<path class="st1" d="M611.8,257.4c2.2,3.1,6.4,6.9,14.4,6.9s14.4-3.1,14.4-6.9c0-14.6-91.2-14.6-91.2,0c0,3.8,6.4,6.9,14.4,6.9
	s12.2-3.8,14.4-6.9C585.8,246.6,604.2,246.6,611.8,257.4z"/>
<path class="st0" d="M666.1,282.6c2.8,14.7-21.7,16.3-36.9,8.3c-15.2-8-27.3-6-33.9,1.1h-0.3c-6.6-7.2-18.7-9.2-33.9-1.1
	c-15.2,8-39.7,6.4-36.9-8.3"/>
<path class="st0" d="M471.4,405.1c4-1.5,8.3-2.3,12.9-2.3c20.6,0,37.3,16.7,37.3,37.3c0,4.6-0.8,9-2.3,13"/>
<circle class="st0" cx="521.5" cy="375.1" r="37.3"/>
<polygon class="st0" points="532.5,466.5 446.9,552.1 446.9,380.5 "/>
<path class="st0" d="M585.4,466.4c-42.5,42.5-72.7,35.2-80.4,27.6"/>
<path class="st0" d="M551.1,624.6c24.9,15.1,43.8,25.8,43.8,25.8s75.2-42.4,123.1-77.6c48-35.1,94.1-98.5,94.1-98.5"/>
<path class="st0" d="M446.9,552.1c8.1,7.4,16.5,14.5,24.9,20.6c18.3,13.4,40.5,27.8,61.1,40.6"/>
<polygon class="st0" points="578.1,132.1 578.1,217.9 515.2,217.9 503.8,206.4 "/>
<polygon class="st0" points="611.8,132.1 611.8,217.9 674.6,217.9 686.1,206.4 "/>
<polyline class="st0" points="578.1,132.1 594.9,115.3 611.8,132.1 "/>
<path class="st0" d="M694.9,406.6l64.5-97.8c7.6,3.3,15.9,5.1,24.7,5.1c34.1,0,61.8-27.6,61.8-61.8c0-34.1-27.6-61.8-61.8-61.8
	c-34.1,0-61.8,27.6-61.8,61.8h18.7c0-23.8,19.3-43,43-43c23.8,0,43,19.3,43,43s-19.3,43-43,43c-8.7,0-16.8-2.6-23.6-7l-9.1-6l-6,9.1
	l0,0L469.2,709.8l17.9,11.8l187-283.4"/>
<polygon class="st0" points="812.2,474.3 694.9,406.6 694.9,542 "/>
<path class="st0" d="M694.9,457.3c-30.9-17.9-31-42.7-18.6-61.4l18.6,10.7"/>
<circle class="st0" cx="558.8" cy="440.2" r="37.3"/>
</svg>
