<?xml version="1.0" encoding="utf-8"?>
<!-- Generator: Adobe Illustrator 26.3.1, SVG Export Plug-In . SVG Version: 6.00 Build 0)  -->
<svg version="1.1" id="Layer_1" xmlns="http://www.w3.org/2000/svg" xmlns:xlink="http://www.w3.org/1999/xlink" x="0px" y="0px"
	 viewBox="0 0 700 700" style="enable-background:new 0 0 700 700;" xml:space="preserve">
<style type="text/css">
	.st0{fill:none;stroke:#010101;stroke-miterlimit:10;}
</style>
<path class="st0" d="M406.8,388.6C358,429.7,362,320,413,294s50,16,94,33s-23-160,65-154s91,59,41,73s-65,77-11,79s59,209-1,138
	s-49-11-105-20S463.8,340.6,406.8,388.6z"/>
<path class="st0" d="M26.9,172c2-59,108-113,114-7s119,137,99,0s27-139,49-137"/>
<path class="st0" d="M206,640c-140-1-38.9-63,101.1-65s5.9-44,119.9-41s116,66,0,63S347,641,206,640z"/>
<path class="st0" d="M394,80c-105.1,55.8-8,125,50,73S490,29,394,80z"/>
<path class="st0" d="M108,375c-11-92,145-20,145-20L108,375z"/>
<path class="st0" d="M65,528c22.3-127.1,78-11,148-87s62-24,28,22s81.1,50,85.1-9c3.9-59,21.9-48,23.9-8s22,45.4,34,19.2
	c12-26.2,56.4-9.2,29.2,17.8C386,510,329,516,300,517s-54-1.3-81,16.8s8-34.8-25-33.8s-72.3,26-55.1,42s15.1,58.9-14.9,44.9
	S87,572,92,550s-55,109-49,57S56,579.2,65,528z"/>
<path class="st0" d="M300,297c-33-21-7-25,0-60s23,9,64,6S300,297,300,297z"/>
</svg>
