<?xml version="1.0" encoding="utf-8"?>
<!-- Generator: Adobe Illustrator 26.3.1, SVG Export Plug-In . SVG Version: 6.00 Build 0)  -->
<svg version="1.1" id="Layer_1" xmlns="http://www.w3.org/2000/svg" xmlns:xlink="http://www.w3.org/1999/xlink" x="0px" y="0px"
	 viewBox="0 0 1190.6 850.4" style="enable-background:new 0 0 1190.6 850.4;" xml:space="preserve">
<style type="text/css">
	.st0{fill:none;stroke:#231F20;stroke-width:1.7;stroke-linecap:round;stroke-linejoin:round;stroke-miterlimit:10;}
</style>
<ellipse class="st0" cx="623.1" cy="269.7" rx="17.5" ry="10.8"/>
<ellipse class="st0" cx="576.2" cy="269.7" rx="17.5" ry="10.8"/>
<path class="st0" d="M605.6,283.9c0,0,8.3,22.5,10.1,28.6c1.8,6.1-19.3,6.1-19.3,6.1"/>
<path class="st0" d="M514.8,301.3c0,16.9,50.9,55.3,50.9,57.7c0,3.8,0,29.7,0,29.7h-27.9c0-4.3-3.5-7.8-7.8-7.8
	c-4.3,0-7.8,3.5-7.8,7.8h-25.7c-4.3,0-7.8,3.5-7.8,7.8v146.7c-4.3,0-7.8,3.5-7.8,7.8c0,4.3,3.5,7.8,7.8,7.8v102.1"/>
<path class="st0" d="M625.8,335.6c0,0,1.3-11.7,4.7-21.4c2.3-6.5,14.8-7.2,15.8-15.5c2.2-18.2,9.1-50.1,9.1-50.1
	c5.3-33.3-29.1-59.9-68.8-59.9s-71.9,32.2-71.9,71.9"/>
<line class="st0" x1="605.6" y1="269.7" x2="593.7" y2="269.7"/>
<ellipse class="st0" cx="599.7" cy="339.7" rx="30" ry="8.4"/>
<path class="st0" d="M618.7,346.2v42.5H653c0-4.3,3.5-7.8,7.8-7.8c4.3,0,7.8,3.5,7.8,7.8h25.7c4.3,0,7.8,3.5,7.8,7.8v146.7
	c4.3,0,7.8,3.5,7.8,7.8c0,4.3-3.5,7.8-7.8,7.8v102.1"/>
<line class="st0" x1="668.4" y1="660.8" x2="668.4" y2="457.1"/>
<path class="st0" d="M656.5,403h-43c-4.3,0-7.8,3.5-7.8,7.8"/>
<line class="st0" x1="522.3" y1="457.1" x2="522.3" y2="660.8"/>
<path class="st0" d="M534.3,403h43c4.3,0,7.8,3.5,7.8,7.8"/>
<path class="st0" d="M614.4,532.4c31.1-1.7,54.1-7.7,54.1-14.7"/>
<path class="st0" d="M522.3,517.7c0,7,22.9,13,54.1,14.7"/>
<path class="st0" d="M628.4,548.6c23.8-2.5,40-7.7,40-13.6"/>
<path class="st0" d="M522.3,535c0,5.9,16.3,11.1,40,13.6"/>
<path class="st0" d="M668.4,552.2c0,4.4-8.7,8.3-22.8,11.1v52.4l13.1,13.1v32"/>
<path class="st0" d="M532,660.8v-32l13.1-13.1v-52.4c-14-2.8-22.8-6.7-22.8-11.1"/>
<circle class="st0" cx="643.4" cy="498.8" r="7.7"/>
<circle class="st0" cx="595.4" cy="598.4" r="7.7"/>
<circle class="st0" cx="547.3" cy="498.8" r="7.7"/>
<line class="st0" x1="629.7" y1="339.7" x2="569.7" y2="339.7"/>
<line class="st0" x1="640.6" y1="269.7" x2="651.2" y2="269.7"/>
<ellipse class="st0" cx="511.8" cy="280.5" rx="10.9" ry="19.3"/>
<line class="st0" x1="558.7" y1="269.7" x2="522.7" y2="269.7"/>
<path class="st0" d="M572,322.6c0,0-0.7-4.5-2.6-8.4c-3.1-6.2-14.8-7.2-15.8-15.5"/>
</svg>
