<?xml version="1.0" encoding="utf-8"?>
<!-- Generator: Adobe Illustrator 26.3.1, SVG Export Plug-In . SVG Version: 6.00 Build 0)  -->
<svg version="1.1" id="Layer_1" xmlns="http://www.w3.org/2000/svg" xmlns:xlink="http://www.w3.org/1999/xlink" x="0px" y="0px"
	 viewBox="0 0 1190.6 850.4" style="enable-background:new 0 0 1190.6 850.4;" xml:space="preserve">
<style type="text/css">
	.st0{fill:none;stroke:#231F20;stroke-width:1.7;stroke-linecap:round;stroke-linejoin:round;stroke-miterlimit:10;}
</style>
<ellipse class="st0" cx="824.4" cy="269.7" rx="17.5" ry="10.8"/>
<ellipse class="st0" cx="871.3" cy="269.7" rx="17.5" ry="10.8"/>
<path class="st0" d="M841.9,283.9c0,0-8.3,22.5-10.1,28.6c-1.8,6.1,19.3,6.1,19.3,6.1"/>
<path class="st0" d="M932.7,301.3c0,16.9-50.9,55.3-50.9,57.7c0,3.8,0,29.7,0,29.7h27.9c0-4.3,3.5-7.8,7.8-7.8
	c4.3,0,7.8,3.5,7.8,7.8H951c4.3,0,7.8,3.5,7.8,7.8v146.7c4.3,0,7.8,3.5,7.8,7.8c0,4.3-3.5,7.8-7.8,7.8v102.1"/>
<path class="st0" d="M821.7,335.6c0,0-1.3-11.7-4.7-21.4c-2.3-6.5-14.8-7.2-15.8-15.5c-2.2-18.2-9.1-50.1-9.1-50.1
	c-5.3-33.3,29.1-59.9,68.8-59.9c39.7,0,71.9,32.2,71.9,71.9"/>
<line class="st0" x1="841.9" y1="269.7" x2="853.8" y2="269.7"/>
<ellipse class="st0" cx="847.9" cy="339.7" rx="30" ry="8.4"/>
<path class="st0" d="M828.9,346.2v42.5h-34.4c0-4.3-3.5-7.8-7.8-7.8s-7.8,3.5-7.8,7.8h-25.7c-4.3,0-7.8,3.5-7.8,7.8v146.7
	c-4.3,0-7.8,3.5-7.8,7.8c0,4.3,3.5,7.8,7.8,7.8v102.1"/>
<line class="st0" x1="779.1" y1="660.8" x2="779.1" y2="457.1"/>
<path class="st0" d="M791.1,403h43c4.3,0,7.8,3.5,7.8,7.8"/>
<line class="st0" x1="925.2" y1="457.1" x2="925.2" y2="660.8"/>
<path class="st0" d="M913.3,403h-43c-4.3,0-7.8,3.5-7.8,7.8"/>
<path class="st0" d="M833.2,532.4c-31.1-1.7-54.1-7.7-54.1-14.7"/>
<path class="st0" d="M925.2,517.7c0,7-22.9,13-54.1,14.7"/>
<path class="st0" d="M819.1,548.6c-23.8-2.5-40-7.7-40-13.6"/>
<path class="st0" d="M925.2,535c0,5.9-16.3,11.1-40,13.6"/>
<path class="st0" d="M779.1,552.2c0,4.4,8.7,8.3,22.8,11.1v52.4l-13.1,13.1v32"/>
<path class="st0" d="M915.6,660.8v-32l-13.1-13.1v-52.4c14-2.8,22.8-6.7,22.8-11.1"/>
<circle class="st0" cx="804.1" cy="498.8" r="7.7"/>
<circle class="st0" cx="852.2" cy="598.4" r="7.7"/>
<circle class="st0" cx="900.2" cy="498.8" r="7.7"/>
<line class="st0" x1="817.9" y1="339.7" x2="877.9" y2="339.7"/>
<line class="st0" x1="806.9" y1="269.7" x2="796.4" y2="269.7"/>
<ellipse class="st0" cx="935.8" cy="280.5" rx="10.9" ry="19.3"/>
<line class="st0" x1="888.8" y1="269.7" x2="924.8" y2="269.7"/>
<path class="st0" d="M875.6,322.6c0,0,0.7-4.5,2.6-8.4c3.1-6.2,14.8-7.2,15.8-15.5"/>
</svg>
