<?xml version="1.0" encoding="utf-8"?>
<!-- Generator: Adobe Illustrator 26.3.1, SVG Export Plug-In . SVG Version: 6.00 Build 0)  -->
<svg version="1.1" id="Layer_1" xmlns="http://www.w3.org/2000/svg" xmlns:xlink="http://www.w3.org/1999/xlink" x="0px" y="0px"
	 viewBox="0 0 1190.6 850.4" style="enable-background:new 0 0 1190.6 850.4;" xml:space="preserve">
<style type="text/css">
	.st0{fill:none;stroke:#231F20;stroke-width:1.7;stroke-linecap:round;stroke-linejoin:round;stroke-miterlimit:10;}
</style>
<ellipse class="st0" cx="344.3" cy="470" rx="17.5" ry="28.3"/>
<ellipse class="st0" cx="344.3" cy="394.1" rx="17.5" ry="28.3"/>
<path class="st0" d="M367.3,441.7c0,0,36.4,13.4,46.3,16.3c9.9,2.9,9.9-31.2,9.9-31.2"/>
<path class="st0" d="M395.4,294.8c27.4,0,89.5,82.4,93.4,82.4c6.1,0,48.1,0,48.1,0V332c-7,0-12.6-5.7-12.6-12.6
	c0-7,5.7-12.6,12.6-12.6v-41.6c0-7,5.7-12.6,12.6-12.6h237.4c0-7,5.7-12.6,12.6-12.6c7,0,12.6,5.7,12.6,12.6h165.2"/>
<path class="st0" d="M450.9,474.4c0,0-18.9,2.1-34.6,7.6c-10.5,3.7-11.7,24-25.1,25.6c-29.5,3.6-81.1,14.7-81.1,14.7
	c-53.9,8.6-96.9-47.1-96.9-111.3s52.1-116.4,116.4-116.4"/>
<line class="st0" x1="344.3" y1="441.7" x2="344.3" y2="422.4"/>
<ellipse class="st0" cx="457.6" cy="432" rx="13.6" ry="48.6"/>
<path class="st0" d="M468.1,462.7h68.8v55.7c-7,0-12.6,5.7-12.6,12.6c0,7,5.7,12.6,12.6,12.6v41.6c0,7,5.7,12.6,12.6,12.6h237.4
	c0,7,5.7,12.6,12.6,12.6c7,0,12.6-5.7,12.6-12.6h165.2"/>
<line class="st0" x1="977.2" y1="543.3" x2="647.6" y2="543.3"/>
<path class="st0" d="M560,523.9v-69.6c0-7,5.7-12.6,12.6-12.6"/>
<line class="st0" x1="647.6" y1="306.9" x2="977.2" y2="306.9"/>
<path class="st0" d="M560,326.2v69.6c0,7,5.7,12.6,12.6,12.6"/>
<path class="st0" d="M769.4,455.8c-2.8,50.3-12.5,87.6-23.8,87.6"/>
<path class="st0" d="M745.6,306.9c11.3,0,21,37.1,23.8,87.6"/>
<path class="st0" d="M795.7,478.6c-4,38.5-12.5,64.7-22,64.7"/>
<path class="st0" d="M773.6,306.9c9.5,0,18,26.4,22,64.7"/>
<path class="st0" d="M801.5,543.3c7.1,0,13.4-14.1,18-36.9h84.8l21.2,21.2h51.8"/>
<path class="st0" d="M977.2,322.4h-51.8l-21.2,21.2h-84.8c-4.5-22.7-10.8-36.9-18-36.9"/>
<circle class="st0" cx="715.1" cy="502.9" r="12.5"/>
<circle class="st0" cx="876.3" cy="425" r="12.5"/>
<circle class="st0" cx="715.1" cy="347.4" r="12.5"/>
<line class="st0" x1="457.6" y1="480.5" x2="457.6" y2="383.4"/>
<line class="st0" x1="344.3" y1="498.4" x2="344.3" y2="515.3"/>
<ellipse class="st0" cx="361.8" cy="289.7" rx="31.2" ry="17.6"/>
<line class="st0" x1="344.3" y1="365.8" x2="344.3" y2="307.5"/>
<path class="st0" d="M429.9,387.2c0,0-7.3-1.1-13.6-4.2c-10-5-11.7-24-25.1-25.6"/>
</svg>
