<?xml version="1.0" encoding="utf-8"?>
<!-- Generator: Adobe Illustrator 26.3.1, SVG Export Plug-In . SVG Version: 6.00 Build 0)  -->
<svg version="1.1" id="Layer_1" xmlns="http://www.w3.org/2000/svg" xmlns:xlink="http://www.w3.org/1999/xlink" x="0px" y="0px"
	 viewBox="0 0 700 700" style="enable-background:new 0 0 700 700;" xml:space="preserve">
<style type="text/css">
	.st0{fill:none;stroke:#010101;stroke-miterlimit:10;}
	.st1{fill:#FFFFFF;stroke:#000000;stroke-miterlimit:10;}
</style>
<rect x="40.7" y="38.1" class="st0" width="125.8" height="125.8"/>
<circle class="st0" cx="312.4" cy="101" r="62.9"/>
<polygon class="st0" points="515.4,38.1 535.8,79.5 581.5,86.1 548.5,118.3 556.3,163.9 515.4,142.4 474.5,163.9 482.3,118.3 
	449.3,86.1 495,79.5 "/>
<line class="st0" x1="661.4" y1="38.1" x2="661.4" y2="163.9"/>
<path class="st0" d="M40.7,595c0,0-17.7-90.4,49.4-90.4S49.5,637.7,148,637.7s14.2-90.9,90.9-90.9s147,53.6,100.3,100.3
	s-97.2,3.3-61.2-32.8s178.6-60.8,119.7-119.7s25-125.6,61.1-89.5s39.6,141.2,0,178.8s128,126,128,1s74.6-64,74.6-64"/>
<ellipse class="st0" cx="216.5" cy="319.4" rx="175.8" ry="57.7"/>
<path class="st0" d="M464.3,327.1c12.8,47.8,82,100.7,89.1,41.3s31.5-48.6,56.5-34.2c66.1,38.1,71.3-88.5,0-89.8
	C538.5,243.2,440.5,238,464.3,327.1z"/>
<polyline class="st1" points="40.7,462 131,462 158,502 158,462 205,462 205,502 266,502 266,462 294,502 350,502 350,462 "/>
</svg>
