<?xml version="1.0" encoding="utf-8"?>
<!-- Generator: Adobe Illustrator 26.3.1, SVG Export Plug-In . SVG Version: 6.00 Build 0)  -->
<svg version="1.1" id="Layer_1" xmlns="http://www.w3.org/2000/svg" xmlns:xlink="http://www.w3.org/1999/xlink" x="0px" y="0px"
	 viewBox="0 0 2834.6 2834.6" style="enable-background:new 0 0 2834.6 2834.6;" xml:space="preserve">
<style type="text/css">
	.st0{fill:none;stroke:#000000;stroke-width:99.2126;stroke-miterlimit:10;}
</style>
<path class="st0" d="M1685.2,1122l-182.8,182.8c-83.1,83.1-180.2,147.5-288.7,191.5c-104.5,42.4-214.9,63.9-327.9,63.9
	c-113,0-223.4-21.5-327.9-63.9c-108.5-44-205.6-108.4-288.7-191.5L82.4,1118.2"/>
<path class="st0" d="M290.7,1256.7l18-18c3.7-3.7,8.1-5.5,13.3-5.5c5.2,0,9.7,1.9,13.3,5.5c74.2,74.2,160.9,131.7,257.7,171
	c93.3,37.8,191.8,57,292.8,57c100.9,0,199.4-19.2,292.8-57c96.8-39.3,183.5-96.8,257.7-171c3.7-3.7,8.1-5.5,13.3-5.5
	s9.7,1.9,13.3,5.5l18.5,18.5"/>
<path class="st0" d="M158.6,1124.2l17.8-17.8c38.9-38.9,90.6-60.3,145.6-60.3c55,0,106.7,21.4,145.6,60.3
	c56.4,56.4,122.3,100.1,195.7,129.9c70.9,28.7,145.7,43.3,222.5,43.3c76.7,0,151.6-14.6,222.5-43.3
	c73.5-29.8,139.3-73.5,195.7-129.9c38.9-38.9,90.6-60.3,145.6-60.3c55,0,106.7,21.4,145.6,60.3l18.5,18.5"/>
<path class="st0" d="M224.4,1190.6l18-18c21.2-21.2,49.4-32.9,79.5-32.9s58.2,11.7,79.5,32.9c65.3,65.3,141.6,115.9,226.7,150.4
	c82.1,33.3,168.8,50.2,257.6,50.2c88.8,0,175.5-16.9,257.6-50.2c85.2-34.5,161.4-85.1,226.7-150.4c21.2-21.2,49.4-32.9,79.5-32.9
	c30,0,58.2,11.7,79.5,32.9l18.5,18.5"/>
</svg>
