<?xml version="1.0" encoding="utf-8"?>
<!-- Generator: Adobe Illustrator 26.4.1, SVG Export Plug-In . SVG Version: 6.00 Build 0)  -->
<svg version="1.1" xmlns="http://www.w3.org/2000/svg" xmlns:xlink="http://www.w3.org/1999/xlink" x="0px" y="0px"
	 viewBox="0 0 841.9 1190.6" style="enable-background:new 0 0 841.9 1190.6;" xml:space="preserve">
<style type="text/css">
	.st0{display:none;}
	.st1{display:inline;fill:none;stroke:#020203;stroke-miterlimit:10;}
	.st2{fill:none;stroke:#000000;stroke-miterlimit:10;}
	.st3{fill:none;stroke:#020101;stroke-miterlimit:10;}
</style>
<g id="Ebene_1" class="st0">
	<path class="st1" d="M99.4-37.8c-0.9-2.5-4.3-6.6-6.4-3c-1.5,2.4-1,5.7-1.7,8.3c-1.1,4.6-2.8,9-3.8,13.7c-1,0.2-2.8,0.6-3.8,0
		c-0.9-0.5-4.9,0.4-6,0.5c-3.5,0.3-7,1-10.5,1.6c-4.2,0.7-8.4,1.4-12.6,2.3c-0.8,0.2-10.5,1.4-10.7,1.7c1.3-3,4.9-6.8,7.2-9.1
		c1.9-1.9,5.3-5.3,5.7-8c0.3-2.6-2.8-8.8-6.2-6.8c-0.8,0.5-1.4,1.3-2.1,2.1c-4.7,6.3-11.4,12.8-14.1,20.4c-0.5,1.4,0.5,2.6-0.1,4
		C34-10,33.8-9.9,33.4-10c-10.3-2.7-20.7-1.2-31.2-0.7c-1.8,0.1-4.3,0.2-6-0.7c6.7-4.2,15.1-6.4,22.1-10.3c2-1.1,4.1-2.4,5-4.6
		c0.7-1.9,0.1-4-0.8-5.6c-1.7-2.7-4.6-4.3-7.6-4.9c-3-0.7-6.1-0.3-9.1,0.2c-7.4,1.4-14.5,4.5-20.6,8.9c-2.2,1.7-4.5,3.7-5,6.4
		c-0.6,3.2,0.6,6.3,0,9.4c-0.6,3.6-1.8,7.2-2.7,10.7c-0.2,1-0.5,2.2-1.1,3c-0.8,1.1-2,1.5-3.3,2c-10.6,4.3-21.2,8.6-31.8,13
		c-4.9,2-9.8,4-15,5.3c-2.2,0.6-3.5-0.8-2.5-3.1c1.1-2.8,4.4-4.6,7-5.9c10.6-5.4,21-11.3,31.1-17.7c1.3-0.8,2.7-1.7,3.4-3
		c1-1.2,1.3-2.9,0.6-4.3c-0.8-1.5-2.7-2.2-4.4-2.1c-1.7,0.2-3.3,1.1-4.7,2c-7.1,4.1-14.2,8.3-21.2,12.5c0.2-2.1,2.6-2.9,3.7-4.7
		c1.6-2.8-0.9-6-3.3-8.1c11.9-6.2,24.5-11,37.4-14.5c4-1.1,22.9-6.1,12.9-11.3c-4.2-2.2-10.2,0.9-14.1,2.4
		c-6.2,2.3-12.5,4.2-18.8,6.5c-12.5,4.7-25.3,9.8-36.9,16.5c-1.1,0.7-2.3,1.3-3.6,2c3.1-1.7-4.2-6.8-5.2-7.2
		c-4-1.8-8.8-1.1-13.1-0.2c-18,3.3-33.8,14.2-47.6,26.2c-0.6,0.5-1.1,1-1.4,1.6c-1.1,2.1,0.9,4.8,3.3,5.2c2.4,0.4,4.7-0.8,6.6-2.3
		c1.9-1.4,3.6-3.3,5.7-4.4c-1,8.4-2.1,16.7-2.8,25.1c-0.4,5.2-0.8,10.6,0.9,15.5c-7.8,5-15.8,9.9-23.6,14.8
		c-1.4,0.9-2.8,1.8-3.8,3.1c-1,1.4-1.4,3.2-0.6,4.6c0.9,1.7,3.2,2.3,5.1,1.9c1.9-0.4,3.5-1.6,5-2.8c19.1-14.2,40.5-25,62.1-35.3
		c3.7-1.8,7.4-3.5,10.5-6.3c0.4-0.4,0.9-0.8,1-1.4s-0.3-1.3-0.6-1.8c-2.5-3.5-6.6-5.5-10.9-6.2c-4.2-0.7-8.6-0.3-12.9,0.2
		c-6.2,0.6-12.3,1.3-18.5,2c13.1-10.1,26.3-20.2,39.4-30.3C-90.5-7.2-82-3.2-80-4c1.8-0.7,3.6-1.7,5.1-2.8c1.8-1.2,3.7-1.8,5.6-2.7
		c-0.1,0.6-0.3,1.1-0.5,1.4c-1.9,3.1-5,5.2-6.6,8.4c-1.2,2.5-2.9,4.7-4.1,7.1c-1,2.1-2.3,3.5-4.6,3.9c-0.4,0-0.8,0.6-1.1,0.9
		c0.2,2.1,1,3.8,2.5,5.6c0.4,2.1,0.4,4.2,1.4,6.2c4.1,9.1,14.5,5.5,21.4,3c6.9-2.4,13.6-5.2,20.1-8.5c5.4-2.6,12.3-5.3,16.4-9.8
		c-4.2,4.4,5.1,12.3,6.5,7.7c1.9-6.7,2.7-13.9,5.6-20.2C-12.5-4.3-3.9-3.1-2.7-3c4.5,0,8.9,0,13.5,0.1C16.3-2.7,21.7-2.5,27-2.2
		C29.4-2.1,39.3,0,40.9-2.1c0.2-0.2,0.4-0.6,0.6-0.7c0.6-0.7,1.8-0.6,2.6-0.3c3,0.5,5.9-0.3,8.8-0.9C60.3-5.7,67.7-7.4,75-8.9
		c3.5-0.7,10.6-3.8,13.8-1.3c0.7,0.6,1.2,1.4,1.7,2.1c1.1,1.5,3.8,3,4.3,0.2c0.1-0.9,0.1-1.7,0-2.6c-0.4-3.8,0.6-7.3,1.6-11
		C97.8-26.6,101.1-32.9,99.4-37.8z"/>
	<path class="st1" d="M-125,29.5c6.2-0.9,12.3-1.8,18.5-2.6c2.1-0.3,4.3-0.5,6,0.5c-9.7,5.2-19.5,10.4-29.2,15.6
		c-0.8,0.5-1.7,0.9-2.7,1c-4.8,0.4-2.7-8.5-1.9-10.9c0.3-0.8,0.6-1.5,1.2-2c0.5-0.4,1.3-0.5,1.9-0.6C-128.9,30.1-127,29.8-125,29.5z
		"/>
	<path class="st1" d="M-119.4,6.6c-1.9,1.3-10.2,8.1-12.3,8.6c0,0,2.6-11.4,1.2-13.1c-0.1-0.2,26.7-14.5,28.9-13.5
		C-97.6-9.3-114.9,3.4-119.4,6.6z"/>
	<path class="st1" d="M-8.7-20.2C-3-25.1,8.2-31.4,11.6-29c4.2,2.7-12.1,6-18.1,8.8C-7.1-19.9-7.9-20.1-8.7-20.2z"/>
	<path class="st1" d="M118.8-10.2c-0.2,0.4-0.4,0.7-0.7,1c-1.8,1.7-3.7,0.4-4.6-1.6c-2.6-5.3-0.7-11.7,0.8-16.8
		c1-3.7,2.2-7.3,3.3-10.9c0.3-1.1,0.7-2.1,1.5-2.9c0.9-0.8,2.1-1.2,3-2.2c1.7-1.7,1.6-5.1,3.8-6.1c1.9-0.8,4,0.9,5.2,2.7
		c3.2,4.8,4.7,10.5,6.2,16.1c1,3.5,2,7.3,3.7,10.5c3,5.3,6.6-1.9,9-4.9c9.2-12,14.7-26.4,23.8-38.5c2.1-2.7,8.1-5.2,7.5,0.7
		c-0.2,1.4-0.8,2.6-1.6,3.9c-3.6,6.5-7.1,13-10.8,19.3c-5.6,9.7-11.2,19.7-18.2,28.4c-1.2,1.4-2.5,3-4.3,3.4
		c-3.4,0.9-6.3-2.4-8.2-5.3c-4.4-7.4-7.2-15.7-9.8-24c0.2,0.5-2.7,4.7-3.1,5.6c-1.2,2.3-2.1,4.8-3,7.3C121-20.2,121-14.2,118.8-10.2
		z"/>
	<path class="st1" d="M69.6-54.9c0-1,0.3-2,0.9-2.8c1-1.6,3-2.4,4.9-2.9c7.4-2.6,14.9-5,22.3-7.6c3-1,6.6-1.9,9,0
		c0.8,0.8,1.6,1.9,2.8,2c0.5,0.1,1-0.2,1.4-0.3c2.5-0.9,5.3-2.1,5.9-4.7c0.4-1.4-0.1-2.9,0.6-4c0.8-1.3,2.7-1.7,4.1-1.4
		c2.5,0.5,4.8,2.3,5.8,4.7s0.6,5.3-1,7.4c-1.1,1.6-2.8,2.6-4.4,3.6C109.3-53.2,95-48.4,80.3-46.7c-1.8,0.2-3.6,0.4-5.4-0.1
		C71.7-47.5,69.4-51.5,69.6-54.9z"/>
</g>
<g id="Ebene_1_copy">
	<path class="st2" d="M-150.8,9.9c4.8-3.5,9.6-7.1,14.4-10.6c8.1-6,29.4-15.9,34.2-16c3.4-0.1,4.2,1.4,4.5,2c1.1,2.8,0.3,6-1.4,8.5
		c-1.7,2.5-4.1,4.4-6.5,6.2c-2.9,2.2-31.1,20.6-31.3,23.1c-0.5,6.5,27-1.9,31.2-2.3c3.3-0.3,7.5-0.1,8.7,3c0.9,2.5-0.9,5.1-2.9,6.9
		c-4.9,4.3-11.2,6.5-17.3,9c-14.3,5.8-27.9,13.5-40.3,22.8"/>
	<path class="st3" d="M-135.5-0.7c0,0-4.2,26.1-3.7,35.6c0.4,9.5,4.7,14.1,4.7,14.1"/>
	<path class="st3" d="M-16.7-37.3c0,0-51.5,17.1-65.3,29.4"/>
	<path class="st3" d="M-37.9-7.9c0,0-29.3,10-40.9,20"/>
	<path class="st3" d="M-65.4-18C-76.6,2.1-81.1,10.8-79.1,20c2,9.2-0.9,6.9,9.9,4.1S-22.3,3.8-22.3,3.8"/>
	<path class="st3" d="M-22.3,12.1c0,0,7.5-28.1,8.7-34.7S-0.1-33.9,7.5-33.9s13.1,4.1,8.6,8.6c-3.8,3.8-24.8,13.2-31,16.4
		C-16-8.3-16.1-8-16.1-8s6,0.8,17.9,1.3C15-6.2,27.3-6.6,27.3-6.6"/>
	<path class="st3" d="M52.3-32.9c0,0-11.8,14.9-14.2,18.6c-1.9,2.9-6.1,7.5-1.5,7.6s54.2-9,54.2-9"/>
	<path class="st3" d="M96-39.1c0,0-6.6,18.5-5.2,23.5c1.4,5.1,2.5,7.6,2.5,7.6"/>
	<path class="st3" d="M178.1-64.4c0,0-28.5,48.7-31.3,51.3s-3.5,3-6.5-2.2s-9.6-24.2-10.5-28.5s-4.6-2.4-8.2,6.4
		c-3.9,9.3-5.6,14.8-5.2,19.3"/>
	<path class="st3" d="M122.7-66.7c-4.4,4-22.6,11.6-32.1,11.6"/>
</g>
<g id="Layer_2">
</g>
<g id="Layer_3" class="st0">
</g>
</svg>
