<?xml version="1.0" encoding="utf-8"?>
<!-- Generator: Adobe Illustrator 26.4.1, SVG Export Plug-In . SVG Version: 6.00 Build 0)  -->
<svg version="1.1" id="Ebene_1" xmlns="http://www.w3.org/2000/svg" xmlns:xlink="http://www.w3.org/1999/xlink" x="0px" y="0px"
	 viewBox="0 0 841.9 1190.6" style="enable-background:new 0 0 841.9 1190.6;" xml:space="preserve">
<style type="text/css">
	.st0{fill:none;stroke:#003DA6;stroke-linecap:round;stroke-linejoin:round;stroke-miterlimit:10;}
</style>
<g>
	<path class="st0" d="M36,52.4C66.6,50.2,107.4,36,144.6,8.5H38.8C36,25.2,36,40.8,36,52.4z"/>
	<path class="st0" d="M-127.8-147.7c-42.5-36.6-95.8-58.7-134.6-61.2c-3.1,34,7.4,75.1,28.1,117.1h85.6"/>
	<path class="st0" d="M-49-91.8H66.6c1.1-11.9,2-23.5,2-37.1c0-2.3,0-4.8,0-7.1"/>
	<path class="st0" d="M189.9-91.8h43.9c21-41.7,31.7-83.1,28.6-117.1c-29.2,2-65.8,14.5-100.3,36"/>
	<path class="st0" d="M47.6-235.6c-12.8-32-29.8-59.2-47.9-76.3c-21.8,20.4-42.2,55.6-55.3,96.4"/>
	<path class="st0" d="M97.5-114c-8.2,9.4-12.5,12.2-18.1,22.1h32.9"/>
	<path class="st0" d="M-173.2-11.3h343.8c8.2-4.8,16.2-11.3,21.5-18.7H-193C-186.8-23-180-16.2-173.2-11.3z"/>
	<path class="st0" d="M-63.2,48.2c8.8,2.3,17,3.4,24.7,4.3c0.3,0,0.9,0,1.1,0c0.6-11.3,0.6-27.2-1.7-43.9h-106.6
		c7.7,5.7,15.6,10.8,23.5,15.6c7.9,4.5,15.6,8.5,23.5,11.9C-86.2,41.1-74.3,45.4-63.2,48.2z"/>
	<path class="st0" d="M-0.3,55.6c1.1-1.1,2-2.3,3.1-3.4C13,41.1,23.2,26.4,32.6,8.5h-66.3c9.9,17.9,19.6,32.6,30,43.7
		C-2.5,53.3-1.4,54.4-0.3,55.6z"/>
	<path class="st0" d="M25.2,133.5l-0.9,57c2.6-1.7,4.8-3.7,7.1-6c3.7-4,6.5-8.2,7.7-13.6c1.1-4.5,1.4-9.4,0.3-13.9
		C37.4,147.4,32.6,139.7,25.2,133.5c-6-5.1-12.5-9.1-19.3-13c-6.5-4-13-7.7-19.6-11.3c-6-3.7-11.6-7.4-17.6-11.3
		c-7.1-4.8-13.9-9.9-20.4-15c-4-3.1-7.7-6.2-11.3-9.9c-6.5-6.2-5.4-4.8-11.9-11.3 M-23.2,103c0,13,0,49.5,0,62.8v34.9
		c0,0.9-0.3,1.4-1.1,2c-4.5,2.6-9.1,4.8-13.3,7.7c-6.2,4-11.9,8.2-16.2,14.2c-2.6,3.4-4.8,7.4-6.2,11.3c-0.9,2.6-1.7,5.1-2,7.9
		c-0.6,3.1-1.1,6.2-1.1,9.4c-0.3,6.2-0.3,12.8,0.9,19c0.3,1.1,0.3,2.6,0.6,3.7c0.3,0,0.3,0,0.6,0.3c0.6-0.6,1.1-1.4,1.7-2
		c4.5-5.7,8.5-11.3,13.3-16.4c3.1-3.4,7.1-6.8,10.8-9.6c3.4-2.6,7.1-4.5,10.8-6.5c0.3-0.3,1.1-0.3,1.4-0.3c0.3,0.3,0.6,0.9,0.6,1.1
		c0,3.1,0,6.2,0,9.4c0,0.3,0,0.6,0.3,0.9v0.6l0,0l0,0h13.3l0,0H4.3v0.3c4.5-0.3,8.5,0,13.3-0.3h7.1v-33.4c0.9-0.3,1.7-0.6,2.6-1.1
		c3.4-1.4,6.8-3.1,9.9-4.8c6.8-4,13.3-8.8,18.7-14.7c6-6.5,10.5-14.2,13-22.7c1.4-4.8,2.3-9.9,2.3-15c0-2.6-0.3-4.8-0.3-7.4
		c0-5.7-1.7-11.1-3.7-16.2c-2-5.7-5.4-10.5-9.4-14.7c-4.8-5.4-10.5-10.2-16.4-14.2c-5.4-4-11.1-7.7-16.7-11.3l1.1-45.1 M-23.2,225.6
		"/>
	<path class="st0" d="M146.3-76.5c-1.7-5.1-4-10.2-5.7-15.3l0,0c-1.1-3.1-1.7-6.8-2.8-9.9c-0.9-2.6-0.9-5.1-0.6-7.4
		c2.8-2.6,5.7-2.3,7.7,0.6c1.7,2.6,3.4,5.1,4.5,7.7c1.4,3.1,2.8,6,4.3,9.1c0.9,2,2,4,2.8,6.2c1.4,2.8,2.3,6,3.7,8.8
		c1.7,3.1,4.5,3.7,7.1,1.4c0.6-0.6,1.4-1.7,1.7-2.6c2.3-4.3,3.4-9.1,4-13.9c0-0.6,0.3-1.1,0.3-1.7c0.6-7.4,0-14.7-1.7-21.8
		c-1.7-7.4-4-14.7-7.7-21.5c-2.3-4.8-4.5-9.4-7.4-13.3c-2.8-4.3-6.2-8.5-9.6-12.5c-0.3-0.3-0.6-0.9-1.1-1.1
		c-4.3-4.8-8.8-9.4-13.6-13.3c-5.1-4.3-10.5-7.9-16.2-11.9c-8.8-6.2-18.1-11.3-28.1-15.9c-6.2-2.8-12.5-4.8-19-6.8
		c-4.8-1.4-9.6-2.8-14.7-3.7c-0.3,0-0.6,0-0.9-0.3c-6.8-1.1-13.6-1.7-20.7-1.7c-7.9,0-15.9,0.3-23.8,1.1c-7.4,0.9-14.5,2.3-21.8,3.7
		c-4,0.9-7.7,2-11.3,3.1c-3.4,1.1-6.8,2-9.9,3.1c-4.3,1.7-8.5,3.7-12.8,5.7c-4.5,2.3-9.1,4.5-13,7.1c-0.9,0.6-1.7,1.1-2.6,1.7
		c-5.1,3.4-10.2,7.1-15,11.1c-5.4,4.5-10.5,9.6-15,14.7c-4.5,5.4-9.1,11.1-12.8,17c-3.1,4.8-6,9.6-8.5,14.7
		c-0.9,1.7-1.7,3.1-2.3,4.5c-2,4.3-3.7,8.8-5.4,13.3c-1.1,2.8-2.6,5.7-3.1,8.8c-1.4,5.4-2.8,10.5-4,15.6c-0.6,2.6-1.1,4.8-1.7,7.4
		c-0.9,4-1.7,7.9-2.3,11.9c0,0.3,0,0.3,0,0.6h-91.8c3.1,6.8,10.5,16.2,13.6,20.4h419.5C214-57,219.7-66,222.8-72.3H148
		C147.4-73.4,146.8-75.1,146.3-76.5z M149.1-140.9c3.4,0.3,6.2,2.8,8.2,6.2c2,3.1,2.3,6.2,1.4,9.9c-0.9,3.4-4.8,5.7-8.2,4.8
		c-6.5-1.7-9.6-7.4-9.9-13C140.9-137.2,143.4-140.9,149.1-140.9z M-78.2-72c0.9-4,1.7-7.9,2.8-11.9c1.1-4.3,2.8-8.5,4.5-12.5
		c0.9-1.7,1.4-3.7,2.3-5.4c1.1-2.6,2.6-5.1,3.7-7.7c2.6-4.5,5.1-8.8,8.2-12.8c3.4-4.5,6.8-8.8,10.5-13c4.5-5.1,9.9-9.4,15.6-13
		c7.1-5.1,15-8.8,23.2-11.9c4.8-1.7,10.2-3.1,15.3-4s10.5-1.7,15.6-2c5.7-0.3,11.1,0.3,16.7,0.6c4.3,0.3,8.5,0.9,12.8,2
		c4.5,1.1,9.1,2.6,13.6,4.3c2,0.9,4.3,1.7,6.2,2.8c8.5,4.3,16.2,9.6,23,16.4c4,4,7.7,8.2,11.3,12.5c2,2.3,3.7,4.8,5.4,7.4
		c3.4,5.1,6.8,10.2,9.9,15.6c2.6,4.5,5.4,9.1,7.9,13.6c0.9,1.4,1.4,2.6,2.3,4c2.8,5.4,5.7,10.5,8.5,15.9L-78.2-72L-78.2-72z"/>
	<path class="st0" d="M10.2,266.7c-3.4-0.6-6.8-0.9-10.2-0.9c-0.3,0-0.9,0-1.1,0l0,0l0,0c-0.3,0-0.9,0-1.1,0h-0.3h-0.3
		c-3.4,0-6.8,0.3-9.9,0.6c-1.7,0-3.4,0.3-5.1,0.3c-6,0.6-11.9,2.3-17.6,4.3c-0.3,0-0.6,0.3-0.9,0.3c-22.1,7.4-40.8,21.8-52.7,40.5h6
		h0.6H78h0.6h5.1C67.8,287.7,41.1,270.7,10.2,266.7z"/>
</g>
</svg>
