<?xml version="1.0" encoding="utf-8"?>
<!-- Generator: Adobe Illustrator 26.4.1, SVG Export Plug-In . SVG Version: 6.00 Build 0)  -->
<svg version="1.1" id="Ebene_1" xmlns="http://www.w3.org/2000/svg" xmlns:xlink="http://www.w3.org/1999/xlink" x="0px" y="0px"
	 viewBox="0 0 841.9 1190.6" style="enable-background:new 0 0 841.9 1190.6;" xml:space="preserve">
<style type="text/css">
	.st0{fill:none;stroke:#FF3DA6;stroke-linecap:round;stroke-linejoin:round;stroke-miterlimit:10;}
</style>
<g>
	<path class="st0" d="M-42.2-80.1v-61.6h1l7.3,44.9h0.7l7.4-44.9h1v61.6"/>
	<path class="st0" d="M-16.7-80.1l7.6-61.6h1l7.6,61.6 M-14.7-96.8h12.2H-14.7z"/>
	<path class="st0" d="M14.6-80.1h-7v-61.6h7c3.1,0,5.5,5.4,5.5,13.3v35C20-85.5,17.7-80.1,14.6-80.1z"/>
	<path class="st0" d="M43.1-80.1H31.1v-61.6h12.1 M31.1-111.7h9.3H31.1z"/>
	<path class="st0" d="M-76.4-5.5c-3,0-6.3-5.9-6.3-15.4v-32c0-9.6,3.2-15.4,6.2-15.4c3,0,6.2,5.9,6.2,15.4v32
		C-70.2-11.4-73.4-5.5-76.4-5.5z"/>
	<path class="st0" d="M-59.7-6.2v-61.6h6.6c3.3,0,6.1,6.4,6.1,14.9c0,8.5-2.7,14.9-6.1,14.9h-6.5L-59.7-6.2z M-47.1-6.2l-6.5-31.9
		L-47.1-6.2z"/>
	<path class="st0" d="M-37.7-6.2v-61.6V-6.2z"/>
	<path class="st0" d="M-21.1-36.3h6.4v15.3c0,9.6-3.2,15.4-6.2,15.4c-3,0-6.3-5.9-6.3-15.4v-32c0-9.6,3.2-15.4,6.2-15.4
		c2.9,0,5.9,5.3,6.2,14"/>
	<path class="st0" d="M-4.1-6.2v-61.6V-6.2z"/>
	<path class="st0" d="M19-67.8v61.6h-0.9L7.3-67.8H6.5L6.5-6.2"/>
	<path class="st0" d="M27-6.2l7.6-61.6h1l7.6,61.6 M29.1-22.9h12.2H29.1z"/>
	<path class="st0" d="M62-6.2H51.4v-61.6"/>
	<path class="st0" d="M82.3-53.7c-0.5-10.1-2.8-14.7-6-14.7c-3.3,0-6.2,6.2-6.2,14.5c0,6.4,1.1,8.5,3.2,11.6l5.7,8.3
		c2.4,3.6,3.7,6.3,3.7,13.8c0,8.3-3.1,14.7-6.4,14.7c-3.7,0-6.4-6.5-6.4-15"/>
	<path class="st0" d="M-33.1,18.9c0-7.1,2.3-12.8,5.2-12.8c2.9,0,5.3,5.9,5.3,12.9c0,2.8-0.2,4.6-0.6,6L-33,66.2v1.5h10.4"/>
	<path class="st0" d="M-9.8,68.4c-2.9,0-5.2-5.7-5.2-12.8V18.9C-15,11.8-12.7,6-9.8,6c2.9,0,5.2,5.7,5.2,12.8v36.7
		C-4.6,62.7-6.9,68.4-9.8,68.4z"/>
	<path class="st0" d="M3,18.9C3,11.8,5.3,6,8.2,6c2.9,0,5.3,5.9,5.3,12.9c0,2.8-0.2,4.6-0.6,6L3,66.2v1.5h10.4"/>
	<path class="st0" d="M21,18.9C21,11.8,23.4,6,26.3,6c2.9,0,5.3,5.9,5.3,12.9c0,2.8-0.2,4.6-0.6,6l-9.9,41.3v1.5h10.4"/>
	<path class="st0" d="M-48.3,110.4c3.4,0,6.5,6.3,6.5,15.7c0,9.7-3.1,15.7-6.5,15.7h-6V80.1h6c3.4,0,6.1,6.7,6.1,15.2
		C-42.2,103.7-44.9,110.4-48.3,110.4h-6H-48.3z"/>
	<path class="st0" d="M-19.2,141.7h-12.1V80.1h12.1 M-31.3,110.1h9.3H-31.3z"/>
	<path class="st0" d="M-11.2,141.7V80.1h6.6c3.3,0,6.1,6.4,6.1,14.9c0,8.5-2.7,14.9-6.1,14.9h-6.5L-11.2,141.7z M1.4,141.7L-5,109.8
		L1.4,141.7z"/>
	<path class="st0" d="M21.4,141.7H10.7V80.1"/>
	<path class="st0" d="M29.7,141.7V80.1V141.7z"/>
	<path class="st0" d="M52.8,80.1v61.6h-0.9L41.1,80.1h-0.9l0.1,61.6"/>
</g>
</svg>
