<?xml version="1.0" encoding="utf-8"?>
<!-- Generator: Adobe Illustrator 26.4.1, SVG Export Plug-In . SVG Version: 6.00 Build 0)  -->
<svg version="1.1" id="Ebene_1" xmlns="http://www.w3.org/2000/svg" xmlns:xlink="http://www.w3.org/1999/xlink" x="0px" y="0px"
	 viewBox="0 0 841.9 1190.6" style="enable-background:new 0 0 841.9 1190.6;" xml:space="preserve">
<style type="text/css">
	.st0{fill:none;stroke:#020203;stroke-miterlimit:10;}
</style>
<path class="st0" d="M101-33.1c-1.4-0.7-2.9-1.1-4.6-1c-5.5,0.5-8.8,5.9-12,10.4c-5.1,7.1-11.5,13-17.9,18.8
	c-15,13.7-30,27.4-45.1,41.1c-29.9,27.3-59.9,54.7-93.5,77.2c-5.3,3.6-10.9,7.1-17.2,8.6c-6.3,1.5-13.5,0.4-18.1-4.1
	c-3.8-3.8-5.2-9.3-5.8-14.6c-1.5-14,2-28,6.7-41.2c7.9-22.2,19.5-43.2,34.2-61.7c1.6-2.1,3.3-4.3,3.2-6.9c-0.1-2.7-2.3-4.8-4.3-6.7
	c-2.7-2.5-6.1-5.1-9.5-4.1c-2.1,0.7-3.6,2.5-4.9,4.3c-13,17.8-23.8,37.3-32.3,57.7c-8.3,19.9-16.1,46.3-6.6,67.2
	c7.9,17.2,28.4,27.8,46.9,23.8c8.1-1.8,15.4-6,22.4-10.4c12.9-8.3,25.2-17.6,36.6-27.9c4.7,16.8,11.1,35.6,27,42.7
	c3,1.3,6.6,2.2,9.7,0.9c4.4-1.8,6.2-7,7.3-11.6c4.9-20,7.4-40.5,7.6-61.2c0.1-4.7-0.3-9.9-3.8-12.9C48.3,35.3,70.5,15.8,93.4-2.8
	c5.5-4.5,11.4-9.4,13.2-16.2C107.9-24.3,105.4-30.7,101-33.1z"/>
<path class="st0" d="M5.3,117.5c-0.5-0.1-1.1-0.2-1.7-0.4c-4.5-1.9-13.4-28.4-9.7-32c6.3-5.9,12.7-11.5,19.4-16.8
	c1.1,10,1.7,20.2,0.5,30.3C13.2,103.6,11.9,118.1,5.3,117.5z"/>
<path class="st0" d="M55.1-130.1c-0.7-2.4-1.9-4.7-3.7-6.5c-2.5-2.4-5.9-3.7-9.2-4.9c-0.5-0.2-1.1-0.4-1.7-0.2
	c-0.7,0.2-1,0.9-1.3,1.6c-2.4,7.3,1.8,16.9-4,21.8c-5.8-1.4-9.5-9.1-15.4-8c-1.9,0.3-3.5,1.6-4.9,2.9c-9.9,8.7-17.2,19.9-24.4,31
	c-2.8,4.3-5.7,8.8-6.7,13.8c-2.1,10.3,8.3,22.5,19.1,21.8c4.7-0.3,8.6-3.4,12.2-6.4C31.7-77.1,47.4-93.6,54-114.2
	C55.6-119.1,56.5-125.1,55.1-130.1z"/>
<path class="st0" d="M9.7-86.4c-1.5-4.6,15.2-23.2,20.8-23.2C38.5-109.3,14.3-76.4,9.7-86.4z"/>
<path class="st0" d="M130.6-121.7c0-0.1,0-0.1,0-0.1c-1.5-5.8-7.7-10.7-13.4-8.8c-0.1,1.9-0.1,3.9-0.1,5.8c-2.9-3.2-6.2-6.7-10.5-7
	c-4.3-0.3-8.1,2.8-11.3,5.8c-8.3,8-15.8,16.8-22.4,26.4c-8.4,12.3-8.3,37.8,12.8,37.4c4.3-0.1,8.3-2.4,11.9-4.9
	c13.2-9.4,23.8-22.4,30.3-37.4C130.2-109.9,132-115.9,130.6-121.7z"/>
<path class="st0" d="M102-93.4c-2.7,3.1-5.9,5.9-9.2,8.3c-0.7,0.6-1.5,1.1-2.5,1.3c-4.6,1-1.9-5.1-0.9-6.8c3.9-6.3,8.8-12.1,14.4-17
	c0.8-0.7,1.7-1.5,2.7-1.7c1.1-0.3,2.4,0.1,2.9,1.1c0.4,0.8,0.1,1.7-0.1,2.6C107.7-101.1,105.1-97,102-93.4z"/>
</svg>
