<?xml version="1.0" encoding="utf-8"?>
<!-- Generator: Adobe Illustrator 26.4.1, SVG Export Plug-In . SVG Version: 6.00 Build 0)  -->
<svg version="1.1" id="Ebene_1" xmlns="http://www.w3.org/2000/svg" xmlns:xlink="http://www.w3.org/1999/xlink" x="0px" y="0px"
	 viewBox="0 0 841.9 1190.6" style="enable-background:new 0 0 841.9 1190.6;" xml:space="preserve">
<style type="text/css">
	.st0{fill:none;stroke:#020203;stroke-miterlimit:10;}
</style>
<rect x="-141.7" y="-141.7" class="st0" width="283.5" height="283.5"/>
<g>
	<path class="st0" d="M-112.7-38.4c8.9,0,17.7,0,26.6,0c0.1,0.1,0.1,0.1,0.1,0.1c0.1,0.1,0.1,0.1,0.1,0.2c0,20.6,0,41.2,0,61.7
		c11.7,11.7,23.4,23.4,35.1,35.1c0.1,0,0.3,0,0.8,0c2.7-2.7,5.3-5.3,8-8c0.3-0.3,0.5-0.8,0.8-1.2c-9.5-9.5-19-19-28.4-28.4
		c0-0.1,0-0.2,0-0.3c0-0.1,0.1-0.1,0.1-0.2c6.1-6.1,12.1-12.1,18.2-18.2c0.1,0,0.2,0,0.3,0c0.1,0,0.1,0,0.2,0
		C-36.1,17-21.3,31.8-6.7,46.4c0,24.6,0,49.2,0,73.7c-17.6,0-35.1,0-52.7,0c0-10.9,0-21.8,0-32.7c-16-16-31.9-31.9-47.7-47.7
		c-0.9-0.9-2-1.6-2.9-2.5c-0.9-0.8-1.8-1.6-2.7-2.5C-112.7,10.4-112.7-14-112.7-38.4z"/>
	<path class="st0" d="M50.9,2.6C57,8.7,63.1,14.8,69.5,21.2c0-0.3,0-0.2,0-0.1c0,0.1,0,0.1-0.1,0.2C60,30.7,50.6,40.1,41.1,49.6
		c0.3,0.4,0.4,0.9,0.8,1.2c2.7,2.7,5.4,5.4,8.1,8.1c0.3-0.1,0.8-0.1,1-0.3c0.5-0.3,0.8-0.8,1.2-1.2c11.1-11.1,22.3-22.3,33.6-33.6
		c0-20.7,0-41.4,0-62.2c8.9,0,17.8,0,26.7,0c0,0,0,0,0.1,0.1c0.1,0.1,0.1,0.1,0.1,0.2c0,24.3,0,48.6,0,73
		C103.5,43.2,94.9,52.2,86,61c-8.9,8.8-17.7,17.7-26.6,26.6c0,10.8,0,21.8,0,32.7c-17.6,0-35.1,0-52.7,0c0-24.6,0-49.1,0-73.3
		C21.5,32.1,36.3,17.3,50.9,2.6z"/>
</g>
<path class="st0" d="M61-52.9"/>
<path class="st0" d="M-61.3-51.9H61"/>
<path class="st0" d="M52.5-41.6L52.5-41.6L52.5-41.6H-52.8"/>
<path class="st0" d="M39.5-32.7H10.6c-0.8,4.6-0.8,8.9-0.8,12C18.2-21.3,29.3-25.1,39.5-32.7L39.5-32.7L39.5-32.7z"/>
<path class="st0" d="M71.8-92.2c-13.2,0.9-32,9.8-44.3,24.1c-2.3,2.6-4.3,5.2-5.9,7.8h42.3C69.6-71.6,72.6-82.9,71.8-92.2L71.8-92.2
	L71.8-92.2z"/>
<path class="st0" d="M-10.1-20.7c0.1-3.1,0.1-7.4-0.4-12h-29.2C-29.4-25.1-18.3-21.3-10.1-20.7L-10.1-20.7L-10.1-20.7z"/>
<path class="st0" d="M0-19.9c3-3.1,6.1-7.4,9-12.9H-9.1C-6.2-27.3-3.3-23,0-19.9L0-19.9L0-19.9z"/>
<path class="st0" d="M-21.6-60.2c-1.6-2.7-3.8-5.3-5.9-7.8c-12.3-14.5-31.3-23.3-44.3-24.1c-0.9,9.3,2,20.6,7.7,32h42.5V-60.2
	L-21.6-60.2z"/>
<path class="st0" d="M18.2-60.2c0.3-3.3,0.5-6.4,0.5-10.2c0-20-9-40.7-18.9-50c-10,9.3-18.9,30-18.9,50c0,3.7,0,6.9,0.5,10.2H18.2
	L18.2-60.2L18.2-60.2z"/>
</svg>
