<?xml version="1.0" encoding="utf-8"?>
<!-- Generator: Adobe Illustrator 26.4.1, SVG Export Plug-In . SVG Version: 6.00 Build 0)  -->
<svg version="1.1" id="Ebene_1" xmlns="http://www.w3.org/2000/svg" xmlns:xlink="http://www.w3.org/1999/xlink" x="0px" y="0px"
	 viewBox="0 0 841.9 1190.6" style="enable-background:new 0 0 841.9 1190.6;" xml:space="preserve">
<style type="text/css">
	.st0{fill:none;stroke:#020203;stroke-miterlimit:10;}
</style>
<path class="st0" d="M99.4-37.8c-0.9-2.5-4.3-6.6-6.4-3c-1.5,2.4-1,5.7-1.7,8.3c-1.1,4.6-2.8,9-3.8,13.7c-1,0.2-2.8,0.6-3.8,0
	c-0.9-0.5-4.9,0.4-6,0.5c-3.5,0.3-7,1-10.5,1.6c-4.2,0.7-8.4,1.4-12.6,2.3c-0.8,0.2-10.5,1.4-10.7,1.7c1.3-3,4.9-6.8,7.2-9.1
	c1.9-1.9,5.3-5.3,5.7-8c0.3-2.6-2.8-8.8-6.2-6.8c-0.8,0.5-1.4,1.3-2.1,2.1c-4.7,6.3-11.4,12.8-14.1,20.4c-0.5,1.4,0.5,2.6-0.1,4
	c-0.3,0.1-0.5,0.2-0.9,0.1c-10.3-2.7-20.7-1.2-31.2-0.7c-1.8,0.1-4.3,0.2-6-0.7c6.7-4.2,15.1-6.4,22.1-10.3c2-1.1,4.1-2.4,5-4.6
	c0.7-1.9,0.1-4-0.8-5.6c-1.7-2.7-4.6-4.3-7.6-4.9c-3-0.7-6.1-0.3-9.1,0.2c-7.4,1.4-14.5,4.5-20.6,8.9c-2.2,1.7-4.5,3.7-5,6.4
	c-0.6,3.2,0.6,6.3,0,9.4c-0.6,3.6-1.8,7.2-2.7,10.7C-22.7-0.2-23,1-23.6,1.8c-0.8,1.1-2,1.5-3.3,2c-10.6,4.3-21.2,8.6-31.8,13
	c-4.9,2-9.8,4-15,5.3c-2.2,0.6-3.5-0.8-2.5-3.1c1.1-2.8,4.4-4.6,7-5.9C-58.6,7.7-48.2,1.8-38.1-4.6c1.3-0.8,2.7-1.7,3.4-3
	c1-1.2,1.3-2.9,0.6-4.3c-0.8-1.5-2.7-2.2-4.4-2.1c-1.7,0.2-3.3,1.1-4.7,2c-7.1,4.1-14.2,8.3-21.2,12.5c0.2-2.1,2.6-2.9,3.7-4.7
	c1.6-2.8-0.9-6-3.3-8.1c11.9-6.2,24.5-11,37.4-14.5c4-1.1,22.9-6.1,12.9-11.3c-4.2-2.2-10.2,0.9-14.1,2.4
	c-6.2,2.3-12.5,4.2-18.8,6.5c-12.5,4.7-25.3,9.8-36.9,16.5c-1.1,0.7-2.3,1.3-3.6,2c3.1-1.7-4.2-6.8-5.2-7.2c-4-1.8-8.8-1.1-13.1-0.2
	c-18,3.3-33.8,14.2-47.6,26.2c-0.6,0.5-1.1,1-1.4,1.6c-1.1,2.1,0.9,4.8,3.3,5.2c2.4,0.4,4.7-0.8,6.6-2.3c1.9-1.4,3.6-3.3,5.7-4.4
	c-1,8.4-2.1,16.7-2.8,25.1c-0.4,5.2-0.8,10.6,0.9,15.5c-7.8,5-15.8,9.9-23.6,14.8c-1.4,0.9-2.8,1.8-3.8,3.1c-1,1.4-1.4,3.2-0.6,4.6
	c0.9,1.7,3.2,2.3,5.1,1.9c1.9-0.4,3.5-1.6,5-2.8c19.1-14.2,40.5-25,62.1-35.3c3.7-1.8,7.4-3.5,10.5-6.3c0.4-0.4,0.9-0.8,1-1.4
	s-0.3-1.3-0.6-1.8c-2.5-3.5-6.6-5.5-10.9-6.2c-4.2-0.7-8.6-0.3-12.9,0.2c-6.2,0.6-12.3,1.3-18.5,2c13.1-10.1,26.3-20.2,39.4-30.3
	c-2,1.5,6.5,5.5,8.5,4.7c1.8-0.7,3.6-1.7,5.1-2.8c1.8-1.2,3.7-1.8,5.6-2.7c-0.1,0.6-0.3,1.1-0.5,1.4c-1.9,3.1-5,5.2-6.6,8.4
	c-1.2,2.5-2.9,4.7-4.1,7.1c-1,2.1-2.3,3.5-4.6,3.9c-0.4,0-0.8,0.6-1.1,0.9c0.2,2.1,1,3.8,2.5,5.6c0.4,2.1,0.4,4.2,1.4,6.2
	c4.1,9.1,14.5,5.5,21.4,3c6.9-2.4,13.6-5.2,20.1-8.5c5.4-2.6,12.3-5.3,16.4-9.8c-4.2,4.4,5.1,12.3,6.5,7.7
	c1.9-6.7,2.7-13.9,5.6-20.2c-0.2-0.5,8.4,0.7,9.6,0.8c4.5,0,8.9,0,13.5,0.1C16.3-2.7,21.7-2.5,27-2.2C29.4-2.1,39.3,0,40.9-2.1
	c0.2-0.2,0.4-0.6,0.6-0.7c0.6-0.7,1.8-0.6,2.6-0.3C47.1-2.6,50-3.4,52.9-4C60.3-5.7,67.7-7.4,75-8.9c3.5-0.7,10.6-3.8,13.8-1.3
	c0.7,0.6,1.2,1.4,1.7,2.1c1.1,1.5,3.8,3,4.3,0.2c0.1-0.9,0.1-1.7,0-2.6c-0.4-3.8,0.6-7.3,1.6-11C97.8-26.6,101.1-32.9,99.4-37.8z"/>
<path class="st0" d="M-125,29.5c6.2-0.9,12.3-1.8,18.5-2.6c2.1-0.3,4.3-0.5,6,0.5c-9.7,5.2-19.5,10.4-29.2,15.6
	c-0.8,0.5-1.7,0.9-2.7,1c-4.8,0.4-2.7-8.5-1.9-10.9c0.3-0.8,0.6-1.5,1.2-2c0.5-0.4,1.3-0.5,1.9-0.6C-128.9,30.1-127,29.8-125,29.5z"
	/>
<path class="st0" d="M-119.4,6.6c-1.9,1.3-10.2,8.1-12.3,8.6c0,0,2.6-11.4,1.2-13.1c-0.1-0.2,26.7-14.5,28.9-13.5
	C-97.6-9.3-114.9,3.4-119.4,6.6z"/>
<path class="st0" d="M-8.7-20.2c5.7-4.9,16.9-11.2,20.3-8.8c4.2,2.7-12.1,6-18.1,8.8C-7.1-19.9-7.9-20.1-8.7-20.2z"/>
<path class="st0" d="M118.8-10.2c-0.2,0.4-0.4,0.7-0.7,1c-1.8,1.7-3.7,0.4-4.6-1.6c-2.6-5.3-0.7-11.7,0.8-16.8
	c1-3.7,2.2-7.3,3.3-10.9c0.3-1.1,0.7-2.1,1.5-2.9c0.9-0.8,2.1-1.2,3-2.2c1.7-1.7,1.6-5.1,3.8-6.1c1.9-0.8,4,0.9,5.2,2.7
	c3.2,4.8,4.7,10.5,6.2,16.1c1,3.5,2,7.3,3.7,10.5c3,5.3,6.6-1.9,9-4.9c9.2-12,14.7-26.4,23.8-38.5c2.1-2.7,8.1-5.2,7.5,0.7
	c-0.2,1.4-0.8,2.6-1.6,3.9c-3.6,6.5-7.1,13-10.8,19.3c-5.6,9.7-11.2,19.7-18.2,28.4c-1.2,1.4-2.5,3-4.3,3.4
	c-3.4,0.9-6.3-2.4-8.2-5.3c-4.4-7.4-7.2-15.7-9.8-24c0.2,0.5-2.7,4.7-3.1,5.6c-1.2,2.3-2.1,4.8-3,7.3C121-20.2,121-14.2,118.8-10.2z
	"/>
<path class="st0" d="M69.6-54.9c0-1,0.3-2,0.9-2.8c1-1.6,3-2.4,4.9-2.9c7.4-2.6,14.9-5,22.3-7.6c3-1,6.6-1.9,9,0
	c0.8,0.8,1.6,1.9,2.8,2c0.5,0.1,1-0.2,1.4-0.3c2.5-0.9,5.3-2.1,5.9-4.7c0.4-1.4-0.1-2.9,0.6-4c0.8-1.3,2.7-1.7,4.1-1.4
	c2.5,0.5,4.8,2.3,5.8,4.7s0.6,5.3-1,7.4c-1.1,1.6-2.8,2.6-4.4,3.6c-12.6,7.7-26.9,12.5-41.6,14.2c-1.8,0.2-3.6,0.4-5.4-0.1
	C71.7-47.5,69.4-51.5,69.6-54.9z"/>
</svg>
