<?xml version="1.0" encoding="utf-8"?>
<!-- Generator: Adobe Illustrator 26.4.1, SVG Export Plug-In . SVG Version: 6.00 Build 0)  -->
<svg version="1.1" id="Ebene_1" xmlns="http://www.w3.org/2000/svg" xmlns:xlink="http://www.w3.org/1999/xlink" x="0px" y="0px"
	 viewBox="0 0 841.9 1190.6" style="enable-background:new 0 0 841.9 1190.6;" xml:space="preserve">
<style type="text/css">
	.st0{fill:none;stroke:#FF3DA6;stroke-linecap:round;stroke-linejoin:round;stroke-miterlimit:10;}
</style>
<g>
	<polyline class="st0" points="-109.8,-17.9 -87,-66.4 -77.1,-15.5 -51.9,-48.5 -39.8,19.1 -76.5,8.9 -6.9,-47.6 2.8,7.9 
		-34.1,-25.5 41.1,-10.3 45.6,-73.2 27.3,10.7 15,-38 68.3,-26.4 78.7,-45.4 61.9,-46.5 42.9,9.9 78.6,-17 	"/>
	<path class="st0" d="M104.5-28.7"/>
	<path class="st0" d="M129.5,1"/>
	<path class="st0" d="M41.2,23.4"/>
	<polyline class="st0" points="123.7,0.8 130.9,1.8 125.4,-4.2 109,1 141.7,11.3 130,-15.5 94.5,-1 134.8,32.9 102.3,50.5 81.5,2 
		88.4,54.2 54.8,66.6 52.8,44.6 80.3,41.1 68.6,8.5 40.2,19.7 43.4,72.2 12.8,32.5 7.4,69.4 -11.8,36.3 -2.9,41.1 -34.7,57.4 
		-23.9,42.5 -8.6,69.7 -53.8,72.1 -38,37.4 -69.9,44.9 -53.8,27.5 -60.9,73.2 -93.6,36.3 -70.4,30.4 -92.4,12.8 -95.2,67.1 
		-113.6,-1.9 -132.5,-6.5 -141.7,53.5 -105.5,64.1 -118,7.4 -128.2,8.2 -135.6,46.7 -116.9,52.9 -121.5,14.4 -125.1,30.4 
		-128.3,42.7 -122.2,45.4 -123.7,40.7 	"/>
	<polygon class="st0" points="-24.7,15.8 -24.7,24.4 6,20.1 	"/>
</g>
</svg>
