<?xml version="1.0" encoding="utf-8"?>
<!-- Generator: Adobe Illustrator 26.4.1, SVG Export Plug-In . SVG Version: 6.00 Build 0)  -->
<svg version="1.1" id="Ebene_1" xmlns="http://www.w3.org/2000/svg" xmlns:xlink="http://www.w3.org/1999/xlink" x="0px" y="0px"
	 viewBox="0 0 841.9 1190.6" style="enable-background:new 0 0 841.9 1190.6;" xml:space="preserve">
<style type="text/css">
	.st0{fill:none;stroke:#FF3DA6;stroke-linecap:round;stroke-linejoin:round;stroke-miterlimit:10;}
</style>
<g>
	<path class="st0" d="M-122.9,23.4C-112.4-16-69.1-17-66.8-28.1c1-4.5-1.9-7.5-7.3-7.5c-6.3,0-13.8,4.4-20.3,10.5L-110.3-45
		c11.7-10.7,24.2-16.2,39.1-16.2c18.9,0,42.8,9.4,36.8,34.5c-7.1,29.4-46.2,23.8-52,36.9l13.5-2H-44l-5.4,23.4h-75.5L-122.9,23.4z"
		/>
	<path class="st0" d="M-66.3-18.1C-59.2-45.5-41.4-61-17-61c33.8,0,46.2,21.7,38.1,52.6c-7.1,27.5-24.5,43-48.6,43
		C-57.2,34.6-75.8,17.3-66.3-18.1z M-13.1-12.1c4.8-18.3,5.9-26.1-4.6-26.1c-5.3,0-8,4.2-13.8,24c-6.7,23.2-4,26,4.6,26
		C-20.9,11.7-17.7,5.5-13.1-12.1z"/>
	<path class="st0" d="M-12.5,23.4C-2-16,41.3-17,43.6-28.1c1-4.5-1.9-7.5-7.3-7.5c-6.3,0-13.8,4.4-20.3,10.5L0.1-45
		c11.7-10.7,24.2-16.2,39.1-16.2c18.9,0,42.8,9.4,36.8,34.5C68.9,2.7,29.8-2.9,24,10.2l13.5-2h28.9l-5.5,23.4h-75.6L-12.5,23.4z"/>
	<path class="st0" d="M-141.9,53l-8.2-10.7l6.5-24.5c4.1-15.5,12.5-28.5,25-38.8l-16.1-20.1l0.9-11.6l8.9-8.2
		c16-14.7,33.5-21.9,53.6-21.9c9.9,0,19.4,1.8,27.8,5.1c8.2-3.3,17.1-5,26.4-5c10.6,0,20.1,1.7,28.4,5.1c8.7-3.5,18-5.2,27.7-5.2
		c9.2,0,18.1,1.5,26.1,4.4c8.1-3,16.8-4.4,25.8-4.4c20.8,0,39.5,7.8,49.8,20.9c6.1,7.7,12.4,20.9,7.9,39.9
		c-1.8,7.3-16.8,65.9-17.5,68.4l-8.2,6.4h-264.8V53z"/>
	<path class="st0" d="M39.3,23.4C49.8-16,93.1-17,95.4-28.1c1-4.5-1.9-7.5-7.3-7.5c-6.3,0-13.8,4.4-20.3,10.5L51.9-45
		C63.6-55.7,76.1-61.2,91-61.2c18.9,0,42.8,9.4,36.8,34.5c-7.1,29.4-46.2,23.8-52,36.9l13.5-2h28.9l-5.4,23.4H37.3L39.3,23.4z"/>
</g>
</svg>
