<?xml version="1.0" encoding="utf-8"?>
<!-- Generator: Adobe Illustrator 26.4.1, SVG Export Plug-In . SVG Version: 6.00 Build 0)  -->
<svg version="1.1" id="Ebene_1" xmlns="http://www.w3.org/2000/svg" xmlns:xlink="http://www.w3.org/1999/xlink" x="0px" y="0px"
	 viewBox="0 0 841.9 1190.6" style="enable-background:new 0 0 841.9 1190.6;" xml:space="preserve">
<style type="text/css">
	.st0{fill:none;stroke:#003DA6;stroke-miterlimit:10;}
	.st1{fill:none;stroke:#003DA6;stroke-linecap:round;stroke-linejoin:round;stroke-miterlimit:10;}
</style>
<path class="st0" d="M41.5,136.3c0-9.3-0.3-18.6-1.4-27.9c-0.8-6.5-2-13-3.2-19.5c-0.6-3.2-1.2-6.4-1.6-9.6
	c-0.1-0.9-0.3-1.8-0.4-2.7c-0.1-0.6,0.1,0.4,0-0.2c0-0.2-0.1-0.5-0.1-0.7c-0.1-0.5-0.1-1-0.2-1.4c-0.3-2-0.5-4-0.6-6.1
	c-1-11.3-1.2-22.8-1-34.1c0-1.6-0.6-3.3-1.4-4.7c-1.5-3-4.2-5.3-7.2-6.6c-2.4-1.1-4.9-1.7-7.6-2c-2.6-0.3-5.3-0.3-7.9,0.3
	C5,21.9,1.7,24-0.6,27.3C-3.2,30.9-4,35.4-4,39.8c0,1.3-0.2,2.6-0.3,3.9c-0.1,1.6-0.2,3.3-0.3,4.9c-0.2,3-0.4,5.9-0.6,8.9
	C-5.7,62.6-6,67.7-6.3,72.8c-0.5,8.9-1.1,17.8-2,26.7c-0.5,4.9-1.1,9.7-1.7,14.6c-0.1,0.3-0.1,0.7-0.1,1c0,0.2-0.1,0.3-0.1,0.5
	c0.1-0.5,0,0.1,0,0.2c-0.1,0.7-0.2,1.4-0.3,2.1c-0.2,1.4-0.4,2.8-0.6,4.2c-0.5,3.1-0.9,6.2-1.4,9.3c-0.5,3.4-1.1,6.8-1.6,10.2"/>
<g>
	<g>
		<path class="st0" d="M32.6,42.8c2.4,0.3,3.3-0.7,5.5-1.7c1.8-0.9,3.5-2.2,4.8-3.8c1.3-1.5,2.3-3.3,3.2-5.1
			c0.9-2.1,1.5-4.3,1.4-6.6c-0.1-3.9-2-7.5-4.6-10.4c-2.4-2.6-5.5-4.6-8.6-6.1c-4.4-2-9.2-3.1-13.9-3.7C15.1,4.8,9.8,4.8,4.6,5
			c-4,0.2-8,0.8-11.7,2.4c-4.1,1.9-7.3,5.3-9,9.4c-0.9,2.2-1.4,4.7-1.3,7.2c0,2.5,0.5,5,1.4,7.3c0.9,2.2,2.3,4.2,4.2,5.7
			c0.9,0.7,1.9,1.4,2.9,1.8c1.2,0.5,2.4,0.8,3.7,1"/>
	</g>
</g>
<path class="st1" d="M-16.1,16.8c0,0-39.3-9.9-25-40C-32.7-40.8,1.7-58.5,17.7-45C30.2-34.4-8.7-13.7-11.8-13c0,0,13.6-6.1,37.1,2"
	/>
<path class="st1" d="M-31.8-36.5c0,0-54.6-63.9-25.8-72.5c16-4.8,44.4,51.6,44.4,51.6s-12-85.1,12-84.3c24,0.8,16,81.8,16,81.8
	s5.3-16.8,20.5-10.4s2.6,52-6.9,49.6c-7.9-2-12-8.1-13.2-10.2"/>
<path class="st1" d="M35.4-26.1c0,0,11.6,16.8,19.3,5.4c6.9-10.2,15.3-53-13.1-40.8"/>
<path class="st1" d="M43.8,16.3c0,0,37-21.8,15.8-49.4"/>
</svg>
