<?xml version="1.0" encoding="utf-8"?>
<!-- Generator: Adobe Illustrator 26.4.1, SVG Export Plug-In . SVG Version: 6.00 Build 0)  -->
<svg version="1.1" id="Ebene_1" xmlns="http://www.w3.org/2000/svg" xmlns:xlink="http://www.w3.org/1999/xlink" x="0px" y="0px"
	 viewBox="0 0 841.9 1190.6" style="enable-background:new 0 0 841.9 1190.6;" xml:space="preserve">
<style type="text/css">
	.st0{fill:none;stroke:#FF3DA6;stroke-linecap:round;stroke-linejoin:round;stroke-miterlimit:10;}
</style>
<g>
	<path class="st0" d="M-0.8,21.2c-8.5,0.1-17.1-0.1-25.3-1.2c-8.6-1.2-12.3-7.5-12.7-15.8c-1-16.4,3.1-33.9,7.6-49.5
		c4.4-15.3,10.9-30.1,20.5-42.9C-7.9-91.9-4-95.8,0.5-95c2.2,0.4,4,1.8,5.5,3.3c6.5,6.1,11,14,14.8,22c10.7,22.7,16.5,47.8,16.1,73
		C36.6,19.5,24.1,21,10.5,21.1C6.8,21.1,3,21.1-0.8,21.2z"/>
	<path class="st0" d="M-86.4,20.5c-8.7-0.2-17.5-0.4-26.2-0.6c-3.9-0.1-7.9-0.2-11.4-2c-7.3-3.7-10.4-13.4-12.8-20.7
		c-3.2-9.7-4.9-19.9-4.9-30.1c0-2.1,0.1-4.4,1.3-6.2c2-2.9,6.2-3.3,9.8-3c9.5,0.9,18.5,4.5,27.1,8.6C-84-24-65.7-11.3-52.6,6
		c2,2.6,3.9,5.8,3,9c-1.2,4.1-6.4,5.4-10.7,5.7c-5.8,0.4-11.7,0.2-17.5,0.1C-80.7,20.7-83.6,20.6-86.4,20.5z"/>
	<path class="st0" d="M84.7,20.7c-7.1,0.1-14.3,0.1-21.4,0.2c-2.8,0-5.6,0-8.2-0.8c-9-2.9-6.4-11.2-1.3-16.5
		c19.9-20.4,43.6-38.5,71.4-44.9c5.2-1.2,11.7-1.5,14.9,2.8c2.3,3.2,1.7,7.6,0.9,11.5c-2.3,11.4-5.3,22.7-9.4,33.5
		c-1.6,4.2-3.6,8.6-7.3,11.2c-4,2.7-9.1,2.9-13.9,2.9C101.8,20.6,93.3,20.7,84.7,20.7z"/>
	<path class="st0" d="M-0.5,29c33.9,0.1,67.8,0.1,101.7,0.2c2.1,0,4.2,0,6.1,0.8c1.9,0.8,3.6,2.6,3.6,4.7c0,3.9-5,5.4-8.9,5.7
		c-14.1,1-28.2,1-42.4,1C6.4,41.2-46.7,41.1-99.7,41.1c-3.2,0-7.4-0.1-10-2.4c-2.6-2.3-2.9-6.6,0.4-8.5c2.1-1.2,4.6-1.3,7-1.3
		C-68.4,28.9-34.5,28.9-0.5,29z"/>
	<path class="st0" d="M-44.3,71.1c7.5-0.1,15,1.2,22,3.8c1.7,0.6,3.5,1.4,5.3,1.3c3-0.1,5.5-2.1,8.2-3.3c3.6-1.7,7.9-2.1,11.8-1
		c3,0.8,5.7,2.5,8.8,3.2c6.8,1.7,13.8-1.3,20.7-2.8c9.3-2.1,19.1-1.6,28.2,1.3c1.2,0.4,2.6,0.9,3.2,2c1.4,2.2-0.5,5-2.5,6.8
		c-7.1,6.2-16.2,9.6-25.4,11.7c-5.8,1.3-13,1.6-16.4-3.2c-1.6-2.3-2.7-5.7-5.4-5.6c-1,0-1.8,0.6-2.7,1.1C9.4,88,7.4,90,5.2,91.6
		c-2.3,1.5-5.1,2.6-7.8,1.9c-4.9-1.2-8.1-7.9-13-6.9c-3.1,0.7-4.7,4.2-7.2,6.2c-4.1,3.3-10.2,2.3-15.3,0.9
		c-4.4-1.2-34-10.8-25.7-18.5c1.1-1,2.5-1.5,4-1.9C-54.8,71.9-49.5,71.2-44.3,71.1z"/>
	<path class="st0" d="M91.6,56.9c-0.1,1.4-1.2,2.8-2.4,3.6c-2.6,1.7-5.9,1.8-8.9,1.9c-53.4,1.3-106.9,1.7-160.3,0.3
		c-3.2-0.1-7.2-0.2-9.9-2.3c-3.5-2.7-1.5-6.1,2.2-7.5c2.2-0.8,4.6-0.8,6.9-0.8c55,0.1,110,0.2,165,0.3c3,0,7,0.8,7.4,3.7
		C91.6,56.4,91.6,56.7,91.6,56.9z"/>
</g>
</svg>
