<?xml version="1.0" encoding="utf-8"?>
<!-- Generator: Adobe Illustrator 26.4.1, SVG Export Plug-In . SVG Version: 6.00 Build 0)  -->
<svg version="1.1" id="Ebene_1" xmlns="http://www.w3.org/2000/svg" xmlns:xlink="http://www.w3.org/1999/xlink" x="0px" y="0px"
	 viewBox="0 0 841.9 1190.6" style="enable-background:new 0 0 841.9 1190.6;" xml:space="preserve">
<style type="text/css">
	.st0{fill:none;stroke:#020203;stroke-miterlimit:10;}
</style>
<path class="st0" d="M-45.2,29.1h27.6l3.2,11.1l8.9,6.3H5.8l8.9-6.3l3.2-11.1l-3.2-11l-8.9-6.3h-9.9v-29.3h9.1l7.4-5.4l2.9-9.1
	L12.3-41l-7.4-5.4h-9.6L-12-41l-2.9,9.1h-30.3V-46l31.4-29.7H14l31.3,29.6L45.2-46v28.2l-0.1,0.3L30.9-4.2L45.1,9.4v36.9L16.7,75.8
	h-33.4l-30-28.4"/>
<polygon class="st0" points="-110.3,75.8 -141.7,46 -141.7,-46.1 -110.3,-75.8 -76.5,-75.8 -45.2,-46.1 -45.2,46 -76.5,75.8 "/>
<polygon class="st0" points="-99.2,46.5 -87.9,46.5 -79.1,40.3 -75.6,29.2 -75.6,-29.2 -79.1,-40.3 -87.9,-46.5 -99.2,-46.5 
	-108.1,-40.3 -111.4,-29.2 -111.4,29.2 -108.1,40.3 "/>
<polygon class="st0" points="76.7,75.8 45.3,46 45.3,-46.1 76.7,-75.8 110.5,-75.8 141.7,-46.1 141.7,46 110.5,75.8 "/>
<polygon class="st0" points="87.8,46.5 99.1,46.5 107.9,40.3 111.4,29.2 111.4,-29.2 107.9,-40.3 99.1,-46.5 87.8,-46.5 78.9,-40.3 
	75.7,-29.2 75.7,29.2 78.9,40.3 "/>
</svg>
