<?xml version="1.0" encoding="utf-8"?>
<!-- Generator: Adobe Illustrator 26.4.1, SVG Export Plug-In . SVG Version: 6.00 Build 0)  -->
<svg version="1.1" id="Ebene_1" xmlns="http://www.w3.org/2000/svg" xmlns:xlink="http://www.w3.org/1999/xlink" x="0px" y="0px"
	 viewBox="0 0 841.9 1190.6" style="enable-background:new 0 0 841.9 1190.6;" xml:space="preserve">
<style type="text/css">
	.st0{fill:none;stroke:#020203;stroke-miterlimit:10;}
</style>
<path class="st0" d="M-135.1-46.5c0.4-0.8,1.1-1.6,2.1-2.3c1.1-0.9,2.6-1.3,3.9-1.8c7.8-2.2,15.7-4,23.8-4.7
	c0.9-0.1,1.9-0.1,2.7,0.3c3.1,1.6,6.3,6,9.6,0.8c0.9-1.4,1.1-3.1,2.1-4.4c3.7-4.9,12,7.4,5.1,11.2c-11.3,6.2-23.5,8.3-36.2,9.4
	C-126.5-37.8-138.4-40.9-135.1-46.5z"/>
<path class="st0" d="M33.2-61.1c-5.1-3.3-11.1-4.8-17.1-5.3c-2.1-0.2-3.9,1.9-3.9,3.9c0,0.1,0,0.2,0,0.4c-3.3,0.2-6.5,0.6-9.9,0.9
	c-2.8,0.3-5.9,0.3-8,2.4c-1.7,1.7-2.1,4.4-0.3,6.2c1.1,1.1,2.9,1.4,4.4,1.7c2.3,0.4,4.7,0.7,7,0.9c5.4,0.6,11,0.9,16.4,0.9
	c2.7,0,5.2-0.2,7.9-0.7c1.9-0.3,4-0.9,5.4-2.3c1-1,1.6-2.3,1.6-3.8C36.9-58.4,35.1-59.8,33.2-61.1z"/>
<path class="st0" d="M-116.8-29.3c-5.7-1.8-10.4,4.2-13.3,9.4c-8,14.3-16,28.6-24,43c-0.6,0.9-1,1.9-1.9,2.3c-1.2,0.7-2.7,0.3-4,0.1
	c-15.5-3.4-30.9-7-46.5-10.5c13-8.1,26.1-16.3,39-24.4c5.2-3.3,11.2-8.2,10-14.2c-0.7-3.1-3-5.2-6-6.7c-2.2-1-4.7-1.7-7-2
	c-13.3-1.8-27.2,0.9-38.8,7.5c1.7,7.4-2.1,14.9-5.7,21.6c-7.4,14.6-14.1,29.8-18.9,45.6c-1.4,4.7-4.1,11,1.3,14.1
	c6.2,3.5,9.9-3.5,11.5-8.4c2.8-7.7,5.4-15.4,8.2-23.1c22.1,5.1,44.1,10.1,66.1,15.2c0.7,0.1,1.3,0.3,1.9,0.2c2.9-0.2,3.7-4,4.1-6.8
	c2.2-15.7,11.9-29.3,22-41.5c2.8-3.3,5.7-6.8,6.7-11C-110.8-22.9-112.6-28-116.8-29.3z"/>
<path class="st0" d="M-194.7-17.5c0.2-0.3,0.4-0.7,0.8-0.9c1.1-1.1,2.7-1.8,4.2-2.2c3.2-0.9,6.7-1.2,10.1-0.8c3.5,0.4-0.2,3.1-1.4,4
	c-4.9,3.9-10.4,7.9-16.5,9.6c-0.2,0.1-0.4,0.1-0.7,0c-0.4-0.2-0.4-0.9-0.3-1.4c0.6-2.3,1.7-4.4,2.8-6.4
	C-195.4-16.3-195.1-16.9-194.7-17.5z"/>
<path class="st0" d="M-39.1-9c-0.1,0-0.1-0.1-0.2-0.1c-3-1.6-6.7-1-10-0.1c-4.7,1.2-9.2,3-13.4,5.3c-3.1,1.7-6.3,4-7.2,7.4
	c-0.7,2.7,1,3.8,3.4,3.4c2.3-0.2,4.8-0.8,7.1-0.7c0,1.7-2.1,2.9-3.4,3.7c-6.7,4.2-13.4,8.3-20.3,12.3c-4,2.3-8.1,4.5-12.6,5.8
	c-6.2,1.7-1.7-5.8,0.1-7.4C-85.2,10.2-74.4,0.2-63.6-9.6c6-5.3,12-10.5,18.6-14.9c2.6-1.7,5.2-3.1,7.2-5.4c1.9-2.3,3-5.7,1.7-8.4
	c-1.6-3.1-5.5-4.3-9-3.5c-3.4,0.8-6.2,3-8.9,5.2c-19.4,15.9-38.2,32.5-54.9,51.1c-2.2,2.6-4.5,5.1-6,8.1c-4.2,8.8,1.1,18.6,11,19.2
	c5.4,0.3,10.6-1.9,15.5-4.2c11.5-5.4,22.6-11.9,33.7-18.4c-1.7,5.9-3.3,11.6-5.1,17.5c-1,3.7-2.1,7.5-0.9,11.1
	c1.2,3.5,5.7,6.3,8.8,4.3c1.9-1.1,2.7-3.3,3.3-5.4c4-11.8,8-23.5,11.9-35.3c1.2-3.5,2.4-7.2,2.3-11C-34.2-3.4-35.9-7.3-39.1-9z"/>
<path class="st0" d="M174.1-27.8c-3.8-4.1-8.4-2.1-16.1-0.2c1-5.2,1.4-10.6-0.3-15.6c-1.9-5-6.5-9.2-11.8-9c-4.2,0.2-7.8,3-10.9,5.8
	c-17.7,15.7-31.4,35.5-44.8,55c-4.8,6.9-3,21.1,8.4,15.1c3.8-2,6.2-5.9,8.9-9.2c7.7-9.8,18.9-16.5,30.9-19
	c-3.4,13.1-6.8,26.1-10.2,39.1c-0.7,2.6-1.3,5.1-1.2,7.7c0,1.1,0.2,2.1,0.6,3.2c1.2,3.4,5.3,6.2,8.5,4.4c2.4-1.3,3.2-4.2,3.9-6.9
	c3-13,6.1-26,9.1-38.8c1.6-6.7,3.7-14.1,9.5-17.4c3.7-2.1,8.1-2.2,11.8-4.1C174.2-19.6,177-24.8,174.1-27.8z"/>
<path class="st0" d="M143.8-23.8c0,0-10.4,2.8-17.7,6.2c2.1-4,14.4-17.9,18.9-20.4C149.9-40.9,144.3-25.9,143.8-23.8z"/>
<path class="st0" d="M-225.1-15.5c-2-5.9-8.9-10.5-14.5-8c-1.4,0.7-2.9,1.7-4.4,1.3c-1.2-0.3-2-1.3-2.9-2.2c-3.8-3.7-9.9-3.9-14.8-2
	c-4.9,1.9-8.8,5.5-12.5,9.2C-288.1-3.5-301.4,12-308,30.5c-2.8,7.8-6.1,17.6-1.6,25.3c0,0,0,0,0,0.1c4.2,7,12.3,10.9,20.5,10.4
	c9.4-0.4,18.1-5.7,25.5-11.5c16.9-13.4,29.7-31.7,36.8-52C-224.6-3.1-223.1-9.6-225.1-15.5z M-288.3,53.7c-18.2,8.9-8.5-16.2-4.5-24
	c8.8-16.7,21.2-31.7,36.2-43.3c-0.1,0.3-0.2,0.7-0.3,1c-1.4,3.2-5.8,5.4-5.2,8.9c0.3,2.9,4,4.3,6.8,3.5c2.8-0.7,5-2.8,7.3-4.7
	c3.5-2.9,7.7-5.1,11.9-6.8C-242.9,16.7-262.5,41.2-288.3,53.7z"/>
<path class="st0" d="M39.3-4.8c-4.8,10.4-9.5,21-14.3,31.4c-0.3,0.7-0.7,1.3-1.3,1.7c-0.7,0.3-1.6,0.1-2.2-0.2
	c-19.7-8.5,8.1-44.7,13.8-56.8C37.7-34,41-40.3,46.8-40.5c4.7-0.2,8.7,4.1,9.6,8.7c1.1,4.5,0.1,9.3-0.8,14c-2.2,11.5-3.7,23.3-4,35
	C67.4-5.5,83.1-28.2,102-48.3c3.2-3.4,7-7,11.6-7.5c4.7-0.4,10,4.1,8.2,8.5c-0.9,2.2-3.1,3.5-5.2,4.9C103.8-34.2,95-21.1,86.6-8.5
	C77,5.9,67.4,20.3,57.9,34.8c-1,1.4-2,3-3.5,3.8c-4.8,2.7-10.2-2.7-12.2-7.8c-4.5-11.5-3.4-24.5-2.2-36.8
	C39.8-5.7,39.6-5.3,39.3-4.8z"/>
<path class="st0" d="M157.6,30.5c-12.6-4.2,4.2-27.4,8.2-33.4c9.1-13.5,19.9-25.8,30.5-38.2c3.7-4.2,7.3-8.3,11-12.5
	c0.6-0.7,1.2-1.4,2-1.9c3.1-2.1,7.7-0.2,9.3,3.1c1.7,3.3,0.8,7.4-1.1,10.6s-4.8,5.7-7.4,8.2c-14.1,13-25.6,28.5-36.3,44.4
	c21-8.3,42.1-16.7,64.3-21.2c4-0.8,8.5-1.4,12.1,0.7c3.5,2.1,5,8,1.6,10.2c-1.1,0.7-2.3,0.9-3.7,1.1c-25.7,4.5-50.8,13.1-73.9,25.4
	c-3.9,2.1-7.9,4.3-12.3,4.2C160.2,31.1,158.8,30.9,157.6,30.5z"/>
<path class="st0" d="M235.9,5c0.7-0.3,1.7-0.7,3.1-0.7c13.1-0.6,27.7,2.2,38-5.8c-8.8-8.7-17.1-17.9-24.8-27.4
	c-2.3-2.9-4.8-6-5.9-9.5c-1.1-3.5-0.7-7.9,1.9-10.5c1.8-1.9,4.3-2.7,6.9-3.4c11.6-3.7,23.2-7.3,34.8-11c6.5-2.1,14.6-3.8,19.6,1
	c2.6,2.6,3.3,7.2,0.6,9.5c-1.4,1.2-3.4,1.4-5.3,1.8c-16,2.1-31.6,6.7-46.2,13.4c7.8,8.5,15.6,17.2,23.4,25.7c2.8,3,5.5,6.1,7.1,9.9
	c1.6,3.8,1.6,8.4-1,11.6c-1.8,2.2-4.4,3.4-7.1,4.4c-7.5,2.7-15.4,4.1-23.4,4c-5.2-0.1-10.8-0.9-15.4-3.4C239.1,12.9,232.4,7,235.9,5
	z"/>
<path class="st0" d="M-6.2,36.6c-0.1,0.1-0.2,0.3-0.3,0.4c-1.6,1.7-4.3,1.4-6.2,0.1c-9.5-6.5-2.4-25.3,0.6-33.8
	C-8-8.8-1.9-20.4,4.4-31.6c1.4-2.7,3.2-5.4,6.1-6.3c4.9-1.3,9.2,4.3,8.9,9.3c-0.4,5-3.8,9.2-6.7,13.3C2.9-1.2-2.6,15.6-4.9,32.7
	C-5.2,34.1-5.5,35.5-6.2,36.6z"/>
</svg>
