<?xml version="1.0" encoding="utf-8"?>
<!-- Generator: Adobe Illustrator 26.4.1, SVG Export Plug-In . SVG Version: 6.00 Build 0)  -->
<svg version="1.1" id="Ebene_1" xmlns="http://www.w3.org/2000/svg" xmlns:xlink="http://www.w3.org/1999/xlink" x="0px" y="0px"
	 viewBox="0 0 841.9 1190.6" style="enable-background:new 0 0 841.9 1190.6;" xml:space="preserve">
<style type="text/css">
	.st0{fill:none;stroke:#003DA6;stroke-miterlimit:10;}
</style>
<g>
	<g>
		<path class="st0" d="M-21.4-56.3L-21.4-56.3C-31.1-44.7-36.7-30.2-37.6-15c-0.2,3.5-0.1,6.9,0.3,10.4c0.3,3.2,0.9,6.3,1.9,9.2
			c2.1,6,5.3,11.8,9,16.9s7.9,10.1,13.3,13.3c3.4,2,6.9,3.7,10.6,5.4C1.2,42,5,43.4,8.8,44.6c12.4,3.8,25.4,4.8,38.3,3.1
			c9.6-1.3,18.8-4.1,27.9-7.3c0.9-0.3,3.1-1.1,3.9-1.3c2.4-0.8,2.9-2.9,2-5.4c0,0-8.7-20.2-14.7-29.6c-5.9-9.2-12.9-18-20.5-26.1
			c-7.6-8-16.1-15.4-25-22.1C12.1-50.6,2.9-56.5-6.7-61.7c-9.9-5.4-20.1-9.9-30.5-13.9c-1.3-0.4-2.5-1-3.8-1.4"/>
	</g>
</g>
<g>
	<g>
		<path class="st0" d="M47.5,41c0.2-4,0.5-7.8,0.1-11.8c-0.3-3.2-0.9-6.4-1.9-9.5c-1.3-3.7-3.1-6.9-5.4-10
			C35.4,3.5,27.6-0.4,19.9-1.8C13.8-2.9,7.2-2.6,1.4-0.3c-4.1,1.7-7.7,3.9-10.9,7C-13,10-16,14.1-18.2,18.4
			c-0.7,1.2-1.2,2.5-1.8,3.7c-0.5,1.2-0.9,2.3-0.5,3.7"/>
	</g>
</g>
<g>
	<g>
		<path class="st0" d="M-71.3-66.1c0,0,17.1-15.9,17.4-16c0.7-0.4,1.3-0.9,2-1.3c1.4-0.9,2.9-1.5,4.4-2.2c-0.3,0.2-0.8,0.3-1.1,0.5
			c2.9-1.2,5.8-2,8.9-2.5c-0.4,0.1-0.9,0.1-1.3,0.2c1-0.1,2-0.2,3-0.2"/>
	</g>
</g>
<g>
	<g>
		<path class="st0" d="M192-36.7c1.2,1.5,2.4,3.1,3.5,4.7c7.8,11.4,11.3,26.2,9.6,39.9c-0.9,7.1-3,14-6.4,20.2
			c-3.2,5.8-7.3,11.1-12.1,15.5c-4.8,4.5-10.3,8.2-16.4,10.8c-3.5,1.5-7,2.6-10.8,3.5c-4.2,0.9-8.5,1.4-12.8,1.6
			c-6.5,0.3-12.9,0.3-19.2-0.5c-4.7-0.8-9.3-2.2-13.6-4.2c-4.8-2.3-9-5.6-12.2-9.9c-2.9-3.8-4.5-8.6-4.9-13.3c-0.1-1-0.1-2-0.1-2.9
			l0,0l0.7-2.4c1.3-2.4,4.4-2.9,6.6-1.8c0.7,0.3,9.1,1.8,11.3,1.4c-0.4,0.1-0.9,0.1-1.3,0.2c2.9-0.4,5.7-1.3,8.4-2.4
			c-0.3,0.2-0.8,0.3-1.1,0.5c3.1-1.3,5.9-3,8.7-4.8c0.5-0.4,1.2-0.9,1.9-1.3c0.4-0.2,1.5-1.2,0.2-0.1c0.3-0.2,0.7-0.4,0.9-0.7
			c1.2-1,2.3-2,3.4-3c1.9-1.8,3.5-3.6,5.3-5.6c2.5-3,4.9-5.8,7.5-8.8C154-6,158.9-12,163.6-18c0.7-0.8,1.2-1.5,1.9-2.3
			c0.7-0.9-0.7,0.9,0,0c0.1-0.1,0.2-0.3,0.3-0.4c0.2-0.4,0.5-0.9,0.9-1.2c1.1-1.4,2.3-3,3.4-4.5c2.3-3,4.5-6.2,6.8-9.2
			c4.5-6.3,9-12.6,13.3-19l0,0"/>
	</g>
</g>
<g>
	<g>
		<path class="st0" d="M166.2,56.1c0.9-2.2,2.4-7.7,2.5-10c0.1-3-0.3-6-1.1-8.9c-2.1-7.5-7.3-13.7-14.3-17c-5.5-2.6-12-5.3-20.2-3.7
			"/>
	</g>
</g>
<g>
	<g>
		<path class="st0" d="M219.9-72.2c2-1.3,4-8,2.5-10.2c-1.1-1.5-2.5-3-4.2-3.8c-1.8-0.9-3.5-1.3-5.5-1.5c-3.5-0.3-7,1-10.1,2.5
			c-3,1.5-5.7,3.4-8.6,5.2c-3,1.9-5.9,3.7-8.9,5.6c-3.4,2.1-6.8,4.3-10.1,6.4c-2.1,1.3-3.1,4.3-1.8,6.6"/>
	</g>
</g>
<g>
	<g>
		<path class="st0" d="M-61.5,57.8L-61.5,57.8c2.4,0.7,4.7,1.4,7.1,2.4c0.3,0.1,0.5,0.2,0.9,0.3c0.1,0.1,1.1,0.3,0.3,0.1
			s0.2,0.1,0.3,0.1c0.3,0.1,0.5,0.2,0.9,0.3c1.1,0.5,2.3,1.1,3.4,1.5c4.1,2,8,4.4,11.7,7c0.9,0.7,1.8,1.3,2.6,1.9
			c0.4,0.3,0.9,0.7,1.3,1c0.5,0.3-1-0.8-0.1-0.1c0.3,0.2,0.7,0.5,0.9,0.7c1.8,1.3,3.4,2.7,5.1,4.2c3.2,2.7,6.3,5.6,9.5,8.7
			c5.5,5.3,10.9,10.8,16.8,15.4c8.5,6.7,17.6,12,27.6,16.1c16.9,6.9,35.8,8.9,54,6.9c15.6-1.8,30.8-6.3,45.1-13
			c5.1-2.4,10-5.2,14.7-8.4c3.2-2.2,6.6-4.6,9.1-7.7c0.5-0.7,1.1-1.4,1.5-2.2l-0.3,6.5c-3.1,21.4-11.2,42.3-23.3,60.1
			c-6.5,9.5-13.9,18.7-23.4,25.2c-9.6,6.5-21.1,10.1-32.3,12.9c-11.4,2.9-23.3,4.7-35.1,3.8c-11.1-0.8-21.8-3.8-31.3-9.6
			C-11.8,181.6-24,164.5-31.4,146c-8.9-22-11.1-46-13.4-69.4"/>
	</g>
</g>
<g>
	<g>
		<path class="st0" d="M-31.5,146.2l5.7-2.6c7.4-2.3,14.8-4.4,22.4-5.5c-0.4,0.1-0.9,0.1-1.3,0.2c4.9-0.7,10-0.9,15-0.1
			c-0.4-0.1-0.9-0.1-1.3-0.2c3.3,0.4,6.5,1.3,9.6,2.6c-0.3-0.2-0.8-0.3-1.1-0.5c1.9,0.8,3.6,1.8,5.4,2.7c0.9,0.5,1.6,1.1,2.5,1.8
			c-1.4-1,0.1,0.1,0.4,0.3c0.3,0.3,0.8,0.7,1.1,1c0.7,0.7,1.4,1.3,2,2.1c0.3,0.3,0.7,0.7,1,1.1c0.2,0.2,0.7,1-0.2-0.2
			c0.1,0.2,0.3,0.4,0.4,0.7c1.1,1.5,2.1,3.3,2.9,5.1c-0.2-0.3-0.3-0.8-0.5-1.1c0.8,1.9,1.3,3.7,1.5,5.7c-0.1-0.4-0.1-0.9-0.2-1.3
			c0.1,0.9-1.7,13.7-1.7,14.5c2.1,2.9,9-8.2,11.4-11.9c2.5-3.7,6.7-4.8,9.5-6c-0.3,0.2-0.8,0.3-1.1,0.5c4.5-1.9,9.2-3.1,14.1-3.7
			c-0.4,0.1-0.9,0.1-1.3,0.2c5.7-0.8,11.5-0.7,17.2,0.1c-0.4-0.1-0.9-0.1-1.3-0.2c4.9,0.7,10,1.8,14.5,3.7c-0.3-0.2-0.8-0.3-1.1-0.5
			c1.9,0.8,3.6,1.8,5.3,2.7c0.9,0.5,1.5,1.1,2.3,1.5c0.7,0.5-0.9-0.7-0.2-0.2c0.2,0.1,0.3,0.3,0.5,0.4c0.3,0.3,0.8,0.7,1.1,1
			c0.7,0.7,1.4,1.3,2.1,2.1c0.3,0.3,0.7,0.7,0.9,1.1c0.2,0.2,0.7,1-0.2-0.2c0.1,0.2,0.2,0.3,0.4,0.5c1.1,1.5,2.1,3.3,3,5.1
			c-0.2-0.3-0.3-0.8-0.5-1.1c0.1,0.2,0.2,0.4,0.2,0.7c0.4,1.2,4.6,9.2,4.6,9.2"/>
	</g>
</g>
<g>
	<g>
		<path class="st0" d="M99.8,62.5C89.9,61,80,61.9,70.2,63.4c-8.9,1.3-17.8,3.4-26.3,6.7c-4.4,1.6-6.5,2.3-10.7,4.6
			c-2.2,1.2-6.5,4.2-7.1,6.7c-0.7,2.6,0.3,5.4,2.3,7c1.8,1.5,3.8,2.5,6,3.4c4.1,1.8,8.5,2.7,12.8,3.7c4,0.9,8,1.5,12.1,2.1
			c7.4,1,15.1,0.9,22.5,0.3c9.7-0.7,19.2-2.4,28.5-5.2c3.8-1.1,8.2-2.4,10.9-5.6c1.4-1.8,2.3-3.6,2.4-5.9c0.1-1.8-0.4-3.5-1.2-5.1
			c-1.4-3-4.1-5.3-6.7-7.1c-2.7-2.1-6-3.6-9.5-4.7C104.1,63.7,99.8,62.5,99.8,62.5z"/>
	</g>
</g>
<g>
	<g>
		<path class="st0" d="M-76.7-135c-17.7-9.1-34.5-19.8-51.5-30.2c-5.6-3.5-11.2-6.9-16.9-10.3c-3-1.8-7.5,0.4-7.1,4.2
			c0.5,6.5,3.3,12.5,6,18.3c1.4,3,3,5.9,4.4,9l-8.5-6.3c-8.5-6.2-17.4-11.9-26.3-17.4c-9.5-5.8-19-11.5-28.7-17
			c-9.6-5.5-19.2-11-28.7-16.6c-8.9-5.2-17.8-10.6-26.6-16.2c-1-0.7-2-1.3-3.1-2c-2-1.3-4.7-0.5-6.2,1.2c-1.5,2-1.2,4.4,0.3,6.3
			c13.4,15.4,26.9,30.7,40.6,45.9c11,12.2,22.1,24.3,33.2,36.5c9.5,10.2,18.9,20.5,28.3,30.7c8.8,9.6,17.6,19.2,26.3,29
			c9.1,10.1,18,20.5,26.8,30.8c1.1,1.3,2.3,2.7,3.4,4.1"/>
		<path class="st0" d="M-110.8-35.4c1.5,1.9,5.1,1.8,6.7,0"/>
	</g>
</g>
<g>
	<g>
		<path class="st0" d="M-35.6-135.2"/>
		<path class="st0" d="M8.1-156.3c-6.8-4.4-16.1-4.7-23.5-1.8c-4,1.5-7.6,3.8-10.7,6.9c-2.7,2.7-5.2,6-6.9,9.7c-1,2-1.8,4.1-2.5,6.2
			l-6.4-2.3c-5.3-1.8-10.9-2.5-16.5-2.6c-12.9-0.1-26.2,4.2-35.2,13.6c-6.2,6.4-9.6,14.7-11.9,23"/>
	</g>
</g>
<g>
	<g>
		<path class="st0" d="M-248.4-55.4c11.7-0.3,23.3,0.2,34.7,1.8c-0.4-0.1-0.9-0.1-1.3-0.2c13.2,1.8,26.2,4.8,38.8,9
			c3.5,1.2,7,2.5,10.6,3.8"/>
	</g>
</g>
<g>
	<g>
		<path class="st0" d="M-214.9-21.6c-0.1,0.4-0.1,0.9-0.2,1.3c0.1,0.6,0.3,1.4,0.8,2.2c0.5,1.3,1.6,2.2,2.7,3.1
			c0.9,0.5,1.8,1,2.7,1.2c2.5,0.5,5.1,0.2,7.3-1c2-1.1,3.5-3,4.6-5.1c1.1-2.2,1.9-4.4,2.2-6.9c0.1-0.4,0.1-0.9,0-1.3
			c-0.1-0.9-0.2-1.5-0.4-2.3c-0.5-1.3-1.1-2.4-2.1-3.4c-1.5-1.6-3.8-2.3-6-2c-3.1,0.4-5.6,2.5-7.6,4.8c-1,1.1-1.9,2.3-2.6,3.5
			c-0.5,1-1,2-1.3,3.2c-0.4,1.5-0.5,3.5,0.1,5.2c0.4,1.2,1,2.2,2.2,2.9"/>
	</g>
</g>
<g>
	<g>
		<path class="st0" d="M-69.9,33.2c-3.7,4-7.4,8.1-9.5,13.3c-1.9,4.9-1.8,11.2,1.4,15.6c0.7,1,1.5,1.9,2.9,2.2"/>
	</g>
</g>
<g>
	<g>
		<path class="st0" d="M-239.3-79.8c-2-4.6-7.8-7.6-12.8-7c-3,0.3-5.7,1.4-7.8,3.6c-1.5,1.7-2.5,3.7-3.1,5.9c-0.2,0.6-0.3,1.3-0.3,2
			c-7.5,1.6-10.4,6.5-10.4,6.5c-2.2,2.7-3.7,6.2-3.5,9.8s1.5,6.8,3.7,9.7c2.5,3.1,6,4.8,10,5.2"/>
	</g>
</g>
<g>
	<g>
		<path class="st0" d="M-148.4-39.8L-148.4-39.8c-9.6,2.5-15.2,11.3-18.5,20c-3.6,9.6-5.1,21.4,1.5,30c1.8,2.3,3.7,4.3,6.3,5.8
			c2.5,1.5,5.4,2.3,8.4,2.5"/>
	</g>
</g>
<g>
	<g>
		<path class="st0" d="M-169.1-9.7L-169.1-9.7c-10,6.4-16.7,17.2-17.9,29c-0.5,5.8,0.5,11.5,3,16.8c2.3,5.2,6.2,9.5,10.7,12.9
			c4.9,3.7,11.1,5.8,17.3,5.9"/>
	</g>
</g>
<g>
	<g>
		<path class="st0" d="M-111.1,55.9c-12.5,2.3-25.2,4.8-37.6,7.5c-12.4,2.6-25,5.5-37.3,8.4c-12.4,3-24.9,6-37.3,9.5
			c-12.3,3.2-24.6,6.7-36.8,10.2c-12.3,3.5-24.5,7.3-36.7,11.2c-1.5,0.5-3.1,1-4.6,1.4c-2.3,0.8-3.7,2.9-3.4,5.2
			c0.3,2.2,2.3,4.4,4.7,4.2c17.5-1.9,34.9-4.1,52.2-6.5c17-2.3,34-4.9,50.9-7.8l-12.1,7.9c-1.8,1.1-2.9,3.3-2.2,5.4
			c0.7,1.9,2.5,3.6,4.6,3.5c23.4-1.5,46.8-4.6,69.9-9.2c6.4-1.3,12.9-2.6,19.2-4.2"/>
		<path class="st0" d="M-197,99.1"/>
	</g>
</g>
<g>
	<g>
		<path class="st0" d="M-238.2,69.2L-238.2,69.2c9.1-1.5,18.4-3,27.6-4.2c-0.4,0.1-0.9,0.1-1.3,0.2c5.3-0.7,10.7-1.3,15.8-2"/>
	</g>
</g>
<g>
	<g>
		<path class="st0" d="M-54.1-29.8c-16.5,6.5-32.9,13-49.3,19.5c-7.5,1.9-13.4,3-16.7,7.7c-0.5,1-0.7,2-0.5,3.1
			c0.3,2.4,2.3,4,4.7,4.2c7,0.3,14.1,0.3,21-0.1l2.3-0.4L-94.7,6c-4.8,6.3-9.4,12.8-13.8,19.3c-1.9,3-3.8,5.8-5.6,8.8
			c-1.3,2.1-0.5,5.4,1.8,6.6"/>
	</g>
</g>
<g>
	<g>
		<path class="st0" d="M13.5,221.9L13.5,221.9c5.6,6.6,16.5,8,23.8,3.2"/>
	</g>
</g>
<g>
	<g>
		<path class="st0" d="M-140.6,119.5L-140.6,119.5c-2.3,8.9,1,18,6.8,24.9c6.3,7.3,15.6,10.7,24.9,11.8c4.9,0.7,7,0.8,12,0.3"/>
	</g>
</g>
<g>
	<g>
		<path class="st0" d="M-96.8,138.5c-0.3,6.7,0,13.5,1.4,20.1c0.7,3.1,1.8,6.3,3.7,8.9c2,2.7,4.4,4.9,7.1,6.8
			c4.8,3.4,10.4,5.9,16.1,7.8c5.8,2,11.8,3.1,17.9,3.5c6.7,0.5,13.6-0.1,20.2-1.4"/>
	</g>
</g>
<g>
	<g>
		<path class="st0" d="M-50.9-195"/>
		<path class="st0" d="M66.9-149.7c-5.6-9.7-11.3-19.2-16.9-28.9s-11.3-19.2-16.9-28.9s-11.3-19.2-16.9-28.9s-11.3-19.4-17-29
			c-2.7-4.6-5.4-9.2-8.1-14c-2.5-4.2-5.4-8.2-9.6-10.8c-1.1-0.7-2.4-1.2-3.7-1.6c-2.5-0.9-5.2,1-5.8,3.3
			c-3.8,13.3-7.4,26.7-10.7,40.1c-3.4,13.5-6.4,26.9-9.3,40.6c-0.9,4.3-1.8,8.6-2.7,12.9l-18.9-29.7c-2.7-3.7-5.6-7.5-8.6-11.2
			c-0.4-0.5-1.4-1-2.1-1.2c-1-0.2-2.1-0.2-3.1,0.2c-1.6,0.7-3.1,2.5-3,4.4c0.8,10.7,1.9,21.3,3.2,32c1.4,10.9,3.1,21.8,5.1,32.5
			c1.1,5.9,2.2,11.9,3.5,17.8"/>
	</g>
</g>
<g>
	<g>
		<path class="st0" d="M114.6-131.9c1.2-5.6,2-11.5,2.2-17.3c0.2-4.7,0-9.7-1.1-14.3c-1.1-4.5-3.3-9.1-6.8-12.1
			c-4.3-3.5-9.7-5.2-15.3-5.1c-6.2,0.1-12,2.3-17.6,4.5"/>
	</g>
</g>
<g>
	<g>
		<path class="st0" d="M93.2-113c0.3-0.2,0.8-0.3,1.1-0.5C93.8-113.3,93.5-113.1,93.2-113c1.5-0.7,3.2-1.1,4.9-1.4
			c-0.4,0.1,3.7,0.1,3.3,0c2,0.2,1.9-1,8.7,3.1c6.8,4.1,8.7,9.2,7.7,14c-0.1-0.4-2.4,14.1,0.1,21.7c0.7,1.9,2,3.2,4,3.4
			c0.9,0.1,1.6,0,2.5-0.3c1-0.4,1.5-1.1,2.3-2c0.2-0.3,0.5-0.8,0.9-1.1c0.2-0.2,0.3-0.4,0.5-0.7c-0.8,1-0.4,0.5-0.2,0.3
			c0.7-0.9,1.3-1.5,1.9-2.4c1.2-1.5,2.4-3,3.7-4.4c2.5-3,5.2-5.8,7.8-8.6c5.4-5.5,11-10.7,16.9-15.4c0.9-0.7,1.6-1.3,2.5-2
			c0.5-0.3-1,0.8-0.2,0.1c0.2-0.2,0.4-0.3,0.7-0.5c0.4-0.3,0.9-0.7,1.3-1c1.8-1.3,3.5-2.6,5.4-3.8"/>
	</g>
</g>
<g>
	<g>
		<path class="st0" d="M199.4-89.9c1.3-0.3,2-1.1,2.9-2.2c7.6-10,15.1-20.1,22.7-30.1c7.5-10,15-19.9,22.5-30
			c7.6-10,15.1-20.1,22.7-30.1c7.5-10,15-19.9,22.5-30c7.6-10,15.1-20.1,22.7-30.1c1-1.3,1.9-2.5,2.7-3.7c0.4-0.5,0.7-1.6,0.7-2.4
			c0-1.1-0.3-2-1-2.9c-1.1-1.4-3.2-2.3-5.1-1.8c-9.5,3.5-18.5,7.9-27.2,12.9c-8.5,4.8-16.5,10.2-24.4,15.9
			c-8.2,5.9-16.2,12.2-24.1,18.5c-7.7,6.2-15.4,12.4-23.1,18.5c-0.5,0.3-1,0.8-1.4,1.1c-0.2,0.2-0.4,0.3-0.7,0.5
			c-0.1,0.1-0.2,0.2-0.3,0.2c-0.5,0.3,0.1-0.1,0.2-0.2c-1,0.8-2,1.5-3,2.3c-1.9,1.4-3.8,3-5.8,4.4c-1.7,1.3-3.4,2.5-5.1,3.7l0.2-2.9
			c1.5-7.1,3-14.2,4.6-21.3c0.7-3.4,1.4-6.8,2.2-10.3c0.4-2-0.2-4.4-2.2-5.4c-1.8-1-4.4-0.9-5.8,0.8c-7.8,9.1-15.6,18.1-23.4,27.3
			c-7.8,9-15.5,18.1-23.3,27.2c-4.4,5.2-8.8,10.3-13.2,15.4"/>
	</g>
</g>
<g>
	<g>
		<path class="st0" d="M212.3-65.2c0,0-2,2.2-3.1,3.8s-1.6,3.5-1.9,5.4c-0.1,1,0.1,1.9,0.2,2.9c0.1,0.4,0.2,0.9,0.4,1.2
			c0.2,0.4,0.3,0.9,0.5,1.2c0.4,0.7,1,1.4,1.6,2c0.7,0.5,1.3,1.1,2.1,1.4c0.8,0.3,1.5,0.7,2.4,0.9c1.4,0.2,2.3,0.2,3.7,0
			c0.2-0.1,0.4-0.1,0.7-0.2c0.5-0.2,1.1-0.4,1.6-0.8c1.1-0.7,1.9-1.5,2.7-2.6c0.5-0.7,0.9-1.5,1.1-2.3s0.3-1.8,0.3-2.6
			c-0.1-2-0.5-3.6-1.3-5.4c-0.2-0.5-0.5-1.1-0.9-1.8c-0.2-0.2-0.3-0.5-0.5-0.9c-0.3-0.5-0.8-1.1-1.2-1.5c-1.2-1.1-2.7-1.9-4.5-1.9
			C215.6-66.5,213.6-65.8,212.3-65.2z"/>
	</g>
</g>
<g>
	<g>
		<path class="st0" d="M172.7,92.8c4.8-0.7,9.6-3.3,12.9-6.8c3.8-4,5.9-9.2,6.3-14.7c0.2-3-0.2-6-1.3-8.8"/>
	</g>
</g>
<g>
	<g>
		<path class="st0" d="M185.1-228.9c-1.3-2.1-4.3-3.2-6.6-1.8c-8.8,5.6-15.3,13.7-18,23.9l-12.6,6.2c-5.4,2.5-9.2,7.4-11.1,12.9
			c-1,2.9-1.4,6-1,9c0.1,1.3,0.4,2.4,1.4,3.4c0.9,0.9,2.2,1.4,3.4,1.4"/>
	</g>
</g>
<g>
	<g>
		<path class="st0" d="M217.1,31c6.6-4.5,11.3-10.9,13.9-18.5c2.4-7.3,2.1-15.6-0.7-22.8c-1.8-4.4-4.2-8.4-7.3-11.8"/>
	</g>
</g>
<g>
	<g>
		<path class="st0" d="M184.7,86.8c12.8,1.2,25.8-3.7,35.3-12.2c9.9-8.9,15.2-22.3,14.5-35.6c-0.3-7.7-2.5-15.3-6.4-21.9"/>
	</g>
</g>
<g>
	<g>
		<path class="st0" d="M146,168.5c14-3.2,26.5-11.2,36.2-21.6c10.7-11.3,17.8-25.5,22.3-40.2c2.6-8.7,4.2-17.7,5.2-26.7"/>
	</g>
</g>
<g>
	<g>
		<path class="st0" d="M294.1-26c-0.1-2.6-2.1-4.6-4.7-4.7C277-31.4,277-31.5,264.5-32l1.5-5.6c0.9-1.5,0.9-3.3,0-4.8
			c-0.9-1.4-2.5-2.5-4.2-2.3c-9.1,0.5-17.9,2.9-26.2,6.8"/>
	</g>
</g>
<g>
	<g>
		<path class="st0" d="M259.8,44.3c-1.3,0.9-2,1.6-3,2.9c-0.7,0.9-1,1.8-1.3,2.7c-0.7,2-0.7,4.2-0.3,6.2c0.7,4,4,7.7,8,8.4
			c1.5,0.2,2.7,0.2,4.3,0c1-0.2,2-0.5,3-1c1.9-0.9,3.5-2.5,4.7-4.2c1.1-1.8,1.8-4.1,1.5-6c-0.2-1.5-0.4-2.6-1.1-4.1
			c-0.4-1-1.1-1.8-1.9-2.5c-1.4-1.6-3.7-3-5.8-3.4C265.3,42.5,259.8,44.3,259.8,44.3z"/>
	</g>
</g>
<path class="st0" d="M13-83.7c0,0,9-12.7,24.9-11.1s-6.1,15.6-6.1,15.6s27.7-1.3,35.7,0S72.4-68,72.4-68s-1.2,9.2-1.4,26.1
	c0,18.2,0,18.2-0.2,20.6C70.5-15,73.3-10,73.3-10"/>
</svg>
