<?xml version="1.0" encoding="utf-8"?>
<!-- Generator: Adobe Illustrator 26.4.1, SVG Export Plug-In . SVG Version: 6.00 Build 0)  -->
<svg version="1.1" id="Ebene_1" xmlns="http://www.w3.org/2000/svg" xmlns:xlink="http://www.w3.org/1999/xlink" x="0px" y="0px"
	 viewBox="0 0 841.9 1190.6" style="enable-background:new 0 0 841.9 1190.6;" xml:space="preserve">
<style type="text/css">
	.st0{fill:none;stroke:#003DA6;stroke-linecap:round;stroke-linejoin:round;stroke-miterlimit:10;}
</style>
<path class="st0" d="M11.9-97.7"/>
<g>
	<path class="st0" d="M-311.3,0.6c-6.2,47.4,39.7,85.8,84,33.2c11.4-13.5,20-28.8,27-44.4c4.8-10.7,10.4-26.9,9.3-38.3
		C-195.9-101.1-299.4-90.2-311.3,0.6z"/>
	<line class="st0" x1="-237.6" y1="-33.3" x2="-251.1" y2="-12.9"/>
	<path class="st0" d="M-241.2,50.2l59,34.5l0.6-70.7l20.6,83.7l59.2-10.5c-10.9-7.6-57.8-72.6-57.8-72.6s55.8-31.5,25.4-68.9
		s-56.8,5.4-56.8,5.4"/>
	<line class="st0" x1="-162.7" y1="-38.7" x2="-167.1" y2="-23.1"/>
	<path class="st0" d="M-139.2-1.5l11.2,44.1l19.9-1.4c2-1.9,3.9-5.4,5.7-9.9c12.7-31.5,19.5-115.9-3-111.9
		c-23.4,4.2-32.1,20.1-32.1,20.1"/>
	<path class="st0" d="M-45.1,13.6c-9.7,24.4-33.6,2.8-33.6,2.8v-33.8l44.7-13.5c0,0,41,65.9-1,93.9c-42,28.1-73.2-21.9-73.2-21.9"/>
	<path class="st0" d="M-92.7-65.7c0,0,15.9-21.2,42.6-7.7"/>
	<path class="st0" d="M-45.8-30.9c0,0-8.3-42.8,0-49.9c8.3-7,41.2-14.9,46.7,0s8,139.6-12,138.4l-13.7-3.9"/>
	<path class="st0" d="M3.4-63.5c0,0,4.5-25.6,26.9-25.7s19.9,75.7,19.9,75.7s4-83.3,31.5-76.4c29,7.3,21.4,134.6-13.6,147.5
		C36.3,69.4,25.4,27,24.6,18.9L22.1-6c0,0,9.3,80.2-26,57.2"/>
	<path class="st0" d="M98.1-62.2c8-24.3,25.5-21.5,31.8-19c53.2,20.6,42,158.5,42,158.5l-50.1-5.7l15.1-22.8l-23.6-10.1l-5.9,29.1
		L72.3,55.6"/>
	<line class="st0" x1="124.2" y1="-15.8" x2="118" y2="10.8"/>
	<path class="st0" d="M200.2-0.2l-6.9,22.9c0,0,15.6-13.3,37.3-14.2c29.6-1.3,36.8,46-12.5,52.1c-32.9,4.1-43.7-11.8-43.7-11.8"/>
	<polyline class="st0" points="150.7,-63.5 223.7,-77.9 208.8,-28.8 	"/>
	<path class="st0" d="M231.2,57.7c0,0,35.6,33.1,66.3,13.9c48.1-30.2-40.1-112.8-40.1-112.8s42.1,30.5,49.9,2.6
		c7.8-27.9-30.2-54.2-58.7-42.2c-28.5,12-24.4,45.6-8.9,68.5C254,8.9,279,30.6,279,30.6"/>
	<path class="st0" d="M207.8,14c-8.7-8-25.9-72.5,31.7-26.3"/>
</g>
</svg>
