<?xml version="1.0" encoding="utf-8"?>
<!-- Generator: Adobe Illustrator 26.4.1, SVG Export Plug-In . SVG Version: 6.00 Build 0)  -->
<svg version="1.1" id="Ebene_1" xmlns="http://www.w3.org/2000/svg" xmlns:xlink="http://www.w3.org/1999/xlink" x="0px" y="0px"
	 viewBox="0 0 841.9 1190.6" style="enable-background:new 0 0 841.9 1190.6;" xml:space="preserve">
<style type="text/css">
	.st0{fill:none;stroke:#003DA6;stroke-linecap:round;stroke-linejoin:round;stroke-miterlimit:10;}
</style>
<g>
	<path class="st0" d="M12.7,18.5C23.5,17.7,37.9,12.7,51,3H13.7C12.7,8.9,12.7,14.4,12.7,18.5z"/>
	<path class="st0" d="M-45.1-52.1C-60.1-65-78.9-72.8-92.6-73.7c-1.1,12,2.6,26.5,9.9,41.3h30.2"/>
	<path class="st0" d="M-17.3-32.4h40.8c0.4-4.2,0.7-8.3,0.7-13.1c0-0.8,0-1.7,0-2.5"/>
	<path class="st0" d="M67-32.4h15.5c7.4-14.7,11.2-29.3,10.1-41.3C82.3-73,69.4-68.6,57.2-61"/>
	<path class="st0" d="M16.8-83.1C12.3-94.4,6.3-104-0.1-110c-7.7,7.2-14.9,19.6-19.5,34"/>
	<path class="st0" d="M34.4-40.2c-2.9,3.3-4.4,4.3-6.4,7.8h11.6"/>
	<path class="st0" d="M-61.1-4H60.2c2.9-1.7,5.7-4,7.6-6.6H-68.1C-65.9-8.1-63.5-5.7-61.1-4z"/>
	<path class="st0" d="M-22.3,17c3.1,0.8,6,1.2,8.7,1.5c0.1,0,0.3,0,0.4,0c0.2-4,0.2-9.6-0.6-15.5h-37.6c2.7,2,5.5,3.8,8.3,5.5
		c2.8,1.6,5.5,3,8.3,4.2C-30.4,14.5-26.2,16-22.3,17z"/>
	<path class="st0" d="M-0.1,19.6c0.4-0.4,0.7-0.8,1.1-1.2C4.6,14.5,8.2,9.3,11.5,3h-23.4C-8.4,9.3-5,14.5-1.3,18.4
		C-0.9,18.8-0.5,19.2-0.1,19.6z"/>
	<path class="st0" d="M8.6,72.5v-5.3c0.9-0.6,1.7-1.3,2.5-2.1c1.3-1.4,2.3-2.9,2.7-4.8c0.4-1.6,0.5-3.3,0.1-4.9
		c-0.7-3.4-2.4-6.1-5-8.3c-2.1-1.8-4.4-3.2-6.8-4.6c-2.3-1.4-4.6-2.7-6.9-4c-2.1-1.3-4.1-2.6-6.2-4c-2.5-1.7-4.9-3.5-7.2-5.3
		c-1.4-1.1-2.7-2.2-4-3.5c-2.3-2.2-1.9-1.7-4.2-4 M-8.2,44.6c0,4.6,0,9.2,0,13.9v12.3c0,0.3-0.1,0.5-0.4,0.7
		c-1.6,0.9-3.2,1.7-4.7,2.7c-2.2,1.4-4.2,2.9-5.7,5c-0.9,1.2-1.7,2.6-2.2,4c-0.3,0.9-0.6,1.8-0.7,2.8c-0.2,1.1-0.4,2.2-0.4,3.3
		c-0.1,2.2-0.1,4.5,0.3,6.7c0.1,0.4,0.1,0.9,0.2,1.3c0.1,0,0.1,0,0.2,0.1c0.2-0.2,0.4-0.5,0.6-0.7c1.6-2,3-4,4.7-5.8
		c1.1-1.2,2.5-2.4,3.8-3.4c1.2-0.9,2.5-1.6,3.8-2.3c0.1-0.1,0.4-0.1,0.5-0.1c0.1,0.1,0.2,0.3,0.2,0.4c0,1.1,0,2.2,0,3.3
		c0,0.1,0,0.2,0.1,0.3v0.2h0c0,0,0,0,0,0h4.7v0h4.7c0,0,0,0.1,0,0.1c1.6-0.1,3,0,4.7-0.1h2.5V77.5c0.3-0.1,0.6-0.2,0.9-0.4
		c1.2-0.5,2.4-1.1,3.5-1.7c2.4-1.4,4.7-3.1,6.6-5.2c2.1-2.3,3.7-5,4.6-8c0.5-1.7,0.8-3.5,0.8-5.3c0-0.9-0.1-1.7-0.1-2.6
		c0-2-0.6-3.9-1.3-5.7c-0.7-2-1.9-3.7-3.3-5.2c-1.7-1.9-3.7-3.6-5.8-5c-1.9-1.4-3.9-2.7-5.9-4V22 M-8.2,76.3v3.3"/>
	<path class="st0" d="M51.6-27c-0.6-1.8-1.4-3.6-2-5.4v0c-0.4-1.1-0.6-2.4-1-3.5c-0.3-0.9-0.3-1.8-0.2-2.6c1-0.9,2-0.8,2.7,0.2
		c0.6,0.9,1.2,1.8,1.6,2.7c0.5,1.1,1,2.1,1.5,3.2c0.3,0.7,0.7,1.4,1,2.2c0.5,1,0.8,2.1,1.3,3.1c0.6,1.1,1.6,1.3,2.5,0.5
		c0.2-0.2,0.5-0.6,0.6-0.9c0.8-1.5,1.2-3.2,1.4-4.9c0-0.2,0.1-0.4,0.1-0.6c0.2-2.6,0-5.2-0.6-7.7c-0.6-2.6-1.4-5.2-2.7-7.6
		C57-50,56.2-51.6,55.2-53c-1-1.5-2.2-3-3.4-4.4c-0.1-0.1-0.2-0.3-0.4-0.4c-1.5-1.7-3.1-3.3-4.8-4.7c-1.8-1.5-3.7-2.8-5.7-4.2
		c-3.1-2.2-6.4-4-9.9-5.6c-2.2-1-4.4-1.7-6.7-2.4c-1.7-0.5-3.4-1-5.2-1.3c-0.1,0-0.2,0-0.3-0.1c-2.4-0.4-4.8-0.6-7.3-0.6
		c-2.8,0-5.6,0.1-8.4,0.4c-2.6,0.3-5.1,0.8-7.7,1.3c-1.4,0.3-2.7,0.7-4,1.1c-1.2,0.4-2.4,0.7-3.5,1.1c-1.5,0.6-3,1.3-4.5,2
		c-1.6,0.8-3.2,1.6-4.6,2.5c-0.3,0.2-0.6,0.4-0.9,0.6c-1.8,1.2-3.6,2.5-5.3,3.9c-1.9,1.6-3.7,3.4-5.3,5.2c-1.6,1.9-3.2,3.9-4.5,6
		c-1.1,1.7-2.1,3.4-3,5.2c-0.3,0.6-0.6,1.1-0.8,1.6c-0.7,1.5-1.3,3.1-1.9,4.7c-0.4,1-0.9,2-1.1,3.1c-0.5,1.9-1,3.7-1.4,5.5
		c-0.2,0.9-0.4,1.7-0.6,2.6c-0.3,1.4-0.6,2.8-0.8,4.2c0,0.1,0,0.1,0,0.2h-32.4c1.1,2.4,3.7,5.7,4.8,7.2h148c1.9-1.8,3.9-5,5-7.2
		H52.2C52-25.9,51.8-26.5,51.6-27z M52.6-49.7c1.2,0.1,2.2,1,2.9,2.2c0.7,1.1,0.8,2.2,0.5,3.5c-0.3,1.2-1.7,2-2.9,1.7
		c-2.3-0.6-3.4-2.6-3.5-4.6C49.7-48.4,50.6-49.7,52.6-49.7z M-27.6-25.4c0.3-1.4,0.6-2.8,1-4.2c0.4-1.5,1-3,1.6-4.4
		c0.3-0.6,0.5-1.3,0.8-1.9c0.4-0.9,0.9-1.8,1.3-2.7c0.9-1.6,1.8-3.1,2.9-4.5c1.2-1.6,2.4-3.1,3.7-4.6c1.6-1.8,3.5-3.3,5.5-4.6
		c2.5-1.8,5.3-3.1,8.2-4.2c1.7-0.6,3.6-1.1,5.4-1.4s3.7-0.6,5.5-0.7c2-0.1,3.9,0.1,5.9,0.2c1.5,0.1,3,0.3,4.5,0.7
		c1.6,0.4,3.2,0.9,4.8,1.5c0.7,0.3,1.5,0.6,2.2,1c3,1.5,5.7,3.4,8.1,5.8c1.4,1.4,2.7,2.9,4,4.4c0.7,0.8,1.3,1.7,1.9,2.6
		c1.2,1.8,2.4,3.6,3.5,5.5c0.9,1.6,1.9,3.2,2.8,4.8c0.3,0.5,0.5,0.9,0.8,1.4c1,1.9,2,3.7,3,5.6L-27.6-25.4L-27.6-25.4z"/>
	<path class="st0" d="M3.6,94.1c-1.2-0.2-2.4-0.3-3.6-0.3c-0.1,0-0.3,0-0.4,0l0,0l0,0c-0.1,0-0.3,0-0.4,0c0,0-0.1,0-0.1,0
		c0,0-0.1,0-0.1,0c-1.2,0-2.4,0.1-3.5,0.2c-0.6,0-1.2,0.1-1.8,0.1c-2.1,0.2-4.2,0.8-6.2,1.5c-0.1,0-0.2,0.1-0.3,0.1
		c-7.8,2.6-14.4,7.7-18.6,14.3h2.1h0.2h56.6h0.2h1.8C23.9,101.5,14.5,95.5,3.6,94.1z"/>
</g>
</svg>
