<?xml version="1.0" encoding="utf-8"?>
<!-- Generator: Adobe Illustrator 26.4.1, SVG Export Plug-In . SVG Version: 6.00 Build 0)  -->
<svg version="1.1" id="Ebene_1" xmlns="http://www.w3.org/2000/svg" xmlns:xlink="http://www.w3.org/1999/xlink" x="0px" y="0px"
	 viewBox="0 0 841.9 1190.6" style="enable-background:new 0 0 841.9 1190.6;" xml:space="preserve">
<style type="text/css">
	.st0{fill:none;stroke:#003DA6;stroke-linecap:round;stroke-linejoin:round;stroke-miterlimit:10;}
</style>
<g>
	<path class="st0" d="M-311.8,1.8c0-8.9-0.3-15.5,0.1-22.2c1.4-27.6,7.1-54.2,15.8-80.5c7-20.8,16.8-39.8,27.2-58.7
		c6.5-11.8,14.2-23,22.7-33.4c10.4-12.7,21.3-25.1,33.4-36.1c15.3-14.1,31.7-26.9,50-37.4c11.2-6.5,22.5-12.5,34-18.1
		c17.5-8.5,35.8-15,55.1-18.7c11.6-2.2,23.3-3.8,34.7-6.1c21.2-4.3,42.1-1,63.2-2.1c4.7-0.3,9.7,2,14.5,2.6
		c4.9,0.6,10.3-1.3,14.5,2.9c19.9-0.4,37.4,8.2,55.4,14.4c15.9,5.4,30.9,12.5,45.6,21.2c13.1,7.8,24.9,17.4,38.3,24.7
		c0.8,0.4,1.3,1.3,2,2c7.4,6.5,15.1,12.4,22,19.3c8.5,8.6,17.2,17.3,24.1,27.2c6.7,9.7,14.8,18,20.8,28.4
		c10,17.7,20.7,34.9,27.2,54.5c2.7,8.3,6.8,16.2,9,24.8c0.3,1.2,2.2,2.4,2,3.3c-1.1,4.9,3,8.7,2.9,13.1c-0.1,4.7,1.1,8.8,2.7,13.2
		c1.5,4.1-1,9.3,3.1,13c0.2,0.2,0,0.9,0,1.4c0.8,20.6,4.6,41,2.8,61.7c-0.5,5.8-2,11.6-2.7,17.4s1.4,12.1-2.9,17.3
		c0,17.4-6.1,33.4-11.5,49.5c-2.5,7.5-5.4,14.9-8.6,22.2c-8.6,20.1-19.4,38.8-31.4,57c-4.3,6.5-9,12.6-14,18.4
		c-6.1,7-11.9,14.6-18.4,20.8c-19.7,18.3-39.9,36.3-63.6,49.6c-7.3,4.1-14.9,7.7-22.4,11.5c-20.2,10.5-45.8,18.4-66.2,23
		c-11.1,2.5-22.3,3.7-33.3,6c-19.8,4.1-39.4,3-58.9,1.8c-19.6-1.2-39.2-4.5-58.6-9.8c-25.4-7-49.1-17-72.1-29.5
		c-15.9-8.7-30.7-18.5-44.7-30.3c-7.1-6-14.3-11.7-21-18.2c-26.9-26.8-48.2-57.4-64.6-91.8c-9.6-20.2-15.6-41.2-22.3-62.2
		c-2.7-8.6-0.8-18.5-3.4-27.2C-313.6,27.4-310.5,13.5-311.8,1.8z M225.4,202.4c0.9-0.9,1.9-1.9,2.8-2.8c0.9-0.9,1.9-1.9,2.8-2.8
		c0.9-0.9,1.9-1.9,2.8-2.8c4.5-1.1,6.1-4.1,5.7-8.6c0.9-0.9,1.9-1.9,2.5-3.1c0.2,0.2,0.4,0.4,0.6,0.6c0.8-0.7,1.5-1.3,2.3-2
		c-0.3-0.3-0.6-0.6-0.9-0.9c-0.7,0.8-1.3,1.5-1.7,2.6c-0.9,0-1.9,0-2.8,0c0.3-1.7,0.1-4,1.1-5.2c7.2-8.7,12.8-18.2,17-28.6
		c1.8-4.4,2.4-9.9,5.2-13.4c5.9-7.4,9.7-16.2,15.2-23.6c9.3-12.5,12.8-27.1,18.5-40.9c0.6-1.5,0.1-3.4,0.1-5.9
		c-2.4,1.6-3.6,2.3-5.9,3.8c1.5-5.6,2.7-9.8,3.9-14.2c1.1-0.2,2.4-0.5,4.5-1c0.4-7.4,4.1-14.1,3.5-22.4c-0.5-7.6,2.2-15.3,2.3-23
		s0.5-15.2-2.1-23.2c-2.4-7.3,0-16-0.6-24.1c-0.6-7.7-2.4-15.2-3.8-23.8c-0.1-0.1-1.2-1.1-1.7-2.3c-3.8-9-3.5-19.2-8.5-27.8
		c-2.6-4.5-4.7-9.6-5.6-14.7c-1.8-10.1-4.9-20.1-9.7-28.7c-9.9-18-20.2-35.8-33.6-51.8c-10.6-12.5-21.6-24.3-34-34.8
		c-5-4.8-10.8-8.7-17.2-11.5c-7.7-3.4-15.1-7.2-23.6-11.3c-2.9,1.7-6.7,3.9-9.4,5.5c1.9,11.6,3.6,22.2,5.4,33.1
		c-2.7,2.1-4.9,3.8-8,6.2c3.7,6.9,7.4,13.4,11.1,20.3c1.8,0.8,4.1,1.8,6.9,2.9c1.5-2.6,3.1-5.3,4.2-7.4c5,5,10.3,10.3,15.1,15.1
		c-0.4,2.2-0.9,4.4-1.6,7.9c4.9-3.5,8.5-6,12.2-8.7c-2.3-4-4.1-7.1-5.9-10.2c-0.2-0.3-0.2-0.7-0.2-0.6c1.1-1.7,2-3.2,2.8-4.6
		c-7.8-7.1-14.7-15.3-14.7-16.3c1.3-3.6,2.4-6.5,3.5-9.5c-2.3-2.6-4.2-4.8-6.8-7.7c7.2,1.5,11.8,5,11.8,8.8
		c-0.7,1.1-1.6,2.5-3.1,4.8c5.3,5.8,10.8,11.9,16,17.5c4.9-1.2,8.6-6.4,13.8-0.3c-3.3,2.4-6.4,4.7-9.3,7c2.4,2,3.9,3.3,5.5,4.5
		c-5.3,1.2-2.4,4.8-2.3,7.7c-1,1-2,2.1-3,3.1c2.8,0.6,5.6,1.1,10.7,2.1c-10.3,4-16.4,10.3-24.4,5c-1.5,0.9-2.7,1.6-4.3,2.6
		c-3.6-2.7-5.8-5.3-5.3-10.5c0.4-4.7-2.2-7.7-7.6-7.4c-3.8,9.1,7.3,12,7.1,18.8c-3.7,1.4-7.5,2.8-10.8,4.1c0,3.1,0,5,0,6.6
		c-4.4,4.6-8.7,9-12.8,13.3c-1.1-1-2.1-1.8-3.3-2.8c-0.7,1.9-1.3,3.6-1.9,5.2c-2.3,2-8.6-2.3-7.6,5.4c2.4,0.4,5,0.9,7.6,1.4
		c3,3,6,6,9.1,9.1c0,4.1,0,8.3,0,13.8c-8.3-2.5-16.6,2.3-24-2.8c-2.4,1.3-4.7,2.4-6.6,3.3c1.5,4.1,3,8.2,4.4,12.2
		c-7.1,7.1,2.5,13.3,0.7,20.1c10.6,2.8,20.5,3.6,31.3-0.3c1.5-2.5,3.4-5.9,5.2-9.1c-0.9-1.2-1.8-2.3-2.4-3.1
		c0.8-7.4,7.6-9.4,11.1-13.4c-1.1-2.2-2-4.1-3.6-7.4c5.8,0,10.4,0,13.7,0c3-2.9,5-4.7,7.7-7.2c4.5,5.6,8.1,11,12.6,15.2
		c4.9,4.7,10.8,8.5,15.8,12.2c0,3.3,0,5.7,0.1,7.8c-3,0.4-5.8,0.7-11.1,1.4c4.7,2.4,7.2,3.7,10.6,5.4c0.2-3.1,0.4-4.8,0.4-6.6
		c0.9-1.2,2.3-2.3,2.7-3.7c0.9-3.2,1.4-6.7,2.1-10.4c-10.2-6.1-19.3-13.7-23.4-26.2c8.5,8.3,19.9,12.7,26.6,22.7
		c3.6,7.7,7.9,14.9,12.2,22.1c0.3,0.4,1.3,0.4,1.7,0.6c1.1-2.4,2.1-4.7,3-6.6c-2-2.7-3.8-5.2-5.5-7.7c1.2-1.3,1.7-2.3,2.5-2.6
		c3.8-1.7,7.8-3.2,12-5c0.1,1.8,0.2,3.1,0.2,4.3c-2.1,0.9-4,1.7-6.2,2.7c3.2,6.2,6,11.8,9.1,17.8c1.9,0.2,3.7,0.2,5.3,0.7
		c1.9,0.5,3.6,1.5,5.5,2.3c0.7-2,1.3-3.7,1.9-5.7c3.9,9.5,6,18.6,3.8,28c-2.3,5.2-8.1-0.1-10.6,3.8c-5.7-3.2-13.3-2.9-17.3-9.9
		c-3.6,2.1-6.2,3.6-8.1,4.6c0.9,3.1,1.5,5.3,2.5,8.7c-8.2-1.6-12.4-6.5-17.4-10.3c-5.1-3.9-13.3-2.6-17.3-10.1
		c0.9-1.6,2-3.5,3.4-5.9c-2.1-3.6-4.3-7.5-6-10.4c-3.8,0.7-6.8,1.9-9.7,1.7c-10.8-0.9-20.6,2.4-30,7c-6.6,3.1-13,2.7-19.4-0.6
		c-1.6,3.5-3.2,7.2-4.8,10.7c-5.4,0.5-7.5,4.9-10.7,8.1c0,5,0,9.7,0,14.8c-4.3,2.3-8.7,4.6-11.4,6.1c-10.5,11.2-15.5,24-22.1,36
		c1.7,1.7,3.3,3.3,5,5c-1,1.4-2,2.8-2.8,4c1.7,3.9,5,7.1,2.1,11.7c-1.9,2.9-3.2,6.4-3.9,9.8c-0.4,2.1,0.7,4.6,1.1,6.7
		c-0.8,1.6-1.5,3.1-3,6.1c5.3,4.6,10.7,9.2,15.3,13.2c0.2,2.9,0.3,4.7,0.4,6.9c7.6,6,15.1,12.1,22.9,18.3c2.7-2.4,5.1-4.6,8-7.2
		c4.3,1.1,8.7,2.2,12,3c10.2-1.4,17.5-10.5,29.1-7.2c1.1,3.5,2.1,6.9,2.9,9.4c3.3-0.6,6.6-1.2,10-1.8c0.6,12,0.6,12-5,21.9
		c0,3.3-1.5,8.1,0.3,10.7c4.6,6.7,2.1,13.7,2.3,20.5c0.1,4.2-1.4,9.1-3.8,12.5c-6.9,9.7-14.5,18.7-21.8,28c0,4.9,0,9.6,0,13.3
		c-8.3,14.8-14.9,29.5-25.4,41.9c-0.3,0.3,0.6,1.6,1.3,3.2c2.3-1.1,4.6-3.2,6.9-3.1c7,0.2,12.1-2.6,17.2-6.9
		c11.7-9.5,23.9-18.2,35.7-27.4c1.8-1.4,3.7-3.2,4.4-5.2c3.4-9.5,12.5-13.7,18.7-20.5c0.7-0.7,2.7-0.1,4.1-0.1c0,0.9,0,1.9,0,2.8
		c-4.5,1.1-6.1,4.1-5.7,8.6c-0.9,0.9-1.9,1.9-2.8,2.8c-0.9,0.9-1.9,1.9-2.8,2.8c-0.9,0.9-1.9,1.9-2.5,3.1c-0.2-0.2-0.4-0.4-0.6-0.6
		c-0.8,0.7-1.5,1.3-2.3,2c0.3,0.3,0.6,0.6,0.9,0.9C224.4,204.3,225.1,203.5,225.4,202.4z M-166.1-234.8c-0.9,0.9-1.9,1.9-2.8,2.8
		c-1.9,1-3.9,2-5.9,3.1c-3.2-1.9-7.1-3.3-4.7-8.4c1.9,1,3.8,1.9,6.5,3.1c5.3-7.1,10.5-13.9,15.4-21c0.2,0.2,0.4,0.4,0.6,0.6
		c0.8-0.7,1.5-1.3,2.3-2c-0.3-0.3-0.6-0.6-0.9-0.9c-0.7,0.8-1.3,1.5-1.7,2.6c-2.1-0.4-5.4,1.4-6-3.1c0.2,0.2,0.4,0.4,0.6,0.6
		c0.8-0.7,1.5-1.3,2.3-2c-0.3-0.3-0.6-0.6-0.9-0.9c-0.7,0.8-1.3,1.5-1.7,2.6c-7.2,0.9-11.8,6-17.2,9.8c1.1,1.2,1.9,2.2,3.3,3.7
		c-3.1,0.5-5.7,0.9-9.3,1.4c0.7,3.4,1.4,6.7,2.2,10.3c-2.5,2.8-5.7,5.2-9.9,2.3c0.9-2.3,1.7-4.5,3.4-8.9c-7.9,6.2-15.1,9.2-18,16.7
		c-0.5,1.2-1.7,2.4-2.9,3c-15.3,7.4-22,23.4-34,34.1c-11.7,21.3-28.1,39.9-35.2,63.7c-3.2,10.9-8.3,21.3-11.4,32.4
		c-1.8,6.5-0.1,13.4-3,18.5c-2.9,5.2-3.3,10.7-1.8,14.6c3.3,8.7,1.8,17.3,2.5,26c0.1,1.3,1.8,2.4,2.7,3.7c-0.2,3.6,1.1,7.6-2.4,9.9
		c1.3,2.4,2.6,4.7,4.8,8.7c0.4-6.8,0.6-11.3,1.1-18.6c3.2,10.5,5.4,18.1,8,25.6c2.7,8.1,7.2,15.6,5.5,24.4c2.6,2.6,4.8,5,7.4,7.3
		c2.4,2.1,5,3.8,7.6,5.7c2.5,1.9,4.8,4.7,7.7,5.4c2.5,0.6,5.5-1.1,8.5-1.8c6.5,6.2,12,14.1,20.7,13.9c4.6,4,8.2,7.1,11.3,9.8
		c0.1,2.4,0.2,4.2,0.3,5.5c7.9,3.7,12.9,11.7,20.4,11.8c3.1-2.9,5.6-5.2,8.1-7.6c0.9,0.9,1.9,1.9,2.8,2.8c1,3.4,1.1,7.6,3.2,10
		c4.1,4.7,3,9.9,2,14.5c-1.2,5.4-4.4,10.5-6.8,15.6c-0.5,1.2-1,2.4-1.5,3.4c2.3,2.6,4.4,5,6.4,7.2c-1.4,3-2.5,5.3-3.4,7.4
		c7.9,8.9,16.2,16.2,22.9,25.4c6.7,9.2,15.2,17.5,26.6,21.3c4.7,1.5,8.3,4.5,10.6,8.4c2.6,4.4,3.9,9.8,5.9,14.6
		c4.7,11.4,7.1,23.6,14.1,34.1c2.5,3.8,2.8,9.3,4.4,15.3c5.3,5.3,13.2,10.8,17.6,18.2c5.7,9.6,15.2,13.5,23.1,19.9
		c3.1,2.5,6.1,1.4,9.5,1.6c-0.2,0.2-0.4,0.4-0.6,0.6c0.7,0.8,1.3,1.5,2,2.3c0.3-0.3,0.6-0.6,0.9-0.9c-0.8-0.7-1.5-1.3-2.6-1.7
		c-2.3-1.8-5.1-3.2-6.8-5.5c-1.7-2.4-2.1-5.7-2.7-7.6c-3.1-1.9-5.3-3.4-7.9-5c6.7-5.5-3.9-8.3-1.6-12.8c1.6-0.5,3.1-1,4.7-1.6
		c-1.2-1.5-2-2.5-4.2-5.3c6.9,1.9,10.8,0.3,12.8-5c-0.9-1.8-1.9-3.7-2.9-5.7c2.3,0,4.7,0,7.6,0c1.9-10.9,14.8-17.2,12.4-29.9
		c9.4-9.1,10.6-9.7,21.6-10.2c11.7-10.4,13.6-24.1,12.7-38.4c9.8-4.6,15.9-12.2,20.3-21.5c-1.5-2.9-2.8-5.6-4.2-8.5
		c-9.5,0.1-14.2-8.9-21.8-11.6c-6.8,3.8-12.8-2.5-18.7,0.3c-0.9-2.5-1.5-4.1-1.9-5.2c-4.7-1-8.9-1.8-12.6-2.6
		c-1.4,0.7-2.6,1.2-3.8,1.8c-2.8-1.9-5.7-3.8-8.6-5.7c1.5-8.5-5.2-13.3-9.3-19c-5.8-8.1-15.3-7.1-23.8-6.8c-5-3.9-9.8-7.5-15-11.6
		c-1.1,0-2.9,0-5.6,0c0.1-7.6-8.8-6-10.8-12.3c-7.9,5.9-15.8,2.9-23.1,3.8c-0.9-2.6-1.4-4.2-2.2-6.6c-4,1.2-7.9,2.4-11.9,3.6
		c-0.6-1.8-1.2-3.4-1.8-5.1c-5.5,2-11.1,4.1-16.4,6c0.5,7-1.7,10.8-8.5,10.5c-0.9-0.9-1.9-1.9-2.8-2.8c-0.7-0.9-1.5-1.9-2.2-2.8
		c-6,5.1-11.7,2.5-17.2-0.9c-2.7-6.7-6.5-13.4-2-19c-1.9-3.2-3.8-6.5-5.2-9.1c-6,0-10.8,0-14.9,0c1.3-9.4,2.6-18.3,3.9-27.8
		c-2.3,0-4.5,0-7.8,0c-2.2,4.1-4.6,8.9-6.9,13.2c-3.1,1.4-5.8,2.7-9.2,4.2c-3.4-4.7-6.7-9.2-9.8-13.5c0-6.2,0-12.5,0-18.6
		c0-6.6,0-13.1,0-19.7c2.7-1.3,5.1-1.9,6.7-3.3c1.7-1.6,2.6-4,3.8-6.1c5.1,3.5,9.8,4.4,14.7,2.8c0.6-2.1,1-3.7,1.5-5.1
		c14.8,0.1,24.8,3.8,24.8,9.4c-0.7,1-1.6,2.4-2.5,3.8c4.7,2.9,0.4,13.2,9.9,12.3c1.1-8.8-0.6-19.1-3.9-26.1
		c3.6-14,18.5-16.5,25.7-27.9c-0.6-4.1-1.4-8.9-1.9-12.4c0.9-1.8,1.7-3.4,2.8-5.5c1.2,2.8,1.8,4.5,2.6,6.5c3-4.8,6-9.5,9.1-14.3
		c3.7-1,7.8-1.6,11.4-3.1c4.7-1.9,3.6-7,5.3-12.2c9.6-2.8,18.5-9.5,30.1-8.9c-3.7,1.9-7.6,3.7-11.4,5.6c1.5,1.5,2.8,2.8,4.2,4.2
		c4.6-4.4,9.3-8.8,16.4-8.6c0.7,0,1.5-1.8,0.8-4.1c0.5,0.5,0.9,1,1.4,1.5c1.7-0.1,3.3-0.2,5.6-0.4c-0.1-2-0.2-3.5-0.4-5.4
		c-2.7,1.7-4.7,3-5.3,5.7c-2.4,0-4.7,0-7.2,0c0.7-0.7,1.3-1.4,2-2.1c-3.5-1.7-7-3.4-10.3-5c1.4-3.6,2.2-5.6,3-7.7
		c0.7-1.8,4.3-2,2.4-5.7c-5.1,1.1-10.2,2.1-15.4,3.2c0.1-1.1,0.1-1.6,0.2-1.8c4.6-5,10.4-7,17.2-6.7c7.1,0.3,14.1,0.1,20.8,0.1
		c2.1-2.1,3.8-3.8,5.3-5.3c2.4,0,4.6,0,8.6,0c-2.8,2.8-4.8,4.4-6.4,6.5c-1.6,2.1-2.8,4.5-4,6.9c-1.1,2.1-4.9,2.5-4.3,5
		c6.2,3.3,13.1-1.9,17.9,4c1-0.9,2-1.8,3.1-2.7c0.9,1.9,1.9,3.8,2.9,5.9c1.5-0.5,2.7-0.9,4-1.3c-1.3-5.4-2.5-10.6-3.8-15.7
		c-1.8,1-3.6,2-5.4,3c-1.8-1.7-3.1-3-4.2-4c1.9-5.9,3.8-11.7,5.2-16.1c-4.2-4.2-7.5-7.6-11.6-11.7c-0.3,0-2.2,0-2.9,0
		c-2.8-3.3-5.1-6-7.4-8.7c0,0,0.6-0.6,1.9-1.9c-2.5-5.1-5-10.5-8.3-17c-4.5,4.2-8.2,7.7-11.5,10.7c-3.6-1.9-6.5-3.3-8.4-4.3
		c0.9-3.1,1.7-6,2.2-7.7c-3.9-4.4-7.1-7.9-10.1-11.3c-1.3,1.1-2.4,2-3.7,3.1c-2.4-1.2-4.7-2.3-8.2-4c-3.9,7.7-7.8,15.1-11.9,23.1
		c2.1,4.4,1.5,11.3-1.3,14.1c-3.8,1.7-7.1,3.1-9.2,4c-2.5,6.5-4.7,12.3-7.2,17.9c-0.4,1-2.2,1.4-3.9,2.4c-1.9-2.6-3.6-5-5.5-7.7
		c2.7-1.3,4.5-2.2,5.7-2.8c-1.2-3.8-2.2-7.1-3.2-10.3c-2.1,0-4,0-5.4,0c-5.3-4.8-10.5-9.4-16-14.3c0-2.7,0-6.5,0-10.4
		c7.9-5.7,12.6-14.9,22.1-19.2c6-2.7,11.4-7,17.1-10.3c0.7-0.4,2.3,0.6,3.5,1c-2.4,2.7-4.4,5-7.1,8c2.1,1.2,3.1,1.7,3.9,2.2
		c0.4,2,0.8,3.9,0.6,3c1.3-0.3,3.5-0.7,5.7-1.2c-0.3-0.5-0.6-0.9-1-1.4c-1.7-0.1-3.3-0.2-5-0.3c1.2-1.8,2.4-3.7,3.1-4.6
		c3.1,0.5,5.6,0.9,10.7,1.7c-3.8-5-6.1-7.7-8-10.6c-0.4-0.7,0.6-2.4,1-3.7c1.3,1.2,2.2,2.1,2.8,2.6c6.6-2.7,12.2-6.1,14.2-13.3
		c4.2,0,5.4-2.4,4.7-6.1c4.3-0.7,9.5,1.9,13-2.9c2.7,5,5.4,10,7.8,14c-5.3,4.3-9.6,7.8-13.9,11.4c-3.9,0.3-8.4,0.7-13.2,1.1
		c0.8,2.4,1.2,3.6,1.7,5c4-1.3,7.8-2.4,11.7-3.7c1.9,4.2,3.5,7.8,5.2,11.4c5.1,1.3,10,6.7,16.1,2.4c-0.9-1.5-1.8-3-2.6-4.5
		c2.5,0.6,5,1.3,7.8,2c1.2-2.5,2.7-5.6,4.3-8.9c-2.5-1.2-4.4-2.1-5.8-2.7c0-2.7,0-4.9,0-9.7c3.3,3.5,5.1,5.4,7.5,7.9
		c0.8,0,2.7,0,1.9,0c3.7-3.7,6.2-6.1,9.3-9.2c-4.1-2.1-8.8-4.5-14.5-7.5c2.2-1.7,4.1-3.1,6.1-4.6c-1.7-2.9-3.6-6.2-5.4-9.6
		c-2.6-0.3-4.9-0.6-7.6-0.9c-0.2-1.2-0.1-2.6-0.7-3.7c-0.6-1.2-1.8-2.1-2-2.4c0.9-2.6,1.3-3.5,2.1-5.9c-7.7,1.5-13.9,2.7-20.1,3.9
		c-0.2-4.2-3.5-2.4-5.7-2.8c-0.1-3.3-2.5-3.4-4.5-2.5c-3.4,1.5-6.6,3.5-9.8,5.3c-0.9-1.2-1.9-2.3-3.3-4.1c-3.1,3.6-5.4,6.2-8.6,9.8
		c3.3,0,4.7,0,6.1,0c-3.9,3.4-7.9,6.8-11,9.5c-1.1,3.4,1.4,7.2-3.2,7.7c0-1.7,0-3.4,0-7.9C-163.3-238.5-164.7-236.6-166.1-234.8z
		 M-112.4-282.3c2.1,1.9,3.5,3.3,6.6,6c-0.4-3.8-0.6-5.4-0.8-7.6c-2.2,0.6-3.7,0.9-4.8,3.5c-0.2-0.2-0.4-0.4-0.6-0.6
		c-0.8,0.7-1.5,1.3-2.3,2c0.3,0.3,0.6,0.6,0.9,0.9C-112.8-278.7-112.2-279.5-112.4-282.3z M-123.2-271.4c-2.7,0-5.4,0-8.9,0
		c0.4,2.1,0.8,3.7,1.2,5.5c1.6-1.4,2.5-2.2,3.2-2.7c1.4,0.8,2.6,1.5,4.4,2.5c0-3,0-4.4-0.3-6.1c0.2,0.2,0.4,0.4,0.6,0.6
		c0.8-0.7,1.5-1.3,2.3-2c-0.3-0.3-0.6-0.6-0.9-0.9C-122.2-273.7-122.9-272.9-123.2-271.4z M-136.5-267.7c-2.6-2-4-3-6.4-4.8
		c1.6,5.5-9.3,1.1-5.2,8.5c3.6-1.1,7.2-2.2,10.4-5.2c0.2,0.2,0.4,0.4,0.6,0.6c0.8-0.7,1.5-1.3,2.3-2c-0.3-0.3-0.6-0.6-0.9-0.9
		C-136.5-270.9-137.1-270.1-136.5-267.7z M108.3-276.2c-9.7-6.9-9.8-6.9-13.1-12.8c-1.9,0-3.7,0-5.5,0c-1.4,1.4-2.7,2.7-4,4
		c5.2,4.4,17.4,9.2,22.4,7.1c0.2,0.2,0.4,0.4,0.6,0.6c0.8-0.7,1.5-1.3,2.3-2c-0.3-0.3-0.6-0.6-0.9-0.9
		C109.3-279.5,108.7-278.7,108.3-276.2z M-94.6-280.5c-1.9,5.1-8.3,3.6-11.6,8c5.4,0,10.5,0,16.4,0c4.8-8.2,16.7-6.2,23.1-13.7
		c6,2.8,11.3-6,17.4-1.7c-3.9,9.3-15.4-0.2-19.3,9c0.6,0.7,1.4,1.6,1.9,2.2c-0.9,2.3-1.7,4.5-2.4,6.2c6-0.7,11.2-1.2,15.5-1.7
		c2.9,2.9,4.9,4.9,7.8,7.8c-0.5,4.4-1.1,9.6-1.7,15.4c2.2-0.7,4.5-1.5,7.2-2.3c0,2.3,0,3.7,0,5.1c-5.5-0.2-8.2,2.3-8.8,8.6
		c4.4-1,7.9-1.7,11.8-2.6c-1.9,3.4-3.2,5.8-4.6,8.3c-1.4-1.4-2-2-2.8-2.8c-1.3,1.4-2.6,2.7-3.9,4.1c0,4.1,0,8.3,0,12.2
		c2,1.9,3.7,3.5,5.2,5c-1.1,1.5-2.2,2.9-3.2,4.3c3.9,5,7.6,9.7,11.4,14.5c2.3,0,5.1,0,7.4,0c2.8,2.3,5.2,4.3,7.8,6.4
		c5.6-4.4,6.2-10.6,9-15.4c3-5.3,3.4-12.4,7.9-15.6c7.3-1.4,13.4-2.6,17.8-3.5c2.7-4.1,4.4-6.8,5.4-8.4c7.9-1.5,14.5-2.8,21.2-4.1
		c-0.6-0.5-1.2-1-1.8-1.5c3.8-3.3,7.8-6.7,10.8-9.3c-2.1-2.5-4.5-5.2-6.9-8.1c-0.4,0.3-1.4,1.2-2.7,2.3c-1.6-2.4-3-4.6-4.9-7.8
		c4.7,0.9,8.3,1.5,13.9,2.5c-2.1-6.2-3.6-10.7-5.2-15.4c-2.8,0-5,0-9.2,0c3.6-1.7,5.4-2.6,8.4-4c-3.9-0.8-6.9-1.3-10.5-2
		c1.3-5.4,2.4-10.2,3.8-16.1c-3.7,0.5-7,0.9-12.2,1.6c-2.9-1.5-8.1-4-14.8-7.5c-1.7,0.1-6.4-1-9,0.7c-3.2,2.2-6.1,2.4-9.2,2
		c-2.7-0.4-5,5.5-7.7,0.3c-2.2,3-5.4,2.9-8.8,2.7c-3.3-0.1-6.7,0-10,0c-1.2-0.9-2.3-2.5-3.7-2.7c-12.2-2.3-23.5,4.5-34.1,2.8
		c-3.5,2.5-5.7,4-8,5.6c-0.6-1-1.1-2.1-2-3.7c-6.4,3.6-12.2,7-18.1,10.3c0.2,0.7,0.4,1.3,0.6,2C-98.2-280.5-96.3-280.5-94.6-280.5z
		 M142.4-176.9c-2.7-0.5-5.6-1.1-8.1-1.6c-0.5-2.1-0.9-3.4-1.4-5.6c-2.1,2.1-3.7,3.6-5.1,5c3.9,9.8,9,17.7,17.9,22.8
		c-8.2,5.3,0.9,12.3-3.6,19.4c8.5-1.6,15.8-2.9,23.6-4.3c-1.3-1.5-2.2-2.4-3.1-3.4c0.9-1,1.8-1.9,2.7-2.9
		C150.9-159.1,143.8-168.1,142.4-176.9z M73.8-207.2c4.1-2.3,9.5-5.3,15.2-8.7c-6.9-5.1-12.3-10.4-21-4.8c-3.1,2-7.9,0-11.4-2.5
		c-0.4-0.3-1.5,0.6-3.7,1.5c2.2,2.2,4,4,6.6,6.6c0.1,0.9,0.3,3.1,0.6,5.2C64.5-209,68.8-208.2,73.8-207.2z M120.4-155.6
		c4.4,2.6,1.3,5.6-0.3,8.5c1.6,1.5,2.9,2.7,4.7,4.4c4.1-2.4,8.2-4.8,10.9-6.5c-1.1-5.5-2-9.8-2.8-13.8c-3.4,0-6.7,0-9.6,0
		C122.5-160.5,121.6-158.6,120.4-155.6z M-169.6,22c-13-5-22.6-18.7-39.3-16.4c-0.9,2.4-1.9,5-3.8,10.3c4.6-4.2,6.9-6.4,8.5-7.9
		c7.8,3.8,14.4,7.1,20.9,10.2c0.4,1.5,0.8,2.7,1,3.8C-177.9,22-173.8,22-169.6,22z M-121-263.8c7.5,0,13.8,0,20.1,0
		c-0.5-0.6-0.9-1.1-1.4-1.7c1.8-0.6,3.5-1.1,5.3-1.7c-0.3-0.6-0.5-1.1-0.8-1.7c-4.4,0-8.9,0-11.9,0c-2.3-2.9-3.8-4.7-5.9-7.4
		C-117.7-271.5-119.2-268.1-121-263.8z M-157.3,32.8c5.7-1.1,10-2,14.1-2.8c-0.1-1.6-0.1-2.5-0.2-4.3c-5.9-1.1-12.1-2.2-18.2-3.1
		c-0.4-0.1-1,1.3-2.1,2.8C-161.6,27.9-159.1,30.7-157.3,32.8z M205.9-88.9c0,3.8,0,7.3,0,11c1.7,0,2.9,0,4.5,0
		C212.2-82.7,211.4-86.3,205.9-88.9z M-114.9-235c-3.3,1.9-5.7,3.2-9.8,5.5c4.4,0,7,0,9.8,0C-114.9-231.3-114.9-232.5-114.9-235z
		 M-106.7-134.5c0.5,1.5,1.2,3.6,1.8,5.8c0.4-0.3,0.8-0.6,1.2-0.9c0-1.6,0-3.1,0-4.9C-105.4-134.5-106.7-134.5-106.7-134.5z
		 M-183.9,28.4c0.5,1.5,1.2,3.6,1.8,5.8c0.4-0.3,0.8-0.6,1.2-0.9c0-1.6,0-3.1,0-4.9C-182.6,28.4-183.8,28.4-183.9,28.4z
		 M-146.5-202.9c-0.8,0.1-1.6,0.1-2.4,0.2c0.3,1.6,0.7,3.2,1,4.7c0.5-0.1,0.9-0.1,1.4-0.2C-146.5-199.6-146.5-201.2-146.5-202.9z
		 M259.8-56.9c0,0.5,0,0.9,0,1.4c1.9,0,3.8,0,5.7,0c0-0.5,0-0.9,0-1.4C263.5-56.9,261.7-56.9,259.8-56.9z M-288.3-0.5
		c0.5,0,0.9,0,1.4,0c0-1.9,0-3.8,0-5.7c-0.5,0-0.9,0-1.4,0C-288.3-4.3-288.3-2.4-288.3-0.5z M-134.7,28.9c0,0.5,0,0.9,0,1.4
		c1.9,0,3.8,0,5.7,0c0-0.5,0-0.9,0-1.4C-130.8,28.9-132.7,28.9-134.7,28.9z M-168.9,29.1c0,0.3,0,0.6,0,0.9c0.9,0,1.9,0,2.8,0
		c0-0.3,0-0.6,0-0.9C-167,29.1-167.9,29.1-168.9,29.1z M124.5-180.5c-0.3,0-0.6,0-0.9,0c0,0.9,0,1.9,0,2.8c0.3,0,0.6,0,0.9,0
		C124.5-178.6,124.5-179.6,124.5-180.5z M-286.1,3.4c0,0.3,0,0.6,0,0.9c0.9,0,1.9,0,2.8,0c0-0.3,0-0.6,0-0.9
		C-284.1,3.4-285.1,3.4-286.1,3.4z M278.8-57.6c-0.3,0-0.6,0-0.9,0c0,0.9,0,1.9,0,2.8c0.3,0,0.6,0,0.9,0
		C278.8-55.7,278.8-56.6,278.8-57.6z M206.3-91.9c0.3,0,0.6,0,0.9,0c0-0.9,0-1.9,0-2.8c-0.3,0-0.6,0-0.9,0
		C206.3-93.8,206.3-92.9,206.3-91.9z M-107-117.6c-0.3,0-0.6,0-0.9,0c0,0.9,0,1.9,0,2.8c0.3,0,0.6,0,0.9,0
		C-107-115.7-107-116.7-107-117.6z"/>
	<path class="st0" d="M297.4,30.8c-3.6,5.6-5.4,10.6-0.5,16.2c-1.2,1.4-2.6,2.9-6,6.9c1.9-27.9-1.1-52.3-6.9-77.1
		c1.4,1.4,3.3,2.5,4,4.2c0.9,2,0.7,4.4,1.2,6.7c0.5,2.1,1.5,4.1,1.9,6.4c1.1,5.3,2.3,10.6,2.8,15.9c0.5,5.2-0.1,10.5,0.2,15.7
		C294.2,27.1,296,28.5,297.4,30.8z"/>
	<path class="st0" d="M212.2-211.2c-7.9-1.5-10.3-5.6-13.2-9.6c4.9-2.7,4.8-2.6,6.6,0.2C207.1-218,209.1-215.6,212.2-211.2z"/>
	<path class="st0" d="M214.3-178c0.8,0.7,1.5,1.3,2.3,2c-0.3,0.3-0.6,0.6-0.9,0.9c-0.7-0.8-1.3-1.5-2-2.3
		C213.9-177.6,214.1-177.8,214.3-178z"/>
	<path class="st0" d="M-140.3-254.8c1.7-0.3,3.5-0.5,5.2-1c2.1-0.5,4.1-1.2,6.2-1.9c-3.7,4.4-7.4,8.9-11.2,13.4
		c1.7,0.6,3.3,1.2,5.8,2.1c-5.8,4.3-8.9,11.2-17.6,13.7c1.3-3,2.1-4.7,2.9-6.5c0.8-0.3,1.6-0.6,2.4-0.9c-0.8-0.6-1.6-1.3-2.4-1.9
		c-0.4-2.9,0.1-5.4,2.8-7.2c2.7-1.7,3.2-4.2,2.8-7.2C-142.2-252.9-141.3-253.9-140.3-254.8z"/>
	<path class="st0" d="M-291.5-26.8c0-3,0-6.6,0-10.4c1,0.3,2.2,0.5,2.2,0.7C-288.9-30.9-288.9-30.9-291.5-26.8z"/>
	<path class="st0" d="M-166.1-231.9c0-0.9,0-1.9,0-2.8c1.9,0,3.8,0,5.7,0C-160.6-230.5-163.9-232.4-166.1-231.9z"/>
	<path class="st0" d="M-109.4-257.2c0,1.6,0,3.1,0,4.7c-0.4,0.1-0.9,0.1-1.3,0.2c-0.4-1.5-0.7-3.1-1.1-4.6
		C-111.1-257-110.3-257.1-109.4-257.2z"/>
	<path class="st0" d="M-129.2-240.2c-0.8-0.7-1.5-1.3-2.3-2c0.3-0.3,0.6-0.6,0.9-0.9c0.7,0.8,1.3,1.5,2,2.3
		C-128.8-240.6-129-240.4-129.2-240.2z"/>
	<path class="st0" d="M-122.9-254.6c-0.7,0.8-1.3,1.5-2,2.3c-0.3-0.3-0.6-0.6-0.9-0.9c0.8-0.7,1.5-1.3,2.3-2
		C-123.3-254.9-123.1-254.7-122.9-254.6z"/>
	<path class="st0" d="M-148.9-234.8c-0.8-0.6-1.6-1.3-2.4-1.9c0.8-0.3,1.6-0.6,2.4-0.9C-148.9-236.7-148.9-235.7-148.9-234.8z"/>
	<path class="st0" d="M-120.3-257.6c-0.9,0.9-1.9,1.9-2.8,2.8C-122.3-255.8-121.2-256.7-120.3-257.6z"/>
	<path class="st0" d="M-128.9-257.6c0.9-0.9,1.9-1.9,2.8-2.8C-127-259.5-128-258.6-128.9-257.6z"/>
	<path class="st0" d="M-168.9-231.9c0.9,0,1.9,0,2.8,0c-0.6,0.8-1.3,1.6-1.9,2.4C-168.3-230.4-168.6-231.1-168.9-231.9z"/>
	<path class="st0" d="M-103.4-205.9c-0.8-0.7-1.5-1.3-2.3-2c0.3-0.3,0.6-0.6,0.9-0.9c0.7,0.8,1.3,1.5,2,2.3
		C-103.1-206.3-103.3-206.1-103.4-205.9z"/>
	<path class="st0" d="M-134.3-126c-0.7,0.8-1.3,1.5-2,2.3c-0.3-0.3-0.6-0.6-0.9-0.9c0.8-0.7,1.5-1.3,2.3-2
		C-134.7-126.3-134.6-126.2-134.3-126z"/>
	<path class="st0" d="M-135-126.5c0.7-0.8,1.3-1.5,2-2.3c0.3,0.3,0.6,0.6,0.9,0.9c-0.8,0.7-1.5,1.3-2.3,2
		C-134.6-126.1-134.8-126.3-135-126.5z"/>
	<path class="st0" d="M-146-252c0.9-0.9,1.9-1.9,2.8-2.8c0,0.9,0,1.9,0,2.8C-144.1-252-145.1-252-146-252z"/>
	<path class="st0" d="M-51.8,113.8c-1.9,1.9-3.8,3.8-5.7,5.7c0-1.7,0-3.3,0-5.7C-55.1,113.8-53.4,113.8-51.8,113.8z"/>
	<path class="st0" d="M-152.5,68.2c0,1.9,0,3.8,0,5.7c-0.5,0-0.9,0-1.4,0c0-1.9,0-3.8,0-5.7C-153.4,68.2-153,68.2-152.5,68.2z"/>
	<path class="st0" d="M-57.1,119.8c-0.7,0.8-1.3,1.5-2,2.3c-0.3-0.3-0.6-0.6-0.9-0.9c0.8-0.7,1.5-1.3,2.3-2
		C-57.5,119.5-57.3,119.7-57.1,119.8z"/>
	<path class="st0" d="M-42.9,119.8c-0.7,0.8-1.3,1.5-2,2.3c-0.3-0.3-0.6-0.6-0.9-0.9c0.8-0.7,1.5-1.3,2.3-2
		C-43.2,119.5-43,119.7-42.9,119.8z"/>
	<path class="st0" d="M-54.8,245.6c-0.8-0.7-1.5-1.3-2.3-2c0.3-0.3,0.6-0.6,0.9-0.9c0.7,0.8,1.3,1.5,2,2.3
		C-54.5,245.3-54.7,245.4-54.8,245.6z"/>
	<path class="st0" d="M44.8-243.9c-2.5,0-5,0-7.7,0c0-1.8,0-3,0-5.8c3.3,1.5,5.7,2.6,8.3,3.8C45.2-245.2,45-244.5,44.8-243.9z"/>
	<path class="st0" d="M-34.6-292.5c-2.8,0.1-5.5,0.3-8.4,0.4c-0.1-0.6-0.1-1.3-0.2-1.9c2.8-0.4,5.6-0.7,8.5-1.1
		C-34.7-294.3-34.6-293.4-34.6-292.5z"/>
	<path class="st0" d="M-40.1-246.5c0.8,0.7,1.5,1.3,2.3,2c-0.3,0.3-0.6,0.6-0.9,0.9c-0.7-0.8-1.3-1.5-2-2.3
		C-40.4-246.1-40.2-246.3-40.1-246.5z"/>
	<path class="st0" d="M-94.9-280.8c0.7-0.8,1.3-1.5,2-2.3c0.3,0.3,0.6,0.6,0.9,0.9c-0.8,0.7-1.5,1.3-2.3,2
		C-94.5-280.4-94.7-280.6-94.9-280.8z"/>
	<path class="st0" d="M-82.8-285.9c-0.7,0.8-1.3,1.5-2,2.3c-0.3-0.3-0.6-0.6-0.9-0.9c0.8-0.7,1.5-1.3,2.3-2
		C-83.2-286.3-83-286.1-82.8-285.9z"/>
	<path class="st0" d="M-80.3-289c-0.9,0.9-1.9,1.9-2.8,2.8C-82.2-287.1-81.2-288.1-80.3-289z"/>
	<path class="st0" d="M-143.2-254.8c0.9-0.9,1.9-1.9,2.8-2.8c0,0.9,0,1.9,0,2.8C-141.3-254.8-142.2-254.8-143.2-254.8z"/>
</g>
</svg>
