<?xml version="1.0" encoding="utf-8"?>
<!-- Generator: Adobe Illustrator 26.4.1, SVG Export Plug-In . SVG Version: 6.00 Build 0)  -->
<svg version="1.1" id="Ebene_1" xmlns="http://www.w3.org/2000/svg" xmlns:xlink="http://www.w3.org/1999/xlink" x="0px" y="0px"
	 viewBox="0 0 841.9 1190.6" style="enable-background:new 0 0 841.9 1190.6;" xml:space="preserve">
<style type="text/css">
	.st0{fill:none;stroke:#020203;stroke-miterlimit:10;}
</style>
<path class="st0" d="M240.2-78.6c-3.4-1.6-6.9-2.6-10.9-2.4c-13.1,1.2-21,14.1-28.5,24.8c-12.1,16.9-27.3,30.9-42.6,44.8
	C122.5,21.1,86.8,53.7,50.9,86.3c-71.1,65-142.5,130.2-222.4,183.7c-12.6,8.5-25.9,16.9-40.9,20.4c-15,3.6-32.1,1-43-9.7
	c-9.1-9.1-12.3-22.2-13.8-34.7c-3.6-33.3,4.8-66.6,15.9-98C-234.6,95-207,45.1-172,1.1c3.8-5,7.9-10.3,7.6-16.4
	c-0.2-6.4-5.5-11.5-10.3-15.9c-6.4-5.9-14.5-12.1-22.6-9.7c-5,1.6-8.5,5.9-11.7,10.3c-30.9,42.4-56.6,88.7-76.9,137.3
	c-19.8,47.3-38.3,110.2-15.7,159.9c18.8,40.9,67.6,66.2,111.6,56.6c19.2-4.3,36.6-14.3,53.3-24.8c30.7-19.8,59.9-41.8,87-66.4
	c11.1,40,26.4,84.6,64.2,101.6c7.1,3.1,15.7,5.2,23,2.2c10.5-4.3,14.7-16.6,17.4-27.6c11.7-47.6,17.6-96.3,18.1-145.6
	c0.2-11.1-0.8-23.6-9.1-30.7C114.7,84.3,167.4,37.9,221.9-6.3C235-17,249.1-28.6,253.3-44.8C256.6-57.7,250.7-73,240.2-78.6z"/>
<path class="st0" d="M12.5,279.5c-1.2-0.2-2.6-0.4-4-1c-10.7-4.5-31.9-67.6-23-76.1c15-14.1,30.2-27.3,46.2-40
	c2.6,23.8,4,48,1.2,72.1C31.4,246.5,28.3,281.1,12.5,279.5z"/>
<path class="st0" d="M131-309.4c-1.6-5.7-4.5-11.1-8.8-15.5c-5.9-5.7-14.1-8.8-21.8-11.7c-1.2-0.4-2.6-1-4-0.4
	c-1.6,0.4-2.4,2.2-3.1,3.8c-5.7,17.4,4.3,40.2-9.5,51.9c-13.8-3.4-22.6-21.6-36.6-19c-4.5,0.8-8.3,3.8-11.7,6.9
	c-23.6,20.6-41,47.3-58,73.7c-6.7,10.3-13.5,21-15.9,32.9c-5,24.5,19.8,53.5,45.4,51.9c11.1-0.8,20.4-8.1,29-15.2
	c39.5-33.1,76.9-72.3,92.5-121.3C132.2-283.2,134.4-297.5,131-309.4z"/>
<path class="st0" d="M23-205.4c-3.6-10.9,36.1-55.1,49.5-55.1C91.6-259.9,33.9-181.6,23-205.4z"/>
<path class="st0" d="M310.6-289.4c0-0.2,0-0.2,0-0.2c-3.6-13.8-18.3-25.4-31.9-21c-0.2,4.5-0.2,9.3-0.2,13.8
	c-6.9-7.6-14.7-15.9-25-16.6c-10.3-0.8-19.2,6.7-26.9,13.8c-19.8,19-37.6,40-53.3,62.8c-20,29.3-19.8,89.9,30.5,89
	c10.3-0.2,19.8-5.7,28.3-11.7c31.3-22.4,56.6-53.3,72.1-89C309.7-261.3,313.9-275.5,310.6-289.4z"/>
<path class="st0" d="M242.6-222c-6.4,7.4-14.1,14.1-21.8,19.8c-1.6,1.4-3.6,2.6-5.9,3.1c-10.9,2.4-4.5-12.1-2.2-16.2
	c9.3-15,21-28.8,34.3-40.4c1.9-1.6,4-3.6,6.4-4c2.6-0.8,5.7,0.2,6.9,2.6c1,1.9,0.2,4-0.2,6.2C256.2-240.4,249.9-230.6,242.6-222z"/>
</svg>
