<?xml version="1.0" encoding="utf-8"?>
<!-- Generator: Adobe Illustrator 26.4.1, SVG Export Plug-In . SVG Version: 6.00 Build 0)  -->
<svg version="1.1" id="Ebene_1" xmlns="http://www.w3.org/2000/svg" xmlns:xlink="http://www.w3.org/1999/xlink" x="0px" y="0px"
	 viewBox="0 0 841.9 1190.6" style="enable-background:new 0 0 841.9 1190.6;" xml:space="preserve">
<style type="text/css">
	.st0{fill:none;stroke:#003DA6;stroke-linecap:round;stroke-linejoin:round;stroke-miterlimit:10;}
</style>
<g>
	<path class="st0" d="M4.2-160.5c0,0-66.1-120.6-182.9-114.3c-103.2,5.6-188.8,132.5-88.2,255.9C-172.9,96.4-18.7,222.4-12.1,275
		c0,0,444.8-369.8,292-508.4C148.3-352.8,4.2-160.5,4.2-160.5z"/>
	<polygon class="st0" points="-157.9,-183.7 -95.6,-118.5 -0.4,-18.9 -230.7,-101.2 	"/>
	<line class="st0" x1="-97.2" y1="-53.5" x2="-77.3" y2="-99.4"/>
	<polygon class="st0" points="54.3,-18.9 193.6,-183.7 225.7,-89.3 	"/>
	<line class="st0" x1="148.3" y1="-57.5" x2="117.5" y2="-93.6"/>
	<path class="st0" d="M-123.8-3.7c0,0,143.9,132.4,263.9,16.1c0,0-66,161.6-146,143.5C-86.1,137.6-123.8-3.7-123.8-3.7z"/>
	<polyline class="st0" points="-79.8,27.5 -79.8,95.2 -30.7,50.1 -22.9,142.8 18.6,61.8 42.8,142.8 71.6,55.9 104,80.4 	"/>
</g>
</svg>
