<?xml version="1.0" encoding="utf-8"?>
<!-- Generator: Adobe Illustrator 26.4.1, SVG Export Plug-In . SVG Version: 6.00 Build 0)  -->
<svg version="1.1" id="Ebene_1" xmlns="http://www.w3.org/2000/svg" xmlns:xlink="http://www.w3.org/1999/xlink" x="0px" y="0px"
	 viewBox="0 0 841.9 1190.6" style="enable-background:new 0 0 841.9 1190.6;" xml:space="preserve">
<style type="text/css">
	.st0{fill:none;stroke:#020203;stroke-miterlimit:10;}
</style>
<path class="st0" d="M-142.1,19.4c0-6.1,2.9-20.3,5.3-23.5c3.9-5.1,8.8-9.7,14.9-12c6-2.3,12.7-2.1,19.2-1.6c3,0.3,6.2,0.6,8.7-0.9
	c8.5-4.4,3.6-20.6,12.4-24.5c4.3-1.8,9.5,1.1,11.8,5.2c2.2,4.2,2.3,9,2.3,13.7c0,19.8,0,39.5,0.1,59.3c0,14.4-5,19.9-19.2,19.4
	c-10.5-0.4-20.3,3.8-30.7,1.4c-8-1.8-14.3-7.1-18.5-14C-138.5,37.6-142.1,33-142.1,19.4"/>
<path class="st0" d="M-88.4,20.6c0.3-3.7-0.3-7.5-1.4-10.9c-1.8-5.1-5.5-9.8-10.7-11.4c-7.1-2.1-14.9,2.6-18.2,9.2
	c-4.9,9.8-2.8,25.2,7,31.3c3.6,2.2,8.2,2.9,12,1.3c2.8-1.2,5-3.5,6.8-6C-90.2,30-88.7,25.3-88.4,20.6z"/>
<path class="st0" d="M140.5-83.6c-9.3,0.1-18.7-0.1-27.8-1.4c-9.5-1.4-13.5-8.2-13.9-17.4c-1-17.9,3.4-37.3,8.4-54.5
	c4.9-16.8,12-33.1,22.5-47.1c3-4,7.3-8.3,12.2-7.3c2.4,0.4,4.3,2,6,3.7c7.1,6.7,12,15.3,16.2,24.2c11.8,25,18.1,52.6,17.7,80.2
	c-0.4,17.8-14.1,19.4-29.1,19.5C148.9-83.7,144.7-83.7,140.5-83.6z"/>
<path class="st0" d="M-234.1,84.9c0.4-5.2,1.6-11.2,6.3-13.4c4.8-2.3,10.2,0.6,15.5,0.8c4.6,0.1,9-1.8,13.5-2.1
	c4.6-0.4,10,1.6,10.9,6.2c0.7,3.7-2.1,7.1-5.3,9c-3.1,1.8-6.8,2.8-10,4.9c-5.9,3.8-8.7,11-9.6,17.9c-0.9,6.9-0.3,14-0.9,21.1
	c-0.4,4-1.4,8.5-4.9,10.7c-3.8,2.5-9,1.1-13-1.3C-236.5,133.6-234.2,88.6-234.1,84.9z"/>
<path class="st0" d="M-258.7,145.1c-9.7,11.3-26.1,16.1-40.3,11.9c-14.2-4.2-25.4-17.3-27.2-31.9s5.8-30.2,18.6-37.7
	c5.6-3.6,12.2-5.2,18.6-5.3c8.3-0.1,16.6,2.5,23.3,7.5C-242.4,107.9-252.2,137.3-258.7,145.1z"/>
<path class="st0" d="M-305.5,119.9c-0.1,9.2,3.8,19.1,13,21.3c5.4,1.4,11.5-0.4,15.1-4.6c2.8-3.1,4.3-7.2,5-11.3
	c1-5.9,0.7-12.3-2.2-17.5s-8.5-9.2-14.5-9c-6.7,0.3-12.4,5.5-14.7,11.7C-304.8,113.3-305.4,116.6-305.5,119.9z"/>
<path class="st0" d="M-301.3-87.1c0.3-9.7,1.1-18.5,1.2-21.6c0.1-3.8,0.5-8,3.3-10.7c4.1-3.9,10.7-2.2,16.4-2.1
	c8.7,0.1,17.3-4.3,25.9-3.1c6.3,0.9,11.9,4.6,18.1,4.8c5.9,0.1,11.3-2.9,17-4.3c9.6-2.3,20.7,0.9,26.2,9c4.6,6.8,4.9,15.6,5,23.8
	c0.1,7.2,0.1,14.4,0.1,21.6c0,4,0,8.2-1.6,11.9c-1.6,3.7-5.1,6.8-9.2,6.7c-3.7-0.1-6.7-3.1-8.1-6.5c-1.4-3.3-1.6-7.1-1.7-10.7
	c-0.3-6.3-0.4-12.6-0.7-18.8c-0.1-4.4-0.4-9-2.2-13c-1.8-4.1-5.8-7.3-10.2-7.1c-3.7,0.1-6.8,2.8-8.6,6c-1.8,3.1-2.4,6.8-2.8,10.5
	c-0.9,6.6-1.2,13.2-1,19.8c0.1,4,0.4,8.1-0.9,11.9s-4.4,7.3-8.5,7.5c-4,0.3-7.5-2.9-9.2-6.5c-1.6-3.7-1.7-7.8-1.8-11.7
	c-0.1-5.8-0.1-11.4-0.3-17.1c-0.1-4.3-0.1-8.6-1.8-12.6c-1.6-3.9-5.1-7.5-9.4-7.7c-4-0.3-7.8,2.4-9.8,5.8c-2.1,3.4-2.8,7.5-3.3,11.5
	c-0.6,5.1-0.8,10.3-0.7,15.5c0.1,4.3,0.5,8.7-0.4,12.9c-0.9,4.2-3.7,8.3-7.7,9.7C-300.1-48.1-301.8-69.3-301.3-87.1z"/>
<path class="st0" d="M-70.9,146.8c0,5.3-0.1,10.6-0.1,15.9c-0.1,7.5-0.1,14.9-2,22.2c-1.8,7.3-5.6,14.2-11.8,18.4
	c-5.5,3.7-12.2,5-18.8,5.5c-6.3,0.5-12.8,0.5-18.9-1.4c-5.1-1.6-10.7-5.1-13.1-10c-2.3-4.6-0.7-10.5,5-11.5
	c4.2-0.7,8.3,1.4,11.9,3.6c3.6,2.2,7.3,4.7,11.5,4.9c4.1,0.1,8.1-2.1,10.2-5.5c1.7-2.9,1.7-7.3-1.1-9.2c-1.4-0.9-3.3-1-5-1
	c-6.7,0.3-13.4,2.7-19.9,1c-6.5-1.7-11.1-7.3-14.7-12.9c-4.3-6.7-7.8-14.1-8.1-22c-0.4-9.8,4-19.4,10.3-26.8c3.6-4.2,7.9-8,13.2-9.6
	c9.8-3,20.3,2.1,30.5,1.8c5.2-0.1,10.9-1.6,15.2,1.3c5.1,3.3,5.6,10.5,5.6,16.6C-70.8,134.4-70.9,140.6-70.9,146.8z"/>
<path class="st0" d="M-92.3,140.4c-0.4-2.7-1.4-5.4-2.6-7.9c-1.4-2.6-3.3-5.1-5.8-6.8c-4.1-2.6-9.6-2.3-13.7,0.1
	c-4.2,2.4-7,6.8-8.1,11.5c-2.5,10,1.6,24,13.6,25c6.7,0.5,13.1-4.2,15.6-10.5C-91.8,148.3-91.6,144.2-92.3,140.4z"/>
<path class="st0" d="M46.5-84.4c-9.6-0.3-19.2-0.4-28.8-0.7c-4.3-0.1-8.7-0.3-12.4-2.2c-8-4.1-11.4-14.7-14-22.7
	c-3.6-10.7-5.4-21.9-5.4-33.1c0-2.3,0.1-4.8,1.4-6.8c2.2-3.3,6.8-3.6,10.7-3.3c10.5,0.9,20.3,5,29.7,9.5
	c21.5,10.3,41.6,24.3,56,43.2c2.1,2.9,4.3,6.4,3.3,9.8c-1.4,4.6-7,5.9-11.7,6.3c-6.4,0.4-12.8,0.3-19.2,0.1
	C52.8-84.2,49.7-84.3,46.5-84.4z"/>
<path class="st0" d="M234.5-84.1C226.6-84,218.8-84,211-84c-3.1,0-6.2,0-9-0.9c-9.9-3.3-7-12.3-1.4-18.1
	c21.9-22.5,47.9-42.2,78.4-49.3c5.8-1.4,12.9-1.7,16.4,3.1c2.6,3.5,1.8,8.4,0.9,12.7c-2.6,12.4-5.8,24.9-10.3,36.8
	c-1.8,4.6-3.9,9.5-8,12.3c-4.3,3-10,3.1-15.3,3.1C253.2-84.2,243.8-84.2,234.5-84.1z"/>
<path class="st0" d="M150.5,160.5c0,6,0.1,12.2,0,18.3c-0.1,9-3.8,12.4-12.4,12.7c-11.3,0.4-22.5,2-33.7,1.8
	c-14.8-0.1-20.6-8.4-22.5-20c-1.1-6.6,5.6-17.5,13.2-20.5c5.1-2,10.7-2.3,16-3.6c3.5-0.9,7.3-1.4,10.5-3c3-1.6,5.1-4.3,3.5-8.4
	c-1.6-4.3-5.4-5.9-9.2-5c-3.8,0.9-7,3.6-10.7,5.2c-3.1,1.4-6.5,3.8-9.5,3.3c-7.7-1.1-10.2-8.7-4.4-14.1c3.9-3.6,9-6.6,14.2-8
	c9.2-2.6,18.6-2.2,28,0.1c10.7,2.7,17.1,11.7,17.2,23.3C150.5,148.6,150.5,154.6,150.5,160.5z"/>
<path class="st0" d="M115.5,179.2c6.2,0,10.9-4.7,10.9-10.7c0-4.7-3.4-7.9-8.5-8c-6.3-0.1-12.2,5-12.2,10.5
	C105.5,175.9,109.4,179.2,115.5,179.2z"/>
<path class="st0" d="M-13.2,50c-4.2,0.1-8.3-0.5-12.3-1.8c-24.6-8-33.1-38.7-18-59.2c7.6-10.4,20.8-16.5,33.6-15.2
	C2.9-24.9,14.7-16.1,19.2-4.1c2.6,6.8,2.3,15.7-3.5,20.2C11.4,19.5,5.3,19.4,0,18.4c-5.4-0.9-10.9-2.6-16.4-1.7
	c-3.6,0.6-7.5,2.7-8.2,6.3c-0.6,2.6,0.6,5.4,2.6,7.2c2,1.8,4.6,2.6,7.3,3c4.4,0.5,9.1-0.5,12.9-2.9c3.5-2.2,7.1-5.6,11.1-4.8
	c3.8,0.9,5.9,5.5,5,9.4s-4.1,6.8-7.5,8.9C0.9,47.7-6.1,49.8-13.2,50z"/>
<path class="st0" d="M-3.8-2.9C-3.9-6.2-8-9.6-12-9.5c-4.9,0-8.8,3.3-8.5,7.3c0.1,3.3,4.1,5.9,8.6,5.8C-6.9,3.4-3.6,0.7-3.8-2.9z"/>
<path class="st0" d="M7.4,115.3c0-6.8-0.1-13.6,0-20.3c0.1-11.6,5.1-16.4,16.4-14.4c6.5,1.2,12.2,0,18.2-1.7
	c10.1-2.9,19.6-1.6,27,6.3c2.6,2.6,4.8,6.4,5.5,10c3.1,15.8,3.3,31.8,0.9,47.7c-0.9,5.8-4.8,8.5-9.8,8.2c-4.6-0.3-8.8-4.3-9.2-9.9
	c-0.6-8.9-0.7-17.9-1.1-26.7c-0.1-3-0.4-6.2-1-9c-1.4-5.8-6.8-10.7-12.2-10.5c-5.3,0.3-9.3,3.5-11.1,8.3c-1.6,4.2-2.3,8.7-2.6,13.2
	c-0.5,7.8-0.3,15.6-0.7,23.3c-0.3,4.8-2.4,9.3-7.1,10.6c-2.7,0.8-7.6-0.1-9.2-2.1c-2.4-3-3.6-7.6-3.8-11.6
	C7,129.6,7.4,122.4,7.4,115.3z"/>
<path class="st0" d="M226.3,184.7c-4.9-0.1-9.7-0.9-14.1-2.8c-5.9-2.4-22.5-17.6-8-20.8c3.8-0.9,7.9,0.9,11.2,3
	c3.3,2.1,6.6,4.6,10.5,5.5c3.9,0.9,8.6-0.5,10-4.3c1.3-3.5-0.9-7.5-4.1-9.4c-3.1-2-6.9-2.6-10.5-3.3c-5.5-1.1-10.9-2.9-15.4-6
	c-4.6-3.3-8.1-8-8.9-13.5c-0.9-6.4,2.2-13,7.1-17.3c4.9-4.3,11.3-6.4,17.8-7.1c7.1-0.8,14.3,0.1,20.9,2.6c4.2,1.6,8.4,3.8,10.5,7.8
	c2.1,3.9,1.1,9.7-2.9,11.5c-3.1,1.4-6.8,0.1-9.8-1.6c-3-1.7-5.8-3.9-9.2-4.6c-3.4-0.6-7.6,1.3-8,4.7c-0.3,2.4,1.6,4.6,3.7,5.8
	s4.6,1.4,6.9,1.8c7.3,1.3,14.4,4,19.8,9c5.4,5.1,8.5,12.7,7.1,19.9c-1.3,6.4-6.2,11.8-11.9,14.9c-5.8,3.1-12.4,4.1-19.1,4.2
	C228.8,184.7,227.6,184.7,226.3,184.7z"/>
<path class="st0" d="M140.9-75.1c37.2,0.1,74.5,0.1,111.7,0.1c2.3,0,4.6,0,6.8,0.9c2.1,0.9,3.9,2.8,3.9,5.1c0,4.3-5.5,6-9.8,6.3
	c-15.5,1.1-31,1.1-46.5,1.1c-58.3-0.1-116.6-0.1-175-0.3c-3.5,0-8.2-0.1-11-2.6c-2.8-2.6-3.1-7.2,0.4-9.4c2.2-1.4,5-1.4,7.7-1.4
	C66.3-75.2,103.6-75.1,140.9-75.1z"/>
<path class="st0" d="M92.8-28.7c8.2-0.1,16.5,1.3,24.2,4.2c1.8,0.7,3.8,1.6,5.9,1.4c3.3-0.1,6-2.2,9-3.6c4-1.8,8.6-2.2,12.9-1.1
	c3.3,0.9,6.3,2.6,9.7,3.5c7.5,1.8,15.2-1.4,22.8-3.1c10.2-2.3,21.1-1.8,30.9,1.4c1.4,0.4,2.8,1,3.6,2.2c1.6,2.4-0.5,5.5-2.7,7.5
	c-7.8,6.8-17.8,10.5-27.9,12.8C174.8-2,166.7-1.7,163-6.9c-1.7-2.5-2.9-6.3-5.9-6.3c-1.1,0-2.1,0.6-2.9,1.2c-2.5,1.8-4.6,4-7.1,5.8
	c-2.6,1.7-5.6,2.9-8.5,2.1c-5.4-1.4-8.9-8.7-14.4-7.5c-3.4,0.8-5.1,4.6-7.9,6.8c-4.6,3.7-11.2,2.5-16.8,0.9
	c-4.8-1.3-37.3-11.9-28.2-20.3c1.2-1.1,2.8-1.6,4.3-2.1C81.2-27.9,87-28.7,92.8-28.7z"/>
<path class="st0" d="M242-44.4c-0.1,1.6-1.3,3.1-2.6,3.9c-2.8,1.8-6.4,2-9.8,2.1C170.9-37,112.2-36.5,53.4-38
	c-3.5-0.1-8-0.3-10.9-2.5c-3.8-3-1.7-6.7,2.5-8.2c2.4-0.9,5-0.9,7.6-0.9c60.5,0.1,120.8,0.3,181.2,0.4c3.3,0,7.7,0.9,8.1,4.1
	C242-44.9,242-44.6,242-44.4z"/>
<path class="st0" d="M161.8,103.7c0-11.4-0.1-22.8,0.1-34.1c0.1-3.4,1-6.9,2.1-10.2c1.2-3.7,4.6-5.5,8-4.7c2.9,0.7,6.8,2.3,8,4.7
	c1.8,3.9,2.4,8.8,2.5,13.2c0.3,21.6,0.1,43.1,0.1,64.7c0,2.3-0.3,4.8-0.9,7c-1.6,5.5-5.5,8.6-10,8.4c-4.3-0.3-8.8-4.7-9.4-9.8
	c-0.4-4.3-0.4-8.8-0.4-13.2C161.8,121,161.8,112.3,161.8,103.7z"/>
<path class="st0" d="M-187.8,157.1c0-7.3,0.4-14.5,1-21.8c0.4-4,1-8.3,3.8-11.1c9.6-9.5,16.1,7.3,16.8,14.4
	c1.3,13.5,1.2,27.1-0.4,40.5c-0.5,3.9-1.3,8.2-4.2,11c-2.2,2.1-5.6,2.9-8.6,2.1c-9.3-2.6-7.8-16.5-8.1-23.8
	C-187.8,164.5-187.8,160.8-187.8,157.1z"/>
<path class="st0" d="M-25.5,135.2c-0.1,6.2-0.3,12.3-0.4,18.6c-0.1,5.4-0.6,11.5-4.8,14.8c-3.1,2.6-8,2.1-11.1-0.1
	c-4.6-3.1-4.3-7.1-4.3-12.2c0-13.2,0-26.4-0.1-39.5c0-3.8,0-7.8,1.6-11.3c1.6-3.5,4.9-6.5,8.7-6.3c5.5,0.3,8.6,6.4,9.7,11.8
	c1.3,6.7,1.1,13.5,1,20.3C-25.4,132.6-25.4,133.9-25.5,135.2z"/>
<path class="st0" d="M-176.2,94.3c1.6,0.1,3.1,0.7,4.3,1.7c1.2,1.2,1.8,2.9,2,4.6c0.3,3.8-2.8,7.9-6.7,7.9c-5.3,0-10.2-7.3-6.3-11.8
	c1.4-1.7,3.8-2.5,6-2.5C-176.7,94.2-176.4,94.3-176.2,94.3z"/>
<path class="st0" d="M-29,79c-0.1,2.8-1.8,5.5-4.4,6.6c-8.4,3.3-13.4-9.8-5-13.1c3.4-1.3,7.7,0.6,9,4C-29.1,77.5-29,78.2-29,79z"/>
<path class="st0" d="M-162.6,4.9c0,6,0.1,12.2,0,18.3c-0.1,9-3.8,12.4-12.4,12.7c-11.3,0.4-22.5,2-33.7,1.8
	c-14.8-0.1-20.6-8.4-22.5-20c-1.1-6.6,5.6-17.5,13.2-20.5c5.1-2,10.7-2.3,16-3.6c3.5-0.9,7.3-1.4,10.5-3c3-1.6,5.1-4.3,3.5-8.4
	c-1.6-4.3-5.4-5.9-9.2-5c-3.8,0.9-7,3.6-10.7,5.2c-3.1,1.4-6.5,3.8-9.5,3.3c-7.7-1.1-10.2-8.7-4.4-14.1c3.9-3.6,9-6.6,14.2-8
	c9.2-2.6,18.6-2.2,28,0.1c10.7,2.7,17.1,11.7,17.2,23.3C-162.6-7-162.6-1-162.6,4.9z"/>
<path class="st0" d="M-197.6,23.6c6.2,0,10.9-4.7,10.9-10.7c0-4.7-3.4-7.9-8.5-8c-6.3-0.1-12.2,5-12.2,10.5
	C-207.6,20.3-203.7,23.6-197.6,23.6z"/>
</svg>
