<?xml version="1.0" encoding="utf-8"?>
<!-- Generator: Adobe Illustrator 26.4.1, SVG Export Plug-In . SVG Version: 6.00 Build 0)  -->
<svg version="1.1" id="Ebene_1" xmlns="http://www.w3.org/2000/svg" xmlns:xlink="http://www.w3.org/1999/xlink" x="0px" y="0px"
	 viewBox="0 0 841.9 1190.6" style="enable-background:new 0 0 841.9 1190.6;" xml:space="preserve">
<style type="text/css">
	.st0{fill:none;stroke:#FF3DA6;stroke-miterlimit:10;}
</style>
<path class="st0" d="M-49.3,311.8c-3,0-5.7-1-7.9-3.2c-2.2-2.2-3.2-4.7-3.2-7.9c0-3,1-5.5,3.2-7.7c2.2-2,4.7-3.2,7.9-3.2
	c3,0,5.7,1,7.9,3.2c2.2,2.2,3.2,4.7,3.2,7.7c0,3-1,5.7-3.2,7.9C-43.6,310.6-46.3,311.8-49.3,311.8z M24.6,311.4c-3,0-5.7-1-7.9-3.2
	c-2.2-2.2-3.2-4.7-3.2-7.7c0-3,1-5.7,3.2-7.9c2.2-2.2,4.7-3.2,7.9-3.2s5.5,1,7.7,3.2c2.2,2.2,3.2,4.7,3.2,7.9c0,3-1,5.5-3.2,7.7
	C30.1,310.5,27.6,311.4,24.6,311.4z M49,311.4c-3,0-5.7-1-7.9-3.2c-2.2-2.2-3.2-4.7-3.2-7.9c0-3,1-5.5,3.2-7.7
	c2.2-2,4.7-3.2,7.9-3.2c3,0,5.5,1,7.7,3.2c2.2,2.2,3.2,4.7,3.2,7.7c0,3-1,5.7-3.2,7.9C54.6,310.5,52,311.4,49,311.4z M73.4,311.4
	c-3,0-5.7-1-7.9-3.2c-2.2-2.2-3.2-4.7-3.2-7.9c0-3,1-5.7,3.2-7.9c2.2-2.2,4.7-3.2,7.9-3.2c3.2,0,5.7,1,7.9,3.2
	c2.2,2.2,3.2,4.7,3.2,7.9c0,3-1,5.7-3.2,7.9C79.1,310.5,76.4,311.4,73.4,311.4z M-73.2,283.3c-3,0-5.7-1-7.9-3.2
	c-2.2-2-3.2-4.7-3.2-7.7c0-3,1-5.7,3.2-7.9s4.7-3.2,7.9-3.2c3,0,5.7,1,7.9,3.2c2.2,2.2,3.2,4.7,3.2,7.9c0,3-1,5.5-3.2,7.7
	C-67.7,282.2-70.2,283.3-73.2,283.3z M0.4,283.3c-3,0-5.7-1-7.9-3.2c-2.2-2.2-3.2-4.7-3.2-7.9c0-3,1-5.7,3.2-7.9
	c2.2-2.2,4.7-3.2,7.9-3.2c3,0,5.5,1,7.7,3.2c2.2,2.2,3.2,4.7,3.2,7.9c0,3-1,5.7-3.2,7.9C5.9,282.2,3.4,283.3,0.4,283.3z M74,283.1
	c-3,0-5.5-1-7.7-3.2c-2.2-2.2-3.2-4.7-3.2-7.9c0-3,1-5.5,3.2-7.7c2.2-2,4.7-3.2,7.7-3.2s5.7,1,7.9,3.2c2.2,2.2,3.2,4.7,3.2,7.7
	c0,3-1,5.7-3.2,7.9C79.5,281.9,77,283.1,74,283.1z M-74,254.4c-3,0-5.7-1-7.9-3.2c-2.2-2.2-3.2-4.7-3.2-7.9c0-3,1-5.7,3.2-7.9
	c2.2-2.2,4.7-3.2,7.9-3.2c3.2,0,5.7,1,7.9,3.2s3.2,4.7,3.2,7.9c0,3-1,5.7-3.2,7.9C-68.4,253.3-71,254.4-74,254.4z M-0.2,254.3
	c-3,0-5.7-1-7.9-3.2s-3.2-4.7-3.2-7.9c0-3,1-5.5,3.2-7.7c2.2-2,4.7-3.2,7.9-3.2s5.5,1,7.7,3.2s3.2,4.7,3.2,7.7s-1,5.7-3.2,7.9
	C5.3,253.1,2.8,254.3-0.2,254.3z M73.2,254c-3,0-5.5-1-7.7-3.2c-2-2-3.2-4.7-3.2-7.7s1-5.7,3.2-7.9c2.2-2.2,4.7-3.2,7.7-3.2
	s5.7,1,7.9,3.2c2.2,2.2,3.2,4.7,3.2,7.9c0,3-1,5.5-3.2,7.7C78.9,253,76.3,254,73.2,254z M-74,226.6c-3,0-5.7-1-7.9-3.2
	c-2.2-2.2-3.2-4.7-3.2-7.9c0-3,1-5.5,3.2-7.7c2.2-2,4.7-3.2,7.9-3.2c3.2,0,5.5,1,7.7,3.2s3.2,4.7,3.2,7.7s-1,5.7-3.2,7.9
	C-68.4,225.7-71,226.6-74,226.6z M-0.4,226.5c-3,0-5.5-1-7.7-3.2c-2.2-2-3.2-4.7-3.2-7.7s1-5.7,3.2-7.9s4.7-3.2,7.7-3.2
	s5.7,1,7.9,3.2s3.2,4.7,3.2,7.9c0,3-1,5.5-3.2,7.7C5.1,225.5,2.6,226.5-0.4,226.5z M73.2,226.3c-3,0-5.7-1-7.9-3.2
	c-2.2-2-3.2-4.7-3.2-7.7c0-3,1-5.7,3.2-7.9c2.2-2.2,4.7-3.2,7.9-3.2s5.7,1,7.9,3.2c2.2,2.2,3.2,4.7,3.2,7.9c0,3-1,5.5-3.2,7.7
	C78.9,225.2,76.3,226.3,73.2,226.3z M-49,198c-3,0-5.5-1-7.7-3.2c-2-2.2-3.2-4.7-3.2-7.9c0-3,1-5.5,3.2-7.7c2.2-2.2,4.7-3.2,7.7-3.2
	s5.7,1,7.9,3.2c2.2,2,3.2,4.7,3.2,7.7c0,3-1,5.7-3.2,7.9C-43.3,197.1-46,198-49,198z M-24.5,198c-3,0-5.5-1-7.7-3.2
	c-2.2-2.2-3.2-4.7-3.2-7.9c0-3,1-5.7,3.2-7.9c2.2-2.2,4.7-3.2,7.7-3.2s5.7,1,7.9,3.2s3.2,4.7,3.2,7.9c0,3-1,5.7-3.2,7.9
	C-18.8,197.1-21.5,198-24.5,198z M73.6,197.9c-3,0-5.5-1-7.7-3.2c-2.2-2.2-3.2-4.7-3.2-7.9c0-3,1-5.7,3.2-7.9
	c2.2-2.2,4.7-3.2,7.7-3.2s5.7,1,7.9,3.2c2.2,2.2,3.2,4.7,3.2,7.9c0,3-1,5.7-3.2,7.9C79.4,196.7,76.8,197.9,73.6,197.9z"/>
<path class="st0" d="M-49.3,151.9c-3,0-5.7-1-7.9-3.2s-3.2-4.7-3.2-7.9c0-3,1-5.5,3.2-7.7c2.2-2,4.7-3.2,7.9-3.2c3,0,5.7,1,7.9,3.2
	c2.2,2.2,3.2,4.7,3.2,7.7s-1,5.7-3.2,7.9C-43.6,150.8-46.3,151.9-49.3,151.9z M-24.7,151.9c-3,0-5.7-1-7.9-3.2s-3.2-4.7-3.2-7.9
	c0-3,1-5.7,3.2-7.9s4.7-3.2,7.9-3.2s5.7,1,7.9,3.2s3.2,4.7,3.2,7.9c0,3-1,5.7-3.2,7.9C-19.2,150.8-21.7,151.9-24.7,151.9z
	 M-0.2,151.9c-3,0-5.5-1-7.7-3.2s-3.2-4.7-3.2-7.9c0-3,1-5.7,3.2-7.9s4.7-3.2,7.7-3.2s5.7,1,7.9,3.2s3.2,4.7,3.2,7.9
	c0,3-1,5.7-3.2,7.9S2.8,151.9-0.2,151.9z M24.6,151.7c-3,0-5.7-1-7.9-3.2c-2.2-2.2-3.2-4.7-3.2-7.7s1-5.7,3.2-7.9s4.7-3.2,7.9-3.2
	s5.5,1,7.7,3.2c2.2,2.2,3.2,4.7,3.2,7.9c0,3-1,5.5-3.2,7.7C30.1,150.6,27.6,151.7,24.6,151.7z M49,151.7c-3,0-5.7-1-7.9-3.2
	c-2.2-2.2-3.2-4.7-3.2-7.9c0-3,1-5.5,3.2-7.7c2.2-2,4.7-3.2,7.9-3.2c3,0,5.5,1,7.7,3.2c2.2,2.2,3.2,4.7,3.2,7.7s-1,5.7-3.2,7.9
	C54.6,150.6,52,151.7,49,151.7z M-73.2,123.5c-3,0-5.7-1-7.9-3.2c-2.2-2-3.2-4.7-3.2-7.7s1-5.7,3.2-7.9c2.2-2.2,4.7-3.2,7.9-3.2
	c3,0,5.7,1,7.9,3.2s3.2,4.7,3.2,7.9c0,3-1,5.5-3.2,7.7C-67.7,122.5-70.2,123.5-73.2,123.5z M74,123.3c-3,0-5.5-1-7.7-3.2
	c-2.2-2.2-3.2-4.7-3.2-7.9c0-3,1-5.5,3.2-7.7c2.2-2,4.7-3.2,7.7-3.2s5.7,1,7.9,3.2c2.2,2.2,3.2,4.7,3.2,7.7s-1,5.7-3.2,7.9
	C79.5,122.2,77,123.3,74,123.3z M-74,94.7c-3,0-5.7-1-7.9-3.2c-2.2-2.2-3.2-4.7-3.2-7.9c0-3,1-5.7,3.2-7.9c2.2-2.2,4.7-3.2,7.9-3.2
	c3.2,0,5.7,1,7.9,3.2s3.2,4.7,3.2,7.9c0,3-1,5.7-3.2,7.9C-68.4,93.6-71,94.7-74,94.7z M73.2,94.2c-3,0-5.5-1-7.7-3.2
	c-2-2-3.2-4.7-3.2-7.7s1-5.7,3.2-7.9c2.2-2.2,4.7-3.2,7.7-3.2s5.7,1,7.9,3.2c2.2,2.2,3.2,4.7,3.2,7.9c0,3-1,5.5-3.2,7.7
	C78.9,93.3,76.3,94.2,73.2,94.2z M-74,66.9c-3,0-5.7-1-7.9-3.2s-3.2-4.7-3.2-7.9c0-3,1-5.5,3.2-7.7c2.2-2,4.7-3.2,7.9-3.2
	c3.2,0,5.5,1,7.7,3.2c2.2,2.2,3.2,4.7,3.2,7.7s-1,5.7-3.2,7.9C-68.4,65.8-71,66.9-74,66.9z M73.2,66.4c-3,0-5.7-1-7.9-3.2
	c-2.2-2-3.2-4.7-3.2-7.7c0-3,1-5.7,3.2-7.9c2.2-2.2,4.7-3.2,7.9-3.2s5.7,1,7.9,3.2c2.2,2.2,3.2,4.7,3.2,7.9c0,3-1,5.5-3.2,7.7
	C78.9,65.5,76.3,66.4,73.2,66.4z M-49,38.3c-3,0-5.5-1-7.7-3.2c-2-2.2-3.2-4.7-3.2-7.9c0-3,1-5.5,3.2-7.7c2.2-2.2,4.7-3.2,7.7-3.2
	s5.7,1,7.9,3.2c2.2,2,3.2,4.7,3.2,7.7s-1,5.7-3.2,7.9C-43.3,37.2-46,38.3-49,38.3z M-24.5,38.3c-3,0-5.5-1-7.7-3.2
	c-2.2-2.2-3.2-4.7-3.2-7.9c0-3,1-5.7,3.2-7.9c2.2-2.2,4.7-3.2,7.7-3.2s5.7,1,7.9,3.2s3.2,4.7,3.2,7.9c0,3-1,5.7-3.2,7.9
	C-18.8,37.2-21.5,38.3-24.5,38.3z M0.3,38.1c-3,0-5.7-1-7.9-3.2c-2.2-2-3.2-4.7-3.2-7.7s1-5.7,3.2-7.9s4.7-3.2,7.9-3.2
	s5.5,1,7.7,3.2s3.2,4.7,3.2,7.9c0,3-1,5.5-3.2,7.7C5.8,36.9,3.3,38.1,0.3,38.1z M24.7,38.1c-3,0-5.7-1-7.9-3.2
	c-2.2-2-3.2-4.7-3.2-7.7s1-5.7,3.2-7.9s4.7-3.2,7.9-3.2s5.7,1,7.9,3.2s3.2,4.7,3.2,7.9c0,3-1,5.5-3.2,7.7
	C30.4,36.9,27.7,38.1,24.7,38.1z M49.2,38.1c-3,0-5.7-1-7.9-3.2c-2.2-2.2-3.2-4.7-3.2-7.9c0-3,1-5.5,3.2-7.7
	c2.2-2.2,4.7-3.2,7.9-3.2c3,0,5.7,1,7.9,3.2c2.2,2,3.2,4.7,3.2,7.7s-1,5.7-3.2,7.9C54.9,36.9,52.2,38.1,49.2,38.1z"/>
<path class="st0" d="M-49.3-16c-3,0-5.7-1-7.9-3.2s-3.2-4.7-3.2-7.9c0-3,1-5.5,3.2-7.7c2.2-2,4.7-3.2,7.9-3.2c3,0,5.7,1,7.9,3.2
	c2.2,2.2,3.2,4.7,3.2,7.7s-1,5.7-3.2,7.9C-43.6-17-46.3-16-49.3-16z M24.6-16.2c-3,0-5.7-1-7.9-3.2s-3.2-4.7-3.2-7.7s1-5.7,3.2-7.9
	c2.2-2.2,4.7-3.2,7.9-3.2s5.5,1,7.7,3.2c2.2,2.2,3.2,4.7,3.2,7.9c0,3-1,5.5-3.2,7.7C30.1-17.1,27.6-16.2,24.6-16.2z M49-16.2
	c-3,0-5.7-1-7.9-3.2c-2.2-2.2-3.2-4.7-3.2-7.9c0-3,1-5.5,3.2-7.7c2.2-2,4.7-3.2,7.9-3.2c3,0,5.5,1,7.7,3.2c2.2,2.2,3.2,4.7,3.2,7.7
	s-1,5.7-3.2,7.9C54.6-17.1,52-16.2,49-16.2z M73.4-16.2c-3,0-5.7-1-7.9-3.2c-2.2-2.2-3.2-4.7-3.2-7.9c0-3,1-5.7,3.2-7.9
	c2.2-2.2,4.7-3.2,7.9-3.2c3.2,0,5.7,1,7.9,3.2c2.2,2.2,3.2,4.7,3.2,7.9c0,3-1,5.7-3.2,7.9C79.1-17.1,76.4-16.2,73.4-16.2z
	 M-73.2-44.3c-3,0-5.7-1-7.9-3.2c-2.2-2-3.2-4.7-3.2-7.7c0-3,1-5.7,3.2-7.9c2.2-2.2,4.7-3.2,7.9-3.2c3,0,5.7,1,7.9,3.2
	c2.2,2.2,3.2,4.7,3.2,7.9c0,3-1,5.5-3.2,7.7C-67.7-45.4-70.2-44.3-73.2-44.3z M0.4-44.3c-3,0-5.7-1-7.9-3.2s-3.2-4.7-3.2-7.9
	c0-3,1-5.7,3.2-7.9c2.2-2.2,4.7-3.2,7.9-3.2c3,0,5.5,1,7.7,3.2s3.2,4.7,3.2,7.9c0,3-1,5.7-3.2,7.9C5.9-45.4,3.4-44.3,0.4-44.3z
	 M74-44.6c-3,0-5.5-1-7.7-3.2c-2.2-2.2-3.2-4.7-3.2-7.9c0-3,1-5.5,3.2-7.7c2.2-2,4.7-3.2,7.7-3.2s5.7,1,7.9,3.2
	c2.2,2.2,3.2,4.7,3.2,7.7s-1,5.7-3.2,7.9C79.5-45.6,77-44.6,74-44.6z M-74-73.1c-3,0-5.7-1-7.9-3.2c-2.2-2.2-3.2-4.7-3.2-7.9
	c0-3,1-5.7,3.2-7.9c2.2-2.2,4.7-3.2,7.9-3.2c3.2,0,5.7,1,7.9,3.2c2.2,2.2,3.2,4.7,3.2,7.9c0,3-1,5.7-3.2,7.9
	C-68.4-74.3-71-73.1-74-73.1z M-0.2-73.4c-3,0-5.7-1-7.9-3.2s-3.2-4.7-3.2-7.9c0-3,1-5.5,3.2-7.7c2.2-2,4.7-3.2,7.9-3.2
	s5.5,1,7.7,3.2s3.2,4.7,3.2,7.7s-1,5.7-3.2,7.9C5.3-74.4,2.8-73.4-0.2-73.4z M73.2-73.5c-3,0-5.5-1-7.7-3.2c-2-2-3.2-4.7-3.2-7.7
	s1-5.7,3.2-7.9c2.2-2.2,4.7-3.2,7.7-3.2s5.7,1,7.9,3.2c2.2,2.2,3.2,4.7,3.2,7.9c0,3-1,5.5-3.2,7.7C78.9-74.6,76.3-73.5,73.2-73.5z
	 M-74-100.9c-3,0-5.7-1-7.9-3.2c-2.2-2.2-3.2-4.7-3.2-7.9c0-3,1-5.5,3.2-7.7c2.2-2,4.7-3.2,7.9-3.2c3.2,0,5.5,1,7.7,3.2
	c2.2,2.2,3.2,4.7,3.2,7.7s-1,5.7-3.2,7.9C-68.4-102.1-71-100.9-74-100.9z M-0.4-101c-3,0-5.5-1-7.7-3.2c-2.2-2-3.2-4.7-3.2-7.7
	s1-5.7,3.2-7.9c2.2-2.2,4.7-3.2,7.7-3.2s5.7,1,7.9,3.2s3.2,4.7,3.2,7.9c0,3-1,5.5-3.2,7.7C5.1-102.2,2.6-101-0.4-101z M73.2-101.3
	c-3,0-5.7-1-7.9-3.2c-2.2-2-3.2-4.7-3.2-7.7s1-5.7,3.2-7.9c2.2-2.2,4.7-3.2,7.9-3.2s5.7,1,7.9,3.2c2.2,2.2,3.2,4.7,3.2,7.9
	c0,3-1,5.5-3.2,7.7C78.9-102.4,76.3-101.3,73.2-101.3z M-49-129.6c-3,0-5.5-1-7.7-3.2c-2-2.2-3.2-4.7-3.2-7.9c0-3,1-5.5,3.2-7.7
	c2.2-2.2,4.7-3.2,7.7-3.2s5.7,1,7.9,3.2c2.2,2,3.2,4.7,3.2,7.7s-1,5.7-3.2,7.9C-43.3-130.5-46-129.6-49-129.6z M-24.5-129.6
	c-3,0-5.5-1-7.7-3.2c-2.2-2.2-3.2-4.7-3.2-7.9c0-3,1-5.7,3.2-7.9c2.2-2.2,4.7-3.2,7.7-3.2s5.7,1,7.9,3.2s3.2,4.7,3.2,7.9
	c0,3-1,5.7-3.2,7.9C-18.8-130.5-21.5-129.6-24.5-129.6z M73.6-129.7c-3,0-5.5-1-7.7-3.2c-2.2-2.2-3.2-4.7-3.2-7.9c0-3,1-5.7,3.2-7.9
	c2.2-2.2,4.7-3.2,7.7-3.2s5.7,1,7.9,3.2c2.2,2.2,3.2,4.7,3.2,7.9c0,3-1,5.7-3.2,7.9C79.4-130.9,76.8-129.7,73.6-129.7z"/>
<path class="st0" d="M-49.3-175.7c-3,0-5.7-1-7.9-3.2s-3.2-4.7-3.2-7.9c0-3,1-5.5,3.2-7.7c2.2-2,4.7-3.2,7.9-3.2c3,0,5.7,1,7.9,3.2
	c2.2,2.2,3.2,4.7,3.2,7.7s-1,5.7-3.2,7.9C-43.6-176.8-46.3-175.7-49.3-175.7z M24.6-175.9c-3,0-5.7-1-7.9-3.2s-3.2-4.7-3.2-7.7
	s1-5.7,3.2-7.9c2.2-2.2,4.7-3.2,7.9-3.2s5.5,1,7.7,3.2c2.2,2.2,3.2,4.7,3.2,7.9c0,3-1,5.5-3.2,7.7C30.1-176.9,27.6-175.9,24.6-175.9
	z M49-175.9c-3,0-5.7-1-7.9-3.2c-2.2-2.2-3.2-4.7-3.2-7.9c0-3,1-5.5,3.2-7.7c2.2-2,4.7-3.2,7.9-3.2c3,0,5.5,1,7.7,3.2
	c2.2,2.2,3.2,4.7,3.2,7.7s-1,5.7-3.2,7.9C54.6-177.1,52-175.9,49-175.9z M73.4-175.9c-3,0-5.7-1-7.9-3.2c-2.2-2.2-3.2-4.7-3.2-7.9
	c0-3,1-5.7,3.2-7.9c2.2-2.2,4.7-3.2,7.9-3.2c3.2,0,5.7,1,7.9,3.2c2.2,2.2,3.2,4.7,3.2,7.9c0,3-1,5.7-3.2,7.9
	C79.1-177.1,76.4-175.9,73.4-175.9z M-73.2-204.2c-3,0-5.7-1-7.9-3.2c-2.2-2-3.2-4.7-3.2-7.7s1-5.7,3.2-7.9s4.7-3.2,7.9-3.2
	c3,0,5.7,1,7.9,3.2s3.2,4.7,3.2,7.9c0,3-1,5.5-3.2,7.7C-67.7-205.2-70.2-204.2-73.2-204.2z M0.4-204.2c-3,0-5.7-1-7.9-3.2
	s-3.2-4.7-3.2-7.9c0-3,1-5.7,3.2-7.9c2.2-2.2,4.7-3.2,7.9-3.2c3,0,5.5,1,7.7,3.2c2.2,2.2,3.2,4.7,3.2,7.9c0,3-1,5.7-3.2,7.9
	S3.4-204.2,0.4-204.2z M74-204.3c-3,0-5.5-1-7.7-3.2s-3.2-4.7-3.2-7.9c0-3,1-5.5,3.2-7.7c2.2-2,4.7-3.2,7.7-3.2s5.7,1,7.9,3.2
	s3.2,4.7,3.2,7.7s-1,5.7-3.2,7.9C79.5-205.4,77-204.3,74-204.3z M-74-233c-3,0-5.7-1-7.9-3.2c-2.2-2.2-3.2-4.7-3.2-7.9
	c0-3,1-5.7,3.2-7.9c2.2-2.2,4.7-3.2,7.9-3.2c3.2,0,5.7,1,7.9,3.2c2.2,2.2,3.2,4.7,3.2,7.9c0,3-1,5.7-3.2,7.9
	C-68.4-234-71-233-74-233z M-0.2-233.2c-3,0-5.7-1-7.9-3.2s-3.2-4.7-3.2-7.9c0-3,1-5.5,3.2-7.7c2.2-2,4.7-3.2,7.9-3.2s5.5,1,7.7,3.2
	s3.2,4.7,3.2,7.7s-1,5.7-3.2,7.9C5.3-234.3,2.8-233.2-0.2-233.2z M73.2-233.4c-3,0-5.5-1-7.7-3.2c-2-2-3.2-4.7-3.2-7.7
	s1-5.7,3.2-7.9c2.2-2.2,4.7-3.2,7.7-3.2s5.7,1,7.9,3.2c2.2,2.2,3.2,4.7,3.2,7.9c0,3-1,5.5-3.2,7.7C78.9-234.5,76.3-233.4,73.2-233.4
	z M-74-260.7c-3,0-5.7-1-7.9-3.2c-2.2-2.2-3.2-4.7-3.2-7.9c0-3,1-5.5,3.2-7.7c2.2-2,4.7-3.2,7.9-3.2c3.2,0,5.5,1,7.7,3.2
	c2.2,2.2,3.2,4.7,3.2,7.7c0,3-1,5.7-3.2,7.9C-68.4-261.8-71-260.7-74-260.7z M-0.4-261c-3,0-5.5-1-7.7-3.2c-2.2-2-3.2-4.7-3.2-7.7
	c0-3,1-5.7,3.2-7.9c2.2-2.2,4.7-3.2,7.7-3.2s5.7,1,7.9,3.2c2.2,2.2,3.2,4.7,3.2,7.9c0,3-1,5.5-3.2,7.7C5.1-262,2.6-261-0.4-261z
	 M73.2-261.2c-3,0-5.7-1-7.9-3.2c-2.2-2-3.2-4.7-3.2-7.7c0-3,1-5.7,3.2-7.9c2.2-2.2,4.7-3.2,7.9-3.2s5.7,1,7.9,3.2
	c2.2,2.2,3.2,4.7,3.2,7.9c0,3-1,5.5-3.2,7.7C78.9-262.1,76.3-261.2,73.2-261.2z M-49-289.3c-3,0-5.5-1-7.7-3.2
	c-2-2.2-3.2-4.7-3.2-7.9c0-3,1-5.5,3.2-7.7c2.2-2.2,4.7-3.2,7.7-3.2s5.7,1,7.9,3.2c2.2,2,3.2,4.7,3.2,7.7c0,3-1,5.7-3.2,7.9
	C-43.3-290.2-46-289.3-49-289.3z M-24.5-289.3c-3,0-5.5-1-7.7-3.2c-2.2-2.2-3.2-4.7-3.2-7.9c0-3,1-5.7,3.2-7.9
	c2.2-2.2,4.7-3.2,7.7-3.2s5.7,1,7.9,3.2c2.2,2.2,3.2,4.7,3.2,7.9c0,3-1,5.7-3.2,7.9C-18.8-290.2-21.5-289.3-24.5-289.3z M73.6-289.6
	c-3,0-5.5-1-7.7-3.2c-2.2-2.2-3.2-4.7-3.2-7.9c0-3,1-5.7,3.2-7.9c2.2-2.2,4.7-3.2,7.7-3.2s5.7,1,7.9,3.2c2.2,2.2,3.2,4.7,3.2,7.9
	c0,3-1,5.7-3.2,7.9C79.4-290.6,76.8-289.6,73.6-289.6z"/>
</svg>
