<svg xmlns="http://www.w3.org/2000/svg" viewBox="0 0 600.47 259.98"><defs><style>.cls-1{fill:none;stroke:#003da6;stroke-linecap:round;stroke-linejoin:round;stroke-width:15px;}</style></defs><g id="Layer_2" data-name="Layer 2"><g id="Layer_1-2" data-name="Layer 1"><path class="cls-1" d="M46.7,208.88c21.69-81.31,111.11-83.54,115.9-106.31,2-9.3-3.93-15.46-15.18-15.46-12.95,0-28.41,9-41.88,21.68L72.61,67.7c24.2-22.19,50.05-33.49,80.75-33.49,39.09,0,88.34,19.4,75.95,71.16-14.6,60.77-95.35,49.25-107.45,76.24l27.85-4.23h59.63l-11.24,48.4H42.25Z"/><path class="cls-1" d="M163.57,123.11c14.61-56.55,51.48-88.62,101.81-88.62,69.73,0,95.36,44.74,78.75,108.6C329.52,199.93,293.51,232,243.69,232,182.41,232,144.12,196.22,163.57,123.11Z"/><path class="cls-1" d="M273.54,135.56c9.87-37.73,12.1-54-9.59-54-10.95,0-16.6,8.73-28.42,49.53-13.81,47.82-8.16,53.7,9.59,53.7C257.5,184.69,264,171.85,273.54,135.56Z"/><path class="cls-1" d="M274.68,208.88c21.69-81.31,111.11-83.54,115.9-106.31,2-9.3-3.94-15.46-15.18-15.46-12.95,0-28.42,9-41.88,21.68L300.59,67.7c24.19-22.19,50.05-33.49,80.75-33.49,39.09,0,88.33,19.4,76,71.16-14.61,60.77-95.36,49.25-107.45,76.24l27.84-4.23h59.64L426,225.78H270.17Z"/><path class="cls-1" d="M577.36,44c-18-22.88-51.36-36.52-89-36.52A135.9,135.9,0,0,0,435.09,18c-15.75-6.79-34.18-10.5-53.81-10.5A134.52,134.52,0,0,0,324,19.83c-14.56-7.08-33.67-12-58.61-12a127.15,127.15,0,0,0-54.61,11.86C194.28,11.84,174.53,7.5,153.36,7.5,116.55,7.5,84.25,20.74,54.58,48L36.2,64.91,80.83,120.6C56.29,136.75,31.81,161.35,21,202L7.5,252.48H554.3s32.36-125.83,36-140.89C598,79.12,587.51,56.92,577.36,44Z"/><path class="cls-1" d="M381.74,208.88c21.68-81.31,111.1-83.54,115.9-106.31,2-9.3-3.94-15.46-15.18-15.46-13,0-28.42,9-41.89,21.68L407.64,67.7c24.2-22.19,50.05-33.49,80.75-33.49,39.09,0,88.34,19.4,76,71.16-14.61,60.77-95.36,49.25-107.46,76.24l27.85-4.23h59.63l-11.24,48.4H377.28Z"/></g></g></svg>