<svg xmlns="http://www.w3.org/2000/svg" viewBox="0 0 605.37 411.01"><defs><style>.cls-1{fill:none;stroke:#1a459d;stroke-linecap:round;stroke-linejoin:round;stroke-width:15px;}</style></defs><g id="Layer_2" data-name="Layer 2"><g id="Layer_1-2" data-name="Layer 1"><path class="cls-1" d="M301,249.57c-17.67.11-35.55-.1-52.64-2.53-18-2.53-25.58-15.56-26.48-32.91-2-34.08,6.54-70.57,15.93-103.17C247,79.1,260.57,48.3,280.5,21.66,286.2,14,294.32,6,303.71,7.74c4.48.79,8.23,3.8,11.55,6.91,13.5,12.66,22.89,29.06,30.8,45.83,22.37,47.32,34.39,99.64,33.5,152-.58,33.71-26.75,36.82-55.07,36.92C316.84,249.41,308.93,249.52,301,249.57Z"/><path class="cls-1" d="M122.75,248.2,68.1,246.93c-8.07-.21-16.51-.47-23.68-4.11-15.19-7.75-21.57-28-26.63-43.09A199.81,199.81,0,0,1,7.5,137c0-4.43.21-9.12,2.74-12.81,4.22-6.12,12.87-6.91,20.31-6.23,19.78,1.8,38.55,9.34,56.44,18,40.66,19.62,79,46,106.12,82.07,4.11,5.43,8.12,12.13,6.17,18.67-2.53,8.6-13.29,11.23-22.21,11.81-12.13.79-24.31.48-36.5.21Z"/><path class="cls-1" d="M479.19,248.67l-44.57.32c-5.75,0-11.66,0-17.14-1.74-18.73-6.12-13.24-23.31-2.64-34.28,41.41-42.57,90.88-80.12,148.69-93.57,10.86-2.53,24.42-3.22,31,5.8,4.85,6.7,3.53,15.88,1.84,24-4.85,23.68-11,47.2-19.62,69.83-3.37,8.81-7.49,17.93-15.24,23.31-8.23,5.7-18.94,6-29,6C514.74,248.41,497,248.57,479.19,248.67Z"/><path class="cls-1" d="M301.55,265.87l211.76.32c4.33,0,8.76.05,12.77,1.68s7.43,5.38,7.43,9.71c0,8.12-10.49,11.34-18.61,11.92-29.33,2.16-58.81,2.11-88.24,2.06Q260.82,291.32,95,291c-6.65,0-15.51-.21-20.73-5s-6-13.66.79-17.78c4.27-2.58,9.55-2.69,14.56-2.69Z"/><path class="cls-1" d="M210.51,353.63a129.36,129.36,0,0,1,45.84,7.86c3.63,1.32,7.27,2.85,11.12,2.8,6.18-.11,11.45-4.27,17.09-6.86a36.09,36.09,0,0,1,24.53-2.05c6.22,1.68,12,5.11,18.25,6.64,14.24,3.54,28.8-2.64,43.09-5.91a109.8,109.8,0,0,1,58.65,2.8c2.59.84,5.33,1.95,6.75,4.22,2.9,4.59-1.05,10.44-5.11,14.08-14.72,13-33.76,20-52.91,24.37-12.07,2.74-27.16,3.43-34.23-6.7-3.27-4.69-5.53-11.87-11.23-11.76-2,.05-3.85,1.16-5.54,2.32-4.64,3.32-8.65,7.59-13.4,10.81s-10.65,5.43-16.19,4C287,397.68,280.34,383.75,270.06,386c-6.54,1.42-9.76,8.7-14.93,12.92-8.59,7-21.15,4.75-31.8,1.79-9.07-2.48-70.73-22.47-53.54-38.55,2.22-2.11,5.28-3.06,8.23-3.91A125,125,0,0,1,210.51,353.63Z"/><path class="cls-1" d="M493.38,324c-.27,3-2.48,5.8-5.07,7.49-5.38,3.54-12.18,3.8-18.62,4-111.28,2.69-222.57,3.64-333.86.68-6.65-.15-15-.47-20.52-4.74-7.33-5.7-3.22-12.66,4.64-15.62,4.59-1.68,9.55-1.74,14.45-1.74q171.76.33,343.58.69c6.32,0,14.55,1.58,15.4,7.81Z"/></g></g></svg>