<svg xmlns="http://www.w3.org/2000/svg" viewBox="0 0 657.39 346.68"><defs><style>.cls-1{fill:none;stroke:#1a459d;stroke-linecap:round;stroke-linejoin:round;stroke-width:15px;}</style></defs><g id="Layer_2" data-name="Layer 2"><g id="Layer_1-2" data-name="Layer 1"><polyline class="cls-1" points="79.82 132.65 131.6 22.96 154.02 138.12 211.1 63.42 238.49 216.68 155.34 193.6 313.01 65.36 334.99 191.28 251.4 115.48 421.72 149.93 431.99 7.5 390.64 197.47 362.7 87.27 483.38 113.61 507.12 70.55 468.87 67.9 425.86 195.87 506.79 134.81"/><polyline class="cls-1" points="608.98 175.05 625.38 177.37 612.79 163.79 575.63 175.6 649.89 198.85 623.33 138.23 542.84 171.02 634.1 247.98 560.56 287.79 513.42 177.92 529.15 296.12 452.74 324.33 448.33 274.31 510.66 266.42 484.1 192.66 419.84 217.95 427.02 336.98 357.68 247.1 345.42 330.63 301.81 255.6 322.18 266.42 249.91 303.35 274.54 269.62 309.21 331.18 206.74 336.75 242.57 258.03 170.19 274.98 206.8 235.62 190.73 339.18 116.59 255.66 169.09 242.13 119.29 202.22 113 325.38 71.21 169.09 28.42 158.55 7.5 294.69 89.48 318.54 61.33 190.01 38.2 192 21.3 279.17 63.76 293.14 53.43 205.97 45.04 242.24 37.92 270.12 51.83 276.3 48.41 265.65"/><polygon class="cls-1" points="272.82 209.23 272.82 228.66 342.22 218.94 272.82 209.23"/></g></g></svg>